<svg xmlns="http://www.w3.org/2000/svg" width="1001" height="1001"><path fill="#03225a" d="M469 60h98v12h48v12h24v12h12v12h12v12h12v24h12v24h12c1.39 2.77 1.12 5.02 1.12 8.12v3.97c0 1.45 0 2.91-.01 4.37v4.58c0 4.15 0 8.31-.01 12.46 0 4.34-.01 8.68-.01 13.02 0 8.22-.01 16.44-.02 24.66-.01 9.35-.01 18.71-.02 28.07-.01 19.25-.03 38.5-.05 57.75h11v61l-11 1v47h-13v24h-12v37h-12v24h-11v10h11v13h12v12c1.03-.21 2.06-.41 3.12-.62C682 553 682 553 688 555l-1 23h12v12h12c1.27 2.55 1.03 4.16.88 7.01-.05.98-.1 1.97-.15 2.99-.05 1.03-.11 2.06-.17 3.12-.05 1.05-.1 2.09-.16 3.16-.13 2.57-.26 5.15-.4 7.72h12v12h12v24h24v12c.86-.01.86-.01 5.21-.04 2.25 0 4.49-.01 6.73-.02l3.44-.03c1.08 0 2.16 0 3.27-.01 1 0 2-.01 3.03-.01C783 662 783 662 784 663c.07 1.69.08 3.38.06 5.06-.01.92-.02 1.84-.02 2.79-.02.71-.03 1.42-.04 2.15.69.03 1.38.05 2.1.08 3.11.11 6.22.23 9.34.36l3.3.12 3.13.12c.96.04 1.92.08 2.91.11C807 674 807 674 808 675v10l24 1v12h24v12h24v12h12v12h12v12h12v12h12v37h12v36h12v24h12v48h12v48h12v36h12v37H0V758h12v-24h12v-24h12v-12h24v-12h24v-12h24v-60h12v-24h12v-12h12v-12h12v-12h24v-12h24v-12c3.01-1.5 5.78-1.13 9.12-1.13.36 0 .36 0 2.13-.01 1.49 0 2.98.01 4.46.01 2.28 0 4.56 0 6.84-.01 1.44 0 2.88.01 4.33.01h3.99C238 529 238 529 240 530v-12c2.37-1.19 3.8-1.12 6.45-1.11h2.79c.5 0 .5 0 3.02.01.51 0 .51 0 3.08.01q4.89 0 9.78.03c2.21 0 4.42.01 6.63.01 5.41.01 10.83.03 16.25.05-.01-.78-.02-1.56-.04-2.37 0-.51 0-.51-.02-3.07-.01-1.01-.03-2.02-.04-3.06.1-2.5.1-2.5 1.1-3.5 1.71-.09 3.42-.11 5.13-.1.52 0 .52 0 3.13.01.55.01.55.01 3.3.03.55 0 .55 0 3.31.01 2.71.01 5.42.03 8.13.05-.01-.78-.02-1.56-.04-2.37 0-.51 0-.51-.02-3.07-.01-1.01-.03-2.02-.04-3.06.1-2.5.1-2.5 1.1-3.5 1.85-.23 3.7-.41 5.56-.56.51-.04.51-.04 3.07-.26.78-.06 1.56-.12 2.37-.18-.01-.71-.02-1.42-.04-2.15 0-.46 0-.46-.02-2.79-.01-.46-.01-.46-.04-2.77.1-2.29.1-2.29 1.1-3.29 1.78-.09 3.56-.11 5.35-.1 1.08.01 2.16.01 3.27.01l3.44.03c.57 0 .57 0 3.46.01 2.83.01 5.65.03 8.48.05v-23h-12c-1.03-3.1-1.12-5.23-1.11-8.48v-3.4c0-1.21.01-2.42.01-3.66 0-.62 0-.62.01-3.76 0-3.29.01-6.58.02-9.87.01-3.35.02-6.71.02-10.07.01-6.59.03-13.17.05-19.76-.78-.05-1.56-.1-2.37-.15-1.01-.07-2.02-.15-3.07-.23-1.01-.06-2.02-.13-3.06-.21-.82-.13-1.65-.27-2.5-.41-1.23-2.47-1.11-4.04-1.08-6.8 0-1.01.01-2.02.02-3.06.01-1.12.02-2.23.04-3.38 0-.59 0-.59.03-3.55.02-3.22.06-6.43.09-9.64l.09-10.08.18-19.08c.08-7.24.14-14.48.21-21.72.13-14.9.27-29.79.42-44.69h11l-.06-5.44c-.02-1.85-.01-3.71.06-5.56l1-1h12v-72h11c0-.46 0-.46-.02-2.77-.01-3.4-.03-6.8-.03-10.2l-.03-4.41c-.01-2.12-.01-4.23-.02-6.35 0-.64 0-.64-.01-3.86C360 161 360 161 361 156l11-1-.06-4.19c-.01-6.3.53-12.53 1.06-18.81h12v-12h12v-12h12V96h12V84h12V72h36z"/><path fill="#030101" d="M469 60h98v12h48v12h24v12h12v12h12v12h12v24h12v24h12c1.39 2.77 1.12 5.02 1.12 8.12v3.97c0 1.45 0 2.91-.01 4.37v4.58c0 4.15 0 8.31-.01 12.46 0 4.34-.01 8.68-.01 13.02 0 8.22-.01 16.44-.02 24.66-.01 9.35-.01 18.71-.02 28.07-.01 19.25-.03 38.5-.05 57.75h11v61l-11 1v47h-13v24h-12v37h-12v24h-11l-1 12 11-1v12h-23v12h12v24h-1v-23h-23v47h12v73h-13v36h-12v36h-12v48h-12v48h-12v-72h12v-48h12v-24h-11v12h-25v12h-85v-12h-36v-12h-23v12h11l1 23 12 1v12h12v12h-13v-12h-12v-12h-12v-24h-12v-12h-12v-12h-12v-24h-12v-12l-5.44.06c-1.85.02-3.71.01-5.56-.06-1-1-1-1-1.1-3.5.03-2.84.07-5.67.1-8.5h-12v-48h12v11h12v12h12v12l5.94-.06c2.02-.02 4.04-.01 6.06.06 1 1 1 1 1.1 3.5-.03 2.84-.07 5.67-.1 8.5h12v12h24v12h24v12l108 1v-13h24v-12h12v-12h13v-60h-13v12h-24v12h-24v12h-72v-12h-24v-12h-25v-11l-5.44.06c-1.85.02-3.71.01-5.56-.06-1-1-1-1-1.1-3.72.03-3.1.07-6.19.1-9.28h-12v-12h-12v-12h-12v-12h-12v12h-12v12h-12v36h-12v-48h-12v-24h24v-12h-12v-12h-11v-12h23v-24h-12c-1.03-3.1-1.12-5.23-1.11-8.48v-3.4c0-1.21.01-2.42.01-3.66s.01-2.48.01-3.76c0-3.29.01-6.58.02-9.87.01-3.35.02-6.71.02-10.07.01-6.59.03-13.17.05-19.76-.78-.05-1.56-.1-2.37-.15-1.01-.07-2.02-.15-3.07-.23-1.01-.06-2.02-.13-3.06-.21-.82-.13-1.65-.27-2.5-.41-1.23-2.47-1.11-4.04-1.08-6.8 0-1.01.01-2.02.02-3.06.01-1.12.02-2.23.04-3.38l.03-3.55c.02-3.22.06-6.43.09-9.64l.09-10.08.18-19.08c.08-7.24.14-14.48.21-21.72.13-14.9.27-29.79.42-44.69h11l-.06-5.44c-.02-1.85-.01-3.71.06-5.56l1-1h12v-72h11c-.01-.91-.01-1.83-.02-2.77-.01-3.4-.03-6.8-.03-10.2l-.03-4.41c-.01-2.12-.01-4.23-.02-6.35 0-1.27-.01-2.55-.01-3.86C360 161 360 161 361 156l11-1-.06-4.19c-.01-6.3.53-12.53 1.06-18.81h12v-12h12v-12h12V96h12V84h12V72h36z"/><path fill="#06579d" d="m37 711 10.81-.06 3.34-.03c6.68-.02 13.2.39 19.85 1.09.16 1.98.16 1.98 1 12 1.48.33 1.48.33 9 2l3 10 10 1 1 21 13 1v24h12v24h13v24h12v24h12v48h12v36h24v-11h72v-13h84v-12h36v-12h25v-23h23v12h12v24h12l1 11 12 1v-12h11v12h12v23h-11v-12h-13v13h12v12h13v12h12v12h12v12h12v36H0V783h14v-22h11v-26h12z"/><path fill="#f4ae87" d="M446 157h84v12h84v12h24v12h12c.77 8.05 1.1 15.91 1 24h12v72h12v48h12v-12h12v-5h1v5h6v1h-7v12h-12v12h-12v11h-12v61h-12l.06 5.25c.01 6.3-.46 12.48-1.06 18.75h-11v12h-25v-24h-12v-36h-12v11h-12v-11l-4.94.06c-1.68.02-3.37.01-5.06-.06-1-1-1-1-1.1-3.5.03-2.84.07-5.67.1-8.5h11v-13h-12v-12h-12v-24h12v-11h12v11h24v-12h12v-12h-36v-12h49v12h24v-12h-12v-12h-24v-12h-37v12h-12v12h-12v12h-12v49h12v12h12v11h-24v13h-24v-12h-36v12h-36v12h-13v11l-11 1-1 24h-12v-12h-11c-.77-8.05-1.1-15.91-1-24h-12v-12h-12V265h12v-12h12v-12h12v-60h12v-12h25z"/><path fill="#f5c402" d="M133 663h47v12h49v12h24v12h24v12h36v12h12v12h12v12h12v12h24v12h12v12h12v12h12v12h12c.64 20.34 1.17 40.65 1 61h-12v23h-25v12h-36v12h-84v13h-72v11h-24v-36h-12v-48h-12v-24h-12v-24h-13v-24h-12v-24H97c-1-1-1-1-1.11-3.22 0-.96.01-1.92.01-2.91.01-1.03.01-2.07.01-3.13.01-.55.01-.55.03-3.3 0-1.09.01-2.19.01-3.31.01-2.71.03-5.42.05-8.13H84v-12H72v-12H61v-12h24v-12h24v-12h24zm640.188-1.125c1 0 1.99-.01 3.02-.01h2.71c.77 0 1.54 0 2.34.01 1.74.12 1.74.12 2.74 1.12.07 1.69.09 3.38.07 5.07l-.03 2.78c-.01.36-.01.36-.04 2.15.69.03 1.39.06 2.1.08l9.34.36 3.3.12c.52.02.52.02 3.13.13.96.04 1.92.07 2.91.11 2.22.2 2.22.2 3.22 1.2.07 1.69.09 3.38.07 5.07l-.03 2.78c-.01.36-.01.36-.04 2.15-.66.34-1.32.66-2 1v-11h-23v12h24v12h24v12h24v12h24v12h12v12h13v96h-12v60h-13v73h-36v-12h-24v-12h-48v-12c-1.45.01-2.9.02-4.39.02-5.35.02-10.71.03-16.06.04-2.32 0-4.64.01-6.96.02-3.33.01-6.66.02-9.99.02-.52.01-.52.01-3.17.02h-2.91c-.85 0-1.7 0-2.57.01-1.95-.13-1.95-.13-2.95-1.13-.07-1.85-.08-3.7-.06-5.56l.03-3.06.03-2.38c-.72.04-1.44.08-2.18.11-3.25.16-6.5.31-9.75.46-1.14.05-2.28.11-3.45.17-1.08.05-2.16.09-3.27.14l-3.03.15c-2.32-.03-2.32-.03-3.32-1.03-.14-3.66-.04-7.32 0-11h-11v-13h-12v-12h-12v-37h-11c-.02-6.57-.04-13.15-.05-19.73-.01-2.24-.01-4.47-.02-6.7-.09-23.78-.09-23.78 1.07-35.57l-2.29.03c-5.42.07-5.42.07-7.71-.03-1-1-1-1-1.06-4.56l.06-3.44c.71-.06 1.42-.12 2.15-.18.92-.08 1.84-.17 2.79-.25.92-.08 1.83-.16 2.78-.25 2.28-.32 2.28-.32 3.28-1.32.15-1.54.23-3.1.28-4.65l.12-2.85c.03-.99.07-1.98.1-3 .07-1.94.14-3.89.22-5.84l.09-2.63c.19-2.03.19-2.03 1.19-3.03 3.34-.14 6.66-.04 10 0l1-12c2.57-.22 5.15-.45 7.72-.68 2.28-.32 2.28-.32 3.28-1.32.15-1.54.23-3.1.28-4.65l.12-2.85c.03-.99.07-1.98.1-3 .07-1.94.14-3.89.22-5.84l.09-2.63c.19-2.03.19-2.03 1.19-3.03 2.99-.45 5.99-.7 9-1v-13h12v-24h12v-12h12v-12c34.92-1.09 34.92-1.09 50.19-1.12"/><path fill="#05579e" d="M783 675h23v11h26v12h24v12h24v12h12v12h12v12h12v12h12v37h12v36h12v24h12v48h12v48h12v36h12v37H566v-24h25v-12h23v-12h13v-12h12v-13h-13v12h-12v12h-23v-11h12v-12h12v-12h12v-12h12v-13l-12 1-1 11h-12v12h-12v12h-12v12h-11v-23h12v-12h11v-25h12v-36h12v-24h13v-12h11v24h12v37h12v12h12v13h11l1 11h24l1 11 48 1v12h48v12h24v12h36v-73h13v-60h12v-96h-13v-12h-12v-12h-24v-12h-24v-12h-24v-12h-24z"/><path fill="#3e281f" d="M469 60h98v12h48v12h24v12h12v12h12v12h12v24h12v24h12c1.39 2.78 1.1 5.01 1.08 8.12 0 1.31-.01 2.62-.02 3.97-.01 1.45-.03 2.91-.04 4.37l-.03 4.58c-.02 4.15-.06 8.31-.09 12.46l-.09 13.02-.18 24.66c-.08 9.35-.14 18.71-.21 28.07q-.195 28.875-.42 57.75h-12v12h-12v-48h-12v-72h-12c-.77-8.05-1.1-15.91-1-24h-12v-12h-24v-12h-84v-12h-84v12h-25v12h-12v60h-12v12h-12v12h-12v133h-12v-13h11c-.17-1.58-.33-3.15-.51-4.78-.54-5.96-.53-11.82-.37-17.79.01-.53.01-.53.07-3.19.08-3.31.16-6.62.25-9.93.05-2.26.1-4.52.16-6.78.12-5.51.26-11.02.4-16.53l-9 1-1 35h-12v36h-12v15l-2 1v-15c-1.79-.12-3.59-.25-5.44-.38-3.06-.21-3.06-.21-5.56-.62-1.23-2.47-1.11-4.04-1.08-6.8 0-1.01.01-2.02.02-3.06.01-1.12.02-2.23.04-3.38l.03-3.55c.02-3.22.06-6.43.09-9.64l.09-10.08.18-19.08c.08-7.24.14-14.48.21-21.72.13-14.9.27-29.79.42-44.69h11l-.06-5.44c-.02-1.85-.01-3.71.06-5.56l1-1h12v-72h11c-.01-.91-.01-1.83-.02-2.77-.01-3.4-.03-6.8-.03-10.2l-.03-4.41c-.01-2.12-.01-4.23-.02-6.35 0-1.27-.01-2.55-.01-3.86C360 161 360 161 361 156l11-1-.06-4.19c-.01-6.3.53-12.53 1.06-18.81h12v-12h12v-12h12V96h12V84h12V72h36z"/><path fill="#373e54" d="M627 555h23v23h13v24h12v12h-13v24h-12v49h12v12h12v23h-11v25h-12v12h-13v24h-12v24h-12v24h-12v24h-12v37h-11v24h-13v-25h-12v12h-24v-24h-24v-24h-12v-11c-.85.01-1.71.02-2.59.04-.55 0-.55 0-3.35.02-1.1.01-2.2.03-3.34.04C482 844 482 844 481 843c-.09-1.63-.11-3.27-.1-4.91.01-.99.01-1.98.01-3l.03-3.15c0-1.05.01-2.09.01-3.17.01-2.59.03-5.18.05-7.77-.85.01-1.71.02-2.59.04-.55 0-.55 0-3.35.02-1.1.01-2.2.03-3.34.04C469 821 469 821 468 820c-.07-2.02-.08-4.04-.06-6.06.01-1.11.02-2.21.02-3.35.02-.85.03-1.71.04-2.59h-10v-13h-12v-12h-12v-12h-13v-12h-12v-12h-12v-12h-24v-12h-12v-12h-12v-13h12v-47h12v12h12v24h12v12h12v12h12v24h12v12h12v12h13v-12h-12v-12l-5.94.06c-2.02.02-4.04.01-6.06-.06-1-1-1-1-1.11-3.22 0-.48 0-.48.01-2.91 0-.52 0-.52.01-3.13.01-.55.01-.55.03-3.3 0-1.09.01-2.19.01-3.31.01-2.71.03-5.42.05-8.13h-11v-12h23v12h36v12h85v-12h25v-12h11v24h-12v48h-12v72h12v-48h12v-48h12v-36h12v-36h13v-73h-12z"/><path fill="#05579e" d="M410 868h23v12h12v24h12l1 11c1.98.16 1.98.16 12 1v-12h11v12h12v23h-11v-12h-13v13h12v12h13v12h12v12h12v12h12v36H289v-12h-48v-12h-12v-13h-12v-11h-12v-13h-12v-23h-24v-1h24v-11h72v-13h84v-12h36v-12h25z"/><path fill="#c3745b" d="M327.317 480.886c1 .01 2 .01 3.03.02 1.08 0 2.16 0 3.27.01.57 0 .57 0 3.45.02.57 0 .57 0 3.45.01 2.83.02 5.66.03 8.48.05v1h-23v12h11v12h12v12h-24v24h12v48h12v-36h12v-12h12v-12h12v12h12v12h12v12h12l1 12 11 1v11h25v12h24v12h72v-12h24v-12h24v-12h13v60h-13v12h-12v12h-24v13c-12.31.03-24.62.04-36.93.06-5.71 0-11.43.01-17.15.02-5.52.01-11.04.02-16.57.02-2.1 0-4.2 0-6.3.01-10.41.03-20.68 0-31.05-1.11v-12h-24v-12h-24v-12h-12l-1-11-12-1v-12h-12v-12h-12v-11h-12v47h-24v-12h-84v-12h-12v13h-36v-13h-24v-12h11v-12h13v-12h24v-12h12v-12h24v-12h24v-12h24v-12h12v-12h12v-12h-12v-1l11-1-.06-4.93c-.02-1.69-.01-3.38.06-5.07 1-1 1-1 3.32-1.11"/><path fill="#000103" d="M652 529h11v13h12v12c1.03-.21 2.06-.41 3.12-.62C682 553 682 553 688 555l-1 23h12v12h12c1.27 2.55 1.03 4.16.88 7.01-.05.98-.1 1.97-.15 2.99-.05 1.03-.11 2.06-.17 3.12-.05 1.05-.1 2.09-.16 3.16-.13 2.57-.26 5.15-.4 7.72h12v12h12v24h24v13h-36v12h-12v12h-12v24h-12l.25 2.81c.11 1.2.21 2.39.31 3.63.11 1.19.21 2.39.32 3.62L688 724c-1.58 1.58-3.38 1.35-5.56 1.56-.83.09-1.66.17-2.51.26-.63.06-1.27.12-1.93.18l-.06 1.9c-.1 2.82-.2 5.65-.32 8.48l-.09 2.98-.12 2.85c-.01.44-.01.44-.09 2.64C677 747 677 747 675 749c-2.38.2-2.38.2-5.12.12-.92-.01-1.83-.03-2.76-.05-.7-.02-1.4-.05-2.12-.07.01.7.02 1.4.04 2.12 0 .45 0 .45.02 2.76.01.45.01.45.04 2.74C665 759 665 759 664 761c-2.29.41-2.29.41-5.06.62-.46.04-.46.04-2.79.23L654 762l-.06 1.9c-.1 2.82-.2 5.65-.32 8.48l-.09 2.98-.12 2.85c-.01.44-.01.44-.09 2.64C653 783 653 783 651 785c-2.38.2-2.38.2-5.12.12-.92-.01-1.83-.03-2.76-.05-.35-.01-.35-.01-2.12-.07l1 7 10 1-1 62h-1v-24h-11v12h-13v24h-12v36h-12v25h-11v12h-12v23h11v-12h12v-12h12v-12h12l-.06-5.44c-.02-1.85-.01-3.71.06-5.56 1-1 1-1 3.72-1.1 3.1.03 6.19.07 9.28.1v13h-12v12h-12v12h-12v12h-12v11h23v-12h12v-12h13v13h-12v12h-13v12h-23v12h-25v24h-36v-36h-12v-12h-12v-12h-12v-12h-13v-12h-12v-13h13v12h11v-23h-12v-12h-11v12c-9.28.1-9.28.1-12 0-1-1-1-1-1.1-3.5.03-2.84.07-5.67.1-8.5h-12v-24h-12v-12h-11c-1.06-20.34-1.11-40.64-1-61h-12v-12h-12v-12h-12v-12h12l1 11 12 1v12h12v12h12v12h12v12h12v12h12v12h12v24h12v12h12v24h12v-36h12v24h24v-12h12v25h13v-24h11v-37h12v-24h12v-24h12v-24h12v-24h13v-12h12v-25h11v-23h-12v-12h-12v-49h12v-24h13v-12h-12v-24h-12v-24h-12v-12h23v-12l-4 1c-2.33.04-4.67.04-7 0z"/><path fill="#f5ae87" d="M446 157h84v12h36v12h-72v12h-12v12h-12v12h12v24h-37v12h13v12h36v12h12v24h12v60c-8.25.69-15.82 1.1-24 1v12h-12v11h24v-11h12v12h-36v12h-36v12h-13v11l-11 1-1 24h-12v-12h-11c-.77-8.05-1.1-15.91-1-24h-12v-12h-12V265h12v-12h12v-12h12v-60h12v-12h25z"/><path fill="#07579c" d="M783 675h23v11h26v12h24v12h24v12h12v12h12v12h12v12h12v37h12v36h12v24h12v48h12v48h12v36h12v37H867v-24h12v-97h13v-60h12v-96h-13v-12h-12v-12h-24v-12h-24v-12h-24v-12h-24z"/><path fill="#3d261e" d="M566 96h12v12h12v12h-12v-11h-12c.16 1.75.33 3.51.5 5.31.5 5.92.58 11.75.5 17.69h11v13h12v-24h13v11h11l-.06-4.75c-.01-6.13.49-12.15 1.06-18.25h11v23l5.94-.06c2.02-.02 4.04-.01 6.06.06 1 1 1 1 1.11 3.22 0 .96-.01 1.92-.01 2.91-.01 1.03-.01 2.07-.01 3.13l-.03 3.3c0 1.09-.01 2.19-.01 3.31-.01 2.71-.03 5.42-.05 8.13h11v-36h-11v-12h11V97h-11v-1h12v12h12v12h12v24h12v24h12c1.39 2.78 1.1 5.01 1.08 8.12 0 1.31-.01 2.62-.02 3.97-.01 1.45-.03 2.91-.04 4.37l-.03 4.58c-.02 4.15-.06 8.31-.09 12.46l-.09 13.02-.18 24.66c-.08 9.35-.14 18.71-.21 28.07q-.195 28.875-.42 57.75h-12v12h-12v-48h-12v-72h-12c-.77-8.05-1.1-15.91-1-24h-12v-12h-24v-12h-84v-12h-84v12h-25v12h-24v-13h12l-.06-4.75c-.01-6.13.49-12.15 1.06-18.25h11v-12h73v-12h24v11h12v-12h12v-11h-24V97h24v11h24z"/><path fill="#fbcfac" d="M494 181h96v12h12v12h12v24h-12v12h-12v12h24v12h12v12h-48v12h-12v12h-12v12h-12v49h12v12h12v11h-24v13h-24v-24h-12v11h-24v-11h12v-12c8.14-.78 15.73-1 24-1v-60h-12v-24h-12v-12h-36v-12h-13v-12h37v-24h-12v-12h12v-12h12z"/><path fill="#1b1f30" d="M626 554h25v24h-1v-23h-23v47h12v73h-13v36h-12v36h-12v48h-12v48h-12v-72h12v-48h12v-24h-11v12h-25v12h-85v-12h-36v-12h-23v12h11l1 23 12 1v12h12v12h-13v-12h-12v-12h-12v-24h-12v-12h-12v-12h-12v-24h-12v-12l-5.44.06c-1.85.02-3.71.01-5.56-.06-1-1-1-1-1.1-3.5.03-2.84.07-5.67.1-8.5h-12v-48h12v11h12v12h12v12l5.94-.06c2.02-.02 4.04-.01 6.06.06 1 1 1 1 1.1 3.5-.03 2.84-.07 5.67-.1 8.5h12v12h24v12h24v12l108 1v-13h24v-12h12v-12h12v1h-11v12l11-1 1-11h11v35h12v-71h-12z"/><path fill="#f4c405" d="M327.317 480.886c1 .01 2 .01 3.03.02 1.08 0 2.16 0 3.27.01.57 0 .57 0 3.45.02.57 0 .57 0 3.45.01 2.83.02 5.66.03 8.48.05v1h-23v12h11v12h12v12h-24v24h12v49h11v46h-22l-1-10c-13.86-.16-13.86-.16-84-1v-12h-12v13h-36v-13h-24v-12h11v-12h13v-12h24v-12h12v-12h24v-12h24v-12h24v-12h12v-12h12v-12h-12v-1l11-1-.06-4.93c-.02-1.69-.01-3.38.06-5.07 1-1 1-1 3.32-1.11"/><path fill="#02215a" d="M121 807h12v24h12v24h12v48h12v37h24v23h12v13h12v11h12v13h12v12h48v12H133v-12h-12v-12h-12v-24H97v-24h12v-24h11v24h12v24h13v-25h-12v-48h-12v-35h11v23h13c-.16-5.77-.16-5.77-1-35l-11-1-1-23-11-1z"/><path fill="#08569a" d="M253 627h12v11h59v2h35v57h-9v-11h-12v-12h-25v-12h-11v-12h-14v13h13v12h12v12h24v12h11c.16 2.14.16 2.14 1 13l10 1v12l5.44-.06c1.85-.02 3.71-.01 5.56.06 2.6 2.6 1 7.32 1 11h25l1 10 12 1v12h12v12h13v12h12v12h12v13h10l1 12 12 1 1 22 12 1v11h12v24h12v36h-12v-24h-12v-12h-12v-24h-12v-12h-12v-12h-12v-12h-12v-12h-12v-12h-12v-12l-5.94.06c-2.02.02-4.04.01-6.06-.06l-1-1v-11h-24v-12h-24v-12h-12v-12h-12v-12h-12v-25h-12v-11h-12v-12h-12v-12l-5.94.06c-2.02.02-4.04.01-6.06-.06-1-1-1-1-1.11-3.22 0-.96.01-1.92.01-2.91.01-1.03.01-2.07.01-3.13l.03-3.3c0-1.09.01-2.19.01-3.31.01-2.71.03-5.42.05-8.13h-11z"/><path fill="#a26c02" d="M180 675h49v12h24v12h24v12h36v12h12v12h12v12h12v12h24v12h12v12h12v12h12v12h12c.64 20.34 1.17 40.65 1 61h-12v23h-1v-47h-12v-13h-12v-12h-12v-12h-12v-12h-12v-12h-24v-12h-12v-12h-12v12h-12v36h-12v-48h-12v-12h-12v-12h-12v-12h-12v-12h-12v-12h-12v-12h-25z"/><path fill="#f3c307" d="M627 555h23v23h13v24h12v12h-13v24h-12v49h12v12h12v23h-11v25h-12v12h-13v24h-12v24h-12v24h-12v24h-12v36h-12v-48h12v-48h12v-48h12v-36h12v-36h13v-73h-12z"/><path fill="#f5ad86" d="M373 566h12v12h12v12h13v12h11v12h25v12h12v13h36v12h48v-12h24v-13h24v-12h12v-12h12v24h-12v24h-12v12h-24v13c-12.31.02-24.62.04-36.93.05-5.72.01-11.43.01-17.15.03-5.52.01-11.05.01-16.57.01-2.1.01-4.2.01-6.3.02-10.42.02-20.69 0-31.05-1.11v-12h-24v-12h-24v-12h-12c-.17-1.82-.17-1.82-1-11l-12-1v-12h-12v-24h-12v-12h12z"/><path fill="#03235b" d="M652 529h11v13h12v12c1.03-.21 2.06-.41 3.12-.62C682 553 682 553 688 555l-1 23h12v12h12c1.27 2.55 1.03 4.16.88 7.01-.05.98-.1 1.97-.15 2.99-.05 1.03-.11 2.06-.17 3.12-.05 1.05-.1 2.09-.16 3.16-.13 2.57-.26 5.15-.4 7.72h12v12h12v24h24v13h-36v12h-12v12h-24v23h-11v-12h-2v-2l-3.94.06c-1.35.02-2.71.01-4.06-.06-2.27-2.27-1.74-8.11-2-11h-12v-45c1.65-.16 1.65-.16 10-1l1-25h12v-12h-12v-24h-12v-24h-12v-12h23v-12l-4 1c-2.33.04-4.67.04-7 0z"/><path fill="#042055" d="M662 614h1c.03 4.15.05 8.29.06 12.44l.03 3.59c0 1.12 0 2.24.01 3.4 0 1.05.01 2.09.01 3.16C663 639 663 639 662 640h-10v45h12l2 10 8 1v2h2v12h11v-23h12v24h-12c.08.93.17 1.85.25 2.81a1340 1340 0 0 0 .63 7.25L688 724c-1.58 1.58-3.38 1.35-5.56 1.56-.83.09-1.66.17-2.51.26-.63.06-1.27.12-1.93.18l-.06 1.9c-.1 2.82-.2 5.65-.32 8.48l-.09 2.98-.12 2.85-.09 2.64C677 747 677 747 675 749c-2.38.2-2.38.2-5.12.12-.92-.01-1.83-.03-2.76-.05-.7-.02-1.4-.05-2.12-.07.01.7.02 1.4.04 2.12 0 .91.01 1.82.02 2.76.01.9.03 1.8.04 2.74C665 759 665 759 664 761c-2.29.41-2.29.41-5.06.62-.46.04-.46.04-2.79.23-.35.03-.35.03-2.15.15l-.06 1.9c-.1 2.82-.2 5.65-.32 8.48l-.09 2.98-.12 2.85-.09 2.64C653 783 653 783 651 785c-2.38.2-2.38.2-5.12.12-.92-.01-1.83-.03-2.76-.05-.7-.02-1.4-.05-2.12-.07.16 1.15.16 1.15 1 7l10 1-1 62h-1v-24h-11v12h-13v24h-12v36h-12v25h-11v12h-12v23h11v-12h12v-12h12v-12h12l-.06-5.44c-.02-1.85-.01-3.71.06-5.56 1-1 1-1 3.72-1.1 3.1.03 6.19.07 9.28.1v13h-12v12h-12v12h-12v12h-12v11h23v-12h12v-12h13v13h-12v12h-13v12h-23v12h-25v-60h12c-.01-1.45-.02-2.91-.04-4.41-.07-14.56.32-29.05 1.04-43.59h11v-37h12v-24h12v-24h12v-24h12v-24h13v-12h12v-25h11v-23h-12v-12h-12v-49h12z"/><path fill="#02235d" d="M892 843h11v60c-1.65.16-1.65.16-10 1l-1 35h11v-12h12v-36h13v49h-12v23h11v-12h12v-36h13v49h-12v12h-13v11h-11v-23h-13v24h12v12h-12v12h13v-12h23v-13h13v13h-12v24h-73v-24h12v-97h13z"/><path fill="#080403" d="M566 96h12v12h12v12h-12v-11h-12c.16 1.75.33 3.51.5 5.31.5 5.92.58 11.75.5 17.69h11v13h-12v23h-36v-11h-84v12h-25v12h-24v-13h12l-.06-4.75c-.01-6.13.49-12.15 1.06-18.25h11v-12h73v-12h24v11h12v-12h12v-11h-24V97h24v11h24z"/><path fill="#cb9105" d="M903 747h1v96h-12v60h-13v73h-36v-12h-24v-12h-48v-12h-48v-1h60v12h12v-24h12v-36h12V759h12v48h12v156l3 1v9c4.11-.12 8.22-.24 12.34-.37 1.39-.05 2.79-.09 4.19-.13 2.01-.05 4.02-.12 6.03-.18 1.21-.04 2.42-.08 3.66-.11C875 972 875 972 876 971c.12-2.15.18-4.3.21-6.45l.03-2.04c.03-2.23.05-4.47.08-6.7l.06-4.64.15-12.22c.05-4.16.11-8.32.16-12.47.11-8.16.21-16.32.31-24.48 3-1 3-1 12-1v-59h2v-23h12z"/><path fill="#5f4c20" d="M133 579h12v12h-12v23h12v12h12v12h24v24c2.46-.01 4.92-.02 7.45-.04 2.43 0 4.85-.01 7.27-.01l4.99-.03c9.5-.04 18.83.11 28.29 1.08v12h-49v-12h-47v12h-24v12H85v12H61v12h11v12h12v12h12v23c-2-2-2-2-2.23-3.97l.03-2.38c.01-.85.02-1.7.02-2.58l.06-2.69c0-.9.01-1.8.02-2.72.03-2.22.06-4.44.1-6.66-.7.03-1.4.07-2.12.11-.91.02-1.82.05-2.76.08-.9.03-1.8.07-2.74.1-.39-.05-.39-.05-2.38-.29-2.57-3.85-2.55-6.43-3-11l-1.93-.18c-.83-.09-1.66-.17-2.51-.26l-2.49-.24C72 725 72 725 71 724v-12c-5.61-.16-5.61-.16-34-1v24H25v26H14c.09.7.09.7.56 4.25.62 6.03.07 11.73-.56 17.75H0v-25h12v-24h12v-24h12v-12h24v-12h24v-12h24v-60h12v-24h13z"/><path fill="#a65850" d="M470 434h72v12h25v11h11v-11h12v36h-12v12h-24v-12h-72v12h-12v-12h-13v-12h-11v-24h12v11h23v-11h-11z"/><path fill="#a36d01" d="M773.188 661.875c1 0 1.99-.01 3.02-.01h2.71c.77 0 1.54 0 2.34.01 1.74.12 1.74.12 2.74 1.12.07 1.69.09 3.38.07 5.07l-.03 2.78c-.01.36-.01.36-.04 2.15.69.03 1.39.06 2.1.08l9.34.36 3.3.12c.52.02.52.02 3.13.13.96.04 1.92.07 2.91.11 2.22.2 2.22.2 3.22 1.2.07 1.69.09 3.38.07 5.07l-.03 2.78c-.01.36-.01.36-.04 2.15-.66.34-1.32.66-2 1v-11h-23v12h24v12h24v12h24v11h-1l-1-9c-.65.01-1.31.02-1.99.02-2.96.02-5.92.03-8.88.05-.52 0-.52 0-3.13.02-.99.01-1.97.01-2.99.01-.91.01-1.82.01-2.76.02-2.25-.12-2.25-.12-4.25-1.12v-11c-.82.01-.82.01-4.99.04l-6.44.03c-1.09.01-2.18.01-3.3.02-1.04.01-2.07.01-3.14.01-.96.01-1.92.01-2.9.02-2.23-.12-2.23-.12-3.23-1.12-.14-4-.04-7.99 0-12h-23c-1.26-2.52-1.1-4.31-1.06-7.12l.03-2.76c0-.35 0-.35.03-2.12-.34.01-.34.01-2.09.02-3.12.02-6.23.03-9.34.05-1.09.01-2.18.01-3.3.02-1.04.01-2.07.01-3.14.01-.48.01-.48.01-2.9.02-2.23-.12-2.23-.12-3.23-1.12v-10h-21l1 56c1.32-.33 2.64-.65 4-1 2.36.59 4.7 1.25 7 2 .03 2.15.05 4.3.07 6.44l.03 3.62c-.1 2.94-.1 2.94-1.1 3.94-2.18.08-4.37.09-6.56.07-.6-.01-.6-.01-3.63-.03-.46-.01-.46-.01-2.81-.04-1.26-2.52-1.1-4.31-1.06-7.12l.03-2.76.03-2.12c-.72.19-1.44.38-2.19.57-2.81.43-2.81.43-7.81-.57v-13h-12v48h-12v-12h-12v24h-12v24h-12v96h12v12h12v12h12v12h24v12h-1v-11c-.86.05-.86.05-5.21.26-2.24.1-4.48.2-6.72.31-1.14.05-2.28.11-3.45.17-1.08.05-2.16.09-3.27.14l-3.03.15c-2.32-.03-2.32-.03-3.32-1.03-.14-3.66-.04-7.32 0-11h-11v-13h-12v-12h-12v-37h-11c-.02-6.57-.04-13.15-.05-19.73-.01-2.24-.01-4.47-.02-6.7-.09-23.78-.09-23.78 1.07-35.57l-2.29.03c-5.42.07-5.42.07-7.71-.03-1-1-1-1-1.06-4.56l.06-3.44c.71-.06 1.42-.12 2.15-.18.92-.08 1.84-.17 2.79-.25.92-.08 1.83-.16 2.78-.25 2.28-.32 2.28-.32 3.28-1.32.15-1.54.23-3.1.28-4.65l.12-2.85c.03-.99.07-1.98.1-3 .07-1.94.14-3.89.22-5.84l.09-2.63c.19-2.03.19-2.03 1.19-3.03 3.34-.14 6.66-.04 10 0l1-12c2.57-.22 5.15-.45 7.72-.68 2.28-.32 2.28-.32 3.28-1.32.15-1.54.23-3.1.28-4.65l.12-2.85c.03-.99.07-1.98.1-3 .07-1.94.14-3.89.22-5.84l.09-2.63c.19-2.03.19-2.03 1.19-3.03 2.99-.45 5.99-.7 9-1v-13h12v-24h12v-12h12v-12c34.92-1.09 34.92-1.09 50.19-1.12"/><path fill="#3e281f" d="M530 482h24v12h24v-12h12v12h12v12h-12v12h-24v12h12v12h12v12h-12v12h-12v-24h-12v24h-12v-36h-12v24h-24v-12h-12v24h-12v-12h-13v12h-11v-48h11v24h13v-24h12v12h12v-12h24v-12h12v-12h-12z"/><path fill="#f2c308" d="M361 651h12v12h12v24h12v12h12v12h12v24h12v12h12v12h13v24h12v24h12v24h12v13c-9.28.1-9.28.1-12 0-1-1-1-1-1.11-3.13 0-.92.01-1.84.01-2.78.01-.99.01-1.98.01-3l.03-3.15c0-1.05.01-2.09.01-3.17.01-2.59.03-5.18.05-7.77-.85.01-1.71.02-2.59.04-1.1 0-2.21.01-3.35.02-1.1.01-2.2.03-3.34.04C469 821 469 821 468 820c-.07-2.02-.08-4.04-.06-6.06.01-1.11.02-2.21.02-3.35.02-.85.03-1.71.04-2.59h-10v-13h-12v-12h-12v-12h-13v-12h-12v-12h-12v-12h-24v-12h-12v-12h-12v-13h12z"/><path fill="#043978" d="M433 820v12h12v12h12v11h12l1 24 11 1c.17 1.82.17 1.82 1 11l11 1 1 23c1.81.16 1.81.16 11 1v12h12v23h13v25h12v48h-12v-36h-12v-12h-12v-12h-12v-12h-13v-12h-12v-13h13v12h11v-23h-12v-12h-11v12c-9.28.1-9.28.1-12 0-1-1-1-1-1.1-3.5.03-2.84.07-5.67.1-8.5h-12v-24h-12v-12h-11c.12-6.53.24-13.07.37-19.6.05-2.22.09-4.45.13-6.67.05-3.19.12-6.38.18-9.57.02-1 .04-2 .05-3.03l.06-2.79c.01-.41.01-.41.05-2.47C423 822 423 822 424 821c6.11-1 6.11-1 9-1"/><path fill="#04235b" d="M312 494h13v12h-12v12h-12v12h-24v12h-24v12h-24v12h-12v12h-24v12h-13v12h-11v12h24v12h-12l-1-9-12-1v-2h-11v-24h12v-12h11v-11l-5.31.06c-5.96.01-11.77-.44-17.69-1.06v-12h23v-12h24v-12c3.01-1.5 5.78-1.13 9.12-1.13.36 0 .36 0 2.13-.01 1.49 0 2.98.01 4.46.01 2.28 0 4.56 0 6.84-.01 1.44 0 2.88.01 4.33.01h3.99C238 529 238 529 240 530v-12c2.37-1.19 3.8-1.12 6.45-1.11h2.79c.5 0 .5 0 3.02.01.51 0 .51 0 3.08.01q4.89 0 9.78.03c2.21 0 4.42.01 6.63.01 5.41.01 10.83.03 16.25.05-.01-.78-.02-1.56-.04-2.37 0-1.01-.01-2.02-.02-3.07-.01-1.01-.03-2.02-.04-3.06.1-2.5.1-2.5 1.1-3.5 1.71-.09 3.42-.11 5.13-.1.52 0 .52 0 3.13.01l3.3.03c.55 0 .55 0 3.31.01 2.71.01 5.42.03 8.13.05z"/><path fill="#3c4e5e" d="M783 675h23v11h26v12h24v12h24v12h12v12h12v12h12v12h12v37h12v36h12v24h12v48h12v48h12v36h12v37h-12v-36h-13v-36h-12v-48h-11c-1-1-1-1-1.12-3.82 0-1.25 0-2.51.01-3.81v-2.1c0-2.3 0-4.6.01-6.9 0-1.59.01-3.18.01-4.77 0-4.19.01-8.39.02-12.58.01-4.28.02-8.55.02-12.83.01-8.4.03-16.79.05-25.19h-11v23h-1v-23h-13v-36h-12v-35c-1.15.16-1.15.16-7 1l-1 81h-2v-96h-13v-12h-12v-12h-24v-12h-24v-12h-24v-12h-24z"/><path fill="#f5b189" d="M566 326h12v11h25v-11h11v12h12v11h13v13h11v23h-12v12h-12v12h-11v-11h-25v11h-12v-11l-4.94.06c-1.68.02-3.37.01-5.06-.06-1-1-1-1-1.1-3.5.03-2.84.07-5.67.1-8.5h11v-13h-12v-12h-12v-24h12z"/><path fill="#bf745d" d="M578 277h37v12h24v12h12v12h-24v-12h-49v12h36v12h-12v12h-24v-11h-12v11h-12v24h12v12h12v13h-11l1 11 10 1v11h12v-11h12v24h-12v-12h-24v-12h-24v-13h24v-11h-12v-12h-12v-49h12v-12h12v-12h12z"/><path fill="#f4ad86" d="M506 277h36v12h24v12h-12v12h-12v49h12v12h12v11h-24v13h-24v-24h-12v11h-24v-11h12v-12c8.14-.78 15.73-1 24-1v-60h-12z"/><path fill="#775540" d="M518 84h24v12h12V84h36v12h13v12h11V96c9.28-.1 9.28-.1 12 0 1 1 1 1 1.1 3.5-.03 2.84-.07 5.67-.1 8.5h12v12h11v36h-11l-1-23-12-1v-23h-11l.06 5.31c.01 5.96-.44 11.77-1.06 17.69h-11v-11h-13v24h-12v-13h-11c-.81-7.72-1.09-15.23-1-23h12v11h12v-12h-12V96h-12v12h-24V97h-24v12h24v11h-12v12h-12v-12h-12v-12h-36V96h48z"/><path fill="#3c261c" d="M445 446h1v24h11v12h13v12h12v-12h48v12h12v12h-12v12h-24v12h-12v-12h-12v24h-13v-24h-11v12h-1v-12h-11v-12h12v-12h-12v-12h-12v12h11v12h-11v12h-13v-12h12v-12h-12v-12h12v-12h12z"/><path fill="#02215a" d="M193 940v23h12v13h12v11h12v13h12v12h48v12H181v-49h-12v-34c3.77-.16 7.55-.33 11.44-.5 1.19-.05 2.38-.1 3.61-.16l2.82-.12c.96-.04 1.92-.09 2.91-.13C192 940 192 940 193 940"/><path fill="#c99007" d="M217 566h11v1h-10v11h23v12h12v12h24v12h24v12h-60v-12h-12v13h-36v-13h-24v-12h11v-12h13v-12h24z"/><path fill="#a35b4e" d="M349 250h1v15h-12v11h12v13h11v72h-12v37h-11v15l-2 1v-15c-.9-.06-.9-.06-5.44-.38-3.06-.21-3.06-.21-5.56-.62-1.23-2.47-1.11-4.04-1.08-6.8 0-1.01.01-2.02.02-3.06.01-1.12.02-2.23.04-3.38l.03-3.55c.02-3.22.06-6.43.09-9.64l.09-10.08.18-19.08c.08-7.24.14-14.48.21-21.72.13-14.9.27-29.79.42-44.69h11l-.06-5.44c-.02-1.85-.01-3.71.06-5.56 1-1 1-1 3.72-1.1 3.1.03 6.19.07 9.28.1z"/><path fill="#fbd0ac" d="M494 325h12v24h-13v12h-12v12h-24v12h-11v12h-24v-12h-12v-12h-13v-11c1.98-.17 1.98-.17 12-1 .06-1.58.12-3.15.18-4.78.09-2.05.17-4.1.26-6.16l.12-3.15.12-3c.04-.92.08-1.83.11-2.78C410 339 410 339 411 338c1.63-.09 3.27-.11 4.91-.1.49 0 .49 0 3 .01l3.15.03A2013 2013 0 0 1 433 338v11h49v-12h12z"/><path fill="#031938" d="M385 771h12l1 11 12 1v12h12v12h12v12h12v12h12v12h12v12h12v24h12v12h12v24h12v-36h12v24h24v49h-12v-37h-12v13h-12v23h-1v-23h-12v-12l-5.44.06c-1.85.02-3.71.01-5.56-.06-1-1-1-1-1.11-3.22 0-.48 0-.48.01-2.91 0-.52 0-.52.01-3.13.01-.55.01-.55.03-3.3 0-1.09.01-2.19.01-3.31.01-2.71.03-5.42.05-8.13-.78.01-1.56.02-2.37.04-.51 0-.51 0-3.07.02-1.01.01-2.02.03-3.06.04-2.5-.1-2.5-.1-3.5-1.1-.07-1.85-.08-3.71-.06-5.56.01-1.01.02-2.03.02-3.07.02-.78.03-1.56.04-2.37-.78.01-1.56.02-2.37.04-.51 0-.51 0-3.07.02-1.01.01-2.02.03-3.06.04-2.5-.1-2.5-.1-3.5-1.1-.09-1.78-.11-3.56-.1-5.35 0-.54 0-.54.01-3.27.01-.57.01-.57.03-3.44 0-1.14.01-2.28.01-3.46.01-2.83.03-5.65.05-8.48h-12v-11h-12v-12h-12v-12l-9 2-1 45h-1c-1.1-20.01-1.11-39.97-1-60h-12v-12h-12v-12h-12z"/><path fill="#0b5697" d="M156 554h1v12l4.75-.06c6.13-.01 12.15.49 18.25 1.06v11h-11v12h-12v24h11v2c.43-.01.43-.01 2.59-.04 1.1 0 2.21-.01 3.35-.02 1.1-.01 2.2-.03 3.34-.04 2.72.1 2.72.1 3.72 1.1.14 3 .04 5.99 0 9h12v12h36v24h-48v-24h-24v-12h-12v-12h-12v-23h12v-12h-12v11h-1v-12h12v-12h12z"/><path fill="#59382b" d="M433 265h61v12h12v24h12v12h-12v12h-24v-12h-12v12h-24v-12h-13v-12h61v-12h-37v-12h-24z"/><path fill="#a45a4d" d="M711 325v61c-1.82.17-1.82.17-11 1v47h-25v-84h12v-12h12v-12c4.1-.64 7.83-1 12-1"/><path fill="#a57106" d="M627 555h23v23h13v24h12v12h-13v24h-12v37h-11v-73h-12z"/><path fill="#032158" d="M433 820v12h12v12h12v11h12l1 24 11 1c.17 1.82.17 1.82 1 11l11 1v23h-11v-12h-12v-12h-13v12h-11v-24h-12v-12h-11c-.02-6.39-.04-12.78-.05-19.17l-.03-6.53c-.01-3.12-.01-6.24-.02-9.36 0-.98-.01-1.96-.01-2.97v-2.73c-.01-.79-.01-1.59-.01-2.41C423 822 423 822 424 821c6.11-1 6.11-1 9-1"/><path fill="#40271e" d="M615 109h11v60h12v12h-24v-12h-84v-1h36v-23h24v-24h13v11h11l-.06-4.75c-.01-6.13.49-12.15 1.06-18.25"/><path fill="#075599" d="M687 591h11c.16 3.79.16 3.79 1 23l11 1c.16 1.82.16 1.82 1 11l11 1v36h-11v11h-12v13h-12v23h-11c-1.28-11.66-1.09-23.28-1-35h12z"/><path fill="#032159" d="M145 857h10c.03 1.42.05 2.84.08 4.3.09 5.24.19 10.48.29 15.73.05 2.27.09 4.54.13 6.81.05 3.26.12 6.52.18 9.78.02 1.02.04 2.05.05 3.1l.06 2.85c.01.42.01.42.05 2.53.16 1.9.16 1.9 1.16 2.9.1 2.59.13 5.15.11 7.73v2.46c0 2.69 0 5.37-.01 8.06 0 1.86-.01 3.72-.01 5.58 0 4.91-.01 9.81-.02 14.71-.01 5-.02 10-.02 15-.01 9.82-.03 19.64-.05 29.46h-12v-37h-12v-48h-12v-35h11v23h13z"/><path fill="#053b7a" d="M629.723 914.902c3.09.03 6.18.07 9.28.1v13h-12v12h-12v12h-12v12h-12v11h23v-12h12v-12h13v13h-12v12h-13v12h-23v12h-25v-60c8.24-.69 15.82-1.1 24-1v-11h1v12h-12v23h11v-12h12v-12h12v-12h12c-.02-1.8-.04-3.59-.07-5.44-.02-1.85 0-3.71.07-5.56 1-1 1-1 3.72-1.1"/><path fill="#a09f9e" d="M783 675h23v11h26v12h24v12h24v12h12v12h12v12h12v12h12v37h11v36h-12v-36h-11l-1-48h-24v-12h-12v-12h-24v-12h-24v-12h-24v-12h-24z"/><path fill="#042258" d="M181 543h24v11h24v12h-12v12h-24v12h-13v12h-11v12h24v12h-12l-1-9-12-1v-2h-11v-24h12v-12h11v-11l-5.31.06c-5.96.01-11.77-.44-17.69-1.06v-12h24z"/><path fill="#eca385" d="M446 446h11v12h13v12h108v24h-24v-12h-72v12h-12v-12h-13v-12h-11z"/><path fill="#071226" d="M892 843h11v60c-1.65.16-1.65.16-10 1l-1 96h-12v24h-13v-24h12v-97h13z"/><path fill="#010104" d="M121 807h12v24h12v24h12v48h12v37h23v1h-23v34h12v49h-13v-48h-11l-.03-2.69c-.1-8.34-.2-16.69-.31-25.03-.05-4.29-.11-8.58-.16-12.87-.04-4.14-.1-8.27-.15-12.41l-.06-4.75c-.02-2.2-.05-4.41-.08-6.62-.01-.63-.01-.63-.05-3.81C156 905 156 905 155 904c-.09-1.47-.12-2.95-.11-4.43v-2.85c0-1.02.01-2.05.01-3.1 0-1.04.01-2.08.01-3.16q0-5.01.03-10.02c0-2.26.01-4.52.01-6.78.01-5.55.03-11.11.05-16.66-.71.01-1.42.02-2.15.04-.92 0-1.84.01-2.79.02-.91.01-1.83.03-2.77.04C145 857 145 857 144 856l-11-1-1-23-11-1z"/><path fill="#cc8266" d="M506 313h12v48c-8.25.69-15.82 1.1-24 1v12h-12v11h24v-11h12v12h-36v12h-36v12h-13v11c-1.98.16-1.98.16-12 1v-13h12v-12h13v-12h11v-12h24v-12h12v-12h13z"/><path fill="#010102" d="M603 711h11v36h-12v48h-12v48h-12v-72h12v-48h13z"/><path fill="#213b56" d="m688 555-1 23h12v12h12c1.27 2.55 1.03 4.16.88 7.01-.05.98-.1 1.97-.15 2.99-.05 1.03-.11 2.06-.17 3.12-.05 1.05-.1 2.09-.16 3.16-.13 2.57-.26 5.15-.4 7.72h12v12h12v24h24v13h-36v12h-12v12h-12v-13h12v-11h11v-36h-11c-1-1-1-1-1.1-3.5.01-1.01.03-2.02.04-3.06.01-1.01.02-2.03.02-3.07.02-.78.03-1.56.04-2.37-.78.01-1.56.02-2.37.04-1.01 0-2.02.01-3.07.02-1.01.01-2.02.03-3.06.04-2.5-.1-2.5-.1-3.5-1.1-.09-1.71-.11-3.42-.1-5.13.01-1.03.01-2.07.01-3.13l.03-3.3c0-1.09.01-2.19.01-3.31.01-2.71.03-5.42.05-8.13h-11v29h-1v-29h-11v-1h11v-11h-11v-24c9-1 9-1 13 0"/><path fill="#020000" d="M494 482h36v12h12v12h-12v12h-24v12h-12v-12h-12v24h-12v-25h11v-11h13z"/><path fill="#06255c" d="M133 579h12v12h-12v23h12v12h12v12h24v12h-49v12h-11c-1.19-50.95-1.19-50.95-1-72h13z"/><path fill="#a36f06" d="M337 494h24v60h-12v36h-12v-48h-12v-24h24v-12h-12z"/><path fill="#030100" d="M361 410h36c.69 8.25 1.1 15.82 1 24h11v12h-12v23h-11v-11h-13v-12h-12z"/><path fill="#f0ac87" d="M410 277h47v12h37v12h-61v24h-12v-24h-12z"/><path fill="#504e33" d="M662 614h1c.03 4.15.05 8.29.06 12.44l.03 3.59c0 1.12 0 2.24.01 3.4 0 1.05.01 2.09.01 3.16C663 639 663 639 662 640h-10v45h12l2 10 8 1v2h2v12h11v-23h12v24h-12c.08.93.17 1.85.25 2.81a1340 1340 0 0 0 .63 7.25L688 724c-1.58 1.58-3.38 1.35-5.56 1.56-.42.04-.42.04-2.51.26-.63.06-1.27.12-1.93.18l-.06 1.9c-.1 2.82-.2 5.65-.32 8.48l-.09 2.98-.12 2.85-.09 2.64C677 747 677 747 675 749c-2.38.2-2.38.2-5.12.12-.92-.01-1.83-.03-2.76-.05-.7-.02-1.4-.05-2.12-.07.01.7.02 1.4.04 2.12 0 .91.01 1.82.02 2.76.01.9.03 1.8.04 2.74C665 759 665 759 664 761c-2.29.41-2.29.41-5.06.62-.46.04-.46.04-2.79.23L654 762l-.06 1.9c-.1 2.82-.2 5.65-.32 8.48l-.09 2.98-.12 2.85c-.01.44-.01.44-.09 2.64C653 783 653 783 651 785c-2.38.2-2.38.2-5.12.12-.92-.01-1.83-.03-2.76-.05-.7-.02-1.4-.05-2.12-.07l1 7 10 1-1 62h-1v-60h-12c-1-1-1-1-1.1-3.07.03-2.31.07-4.62.1-6.93l-10-1v23h-1v-24h12v-24h13v-12h12v-25h11v-23h-12v-12h-12v-49h12z"/><path fill="#cc9306" d="M773.188 661.875c1 0 1.99-.01 3.02-.01h2.71c.39 0 .39 0 2.34.01 1.74.12 1.74.12 2.74 1.12.07 1.69.09 3.38.07 5.07l-.03 2.78c-.01.71-.03 1.42-.04 2.15.69.03 1.39.06 2.1.08l9.34.36 3.3.12c.52.02.52.02 3.13.13.96.04 1.92.07 2.91.11 2.22.2 2.22.2 3.22 1.2.07 1.69.09 3.38.07 5.07l-.03 2.78c-.01.71-.03 1.42-.04 2.15-.66.34-1.32.66-2 1v-11h-23v12h24v12h24v12h24v11h-1l-1-9c-.65.01-1.31.02-1.99.02-2.96.02-5.92.03-8.88.05-.52 0-.52 0-3.13.02-.99.01-1.97.01-2.99.01-.91.01-1.82.01-2.76.02-2.25-.12-2.25-.12-4.25-1.12v-11c-.82.01-.82.01-4.99.04l-6.44.03c-1.09.01-2.18.01-3.3.02-1.04.01-2.07.01-3.14.01-.96.01-1.92.01-2.9.02-2.23-.12-2.23-.12-3.23-1.12-.14-4-.04-7.99 0-12h-23c-1.26-2.52-1.1-4.31-1.06-7.12l.03-2.76.03-2.12c-.34.01-.34.01-2.09.02-3.12.02-6.23.03-9.34.05-1.09.01-2.18.01-3.3.02-1.04.01-2.07.01-3.14.01-.48.01-.48.01-2.9.02-2.23-.12-2.23-.12-3.23-1.12v-10h-21l1 56c.66-.16.66-.16 4-1 2.36.59 4.7 1.25 7 2 .03 2.15.05 4.3.07 6.44l.03 3.62c-.1 2.94-.1 2.94-1.1 3.94-2.18.08-4.37.09-6.56.07l-3.63-.03c-.46-.01-.46-.01-2.81-.04-1.26-2.52-1.1-4.31-1.06-7.12l.03-2.76.03-2.12c-.72.19-1.44.38-2.19.57-2.81.43-2.81.43-7.81-.57v-13h-12v-12h12v-36c36.26-1.09 36.26-1.09 50.19-1.12"/><path fill="#fbd0ad" d="M627 350h12v12h11v23h-12v12h-12v12h-11v-11h-13v-13h-12v-11l24-1 1-11h12z"/><path fill="#c8900a" d="M325 542h12v49h11v46h-22l-1-11h12v-24h-12v-24h-12v-12h-12v-12h24z"/><path fill="#01235d" d="M24 927c9.28-.1 9.28-.1 12 0 1 1 1 1 1.1 3.5-.01 1.01-.03 2.02-.04 3.06-.01 1.01-.02 2.03-.02 3.07-.02.78-.03 1.56-.04 2.37.78-.01 1.56-.02 2.37-.04 1.01 0 2.02-.01 3.07-.02 1.01-.01 2.02-.03 3.06-.04 2.5.1 2.5.1 3.5 1.1v11h24v12l5.44-.06c1.85-.02 3.71-.01 5.56.06 1 1 1 1 1.11 3.22 0 .96-.01 1.92-.01 2.91-.01 1.03-.01 2.07-.01 3.13-.01.55-.01.55-.03 3.3 0 1.09-.01 2.19-.01 3.31-.01 2.71-.03 5.42-.05 8.13.78-.01 1.56-.02 2.37-.04.51 0 .51 0 3.07-.02 1.01-.01 2.02-.03 3.06-.04 2.5.1 2.5.1 3.5 1.1.07 2.02.08 4.04.06 6.06-.01 1.11-.02 2.21-.02 3.35-.02.85-.03 1.71-.04 2.59h11v12h12v12H96v-24H84v-12H72v-12H60v-12H48v-12H36v-12H24z"/><path fill="#020100" d="M687 169h11v156h-11z"/><path fill="#d18b6f" d="M578 301h49v12h24v12h-12v12h12v13c-8.4.1-16.63-.24-25-1v-11h-12v-12h-11v11h-1v-12h12v-12h-36z"/><path fill="#33211b" d="M566 96h12v12h12v12h-12v-11h-12c.08.88.08.88.5 5.31.5 5.92.58 11.75.5 17.69h11v1h-12v11h-12v-11h-12v12h-12v-12h-12v-1h12v-12h12v-11h-24V97h24v11h24z"/><path fill="#01215b" d="M61 819h11v24h12c.16 3.96.16 3.96 1 24l11 1v24h12v35H97v-24H85v-24H73v-24H60c-.02-4.97-.04-9.93-.05-14.9l-.03-5.07c-.01-2.43-.01-4.85-.02-7.28 0-.76-.01-1.52-.01-2.3 0-1.82.05-3.63.11-5.45z"/><path fill="#030203" d="M566 663h25v12h-24v12H458v-12h108z"/><path fill="#56372a" d="M578 277h37v12h24v12h12v12h-24v-12h-61v-12h12z"/><path fill="#f3ae88" d="M566 326h12v11h25v-11h11v12h12v11h13v1h-13v11c-10.28 1.06-20.43 1.12-30.75 1.06-1.68 0-3.36-.01-5.04-.01-4.07-.01-8.14-.03-12.21-.05v-13h-12v-11h-12v-1h12z"/><path fill="#bf735c" d="M373 265h12v133h-12z"/><path fill="#f6b793" d="M518 361v12h24v-11h12v12h12v11h-24v13h-24v-24h-12v11h-24v-11h12v-12c8.05-.77 15.91-1.1 24-1"/><path fill="#7a5842" d="M445 108c2.69-.03 5.37-.05 8.06-.06l2.28-.03c4.67-.02 9.06.31 13.66 1.09.16 1.81.16 1.81 1 11l24 1v12h-73v12h-11v12h-13v-13h12v-12h12v-12h24z"/><path fill="#f9cba7" d="M518 313h24v60h-24z"/><path fill="#070404" d="m325 276 12 1v120h-11c-1.22-2.45-1.12-4.02-1.12-6.76v-3.04c0-1.11 0-2.21.01-3.35v-3.52c0-3.85 0-7.7.01-11.56 0-2.66.01-5.33.01-7.99 0-6.31.01-12.62.02-18.92.01-7.18.01-14.36.02-21.54.01-14.78.03-29.55.05-44.32"/><path fill="#030302" d="M350 193h11v96h-11v-13h-12v-11h12c-.04-.44-.04-.44-.21-2.66-.75-10-.95-19.94-.91-29.96v-2.37c.01-12.36.31-24.68 1.12-37.01"/><path fill="#18435b" d="M36 699h1v11c1.6-.01 3.21-.02 4.86-.04 2.15 0 4.3-.01 6.45-.02l3.19-.03c6.9-.02 13.64.37 20.5 1.09v12h12v12h12v23c-2-2-2-2-2.23-3.97l.03-2.38c.01-.85.02-1.7.02-2.58l.06-2.69c0-.9.01-1.8.02-2.72.03-2.22.06-4.44.1-6.66-.7.03-1.4.07-2.12.11-.91.02-1.82.05-2.76.08-.9.03-1.8.07-2.74.1-.39-.05-.39-.05-2.38-.29-2.57-3.85-2.55-6.43-3-11l-1.93-.18c-.42-.05-.42-.05-2.51-.26l-2.49-.24C72 725 72 725 71 724v-12l-34-1v24H25v26H14c.09.7.09.7.56 4.25.62 6.03.07 11.73-.56 17.75H0v-25h12v-24h12v-24h12z"/><path fill="#bd735b" d="M663 289h12v48h12v-12h12v-5h1v5h6v1h-7v12h-12v12h-12v11h-12z"/><path fill="#021f55" d="M518 951h12v25h12v48h-12v-36h-12v-12h-12v-12h12z"/><path fill="#073c7b" d="M324 638c3.92-.03 7.83-.05 11.75-.06l3.31-.03c7.37-.02 14.61.38 21.94 1.09.79 7.86 1.1 15.56.88 23.45-.01.52-.01.52-.07 3.11-.08 3.23-.16 6.46-.25 9.69-.05 2.21-.1 4.42-.16 6.63-.12 5.37-.26 10.75-.4 16.12h-12v13h12v12h12v12h24v11h-1v-10h-25l-1-10c-1.81-.16-1.81-.16-11-1v-12l-4.94.06c-1.68.02-3.37.01-5.06-.06-1-1-1-1-1.1-3.94.01-1.2.03-2.39.04-3.62.01-1.2.02-2.4.02-3.63.02-.93.03-1.86.04-2.81h-11v-12h-24v-12h-12v-12h-13v-13h14v12h11v12h25v12h12v11h9v-57h-35z"/><path fill="#010100" d="M470 61h96v11h-96z"/><path fill="#c2775e" d="M470 313h12v12h12v12h-12v12h-49v-12h36v-11h-23v-1h24z"/><path fill="#090503" d="M602 494h1v12h11v12h-11v24h-25v-12h-12v-12h24v-12h12z"/><path fill="#fdfcfb" d="M482 446h84v12h-84z"/><path fill="#c2785f" d="M446 157h84v12h-84z"/><path fill="#060602" d="M879 903h12c-.04 12.07-.1 24.15-.18 36.22-.04 5.61-.08 11.21-.09 16.82-.02 5.41-.05 10.81-.1 16.22-.01 2.07-.02 4.13-.02 6.2 0 2.89-.03 5.77-.06 8.66 0 .86.01 1.72.01 2.6-.1 5.78-.1 5.78-2.42 8.32-2.54 1.14-4.39 1.19-7.14.96-.03-.66-.05-1.32-.08-2q-.165-4.47-.36-8.94l-.12-3.15-.12-3c-.02-.46-.02-.46-.11-2.78C880 977 880 977 879 976c-.09-2.27-.12-4.54-.11-6.81v-2.16c0-2.37 0-4.73.01-7.1 0-1.63.01-3.27.01-4.9 0-4.31.01-8.63.02-12.94.01-4.4.02-8.79.02-13.19.01-8.63.03-17.27.05-25.9"/><path fill="#022058" d="M566 940h12v24h12v12h-12v12h12v11l-24 1z"/><path fill="#5a4003" d="M362 650h12v12l5.31-.06c5.95-.07 11.78.47 17.69 1.06 1.15 24.06 1.15 24.06 1 35h12v12l5.31-.06c6.03-.07 11.58.5 17.69 1.06l1 23 12 1v12h12v12h-13v-12h-12v-12h-12v-24h-12v-12h-12v-12h-12v-24h-12v-12h-11z"/><path fill="#edac88" d="M433 313h13v13h23v11h-71v-11c7.93-.84 15.71-1.13 23.69-1.06A2128 2128 0 0 1 433 325z"/><path fill="#ecc52a" d="M903 747h1v96h-12v60h-13v73h-36v-12h-24v-12h1v10c1.63-.02 3.25-.05 4.93-.07 2.12-.02 4.25-.04 6.38-.05l3.25-.06c1.03 0 2.06-.01 3.12-.02l2.87-.03C843 962 843 962 846 964c.29 2.16.29 2.16.19 4.62-.03.82-.06 1.64-.08 2.48-.02.31-.02.31-.11 1.9 4.11-.12 8.22-.24 12.34-.37 1.39-.05 2.79-.09 4.19-.13 2.01-.05 4.02-.12 6.03-.18 1.21-.04 2.42-.08 3.66-.11C875 972 875 972 876 971c.12-2.15.18-4.3.21-6.45l.03-2.04c.03-2.23.05-4.47.08-6.7l.06-4.64.15-12.22c.05-4.16.11-8.32.16-12.47.11-8.16.21-16.32.31-24.48 3-1 3-1 12-1v-59h2v-23h12z"/><path fill="#573a2b" d="M590 96h13v12h11V96c9.28-.1 9.28-.1 12 0 1 1 1 1 1.1 3.5-.03 2.84-.07 5.67-.1 8.5h12v12h11v36h-11l-1-23-12-1v-23h-11v12h-1v-12h-12V97h-12z"/><path fill="#083c7c" d="M72 855h1v24h12v24h12v24h11v-35H96v-24H85v-1h12v24h12v36h12v24h11v-47h-12v-36h-12v-13h13v12h12v24h-1v-23h-11v35h12v48h12v25h-13v-24h-12v-24h-11v24H97v24h-1v-25h12v-23H96v-24H84v-24H72z"/><path fill="#d69076" d="M337 325h12v73h-11v15c-.33.16-.33.16-2 1v-15l-11-1v-3l1 2h11z"/><path fill="#0b0803" d="M566 843h12v48h12v1h-11v24h-13z"/><path fill="#8e4d44" d="M470 434h72v12h-60v12h-25v-12h1v11h23v-11h-11z"/><path fill="#03235e" d="M229 614h12v12h84v12h-60v-11h-26v-10l-7 1c-.05.63-.1 1.25-.15 1.9-.07.82-.15 1.63-.23 2.48-.06.81-.13 1.62-.21 2.46C231 627 231 627 229 629c-2.65.18-5.2.23-7.85.2-.78-.01-1.55-.01-2.35-.01-2.47-.01-4.95-.04-7.42-.07-1.68-.01-3.36-.01-5.04-.02-4.11-.02-8.23-.06-12.34-.1l-1-2h36z"/><path fill="#090503" d="M433 301h49v12h-12v12h-24v-12h-13z"/><path fill="#9e5546" d="M505 277h1v24h12v12h-12v12h-24v-24h12v-12h11z"/><path fill="#060201" d="M566 313h48v12h-12v12h-24v-12h-12z"/><path fill="#9c7120" d="M687 722v3c-1.49.16-1.49.16-9 1l-.15 4.52c-.07 1.95-.15 3.9-.23 5.86l-.09 2.98-.12 2.85-.09 2.64C677 747 677 747 675 749c-2.38.2-2.38.2-5.12.12-.92-.01-1.83-.03-2.76-.05-.7-.02-1.4-.05-2.12-.07.01.7.02 1.4.04 2.12 0 .91.01 1.82.02 2.76.01.9.03 1.8.04 2.74C665 759 665 759 664 761c-2.29.41-2.29.41-5.06.62-.92.08-1.84.15-2.79.23L654 762l-.06 1.9c-.1 2.82-.2 5.65-.32 8.48l-.09 2.98-.12 2.85-.09 2.64C653 783 653 783 651 785c-2.38.2-2.38.2-5.12.12-.92-.01-1.83-.03-2.76-.05-.7-.02-1.4-.05-2.12-.07l1 7 10 1-1 62h-1v-60h-12c-1-1-1-1-1.1-3.07.02-1.15.02-1.15.1-6.93l-10-1v23h-1v-24h12v-24h13v-12h24v-24c1.98-.16 1.98-.16 12-1"/><path fill="#010205" d="M109 615h12v47h11v12h-23z"/><path fill="#bd735a" d="M650 205h1v12h12v72h-1v-12h-12z"/><path fill="#b96f58" d="M421 169h25v12h-24v36h-12v24h-1v-60h12z"/><path fill="#b46f58" d="M614 313h12v12h13v12h12v13c-8.4.1-16.63-.24-25-1v-11h-12v-12h-11v11h-1v-12h12z"/><path fill="#28120d" d="M457 421h13v12h72v1h-72v12h11v11h-23v-11h-12v-12h11z"/><path fill="#c9930d" d="M662 795h1v96h12v12h12v12h12v12h24v12h-1v-11c-1.72.08-3.44.17-5.21.25-2.25.11-4.49.21-6.73.31-1.13.06-2.27.11-3.44.17l-3.27.15c-1 .05-2 .09-3.03.14C698 929 698 929 697 928c-.14-3.67-.04-7.33 0-11h-11v-13h-12v-12h-12v-37h-11v-48h11z"/><path fill="#5c4031" d="M445 108c2.69-.03 5.37-.05 8.06-.06l2.28-.03c4.67-.02 9.06.31 13.66 1.09.16 1.98.16 1.98 1 12h-48v11h71v-11h1v12h-73v12h-11v12h-13v-13h12v-12h12v-12h24z"/><path fill="#6d4330" d="M614 277h1v12h24v12h12v12h-24v-12h-25v-12h12z"/><path fill="#513528" d="M566 96h12v12h12v12h-12v-11h-12v11h-12v-11h-36V97h24v11h24z"/><path fill="#0a0504" d="M481 506h25v24h-12v-12h-12v24h-12v-25h11z"/><path fill="#191d30" d="M530 903h24v49h-12v-37h-12z"/><path fill="#0c0a02" d="M590 855h12v37h-11v24h-12v-24h11z"/><path fill="#4a251c" d="M482 386h36v12h24v12h-25v-12h-35z"/><path fill="#a2584a" d="M554 301h24v12h-12v12h12v1h-12v11h-12v-12h-12v-12h12z"/><path fill="#39251d" d="M530 530h12v48h-24v-12h12z"/><path fill="#e3a586" d="M410 277h23v13h-11v11h11v24h-12v-24h-12z"/><path fill="#070504" d="M711 325v60h-12v-59c7-1 7-1 12-1"/><path fill="#dcbb2d" d="M384 891h1v12h-36v12h-84v13h-72v11h-24v-12h12v11h10c-.01-.85-.02-1.71-.04-2.59 0-1.1-.01-2.21-.02-3.35-.01-1.1-.03-2.2-.04-3.34.1-2.72.1-2.72 1.1-3.72 2.15-.12 4.3-.18 6.45-.21l2.04-.03c2.23-.03 4.47-.05 6.7-.08l4.64-.06 12.22-.15c4.16-.05 8.32-.11 12.47-.16 8.16-.11 16.32-.21 24.48-.31.13-.71.27-1.42.4-2.15.18-.92.36-1.84.54-2.79.17-.91.35-1.83.52-2.77C263 914 263 914 264 913c2.59-.1 5.15-.13 7.73-.11h2.46c2.69 0 5.37 0 8.06.01 1.86 0 3.72.01 5.58.01 4.91 0 9.81.01 14.71.02 5 .01 10 .02 15 .02 9.82.01 19.64.03 29.46.05-.01-.78-.02-1.56-.04-2.37 0-1.01-.01-2.02-.02-3.07-.01-1.01-.03-2.02-.04-3.06.1-2.5.1-2.5 1.1-3.5 2.59-.09 5.16-.12 7.75-.1.78 0 1.55.01 2.35.01 2.49 0 4.98.01 7.46.03 1.68 0 3.37.01 5.05.01 4.13.01 8.26.03 12.39.05-.01-.64-.02-1.28-.04-1.93 0-.83-.01-1.66-.02-2.51-.01-.82-.03-1.64-.04-2.49.1-2.07.1-2.07 1.1-3.07"/><path fill="#3d271d" d="M397 422h1v12h11v12h-12v23h-11v-11h-13v-12h12v-12h12z"/><path fill="#060302" d="M349 591h12v11h12v12h-12v24h-12z"/><path fill="#c8795f" d="M506 313h12v48h-24v-11h12z"/><path fill="#c8900c" d="M84 723h1v11h14v12l4.44-.06c1.52-.02 3.04-.01 4.56.06 1 1 1 1 1.11 3.32 0 1-.01 2-.01 3.03-.01 1.08-.01 2.16-.01 3.27l-.03 3.44c0 1.14-.01 2.28-.01 3.46-.01 2.83-.03 5.65-.05 8.48h12v12h12v24h-13v-24h-12v-24H97c-1-1-1-1-1.11-3.22 0-.96.01-1.92.01-2.91.01-1.03.01-2.07.01-3.13l.03-3.3c0-1.09.01-2.19.01-3.31.01-2.71.03-5.42.05-8.13H84z"/><path fill="#f0bf06" d="M651 579h11v23h13v12h-13v12h-11z"/><path fill="#b29352" d="M312 494h13v12h-12v12h-12v12h-12v-12h-43v-1h42v-11c1-1 1-1 3.22-1.11.96 0 1.92.01 2.91.01.52 0 .52 0 3.13.01l3.3.03c.55 0 .55 0 3.31.01 2.71.01 5.42.03 8.13.05z"/><path fill="#030000" d="M446 145h60v11h-60z"/><path fill="#3b251c" d="M446 133h59v11h-59z"/><path fill="#020000" d="M626 132h12c1 1 1 1 1.11 4.33 0 1.47 0 2.95-.01 4.42 0 .78-.01 1.55-.01 2.35 0 2.49-.01 4.98-.03 7.46 0 1.68-.01 3.37-.01 5.05-.01 4.13-.03 8.26-.05 12.39h12v13h-13v-12h-12z"/><path fill="#a76b5b" d="M349 250h1v15h-12v11h12v13h11v24h-12v-12h-11c-.77-8.04-1.13-15.93-1-24h-9v-1h8c-.01-.78-.02-1.56-.04-2.37 0-1.01-.01-2.02-.02-3.07-.01-1.01-.03-2.02-.04-3.06.1-2.5.1-2.5 1.1-3.5 4-.14 7.99-.04 12 0z"/><path fill="#bea347" d="M772.438 661.875c1.04 0 2.08-.01 3.16-.01h2.9c.85 0 1.69 0 2.57.01 1.93.12 1.93.12 2.93 1.12q.105 2.535.06 5.07c0 .92-.01 1.84-.02 2.78-.01.71-.03 1.42-.04 2.15.69.03 1.39.06 2.1.08l9.34.36 3.3.12c.52.02.52.02 3.13.13.96.04 1.92.07 2.91.11 2.22.2 2.22.2 3.22 1.2q.105 2.535.06 5.07c0 .92-.01 1.84-.02 2.78-.01.71-.03 1.42-.04 2.15-.66.34-1.32.66-2 1v-11h-23v12h24v12h24v12h24v11h-1c-.16-1.48-.16-1.48-1-9-.65.01-1.31.02-1.99.02-2.96.02-5.92.03-8.88.05-.52 0-.52 0-3.13.02-.99.01-1.97.01-2.99.01-.91.01-1.82.01-2.76.02-2.25-.12-2.25-.12-4.25-1.12v-11c-.82.01-.82.01-4.99.04l-6.45.03c-1.08.01-2.17.01-3.29.02-1.04.01-2.07.01-3.14.01-.96.01-1.92.01-2.9.02-2.23-.12-2.23-.12-3.23-1.12-.14-4-.04-7.99 0-12h-23c-1.26-2.52-1.1-4.31-1.06-7.12l.03-2.76.03-2.12c-.34.01-.34.01-2.09.02-3.12.02-6.23.03-9.35.05-1.08.01-2.17.01-3.29.02-1.04.01-2.07.01-3.14.01-.48.01-.48.01-2.9.02-2.23-.12-2.23-.12-3.23-1.12v-11h-22v-1c12.48-.62 24.94-1.1 37.44-1.12"/><path fill="#010203" d="M723 627h11l1 23 23 1v10c-3.21.17-6.42.34-9.62.5-.89.05-1.77.1-2.68.14-7.6.38-15.06.36-22.7.36z"/><path fill="#f4ad88" d="M494 325h12v24h-13v12h-12v-11h-48v-1h49v-12h12z"/><path fill="#050505" d="M243.905 517.88c.83 0 1.67 0 2.52.01h2.85c1.03 0 2.05.01 3.1.01s2.09.01 3.16.01c3.34 0 6.69.02 10.03.03 2.26 0 4.52.01 6.78.01 5.55.01 11.1.03 16.66.05v12h-12v12h-24v-1h23v-11h-35c0-11.94 0-11.94 2.9-12.12"/><path fill="#090501" d="M229 675h24v11h24v13h-24v-12h-24z"/><path fill="#c0725b" d="M566 446h1v11h11v-11h12v36h-12v-12h-12z"/><path fill="#593c2e" d="M590 108h1v12h11v1h-12v24h-12v-13h-11c-.81-7.72-1.09-15.23-1-23h12v11h12z"/><path fill="#cc9204" d="M710 711h1v48h-12v-12h-12v-12h12v-12h11z"/><path fill="#020208" d="M132 650h49v12h-49z"/><path fill="#5b362a" d="M530 482h24v12h24v1h-12v11h-24v-12h-12z"/><path fill="#eca784" d="M578 373h1v12h23v13h-12v11h-12v-11l-4.94.06c-1.68.02-3.37.01-5.06-.06-1-1-1-1-1.1-3.5.02-1.42.02-1.42.1-8.5h11z"/><path fill="#032259" d="M893 845h10v58h-10z"/><path fill="#f3c511" d="M578 843h12v48h-12z"/><path fill="#030203" d="M578 795h12v48h-12z"/><path fill="#ca9006" d="M289 735h12v12h12v12h-12v12h-12z"/><path fill="#3d281f" d="M651 458h12v24h-12v12h-12v-24h12z"/><path fill="#c0755e" d="M566 169h48v12h-48z"/><path fill="#c8910e" d="M133 663h47v12h-47z"/><path fill="#020001" d="M181 662c4.91-.03 9.81-.04 14.72-.05l4.99-.03c9.5-.04 18.83.11 28.29 1.08v11h-48z"/><path fill="#f0a783" d="M518 361v13h-12v11h-24v-11h12v-12c8.05-.77 15.91-1.1 24-1"/><path fill="#060303" d="M687 386h11c.79 3.16 1.12 5.24 1.11 8.4v2.61c0 .92-.01 1.84-.01 2.79s-.01 1.89-.01 2.87c0 3.03-.01 6.05-.03 9.08 0 2.05-.01 4.11-.01 6.16-.01 5.03-.03 10.06-.05 15.09h-12z"/><path fill="#795741" d="M663 181h23v36h-11v-24h-12z"/><path fill="#37221a" d="M614 85h24l1 11c1.82.16 1.82.16 11 1v11h-23l-1-11-12-1z"/><path fill="#000004" d="M169 976h11v48h-11z"/><path fill="#fcbea5" d="M494 470h48v11h-48z"/><path fill="#020100" d="M566 73h48v11h-48z"/><path fill="#032057" d="M494 916h11v12h12v23h-11v-12h-12z"/><path fill="#000104" d="M964 904h11v47h-11zm-12-48h11v47h-11z"/><path fill="#f4b794" d="M675 386h11v47h-11z"/><path fill="#3f261d" d="M434 145h11v11h61v-11h12v11h12v1h-84v12h-24v-12h11v11h12v-11h-11z"/><path fill="#c7900a" d="M626 675h13v24h-12v24h-12v24h-1v-36h12z"/><path fill="#062457" d="M652 529h11v13h12v12c.56-.1.56-.1 3.38-.62 1.19-.13 2.39-.25 3.62-.38l2 2h-9v11h-12v-11h11v-12h-11v11h-24v-12h23v-12l-4 1c-2.33.04-4.67.04-7 0z"/><path fill="#dac9c6" d="M482 446h12v11h48v-11h24v12h-84z"/><path fill="#c6775c" d="M578 349h37v12c-1 1-1 1-4.42 1.11-1.52 0-3.03 0-4.55-.01-.8 0-1.6-.01-2.42-.01-2.56 0-5.11-.01-7.67-.03-1.73 0-3.46-.01-5.19-.01-4.25-.01-8.5-.03-12.75-.05z"/><path fill="#012864" d="M324 638c3.92-.03 7.83-.05 11.75-.06l3.31-.03c7.37-.02 14.61.38 21.94 1.09.79 7.86 1.1 15.56.88 23.45-.01.52-.01.52-.07 3.11-.08 3.23-.16 6.46-.25 9.69-.05 2.21-.1 4.42-.16 6.63-.12 5.37-.26 10.75-.4 16.12h-12v13h12v12h12v12h24v11h-1v-10h-25l-1-10-11-1v-12l-4.94.06c-1.68.02-3.37.01-5.06-.06-1-1-1-1-1.1-3.94.01-1.2.03-2.39.04-3.62.01-1.2.02-2.4.02-3.63.02-.93.03-1.86.04-2.81h-11v-12h12v10h10v-57h-35z"/><path fill="#3f2b23" d="M614 72h1v12h24v12h-1V85h-24v23h-11V96h-13V84h24z"/><path fill="#060507" d="M385 771h12l1 11 12 1v12h12c.1 8.5.1 8.5 0 11-1 1-1 1-3.72 1.1-1.55-.02-1.55-.02-9.28-.1v-12h-12v-12h-12z"/><path fill="#c6775d" d="M542 325h12v36h12v1h-24z"/><path fill="#083f7e" d="M422 867h12v12h12v24h11v-12h13v12h12v12h12v24h-1v-23h-12v-12h-11v12c-9.28.1-9.28.1-12 0-1-1-1-1-1.1-3.5.03-2.84.07-5.67.1-8.5h-12v-24h-12v-12h-11z"/><path fill="#a6851c" d="M903 747h1v96h-12v60h-1v-84h12z"/><path fill="#21273b" d="M410 687h12v11h24v12h36v12h84v1h-85v-12h-36v-12h-23v11h-12z"/><path fill="#154f78" d="M904 747h11c1.06 10.28 1.12 20.43 1.06 30.75 0 1.68-.01 3.36-.01 5.04-.01 4.07-.03 8.14-.05 12.21h11v37h-1v-36h-12v-35l-7 1-1 81h-2z"/><path fill="#020208" d="M687 687h12v24h-12v12h-12v-12l11-1z"/><path fill="#010307" d="M518 879h12v36h-12z"/><path fill="#000102" d="M927 795h12v36h-12z"/><path fill="#ca8f03" d="M277 771h12v36h-12z"/><path fill="#050203" d="M277 699h36v12h-36z"/><path fill="#040202" d="M614 675h12v36h-12z"/><path fill="#03235d" d="M181 650h36v12h-36z"/><path fill="#030000" d="M337 554h12v36h-12z"/><path fill="#674936" d="M542 530h12v36h-12z"/><path fill="#020100" d="M566 518h24v24h-12v-12h-12z"/><path fill="#f4ad87" d="M566 470h12v24h-24v-12h12z"/><path fill="#452b21" d="M614 458h24v12h-12v12h-12z"/><path fill="#3a261d" d="M361 410h12v36h-12z"/><path fill="#110805" d="M542 109h12v11h12v12h-12v-11h-12v11h-12v-12h12z"/><path fill="#5f3e2f" d="M615 109h11v36h-11v-12h-13v-12h1v11h11l-.06-4.75c-.01-6.13.49-12.15 1.06-18.25"/><path fill="#040202" d="M603 711h11v36h-12c-.18-25.34-.18-25.34 1-36"/><path fill="#010407" d="M208.422 529.867c10.88.03 21.72.55 32.58 1.13v11h-36c0-11.94 0-11.94 3.42-12.13"/><path fill="#626d3f" d="M469 783h1v24h12v24h12v13c-9.28.1-9.28.1-12 0-1-1-1-1-1.11-3.13 0-.92.01-1.84.01-2.78.01-.99.01-1.98.01-3l.03-3.15c0-1.05.01-2.09.01-3.17.01-2.59.03-5.18.05-7.77-.43.01-.43.01-2.59.04-1.1 0-2.21.01-3.35.02-1.1.01-2.2.03-3.34.04C469 821 469 821 468 820c-.07-2.02-.08-4.04-.06-6.06.01-1.11.02-2.21.02-3.35.02-.85.03-1.71.04-2.59h-10v-1h11z"/><path fill="#033a79" d="M24 927c9.28-.1 9.28-.1 12 0 1 1 1 1 1.1 3.5-.01 1.01-.03 2.02-.04 3.06-.01 1.01-.02 2.03-.02 3.07-.02.78-.03 1.56-.04 2.37.78-.01 1.56-.02 2.37-.04 1.01 0 2.02-.01 3.07-.02 1.01-.01 2.02-.03 3.06-.04 2.5.1 2.5.1 3.5 1.1v11h24v12h11v1H72v-12H49v11h11v1H48v-12H36v-12H24z"/><path fill="#000103" d="M988 988h11v36h-11z"/><path fill="#000205" d="M916 759h11v36h-11z"/><path fill="#f3b18c" d="M338 349h11v36h-11z"/><path fill="#f2ae87" d="M590 302h36v11h-36z"/><path fill="#010000" d="M362 157h11v36h-11z"/><path fill="#010101" d="M434 73h36v11h-36z"/><path fill="#473819" d="M735 650h24v13h-36v12h-12v12h-12v-13h12v-11c15.71-1.39 31.23-2.3 47-2v-10h-23z"/><path fill="#a35a4e" d="M361 325v36h-11v-35c3-1 3-1 11-1"/><path fill="#000104" d="M976 952h11v35h-11z"/><path fill="#7b5942" d="M639 121h11v35h-11z"/><path fill="#d09706" d="M397 831h12l1 12 9 1v21h-9l-1 2v-23h-12z"/><path fill="#aa654f" d="M433 397h49v1h-36v12h-13v11l-12 1v-13h12z"/><path fill="#020102" d="M601 857h1v35h-11v24h-12v-24c1.82-.16 1.82-.16 11-1l3-2h7z"/><path fill="#aeae54" d="M349 698h12v1h-11v11h12v12h13v11c1.65-.01 3.3-.02 5-.04 2.14 0 4.29-.01 6.44-.02l3.3-.03c1.03 0 2.07 0 3.13-.01.96 0 1.92-.01 2.91-.01C398 733 398 733 399 734c.07 1.85.08 3.71.06 5.56-.01 1.01-.02 2.03-.02 3.07-.02.78-.03 1.56-.04 2.37.7-.01 1.4-.02 2.12-.04.91 0 1.82-.01 2.76-.02.9-.01 1.8-.03 2.74-.04 2.38.1 2.38.1 4.38 1.1v11l5.44-.06c1.85-.02 3.71-.01 5.56.06 1 1 1 1 1.1 3.5-.03 2.84-.07 5.67-.1 8.5h12v12l5.44-.06c1.85-.02 3.71-.01 5.56.06 1 1 1 1 1.1 3.5-.01 1.01-.03 2.02-.04 3.06-.01 1.01-.02 2.03-.02 3.07-.02.78-.03 1.56-.04 2.37h10v2h-11v-12h-12v-12h-13v-12h-12v-12h-12v-12h-24v-12h-12v-12h-12z"/><path fill="#08569a" d="M205 529c1 2 1 2 0 13h24v12h-24v-11h-24v11h-1v-12h24v-12z"/><path fill="#0a4d8e" d="M108 976h1v24h12v12h12v12h-13v-12h-12z"/><path fill="#c27960" d="M421 169h25v12h-24v36h-1z"/><path fill="#ecc42b" d="M109 675c3.79-.05 7.58-.09 11.38-.12l3.27-.06c1.03 0 2.06-.01 3.12-.02.48 0 .48 0 2.89-.03C132 675 132 675 134 677h-23v10c-2 2-2 2-4.25 2.23l-2.76-.03c-.98-.01-1.97-.02-2.99-.02l-3.12-.06c-1.05 0-2.09-.01-3.16-.02-2.57-.03-5.15-.06-7.72-.1.02.35.02.35.11 2.12.02.91.05 1.82.08 2.76.01.45.01.45.1 2.74-.09.78-.19 1.57-.29 2.38-4.57 3.04-8.57 2.13-14 2v21h11v1H72v-12H61v-12h24v-12h24z"/><path fill="#b76e57" d="M566 398h1v11h23v-11h12v24h-12v-12h-24z"/><path fill="#230904" d="M361 325h12v73h-12v-13h11c-.17-1.58-.33-3.15-.51-4.78-.54-5.96-.53-11.82-.37-17.79.02-1.05.05-2.1.07-3.19.08-3.31.16-6.62.25-9.93.05-2.26.1-4.52.16-6.78.12-5.51.26-11.02.4-16.53-1.49.17-1.49.17-9 1l-1 35h-12v36h-1v-37h12z"/><path fill="#c08b0d" d="M602 747h12v24h-11v24h-1z"/><path fill="#bd7961" d="M566 326h12v11h24v1h-24v11h-12v-11h-12v-1h12z"/><path fill="#f4c214" d="M735 664h22v1h-21l1 56c.66-.16.66-.16 4-1 2.35.59 4.69 1.25 7 2 .03 2.15.05 4.29.06 6.44.01 1.19.03 2.39.04 3.62C748 735 748 735 747 736c-2.19.07-4.38.08-6.56.06-1.2-.01-2.4-.02-3.63-.02-.46-.01-.46-.01-2.81-.04-1.26-2.52-1.1-4.31-1.06-7.12.01-.92.02-1.83.02-2.76.02-.7.03-1.4.04-2.12-.36.09-.36.09-2.19.56-2.94.46-4.95.18-7.81-.56v-1h12z"/><path fill="#46664e" d="M385 891h24v1h-23v13h-35v10l-1 2h-84v10h-1v-12h84v-12h36z"/><path fill="#1c5674" d="M266 917h83v1c-13.2.16-13.2.16-80 1l-2 9c-2 2-2 2-4.9 2.24-1.24 0-2.48-.01-3.75-.01h-2.07c-2.26 0-4.53-.02-6.79-.03-1.56-.01-3.13-.01-4.7-.01-4.12-.01-8.25-.03-12.38-.05-4.21-.02-8.42-.03-12.62-.04-8.27-.02-16.53-.06-24.79-.1 0 .75.01 1.5.01 2.28v2.99c.01.98.01 1.95.01 2.96-.02 3.17-.22 6.3-.52 9.46-.05.5-.05.5-.28 3.07-.07.74-.15 1.48-.22 2.24h-1v-13h-24v-1h24v-11c11.88-.16 11.88-.16 72-1z"/><path fill="#c28905" d="M241 723h12v11h12v13h-12v-12h-12z"/><path fill="#965041" d="M397 554h12v12h12v12h-12v-11h-12z"/><path fill="#c67b61" d="M446 446h11c1.28 11.66 1.09 23.28 1 35h12v1h-13v-12h-11z"/><path fill="#bb6e56" d="M638 289h1v12h12v12h-24v-12h11z"/><path fill="#bd755d" d="M397 241h12v12h-11v12h-13v-12h12z"/><path fill="#043978" d="M72 855h1v24h12v24h12v24h11v-35H96v-24H85v-1h12v24h12v36h12v24h10v1h-11v-24h-11v24H97v24h-1v-25h12v-23H96v-24H84v-24H72z"/><path fill="#967341" d="M349 554h12v1h-11v35h23v12h-12v-11h-12v47h-24v-11h1v10h22v-46h-11v-1h12z"/><path fill="#9e7627" d="M627 555h23v23h-11v-12h10v-10h-21v45h12v73h-1v-72h-12z"/><path fill="#c6785f" d="M385 614h13v12h11v12h-11l-1-11-12-1z"/><path fill="#181d2f" d="M554 867h12v24h-12z"/><path fill="#010208" d="M506 855h12v24h-12z"/><path fill="#0c0801" d="M602 831h12v24h-12z"/><path fill="#010206" d="M494 831h12v24h-12z"/><path fill="#cd9611" d="M145 831h12v24h-12z"/><path fill="#181e30" d="M566 819h12v24h-12z"/><path fill="#020103" d="M614 807h12v24h-12z"/><path fill="#030204" d="M482 807h12v24h-12z"/><path fill="#050303" d="M470 783h12v24h-12z"/><path fill="#cb9005" d="M325 771h24v12h-24z"/><path fill="#171c30" d="M578 771h12v24h-12z"/><path fill="#040100" d="M639 759h12v24h-12z"/><path fill="#050506" d="M458 759h12v24h-12z"/><path fill="#000206" d="M0 759h12v24H0z"/><path fill="#070505" d="M349 747h24v12h-24z"/><path fill="#040100" d="M663 723h12v24h-12z"/><path fill="#181d2f" d="M590 723h12v24h-12z"/><path fill="#0d0800" d="M855 711h24v12h-24z"/><path fill="#090500" d="M831 699h24v12h-24z"/><path fill="#030202" d="M807 687h24v12h-24z"/><path fill="#040304" d="M433 663h24v12h-24z"/><path fill="#032156" d="M229 542h24v12h-24z"/><path fill="#040100" d="M530 530h12v24h-12z"/><path fill="#402920" d="M590 518h12v24h-12z"/><path fill="#6f4f3a" d="M530 506h12v24h-12z"/><path fill="#d48369" d="M542 470h24v12h-24z"/><path fill="#602d23" d="M542 386h24v12h-24z"/><path fill="#ce7d63" d="M518 386h24v12h-24z"/><path fill="#fbdcc3" d="M518 361h24v12h-24z"/><path fill="#d08e78" d="M433 277h24v12h-24z"/><path fill="#e0c83b" d="M384 891h1v12h-36v12c-14.19.16-14.19.16-86 1l1-3h83v-11c1-1 1-1 4.33-1.11 1.47 0 2.95 0 4.42.01.78 0 1.55.01 2.35.01 2.49 0 4.98.01 7.46.03 1.68 0 3.37.01 5.05.01 4.13.01 8.26.03 12.39.05-.01-.64-.02-1.28-.04-1.93 0-.83-.01-1.66-.02-2.51-.01-.82-.03-1.64-.04-2.49.1-2.07.1-2.07 1.1-3.07"/><path fill="#e6c53a" d="M853 717h1l1 5 24 1v12h12v12h12v72h-2v-70h-10c-2-2-2-2-2.2-4.38.03-.91.05-1.81.08-2.74.01-.92.03-1.83.05-2.76.02-.7.05-1.4.07-2.12-.35.01-.35.01-2.12.07-.91.02-1.82.04-2.76.05-.45.02-.45.02-2.74.08C879 737 879 737 877 735v-10h-23c-1.35-2.71-1.07-5.01-1-8"/><path fill="#5f3d2e" d="M445 108c2.69-.03 5.37-.05 8.06-.06l2.28-.03c4.67-.02 9.06.31 13.66 1.09v11h-24z"/><path fill="#040303" d="M373 133h12v24h-11v-11l-2-1z"/><path fill="#0d0801" d="M783 675h23l1 12h-24z"/><path fill="#facdab" d="M446 289v12h-24v-11c8.05-.86 15.9-1.09 24-1"/><path fill="#d7a414" d="M566 892h12v23h-12z"/><path fill="#050103" d="M410 651h23v12h-23z"/><path fill="#030507" d="M157 554h23v12h-23z"/><path fill="#764531" d="M410 277h23v12h-23z"/><path fill="#a88533" d="M180 590h13l-1 2h-10c.02.77.05 1.54.07 2.34.01.5.01.5.05 3.04.03.99.05 1.99.08 3.02-.2 2.6-.2 2.6-2.2 4.6-2.32.4-4.66.74-7 1l-1 5c.63.03 1.25.05 1.9.08 2.82.11 5.65.23 8.48.36.98.04 1.96.08 2.98.12l2.85.12c.87.04 1.74.08 2.64.11C193 612 193 612 195 613c.41 2.5.41 2.5.62 5.56.08 1.01.15 2.03.23 3.07.05.78.1 1.56.15 2.37l3.38-.06C203 624 203 624 205 625c1.74.15 3.48.25 5.23.32a2818 2818 0 0 0 6.39.24c.55.02.55.02 3.3.13 2.69.11 5.39.21 8.08.31v-14c5.19-1.04 7.91-.93 13 0 .16.33.16.33 1 2h-13v13h-36v-13h-24v-12h11z"/><path fill="#926c24" d="M181 675h48v12h24v12h24v12h36v11h-1v-9c-.52 0-.52 0-3.18.02-3.89.01-7.78.03-11.66.03l-5.06.03c-2.41.01-4.83.01-7.25.02-.75 0-1.51.01-2.29.01-5.33 0-5.33 0-7.56-1.11v-11c-1.56.02-3.13.05-4.74.07-2.05.02-4.09.04-6.14.05l-3.12.06c-.99 0-1.98.01-2.99.02-.46 0-.46 0-2.76.03C253 701 253 701 251 699c-.2-2.6-.2-2.6-.12-5.62.01-1.01.03-2.01.05-3.04.02-.77.05-1.55.07-2.34-.35 0-.35 0-2.1.02-3.11.02-6.22.03-9.34.04l-3.3.03c-1.03 0-2.07 0-3.13.01-.48 0-.48 0-2.91.01C228 688 228 688 227 687v-11h-46z"/><path fill="#03225a" d="M121 807h11v24h-11z"/><path fill="#01215c" d="M49 795h11v24H49z"/><path fill="#010407" d="M13 735h11v24H13z"/><path fill="#000205" d="M25 711h11v24H25z"/><path fill="#012059" d="M313 675h24v11h-24z"/><path fill="#f2c108" d="M241 615h24v11h-24z"/><path fill="#085799" d="M181 555h24v11h-24z"/><path fill="#000206" d="M181 543h24v11h-24z"/><path fill="#030101" d="M470 518h11v24h-11z"/><path fill="#8f4d3f" d="M518 398h24v11h-24z"/><path fill="#f6ae8a" d="M482 374h24v11h-24z"/><path fill="#020101" d="M675 145h11v24h-11z"/><path fill="#040202" d="M663 121h11v24h-11z"/><path fill="#030100" d="M470 109h24v11h-24z"/><path fill="#3c241b" d="M518 97h24v11h-24z"/><path fill="#040302" d="M614 85h24v11h-24z"/><path fill="#20130d" d="M626 132h12c1 1 1 1 1.11 4.33 0 1.47 0 2.95-.01 4.42 0 .78-.01 1.55-.01 2.35 0 2.49-.01 4.98-.03 7.46 0 1.68-.01 3.37-.01 5.05-.01 4.13-.03 8.26-.05 12.39h12v13h-13v-12h-12zm1 1v35h11v-35z"/><path fill="#000103" d="M686 554v24h-11v-23c9-1 9-1 11-1"/><path fill="#01215c" d="M591 976h23v11h-23z"/><path fill="#0b599d" d="M133 952h11v23h-11z"/><path fill="#000104" d="M494 892h11v23h-11z"/><path fill="#000005" d="M470 856h11v23h-11z"/><path fill="#051f53" d="M133 832h11v23h-11z"/><path fill="#000206" d="M940 832h11v23h-11z"/><path fill="#010000" d="M422 711h11v23h-11z"/><path fill="#010203" d="M37 699h23v11H37z"/><path fill="#040201" d="M61 687h23v11H61z"/><path fill="#030101" d="M85 675h23v11H85z"/><path fill="#040202" d="M386 663h11v23h-11z"/><path fill="#f3c205" d="M205 615h23v11h-23z"/><path fill="#000205" d="M699 591h11v23h-11z"/><path fill="#000104" d="M121 591h11v23h-11z"/><path fill="#020201" d="M289 506h23v11h-23z"/><path fill="#5c2b21" d="M458 446h23v11h-23z"/><path fill="#4c2d23" d="M446 398h23v11h-23z"/><path fill="#f5ae88" d="M458 386h23v11h-23z"/><path fill="#be6c53" d="M458 374h23v11h-23z"/><path fill="#f3af8c" d="M687 362h11v23h-11z"/><path fill="#7c5942" d="M579 121h11v23h-11z"/><path fill="#020104" d="m627 784 10 1c.23 2.31.46 4.62.68 6.93C638 794 638 794 639 795c.14 4 .04 7.99 0 12h-12z"/><path fill="#063b7a" d="M903 964h1v23h11v-23h1v23h11v-11h1v12h-12v24h-13v-12h12v-12h-12z"/><path fill="#958034" d="M386 783h11v12h12v12h12c.64 20.34 1.17 40.65 1 61h-12v23h-1q-.045-5.94-.06-11.88l-.03-3.41c0-.54 0-.54-.01-3.26 0-.5 0-.5-.01-3.02C409 867 409 867 410 865h9v-21h-9v-1h10v-35h-12c-1.2-2.41-1.1-3.95-1.06-6.62.01-.82.02-1.64.02-2.48.02-.63.03-1.25.04-1.9-.63.01-1.25.02-1.9.04-.82 0-1.63.01-2.48.02-.81.01-1.62.03-2.46.04C398 797 398 797 396 796v-12h-10z"/><path fill="#ca9109" d="M122 783h11v24l-1-2h-10z"/><path fill="#a98f28" d="M723 939h60v12h36v1h-48v-12h-48z"/><path fill="#b17761" d="M554 662h12v13h-96v-1h84z"/><path fill="#46332b" d="M639 96h12v12h12v12h-1v-11h-11v48h-12v-1h11v-36h-11v-12h11V97h-11z"/><path fill="#39413d" d="M229 614h12v12h84v1h-86v-10l-7 1c-.05.63-.1 1.25-.15 1.9-.07.82-.15 1.63-.23 2.48-.06.81-.13 1.62-.21 2.46C231 627 231 627 229 629c-2.65.18-5.2.23-7.85.2-.78-.01-1.55-.01-2.35-.01-2.47-.01-4.95-.04-7.42-.07-1.68-.01-3.36-.01-5.04-.02-4.11-.02-8.23-.06-12.34-.1l-1-2h36z"/><path fill="#030101" d="M759 663h23v10l-23 1z"/><path fill="#b4735d" d="M662 361h1v61h-12v12h-1q-.045-5.97-.06-11.94l-.03-3.44c0-1.08 0-2.16-.01-3.27 0-1-.01-2-.01-3.03C650 410 650 410 651 409h11z"/><path fill="#443c18" d="M132 807h1v24h12v24h12v48h12v36h-1v-35c-1.98.16-1.98.16-12 1-1-1-1-1-1.12-2.9 0-.42 0-.42.01-2.53v-2.85c0-1.02.01-2.05.01-3.1 0-1.04.01-2.08.01-3.16q0-5.01.03-10.02c0-2.26.01-4.52.01-6.78.01-5.55.03-11.11.05-16.66-.71.01-1.42.02-2.15.04-.92 0-1.84.01-2.79.02-.91.01-1.83.03-2.77.04C145 857 145 857 144 856c-.09-1.78-.11-3.56-.1-5.35.01-1.08.01-2.16.01-3.27l.03-3.44c0-1.14.01-2.28.01-3.46.01-2.83.03-5.65.05-8.48h-12z"/><path fill="#0a417b" d="M253 627h12v11h59v1h-59v23h-1v-23h-11z"/><path fill="#f1c419" d="M663 795h12c-3.19 2.13-5.27 2.5-9 3-.79 5.56-1.14 10.92-1.11 16.53v2.45c0 2.66 0 5.31.01 7.96 0 1.85.01 3.7.01 5.55 0 4.84.01 9.69.02 14.53.01 4.96.02 9.91.02 14.87.01 9.7.03 19.41.05 29.11.61-.02 1.23-.05 1.86-.07.81-.02 1.62-.04 2.45-.05.4-.02.4-.02 2.43-.08 2.26.2 2.26.2 5.26 2.2.29 2.38.29 2.38.19 5.12-.03.92-.06 1.83-.08 2.76-.04.7-.07 1.4-.11 2.12h9v2h-11v-12h-12z"/><path fill="#7b622a" d="M638 759h1v24h13l-1 2h-10l1 7 10 1-1 62h-1v-60h-12c-1-1-1-1-1.1-3.07.02-1.15.02-1.15.1-6.93l-10-1v23h-1v-24h12z"/><path fill="#c0ae4a" d="M878 904h1v72h-36v-12h-24v-12h1v10c1.64-.01 3.27-.02 4.96-.04 2.14 0 4.28-.01 6.42-.02l3.27-.03c1.03 0 2.06 0 3.12-.01.96 0 1.91-.01 2.89-.01C843 962 843 962 845 963v11h33z"/><path fill="#af7f0e" d="M626 675h1v48h-12v24h-1v-36h12z"/><path fill="#f5ae88" d="M676 386h9v24h-9z"/><path fill="#452518" d="M663 361h12v73h-1v-60h-11z"/><path fill="#b46555" d="M470 458h12v10l72 1v1h-84z"/><path fill="#144c7c" d="M494 855h12v24h12v36h-12v-24h-12v-12h1l1 9 2.15.18c.92.09 1.84.17 2.79.26.91.08 1.83.16 2.77.24C506 889 506 889 507 890c.09 1.78.11 3.56.1 5.35-.01 1.08-.01 2.16-.01 3.27l-.03 3.44c0 1.14-.01 2.28-.01 3.46-.01 2.83-.03 5.65-.05 8.48 1.49-.16 1.49-.16 9-1l-1-32h-9c-1-1-1-1-1.11-3.32 0-1 .01-2 .01-3.03.01-1.08.01-2.16.01-3.27l.03-3.44c0-1.14.01-2.28.01-3.46.01-2.83.03-5.65.05-8.48h-11z"/><path fill="#000002" d="M869 1001h9v23h-9z"/><path fill="#406a92" d="M241 517c1.92 3.84.43 8.88 0 13h12v12h-12v-11c-1.4.01-2.8.02-4.24.04-1.88 0-3.76.01-5.64.02-.45.01-.45.01-2.78.03-6.17.02-12.21-.35-18.34-1.09v-1c3.95-.02 7.9-.04 11.85-.05 2.01-.01 4.02-.03 6.02-.04.63 0 .63 0 3.81-.01.58 0 .58 0 3.52-.01 2.8.11 2.8.11 4.8 1.11-.01-.85-.02-1.71-.04-2.59 0-1.1-.01-2.21-.02-3.35-.01-1.1-.03-2.2-.04-3.34.1-2.72.1-2.72 1.1-3.72"/><path fill="#192c49" d="M179 590h1v12h-11v12h24v12h-12l-1-9-12-1v-15h11z"/><path fill="#936d2a" d="M314 723h11v12h12v12h12v12h24v12h12v12h-2v-10l-4.94.06c-1.68.02-3.37.01-5.06-.06-1-1-1-1-1.1-3.72.01-1.1.03-2.21.04-3.34.01-1.11.02-2.21.02-3.35.02-.85.03-1.71.04-2.59-.36 0-.36 0-2.19.02-3.25.02-6.5.03-9.75.04-.57.01-.57.01-3.44.03-1.08 0-2.16 0-3.27.01-.5 0-.5 0-3.03.01C348 760 348 760 347 759a95 95 0 0 1-.06-5.06c.01-.92.02-1.84.02-2.79.02-.71.03-1.42.04-2.15-.35.01-.35.01-2.12.07-.45.01-.45.01-2.76.05-.45.02-.45.02-2.74.08C337 749 337 749 335 747c-.2-2.6-.2-2.6-.12-5.62.01-1.01.03-2.01.05-3.04.02-.77.05-1.55.07-2.34-.78.01-1.56.02-2.37.04-1.01 0-2.02.01-3.07.02-1.01.01-2.02.03-3.06.04-2.5-.1-2.5-.1-3.5-1.1-.07-1.85-.08-3.71-.06-5.56.01-1.01.02-2.03.02-3.07.02-.78.03-1.56.04-2.37h-9z"/><path fill="#4b3024" d="M494 108h12v12h12v1h-48v-1h24z"/><path fill="#b36f57" d="M614 434h1v23h11v-11h13v12h-25z"/><path fill="#295768" d="M324 638c3.92-.03 7.83-.05 11.75-.06l3.31-.03c7.37-.02 14.61.38 21.94 1.09.79 7.86 1.1 15.56.88 23.45-.01.52-.01.52-.07 3.11-.08 3.23-.16 6.46-.25 9.69-.05 2.21-.1 4.42-.16 6.63-.12 5.37-.26 10.75-.4 16.12h-12v-1h10v-57h-35z"/><path fill="#a36f5f" d="M337 386h12v12h-11v15l-2 1v-15l-11-1v-3l1 2h11z"/><path fill="#b56a56" d="M349 313h12v12l-11 1v35h-1z"/><path fill="#3d5b75" d="M24 710h12v1H25v50H14c.09.7.09.7.56 4.25.62 6 .11 11.77-.56 17.75h-2v-24H0v-1h12v-24h12zm-11 25v24h11v-24z"/><path fill="#bb8b0f" d="M578 843h12v12h-11v36h-1z"/><path fill="#b8880e" d="M590 795h12v12h-11v36h-1z"/><path fill="#130a03" d="M698 687h1v24h-12v12h-12v-12c7.72-.81 15.23-1.09 23-1z"/><path fill="#051029" d="m168 939 24 1v1h-23v34h12v49h-1v-48h-11v48h-1v-48h-11v-1h11z"/><path fill="#b3912b" d="M361 651h12v12h-11v35h-1z"/><path fill="#cfa121" d="M157 856h1v35h11c.1 8.5.1 8.5 0 11l-1 1h-11z"/><path fill="#687a48" d="M662 855h1v36h12v12h12v12h12v12h24v12h-1v-11c-.86.04-.86.04-5.21.25-2.25.11-4.49.21-6.73.31-.57.03-.57.03-3.44.17l-3.27.15c-.5.02-.5.02-3.03.14C698 929 698 929 697 928c-.14-3.67-.04-7.33 0-11h-11v-13h-12v-12h-12z"/><path fill="#1e536b" d="M639 831h11v24h12v37h12v12h-1v-11c-.43.01-.43.01-2.59.04-1.1 0-2.21.01-3.35.02-1.1.01-2.2.03-3.34.04C661 893 661 893 660 892c-.16-2.52-.26-5.01-.32-7.54l-.06-2.28-.18-7.24c-.05-1.64-.09-3.27-.13-4.9-.11-4.02-.21-8.03-.31-12.04l-1.93-.18c-.83-.09-1.66-.17-2.51-.26-.82-.08-1.64-.16-2.49-.24C650 857 650 857 649 856c-.09-1.78-.11-3.56-.1-5.35.01-1.08.01-2.16.01-3.27l.03-3.44c0-1.14.01-2.28.01-3.46.01-2.83.03-5.65.05-8.48-2.89.34-2.89.34-6 1-1.81 2.56-1.81 2.56-3 5h-1z"/><path fill="#c57c62" d="M433 397h12v1h-11l.06 5.31c.01 5.96-.44 11.77-1.06 17.69l-12 1v-13h12z"/><path fill="#d2896d" d="M457 289h37v12h-12v-11h-25z"/><path fill="#01245d" d="M472.723 962.902c3.09.03 6.18.07 9.28.1v13h-13c-.1-9.28-.1-9.28 0-12 1-1 1-1 3.72-1.1"/><path fill="#ca8e08" d="M445 759h13v24h-1v-12h-12z"/><path fill="#c88f04" d="M205 698h24v13h-12v-12h-12z"/><path fill="#be765d" d="M385 398h13v24h-1v-12h-12z"/><path fill="#69372f" d="M566 446h1v11h11v-11h12v12h-24z"/><path fill="#b5ae45" d="M263 916h2v12h-72v-2h70z"/><path fill="#c8bd4d" d="M409 746h2v11l5.44-.06c1.85-.02 3.71-.01 5.56.06 1 1 1 1 1.1 3.5-.02 1.42-.02 1.42-.1 8.5h12v12l5.44-.06c1.85-.02 3.71-.01 5.56.06 1 1 1 1 1.1 3.5-.01 1.01-.03 2.02-.04 3.06-.01 1.01-.02 2.03-.02 3.07-.02.78-.03 1.56-.04 2.37h10v2h-11v-12h-12v-12h-13v-12h-12z"/><path fill="#976f24" d="M711 675h11l-1 2h-8c.02.7.05 1.4.07 2.12.01.45.01.45.05 2.76.03.9.05 1.8.08 2.74C713 687 713 687 711 689c-2.16.41-2.16.41-4.62.62-.82.08-1.64.15-2.48.23-.63.05-1.25.1-1.9.15l-.06 1.9c-.1 2.82-.2 5.65-.32 8.48l-.09 2.98-.12 2.85-.09 2.64C701 711 701 711 699 713c-1.91.38-1.91.38-4.06.56C691 714 691 714 690 715c-.37 2.33-.7 4.66-1 7h-2v-11h12v-24h12z"/><path fill="#cc9303" d="M674 771h1v24h-12v-12h11z"/><path fill="#bd9626" d="M61 699h11c.81 7.72 1.09 15.23 1 23h11v1H72v-12H61z"/><path fill="#954b3e" d="M554 602h24v1h-12v11h-12z"/><path fill="#8d4b3e" d="M458 602h24v12h-12v-11h-12z"/><path fill="#8d4b3d" d="M578 590h24v1h-12v11h-12z"/><path fill="#c78f08" d="M229 554h24v1h-12v11h-12z"/><path fill="#3a271e" d="M433 530h13v12h-13z"/><path fill="#3c251b" d="M650 434h1v24h-12v-12h11z"/><path fill="#f2b08a" d="M433 385h13v12h-13z"/><path fill="#41271d" d="M530 482h13c.1 8.5.1 8.5 0 11-1 1-1 1-3.72 1.1-3.1-.03-6.19-.07-9.28-.1z"/><path fill="#905145" d="M561.008 324.902c.99 0 1.97.01 2.99.01l3.13.03a1987 1987 0 0 1 10.87.06v1h-12v11h-12v-11c2.51-1.25 4.21-1.12 7.01-1.1"/><path fill="#a48273" d="M687 361h12v24h12v1l-11 1v3h-2v-4h-11v47h12c.16-.5.16-.5 1-3v4h-25v-1h11v-47h-11v-1h23v-23h-11z"/><path fill="#00215c" d="M506 1000h12v12h-12z"/><path fill="#00205a" d="M494 988h12v12h-12z"/><path fill="#0d5496" d="M145 976h12v12h-12z"/><path fill="#f1c213" d="M807 939h12v12h-12z"/><path fill="#ca9205" d="M385 819h12v12h-12z"/><path fill="#c49115" d="M133 819h12v12h-12z"/><path fill="#ca9205" d="M373 807h12v12h-12z"/><path fill="#cd9305" d="M361 795h12v12h-12z"/><path fill="#082554" d="M108 783h12v12h-12z"/><path fill="#cb9106" d="M349 783h12v12h-12z"/><path fill="#cd9304" d="M675 759h12v12h-12z"/><path fill="#080405" d="M373 759h12v12h-12z"/><path fill="#cf9305" d="M313 759h12v12h-12z"/><path fill="#cf9506" d="M265 759h12v12h-12z"/><path fill="#ca9101" d="M711 759h12v12h-12z"/><path fill="#110700" d="M651 747h12v12h-12z"/><path fill="#050203" d="M446 747h12v12h-12z"/><path fill="#0b0708" d="M337 735h12v12h-12z"/><path d="M891 735h12v12h-12z"/><path fill="#060304" d="M325 723h12v12h-12z"/><path fill="#cb9303" d="M241 723h12v12h-12z"/><path fill="#0f0901" d="M879 723h12v12h-12z"/><path fill="#cb9201" d="M735 723h12v12h-12z"/><path fill="#01060c" d="M313 711h12v12h-12z"/><path fill="#ca9106" d="M229 711h12v12h-12z"/><path fill="#c79110" d="M373 663h12v12h-12z"/><path fill="#c87e65" d="M458 662h12v12h-12z"/><path fill="#c5785f" d="M578 650h12v12h-12z"/><path fill="#c5765c" d="M434 650h12v12h-12z"/><path fill="#030102" d="M385 627h12v12h-12z"/><path fill="#b9850c" d="M663 602h12v12h-12z"/><path fill="#bd765f" d="M373 602h12v12h-12z"/><path fill="#89483d" d="M446 590h12v12h-12z"/><path fill="#bd7058" d="M361 590h12v12h-12z"/><path fill="#412b21" d="M554 566h12v12h-12z"/><path fill="#dab932" d="M277 530h12v1h-10v12c-2.5 1.25-4.21 1.11-7.01 1.1-.98-.01-1.97-.01-2.99-.01l-3.12-.03c-.53 0-.53 0-3.16-.01-2.57-.01-5.15-.03-7.72-.05.01.39.01.39.07 2.34.01.5.01.5.05 3.04.03.99.05 1.99.08 3.02-.2 2.6-.2 2.6-2.2 4.6-2.38.2-2.38.2-5.12.12-.46 0-.46 0-2.76-.05-.7-.02-1.4-.05-2.12-.07l-1 9h-1v-11h12v-13h24z"/><path fill="#0b0300" d="M349 542h12v12h-12z"/><path fill="#305577" d="M205 529c1 2 1 2 0 13h24v12l-4-1h2v-9c-2.98.14-5.96.29-8.94.44l-2.57.12-2.45.12c-.75.04-1.5.08-2.27.11C209 545 209 545 208 546c-.07 1.35-.08 2.71-.06 4.06L208 554h-3v-11h-24v11h-1v-12h24v-12z"/><path fill="#6a4c39" d="M506 518h12v12h-12z"/><path fill="#050200" d="M494 518h12v12h-12z"/><path fill="#040100" d="M542 506h12v12h-12z"/><path fill="#3d281e" d="M530 506h12v12h-12z"/><path fill="#402a21" d="M494 506h12v12h-12z"/><path fill="#3a261e" d="M626 494h12v12h-12z"/><path fill="#0c0703" d="M313 494h12v12h-12z"/><path fill="#6a2f25" d="M554 458h12v12h-12z"/><path fill="#beaba6" d="M554 446h12v12h-12z"/><path fill="#a96552" d="M409 434h12v12h-12z"/><path fill="#3d2519" d="M651 422h12v12h-12z"/><path fill="#b96f59" d="M602 422h12v12h-12z"/><path fill="#3a261d" d="M554 422h12v12h-12z"/><path fill="#382117" d="M578 410h12v12h-12z"/><path fill="#44281c" d="M385 410h12v12h-12z"/><path fill="#372219" d="M361 386h12v12h-12z"/><path fill="#f8bd9c" d="M506 361h12v12h-12z"/><path fill="#0b0301" d="M482 313h12v12h-12z"/><path fill="#120603" d="M421 313h12v12h-12z"/><path fill="#ba6c54" d="M409 313h12v12h-12z"/><path fill="#c57b61" d="M639 313h12v12h-12z"/><path fill="#bb755e" d="M421 301h12v12h-12z"/><path fill="#f1ac88" d="M349 301h12v12h-12z"/><path fill="#f7b18c" d="M337 277h12v12h-12z"/><path fill="#e5997b" d="M566 277h12v12h-12z"/><path fill="#87533e" d="M457 277h12v12h-12z"/><path fill="#dc957c" d="M494 265h12v12h-12z"/><path fill="#c0765e" d="M421 265h12v12h-12z"/><path fill="#b96e57" d="M385 253h12v12h-12z"/><path fill="#c4775e" d="M638 193h12v12h-12z"/><path fill="#c07860" d="M626 181h12v12h-12z"/><path fill="#35241d" d="M542 145h12v12h-12z"/><path fill="#402b22" d="M530 133h12v12h-12z"/><path fill="#40271c" d="M566 96h12v12h-12z"/><path fill="#225157" d="M348 699h1v12h12v12h12v12h24v11h-1v-10h-25c-.17-1.65-.17-1.65-1-10l-11-1v-12l-4.94.06c-1.68.02-3.37.01-5.06-.06-1-1-1-1-1.1-3.94.01-1.2.03-2.39.04-3.62.01-1.2.02-2.4.02-3.63.02-.93.03-1.86.04-2.81"/><path fill="#7c735a" d="M84 674h24v1H85v24H61v11h-1v-11H36v-1h24v-12h24zm-23 13v11h23v-11z"/><path fill="#090503" d="M386 121c8.5-.1 8.5-.1 11 0 1 1 1 1 1.13 3.25 0 .91 0 1.81-.01 2.75.01.91.01 1.81.01 2.75C398 132 398 132 397 133c-3.67.14-7.33.04-11 0z"/><path fill="#112137" d="M265 627h60v11h-2v-9h-58z"/><path fill="#19537a" d="M843 976h36v24h-12l1-2h9v-20h-33z"/><path fill="#bc725b" d="m385 614 12 1v11h-12z"/><path fill="#8a483d" d="m421 578 12 1v11h-12z"/><path fill="#070201" d="M433 133h13v11h-12z"/><path fill="#3d251c" d="M421 133h12v11c-1.98.16-1.98.16-12 1z"/><path fill="#0d5392" d="M494 940h12v11h-12z"/><path fill="#0f5187" d="M518 916h12v11h-12z"/><path fill="#00020a" d="M506 916h11v12h-11z"/><path fill="#00205b" d="M109 855h11v12h-11z"/><path fill="#c78e06" d="M398 831h11v12h-11z"/><path fill="#00040e" d="M433 820h12v11h-12z"/><path fill="#e9c324" d="M470 807h11v12h-11z"/><path fill="#010309" d="M422 807h11v12h-11z"/><path fill="#215361" d="M398 747h11v12h12v12h13v12c-.33-.16-.33-.16-2-1-.41-2.07-.41-2.07-.62-4.56-.08-.83-.15-1.66-.23-2.51-.05-.63-.1-1.27-.15-1.93-.61.02-1.23.05-1.86.07-.41.01-.41.01-2.45.05-.4.02-.4.02-2.43.08C422 773 422 773 419 771c-.29-2.38-.29-2.38-.19-5.12.03-.92.06-1.83.08-2.76.04-.7.07-1.4.11-2.12-.7.02-1.4.05-2.12.07-.45.01-.45.01-2.76.05-.45.02-.45.02-2.74.08C409 761 409 761 407 759c-.2-2.38-.2-2.38-.12-5.12.01-.92.03-1.83.05-2.76.01-.35.01-.35.07-2.12l-3.38.12C400 749 400 749 398 747"/><path fill="#010204" d="M904 747h11v12h-11z"/><path fill="#060605" d="M434 735h12v11h-12z"/><path fill="#c99014" d="M410 711h11v12h-11z"/><path fill="#030102" d="M398 686h11v12h-11z"/><path fill="#040201" d="M699 674h11v12h-11z"/><path fill="#040305" d="M591 651h11v12h-11z"/><path fill="#030203" d="M374 650h11v12h-11z"/><path fill="#011f57" d="M289 651h12v11h-12z"/><path fill="#040203" d="M603 639h11v12h-11z"/><path fill="#070404" d="M397 639h12v11h-12z"/><path fill="#010104" d="M362 638h11v12h-11z"/><path fill="#070103" d="M373 615h12v11h-12z"/><path fill="#f8c707" d="M205 579h12v11h-12z"/><path fill="#00040a" d="M133 579h12v11h-12z"/><path fill="#f0c124" d="M639 566h11v12h-11z"/><path fill="#01050d" d="M145 567h12v11h-12z"/><path fill="#844439" d="M398 554h11v12h-11z"/><path fill="#72513c" d="M458 518h11v12h-11z"/><path fill="#422d23" d="M603 506h11v12h-11z"/><path fill="#3e2a20" d="M434 494h11v12h-11z"/><path fill="#f3ac8a" d="M470 482h11v12h-11z"/><path fill="#3e291f" d="M398 470h11v12h-11z"/><path fill="#dfdddc" d="M542 446h12v11h-12z"/><path fill="#c17760" d="M639 434h11v12h-11z"/><path fill="#050100" d="M458 434h11v12h-11z"/><path fill="#533224" d="M446 434h11v12h-11z"/><path fill="#402a1f" d="M458 422h11v12h-11z"/><path fill="#be755c" d="M398 422h11v12h-11z"/><path fill="#f4ab86" d="M578 398h12v11h-12z"/><path fill="#3f251b" d="M373 398h12v11h-12z"/><path fill="#824033" d="M554 386h12v11h-12z"/><path fill="#73372a" d="M506 386h12v11h-12z"/><path fill="#7e4033" d="M482 386h12v11h-12z"/><path fill="#bd735a" d="M578 386h12v11h-12z"/><path fill="#d9886a" d="M506 374h12v11h-12z"/><path fill="#f5af89" d="M446 373h11v12h-11z"/><path fill="#fac3a6" d="M494 374h12v11h-12z"/><path fill="#f4ae8a" d="M470 361h11v12h-11z"/><path fill="#0c0301" d="M615 325h11v12h-11z"/><path fill="#d6d0cf" d="M566 326h12v11h-12z"/><path fill="#c2745c" d="M615 313h11v12h-11z"/><path fill="#bd765d" d="M615 277h11v12h-11z"/><path fill="#41251b" d="M410 169h11v12h-11z"/><path fill="#030000" d="M421 145h12v11h-12zm133-24h12v11h-12z"/><path fill="#412c22" d="M542 121h12v11h-12z"/><path fill="#040101" d="M651 109h11v12h-11z"/><path fill="#392118" d="M615 109h11v12h-11z"/><path fill="#3a2219" d="M578 109h12v11h-12z"/><path fill="#765640" d="M566 109h12v11h-12z"/><path fill="#070301" d="M542 109h12v11h-12z"/><path fill="#050302" d="M398 109h11v12h-11z"/><path fill="#020101" d="M638 97h12v11h-12z"/><path fill="#030201" d="M410 97h11v12h-11z"/><path fill="#c3a331" d="M662 723h1v24h-12v12h-13v24h-12v-2h11c-.01-1.65-.02-3.3-.04-5 0-2.14-.01-4.29-.02-6.44l-.03-3.3c0-1.03 0-2.07-.01-3.13 0-.96-.01-1.92-.01-2.91C637 758 637 758 638 757c3.67-.14 7.33-.04 11 0v-11h13z"/><path fill="#4f6c4c" d="M385 891h24v1h-23v13h-35v10h-2v-12h36z"/><path fill="#1e0900" d="M337 554h12v36h-12zm2 2c-.09 2.45-.12 4.87-.1 7.32 0 .73.01 1.46.01 2.21 0 2.35.01 4.69.03 7.03 0 1.59.01 3.17.01 4.76.01 3.89.03 7.79.05 11.68h8c1.48-2.96 1.12-5.95 1.1-9.2 0-.35 0-.35-.01-2.14q0-3.39-.03-6.78c0-1.54-.01-3.07-.01-4.6-.01-3.76-.03-7.52-.05-11.28-7.88-.12-7.88-.12-9 1"/><path fill="#1a0700" d="M361 494h2v47l7-2 2-9h1v12h-12z"/><path fill="#f0bc12" d="M806 891h1v36h-12v24h-12v-11l2 1v8h9l-1-4c-.09-1.43-.13-2.86-.13-4.29 0-.4 0-.4-.01-2.41.01-.82.01-1.64.02-2.49-.01-.83-.01-1.66-.02-2.52.01-6.16.01-6.16 1.14-7.29h12z"/><path fill="#184874" d="M373 747h2v10h11c1.26 2.52 1.1 4.31 1.06 7.12-.01.92-.02 1.83-.02 2.76-.02.7-.03 1.4-.04 2.12.78-.01 1.56-.02 2.37-.04 1.01 0 2.02-.01 3.07-.02 1.01-.01 2.02-.03 3.06-.04 2.5.1 2.5.1 3.5 1.1.07 2.02.08 4.04.06 6.06-.01 1.11-.02 2.21-.02 3.35-.02.85-.03 1.71-.04 2.59h10v1c-1.81.03-3.62.05-5.44.06-1.01.01-2.02.03-3.06.04-2.5-.1-2.5-.1-3.5-1.1-.14-3.67-.04-7.33 0-11h-12v-12h-12z"/><path fill="#f3c014" d="M711 711h12v12l-2-1v-10l-7 2c-1.14 4.52-1.13 8.95-1.1 13.58 0 .82.01 1.63.01 2.47 0 2.59.01 5.17.03 7.76 0 1.76.01 3.52.01 5.28.01 4.3.03 8.61.05 12.91l11 2v13h-1v-12h-12z"/><path fill="#13213b" d="M663 614h11v2h-9l.03 2.08q.06 4.65.09 9.3l.06 3.27c0 1.03.01 2.06.02 3.12l.03 2.89C665 639 665 639 663 641h-10l1 44h-2v-45l10-1z"/><path fill="#101e30" d="M651 554h2v22h10c2 2 2 2 2.23 4.34-.01.47-.01.47-.03 2.89-.01.51-.01.51-.02 3.12l-.06 3.27c0 1.09-.01 2.18-.02 3.3-.03 2.69-.06 5.39-.1 8.08h9v1h-11v-24h-12z"/><path fill="#114f8e" d="M133 855c1.81-.03 3.62-.05 5.44-.06 1.01-.01 2.02-.03 3.06-.04 2.5.1 2.5.1 3.5 1.1.09 2.59.12 5.16.1 7.75 0 .78-.01 1.55-.01 2.35 0 2.49-.01 4.98-.03 7.46 0 1.68-.01 3.37-.01 5.05-.01 4.13-.03 8.26-.05 12.39h-12v-23h1l1 22c1.16-.16 1.16-.16 7-1l1-32-10-1z"/><path fill="#fbc49d" d="M422 290h11c.73 4.21 1.05 6.8 0 11h-11z"/><path fill="#050000" d="M434 157h11v11h-12z"/><path fill="#0d589b" d="M904 1000h11v11h-11z"/><path fill="#0c5698" d="M109 1000h11v11h-11z"/><path fill="#0d5594" d="M579 976h11v11h-11z"/><path fill="#00215f" d="M482 976h11v11h-11z"/><path fill="#001d54" d="M615 964h11v11h-11z"/><path fill="#001e5a" d="M627 952h11v11h-11z"/><path fill="#00225f" d="M591 952h11v11h-11z"/><path fill="#0c5a9f" d="M506 952h11v11h-11z"/><path fill="#00205c" d="M494 952h11v11h-11z"/><path fill="#001f58" d="M603 940h11v11h-11z"/><path fill="#001d54" d="M482 940h11v11h-11z"/><path fill="#01225f" d="M37 940h11v11H37z"/><path fill="#00205b" d="M615 928h11v11h-11z"/><path fill="#00225f" d="M470 928h11v11h-11z"/><path fill="#cb9208" d="M170 927h11v11h-11z"/><path fill="#01205c" d="M25 928h11v11H25z"/><path fill="#001f59" d="M627 916h11v11h-11z"/><path fill="#001f5c" d="M458 904h11v11h-11z"/><path fill="#0b599f" d="M458 892h11v11h-11z"/><path fill="#00030a" d="M482 880h11v11h-11z"/><path fill="#000103" d="M458 844h11v11h-11z"/><path fill="#edc524" d="M482 832h11v11h-11z"/><path fill="#000109" d="M446 832h11v11h-11z"/><path fill="#040203" d="M398 783h12v11c-7.71.1-7.71.1-10 0-2.27-2.27-1.74-8.11-2-11"/><path fill="#f0bc12" d="M301 759h12v10h-1v-9l-8 2c-.03.63-.05 1.25-.08 1.9-.05.82-.11 1.63-.17 2.48-.02.4-.02.4-.14 2.46-.61 2.16-.61 2.16-2.22 3.45-2.39.71-2.39.71-9.39.71l-2 34h-1v-36h12z"/><path fill="#050304" d="M410 699h11v11h-11z"/><path fill="#032055" d="M687 687h11v11h-11z"/><path fill="#393f54" d="M410 687h11v11h-11z"/><path fill="#010105" d="M711 663h11v11h-11z"/><path fill="#c37860" d="M410 639h11v11h-11z"/><path fill="#02050a" d="M711 615h11v11h-11z"/><path fill="#095699" d="M675 579h11v11h-11z"/><path fill="#00060c" d="M687 579h11v11h-11z"/><path fill="#105796" d="M663 555h11v11h-11z"/><path fill="#10538f" d="M651 543h11v11h-11z"/><path fill="#010309" d="M663 543h11v11h-11z"/><path fill="#3f2920" d="M410 458h11v11h-11z"/><path fill="#3b261e" d="M482 410h11v11h-11z"/><path fill="#f6b18c" d="M567 386h11v11h-11z"/><path fill="#bf6c53" d="M567 374h11v11h-11z"/><path fill="#bd7158" d="M482 362h11v11h-11z"/><path fill="#f5ac87" d="M675 338h11v11h-11z"/><path fill="#f1b08b" d="M687 326h11v11h-11z"/><path fill="#d6d4d4" d="M603 326h11v11h-11z"/><path fill="#fdcfab" d="M398 326h11v11h-11z"/><path fill="#d6d3d1" d="M470 314h11v11h-11z"/><path fill="#d3d1cf" d="M434 314h11v11h-11z"/><path fill="#f6b490" d="M627 314h11v11h-11z"/><path fill="#814a34" d="M639 302h11v11h-11z"/><path fill="#050201" d="M639 169h11v11h-11z"/><path fill="#020000" d="M398 169h11v11h-11z"/><path fill="#b66a57" d="M530 157v11h-12v-10c1.81-.17 3.62-.33 5.44-.5 1.01-.09 2.02-.19 3.06-.28 2.5-.22 2.5-.22 3.5-.22"/><path fill="#050100" d="M410 157h11v11h-11z"/><path fill="#3b251c" d="M410 145h11v11h-11z"/><path fill="#7c5a44" d="M398 145h11v11h-11z"/><path fill="#745441" d="M410 133h11v11h-11z"/><path fill="#765641" d="M627 109h11v11h-11z"/><path fill="#815e46" d="M615 97h11v11h-11z"/><path fill="#040202" d="M422 85h11v11h-11z"/><path fill="#41281c" d="M627 121h11v11c-7.71.1-7.71.1-10 0-1-1-1-1-1.1-3.29.03-2.57.07-5.14.1-7.71"/><path fill="#135492" d="M687 591h11v23h-1v-22c-7 1-7 1-8 2-.12 2.49-.19 4.96-.21 7.46l-.03 2.36c-.03 2.59-.05 5.19-.08 7.78l-.06 5.37-.15 14.18c-.05 4.82-.11 9.64-.16 14.46-.11 9.46-.21 18.93-.31 28.39h-1z"/><path fill="#110909" d="M590 747h1l1 45 9 1v-46h1v48h-12z"/><path fill="#e4c833" d="M723 928h2v9h47v2h-49z"/><path fill="#c2b03b" d="M84 723h1v11h14v12h9v1H98v10h10v2c-1.81.03-3.62.05-5.44.06-1.01.01-2.02.03-3.06.04C97 759 97 759 96 758c-.09-1.71-.11-3.42-.1-5.13.01-1.03.01-2.07.01-3.13l.03-3.3c0-1.09.01-2.19.01-3.31.01-2.71.03-5.42.05-8.13H84z"/><path fill="#1e1410" d="M446 518h11v12h-10l1-11z"/><path fill="#926e2a" d="M386 783h11v12h12v12h12v36h-1v-35h-12c-1.2-2.41-1.1-3.95-1.06-6.62.01-.82.02-1.64.02-2.48.02-.63.03-1.25.04-1.9-.63.01-1.25.02-1.9.04-.82 0-1.63.01-2.48.02-.81.01-1.62.03-2.46.04C398 797 398 797 396 796v-12h-10z"/><path fill="#caa01e" d="M217 566h11v1h-10v11h23v12h-1v-11l-45 1v10h-2v-12h24z"/><path fill="#cb9309" d="M98 747h11v12l-1-2H98z"/><path fill="#012360" d="M302 663h10v11h-10z"/><path fill="#a65a4b" d="M628 326h10v11h-10z"/><path fill="#eca481" d="M590 303h12l1 9h-13z"/><path fill="#586674" d="M939 795h1v36h12v24h-1v-23h-11v23h-1v-23h-12v-1h12z"/><path fill="#344455" d="M711 614h12v12h12v24h-1v-23h-11v35h-1v-35h-11v-1h11v-11h-11z"/><path fill="#222426" d="M421 806h1v13h11c-2 2-2 2-9 3l-1 45h-1c-1.13-20.34-1.11-40.64-1-61"/><path fill="#ecc22b" d="M651 579h11v23h-1v-22h-9v45c7-1 7-1 8-2 .23-1.51.41-3.04.56-4.56.09-.83.17-1.66.26-2.51.06-.63.12-1.27.18-1.93h1v12h-11z"/><path fill="#03152b" d="M927 795h12v1h-10v33h8l2 2h-12z"/><path fill="#3e4b57" d="M652 529h11v13h12v12c1.11-.21 2.23-.41 3.38-.62 1.19-.13 2.39-.25 3.62-.38l2 2h-9v11h-1v-23h-11v11h-1v-11h-11v-1h11v-12l-4 1c-2.33.04-4.67.04-7 0z"/><path fill="#f2be13" d="M687 747h12v12h12v12l-2-1v-10h-11l-1-11-7 1-2 20h-1z"/><path fill="#020a1f" d="M601 857h1v35h-11v24h-12v-1h11c-.02-.85-.02-.85-.11-5.18-.02-2.23-.05-4.46-.08-6.7-.01-.56-.01-.56-.07-3.41l-.03-3.26c-.02-1-.03-1.99-.05-3.02.11-.8.22-1.6.34-2.43 3-2 3-2 10-2z"/><path fill="#efc729" d="M639 675h11v12h12v11h-1v-9c-.39.01-.39.01-2.34.07-1 .02-2 .04-3.04.05-.99.03-1.99.05-3.02.08-2.6-.2-2.6-.2-4.6-2.2-.41-2.38-.41-2.38-.62-5.12-.08-.92-.15-1.83-.23-2.76L647 677c-1.67-.04-3.33-.04-5 0-1.62 1.62-1.22 3.46-1.32 5.69l-.12 2.86-.12 3.01c-.05 1-.09 2-.13 3.02-.11 2.48-.21 4.95-.31 7.42h-1z"/><path fill="#ebc624" d="M362 663h11v12h-1l-1-10h-5c-1.92 1.92-1.25 5.47-1.32 8.1l-.06 2.15-.18 6.81c-.05 1.54-.09 3.08-.13 4.61-.11 3.78-.21 7.55-.31 11.33h-2z"/><path fill="#c68064" d="M481 374h1v11h36v1h-36v11h-1v-11h-23v11h-1v-12h24z"/><path fill="#033471" d="M578 976h1v11h11v-11h1v11h23v1h-23v12h-24v-1h23v-11h-12z"/><path fill="#edc534" d="M384 675h1v12h12v12h12v23h-1c-.75-7.04-1.1-13.92-1-21h-11v-13h-12z"/><path fill="#eec428" d="M205 615h23v11h-23zm1 1v8h20v-8z"/><path fill="#202422" d="M227 554h2v12h-12v12h-24v-1h22l-.06-5.94c-.02-2.02-.01-4.04.06-6.06 1-1 1-1 3.5-1.1.51.01.51.01 3.06.04 1.01.01 2.03.02 3.07.02.78.02 1.56.03 2.37.04z"/><path fill="#f8be98" d="M397 325h12v1h-11v11h11v-10h1v10h23v1l-22 1-1 22h-1v-23h-12z"/><path fill="#15548a" d="m37 711 10.81-.06 3.34-.03c6.67-.02 13.22.36 19.85 1.09v8h-1v-7l-30 1c-.73 2.93-1.16 5.17-1.32 8.11l-.12 2.28-.12 2.36c-.05.79-.09 1.59-.13 2.4-.11 1.95-.21 3.9-.31 5.85h-1z"/><path fill="#114c7e" d="M975 988h13v36h-2c-.16-5.77-.16-5.77-1-35h-10z"/><path fill="#dfc73b" d="M408 867h1v24h-24l1-2h21c-.06-10.44-.06-10.44-.09-13.73 0-.85-.01-1.7-.01-2.58 0-.44 0-.44-.01-2.65C407 868 407 868 408 867"/><path fill="#0e4784" d="M120 807h1v24h11c1 1 1 1 1.11 3.22 0 .96-.01 1.92-.01 2.91-.01 1.03-.01 2.07-.01 3.13l-.03 3.3c0 1.09-.01 2.19-.01 3.31-.01 2.71-.03 5.42-.05 8.13-2-2-2-2-2.23-4.06l.03-2.51c.01-.45.01-.45.02-2.72l.06-2.83c0-.95.01-1.89.02-2.87.03-2.34.06-4.67.1-7.01-.71.01-1.42.02-2.15.04-.92 0-1.84.01-2.79.02-.91.01-1.83.03-2.77.04C121 833 121 833 120 832a103 103 0 0 1-.1-5.57c.01-1.12.01-2.25.01-3.4l.03-3.59c0-1.19.01-2.38.01-3.6.01-2.95.03-5.89.05-8.84"/><path fill="#0b589a" d="M254 629h10v9h-10z"/><path fill="#dfc941" d="M687 904h1v10c.85-.01 1.71-.02 2.59-.04 1.1 0 2.21-.01 3.35-.02 1.1-.01 2.2-.03 3.34-.04 2.72.1 2.72.1 3.72 1.1v10h21v2h-23v-12h-12z"/><path fill="#dbcb50" d="M663 856h1v34h12c1 1 1 1 1.1 3.29-.01.91-.03 1.83-.04 2.77-.01.92-.02 1.84-.02 2.79-.02.71-.03 1.42-.04 2.15h9v2h-11v-12h-12z"/><path fill="#0d234e" d="M120 614h12v1c-1.49.16-1.49.16-9 1l-1 45h9v-11h1v12h-11z"/><path fill="#dfb728" d="M313 506h12v1h-10v12c-4.12 1.29-7.67 2.26-12 2v9h-2v-12h12z"/><path fill="#052041" d="M433 807h1v12h12v12h12v12h-1v-11h-11l1 12h-2v-12h-12v-1h12v-11h-12z"/><path fill="#523d0b" d="M638 759h1v36l-2-1v-9l-10-1v23h-1v-24h12z"/><path fill="#083667" d="M180 554h25v1h-24v11h24v1h-24v11h-1v-11h-12v-1h12z"/><path fill="#ebb819" d="M337 506h12v12h-24v24h-1v-25l22-1 1-8-10-1z"/><path fill="#0c0400" d="M880 904h11v1c-2.05.23-4.1.46-6.15.68C883 906 883 906 882 907c-.12 2.09-.18 4.18-.21 6.26l-.03 1.98c-.03 2.17-.05 4.34-.08 6.51l-.06 4.51-.15 11.87c-.05 4.03-.11 8.07-.16 12.1-.11 7.92-.21 15.85-.31 23.77h-1z"/><path fill="#eebf17" d="m241 566-1 2c-1.84.39-1.84.39-4.22.6-.85.08-1.7.16-2.57.24-.9.07-1.79.15-2.71.22-1.76.16-3.52.31-5.28.48-.79.06-1.57.13-2.38.19C221 570 221 570 220 571v5l21 1v1h-23v-11c7.7-.92 15.24-1.11 23-1"/><path fill="#ce8669" d="M554 373h24v1h-11v11h11v1h-11v11h-1v-11h-24v-1h24v-11h-12z"/><path fill="#3e2018" d="M433 410h1v13h-11v22c-.33.17-.33.17-2 1q-.045-5.97-.06-11.94l-.03-3.44c0-1.08 0-2.16-.01-3.27 0-1-.01-2-.01-3.03C421 422 421 422 422 421c3.67-.14 7.33-.04 11 0z"/><path fill="#125088" d="M566 1000h24v1c-3.47.16-3.47.16-21 1 .12 8.19.12 8.19.18 10.74.03 4.21-.22 7.42-2.18 11.26h-1z"/><path fill="#01081d" d="M181 662c4.91-.03 9.81-.04 14.72-.05l4.99-.03c9.5-.04 18.83.11 28.29 1.08v10h-1c-.14-1.13-.29-2.27-.44-3.44C227 666 227 666 226 665c-3.56-.06-7.1-.02-10.65.04-.75.01-1.5.01-2.28.02-.34.01-.34.01-2.07.04-2-.1-2-.1-3.9-.58-2.6-.64-5.06-.74-7.74-.84l-3.24-.12-3.37-.12c-.56-.02-.56-.02-3.41-.13-2.78-.11-5.56-.21-8.34-.31z"/><path fill="#957d34" d="M229 611c2 .04 4 .15 6 .31l3.31.24c.45.07.45.07 2.69.45.16.33.16.33 1 2h-13v13h-36v-1h35v-14z"/><path fill="#0a1e43" d="M277 686c2.11 4.22 2.18 6.4 2 11 .6-.01 1.21-.01 1.83-.02 22.16-.16 22.16-.16 32.17 1.02v1h-36z"/><path fill="#121f2c" d="M251 542h2v12h-24l1-2c3.3-.16 3.3-.16 20-1z"/><path fill="#081e4a" d="M169 941h22v1c-4.35.84-8.44 1.11-12.88 1.06-1.15-.01-2.3-.02-3.49-.02-.87-.02-1.73-.03-2.63-.04-.8 4.84-1.08 9.41-1 14.31.05 5.97-.22 11.77-1 17.69h-1z"/><path fill="#e5c334" d="M241 615h2v9h21v-9h1v11h-24z"/><path fill="#2f1f01" d="M807 687h2v10h21v-6h1v8h-24z"/><path fill="#081a40" d="M566 940h11v1c-2.05.23-4.1.46-6.15.68C569 942 569 942 568 943c-.12 1.78-.18 3.56-.21 5.35l-.06 3.45c-.01 1.25-.03 2.49-.05 3.77l-.06 3.83-.15 10.09c-.05 3.43-.11 6.87-.16 10.3-.11 6.73-.21 13.47-.31 20.21h-1z"/><path fill="#1a5372" d="M820 964h23v12l-3-2v-8h-20z"/><path fill="#251200" d="M663 723h12v24h-1c-.83-5.04-1.11-9.81-1.06-14.94 0-.68.01-1.37.01-2.07.01-1.66.03-3.33.05-4.99l-7 1-2 6h-1z"/><path fill="#14517a" d="M470 821h11l1 22 12 1v11h-1v-10c-.42.02-.42.02-2.55.11-1.1.02-2.2.05-3.33.08-.54.01-.54.01-3.3.1-.93-.09-1.86-.19-2.82-.29-2.07-3.11-2.24-3.7-2.16-7.2l.03-2.41c.02-.83.05-1.66.07-2.51.06-2.97.08-5.92.06-8.88-1.5-1.5-2.99-1.33-5.06-1.56-1.3-.15-2.6-.29-3.94-.44z"/><path fill="#9a833d" d="M120 783h2v22h10v2h-12z"/><path fill="#1b526d" d="m83 734 13 1v23c-2-2-2-2-2.23-3.97l.03-2.38c.01-.85.02-1.7.02-2.58l.06-2.69c0-.9.01-1.8.02-2.72.03-2.22.06-4.44.1-6.66H84z"/><path fill="#0b1f42" d="M253 530h23v11h-22v-1l19-1 1-8h-21z"/><path fill="#e7c033" d="M419 723h2v12h12v12h-1l-1-10c-.78.01-1.56.02-2.37.04-1.01 0-2.02.01-3.07.02-1.01.01-2.02.03-3.06.04-2.5-.1-2.5-.1-3.5-1.1-.07-2.19-.08-4.38-.06-6.56.01-1.2.02-2.4.02-3.63.02-.93.03-1.86.04-2.81"/><path fill="#f3bf13" d="M229 723h12v12h12v12h-1l-1-11-5 1c-3.25-.31-3.25-.31-6-1-1.71-3.42-1.62-7.23-2-11l-9-1z"/><path fill="#02081b" d="M253 686h24v11h-2v-9c-1.34.02-2.67.05-4.05.07-1.75.02-3.51.04-5.26.05l-2.67.06c-.85 0-1.7.01-2.57.02l-2.37.03C256 688 256 688 253 686"/><path fill="#f4c209" d="m645.063 567.938 2.94.06v9h-7c-.1-6.15-.1-6.15 0-8 1-1 1-1 4.06-1.06"/><path fill="#be922b" d="M180 612c2.12-.03 4.25-.05 6.38-.06 1.18-.01 2.36-.03 3.58-.04 3.04.1 3.04.1 5.04 1.1.41 2.5.41 2.5.62 5.56.08 1.01.15 2.03.23 3.07.05.78.1 1.56.15 2.37l3.38-.12C203 624 203 624 205 626h-12l-1-12-12-1z"/><path fill="#efbb14" d="M254 747h11v24l-2-1c-.03-.6-.05-1.2-.08-1.82-.11-2.71-.23-5.41-.36-8.12l-.12-2.86-.12-2.73c-.04-.83-.08-1.66-.11-2.52C262 750 262 750 261 749c-2.33-.37-4.66-.7-7-1z"/><path fill="#000313" d="M458 844h11v11h-11zm1 1v8c2.33.04 4.67.04 7 0 1-1 1-1 1.06-4.56L467 845z"/><path fill="#18578e" d="M181 555h24v11h-1l-1-8c-4.05-1.11-8.07-1.34-12.25-1.56-.75-.05-1.49-.09-2.26-.13-1.83-.11-3.66-.21-5.49-.31v10h-2z"/><path fill="#a3664b" d="M638 289h1v12h12v12h-1v-11h-11v11h-1v-11h-11v-1h11z"/><path fill="#ddae97" d="M337 277h12v12h-1l-1-10h-8v10h-2z"/><path fill="#c0901b" d="M652 807h8v1l-6 2-1 43h-1z"/><path fill="#a27b22" d="M446 759h12v24h-1c-.71-7.36-1.11-14.6-1-22h-10z"/><path fill="#2e2f21" d="M229 614h12v13h-2v-11h-9v10h-1z"/><path fill="#7c483e" d="M554 602h24v1c-7.36.71-14.6 1.11-22 1v10h-2z"/><path fill="#ad8c35" d="M193 578h24v1c-7.36.71-14.6 1.11-22 1v10h-2z"/><path fill="#311410" d="M421 566c.33.16.33.16 2 1v10l4.94-.06c1.68-.02 3.37-.01 5.06.06 1 1 1 1 1.1 3.72-.01 1.1-.03 2.21-.04 3.34-.01 1.11-.02 2.21-.02 3.35-.02.85-.03 1.71-.04 2.59h-1v-11l-5.44.06c-1.85.02-3.71.01-5.56-.06-1-1-1-1-1.1-3.72.01-1.1.03-2.21.04-3.34.01-1.11.02-2.21.02-3.35.02-.85.03-1.71.04-2.59"/><path fill="#968b42" d="M96 735h1c.71 7.36 1.11 14.6 1 22h10v2c-1.81.03-3.62.05-5.44.06-1.01.01-2.02.03-3.06.04C97 759 97 759 96 758c-.09-1.71-.11-3.42-.1-5.13.01-1.03.01-2.07.01-3.13.01-.55.01-.55.03-3.3 0-1.09.01-2.19.01-3.31.01-2.71.03-5.42.05-8.13"/><path fill="#ad8d34" d="M229 554h24v1c-7.36.71-14.6 1.11-22 1v9c-.33.16-.33.16-2 1z"/><path fill="#947a3a" d="M663 602h12v12h-12v-1h10v-9h-10z"/><path fill="#135580" d="M373 736h23l1 10c3.44 2.3 5.94 2.54 10 3l-1 4v-3c-.99.03-.99.03-5.96.2C398 750 398 750 395 748v-11h-22z"/><path fill="#e1ba2d" d="M325 494h12v12l-2-1c-.59-2.65-.74-5.29-1-8l-7-1-1 10h-1z"/><path fill="#000313" d="M494 892h11v1h-10v21c7-1 7-1 8.94-2.56.35-.48.7-.95 1.06-1.44v5h-11z"/><path fill="#2b1600" d="M639 759h12v24h-1l-1-22-10 1z"/><path fill="#081839" d="M626 807h13c-3.34 1.67-6.48 2.83-10 4-1.55 1.55-1.22 3.1-1.32 5.25l-.12 2.59-.12 2.72c-.05.9-.09 1.81-.13 2.73-.11 2.24-.21 4.47-.31 6.71h-1z"/><path fill="#dfa184" d="M566 277h12v12h-8v-1c1.15-.17 1.15-.17 7-1v-9c-1.49.17-1.49.17-9 1v10h-2z"/><path fill="#423005" d="M614 807h12v1l-10 1 .06 4.25c.01 5.95-.49 11.83-1.06 17.75h-1z"/><path fill="#321d04" d="M397 782c3.16 3.16 2.63 6.63 3 11l10 1v13h-1v-12h-12z"/><path fill="#053d7e" d="M493 976h1v11h12v1h-12v12h-1v-12h-11v-1h11z"/><path fill="#8c8345" d="M108 759h1l2 22 9 1v1h-12z"/><path fill="#021023" d="M699 674h11c-3.09 3.09-3.92 3.45-8 4-.12 1.13-.25 2.27-.38 3.44-.2 1.17-.41 2.35-.62 3.56-.33.16-.33.16-2 1z"/><path fill="#cd9312" d="M289 735h12v7l-2-1v-4h-7l-2 16h-1z"/><path fill="#f3c31e" d="M205 579h12v11h-1l-1-9-8 1-1 8h-1z"/><path fill="#192027" d="M121 807h11v24h-1c-.16-3.47-.16-3.47-1-21l-9-1z"/><path fill="#3b5e52" d="M422 771h12v12l-2-1c-.6-2.98-.74-5.96-1-9h-9z"/><path fill="#8e6823" d="M372 771h13v12h-2v-10h-10z"/><path fill="#0e1e31" d="M662 685h2l2 10 8 1v2h-11z"/><path fill="#000416" d="M231 675h22v10h-2v-8l-3.81.06c-5.44.01-10.79-.49-16.19-1.06z"/><path fill="#e2c93a" d="m674 890 3 1v10h9v2h-11z"/><path fill="#0e1e3c" d="M639 542h12v1h-9l-1 8c1.49.33 1.49.33 9 2v1h-11z"/><path fill="#3b5e51" d="M446 795h12v12l-2-1c-.59-2.65-.74-5.29-1-8-1.3-.12-2.6-.25-3.94-.38-2.21-.21-2.21-.21-4.06-.62z"/><path fill="#301f00" d="M891 735h2v10h9l1 2h-12z"/><path fill="#3e6458" d="M434 783h12v12l-2-1v-9h-9z"/><path fill="#f2bf14" d="M205 699h12v12l-2-1v-9h-9z"/><path fill="#0c2048" d="M639 796h10v21h-1v-20c-6.75 2.25-6.75 2.25-9 5z"/><path fill="#02142a" d="M398 783h12v11l-2-1v-8h-9z"/><path fill="#f6c61e" d="M446 771h11v12l-2-1v-9h-9z"/><path fill="#eec011" d="M301 530v1c-.34.02-.34.02-2.09.11-12.63.89-12.63.89-17.91 3.89-1.25 2.11-1.25 2.11-2 4v-8c7.36-.91 14.59-1.11 22-1"/><path fill="#e8c229" d="M783 940c.33.16.33.16 2 1v8h10v2h-12z"/><path fill="#1b0a00" d="M313 711c2 1 2 1 2.69 2.75.36 2.64-.05 4.68-.69 7.25l10 1v1h-12z"/><path fill="#081c43" d="M578 916h12v1l-1.93.18c-.83.09-1.66.17-2.51.26l-2.49.24C581 918 581 918 580 919a75 75 0 0 0-.32 4.47 1889 1889 0 0 0-.24 5.59c-.05.95-.09 1.9-.13 2.88-.11 2.35-.21 4.71-.31 7.06h-1z"/><path fill="#efc72d" d="M133 807h2v10l9 1v1h-11z"/><path fill="#dfd0cc" d="M482 446h12v11h-1v-10l-9 2-1 8h-1z"/><path fill="#16567c" d="M455 798h1c.23 2.05.46 4.1.68 6.15C457 806 457 806 458 807c1.68.23 3.37.41 5.06.56 1.63.15 3.26.29 4.94.44v10h-1v-9h-12z"/><path fill="#c8951c" d="M579 844h11v1c-.57.07-.57.07-3.44.44C583 846 583 846 582 847c-.23 1.35-.41 2.7-.56 4.06-.07.65-.07.65-.44 3.94h-2z"/><path fill="#000211" d="M613 833h1v22h-9v-1l7-2z"/><path fill="#14558e" d="M675 579h11v11h-1l-1-9h-6l-2 5h-1z"/><path fill="#115496" d="M591 988h23v1l-20 1-2 6h-1z"/><path fill="#e9b912" d="M579 855h10v7h-1v-5l-6 1-1 7h-1z"/><path fill="#f2c015" d="M145 820c.33.16.33.16 2 1v8l10 1v1h-12z"/><path fill="#000718" d="M387 771h10v11l-2-1v-7c-1.13-.12-2.27-.25-3.44-.38-1.17-.2-2.35-.41-3.56-.62z"/><path fill="#165387" d="M145 579h11v1l-8 1-1 9h-2z"/><path fill="#221300" d="M591 855h11v2c-.63.03-1.25.05-1.9.08-.82.05-1.63.11-2.48.17-.81.05-1.62.09-2.46.14-2.16.61-2.16.61-3.45 2.66-.23.64-.47 1.29-.71 1.95z"/><path fill="#c58d0f" d="M699 723h11v1c-1.11.1-2.23.21-3.38.31-1.19.23-2.39.46-3.62.69-2.13 3.19-2.5 5.27-3 9h-1z"/><path fill="#c89010" d="M242 723h11v11l-2-1 .06-2.88C251 727 251 727 250 725c-1.85-.41-1.85-.41-4.06-.62-1.3-.13-2.6-.25-3.94-.38z"/><path fill="#0a1d42" d="M120 614h12v1c-1.49.16-1.49.16-9 1l-1 7h-1z"/><path fill="#114e88" d="M192 555h13v11h-1l-1-8c-3.62-1.01-7.28-1.5-11-2z"/><path fill="#c99011" d="M663 783h10l-1 2-2.94-.06C666 785 666 785 665 786c-.23 1.51-.41 3.04-.56 4.56-.09.83-.17 1.66-.26 2.51-.06.63-.12 1.27-.18 1.93h-1z"/><path fill="#100100" d="M591 651h11l-2 2h-5c-2.36 2.36-2.49 3.78-3 7h-1z"/><path fill="#124d89" d="M639 831h10v1c-.93.06-1.86.12-2.81.19-3.19.81-3.19.81-5 3.37-.39.81-.79 1.61-1.19 2.44h-1z"/><path fill="#95584b" d="M579 591h11v1c-2.05.23-4.1.46-6.15.68C582 593 582 593 581 594c-.23 1.35-.41 2.7-.56 4.06-.15 1.3-.29 2.6-.44 3.94h-1z"/><path fill="#bd7c68" d="M444 398h1v11h-11v-1c2.05-.23 4.1-.46 6.15-.68C442 407 442 407 443 406c.23-1.35.41-2.7.56-4.06.15-1.3.29-2.6.44-3.94"/><path fill="#105393" d="M928 976h10v1c-.57.07-.57.07-3.44.44C931 978 931 978 930 979c-.23 1.35-.41 2.7-.56 4.06-.15 1.3-.29 2.6-.44 3.94h-1z"/><path fill="#c18a11" d="M302 747h11v8h-1c-.17-.83-.17-.83-1-5-1.49-.33-1.49-.33-9-2z"/><path fill="#c68e10" d="M675 759h11v1c-.63.11-1.25.22-1.9.33-.82.16-1.63.32-2.48.48-.4.08-.4.08-2.46.46C677 762 677 762 675 765z"/><path fill="#14508b" d="M242 531h5c-.47.35-.95.7-1.44 1.06-2.24 2.78-2.23 5.45-2.56 8.94l3 1h-4z"/><path fill="#966913" d="M688 712h8v1l-6 2-1 7h-1z"/><path fill="#135392" d="M62 816c.54.14 1.07.29 1.62.44 2.78.65 5.57 1.11 8.38 1.56v1H61z"/><path fill="#150000" d="m492 321 1 4h-11l1-2 3.38.12C490 323 490 323 492 321"/><path fill="#115ba0" d="M627 928h10v1c-1.09.08-2.19.16-3.31.25-3.69.75-3.69.75-5.63 2.81L627 934z"/><path fill="#efb393" d="m506 277 4 1-2 2c-.41 2.16-.41 2.16-.62 4.62-.08.82-.15 1.64-.23 2.48-.03.31-.03.31-.15 1.9h-1z"/><path fill="#105597" d="M627 964h11v1c-.99.1-.99.1-5.96.59C630 966 630 966 627 968z"/></svg>