<svg xmlns="http://www.w3.org/2000/svg" width="777" height="777" viewBox="181 74 777 777"><path fill="#0e0b11" d="M677 308h64v8h-9v76h-9v19h-9v18h19v9h19v9h18v225h-9v10h8v9h29v8h18v-8h38v8h-28v29h18v10h9v18h10v9h9v19h20v28h-19v9h27v9h-8v10h-10v9H247v-9h-10v-9h-9v-29h-9V691h9v102h10v9h9v1l-8 1-1 17h19v9h18v9l3 1h-12c-1.16-3.48-.71-5.46 0-9h-10v-9h-9l1 16c3 .75 5.97 1.41 9 2l1 7h259l1-8h111v-8h-36v-10h19v-9h10v9h8v-28h9v9h74v-9h10v-9h10v-9h18v-10h10v-9h18v-9h19v-10h18v-9h-27c-1-10-1-10-1-19h-19v-10h-8v-8h-29v8h-19v10h-9v9c-6.07.77-11.89 1.1-18 1v9h-28v-29h-10v-74h-9v-28h-9v-28h-9v-37h-9v47h9v46h8v103h-8v9h-48v-9h-2.09c-16.94.03-33.89.04-50.83.05-8.19.01-16.39.01-24.58.03-7.16.01-14.31.01-21.47.01-3.78.01-7.55.01-11.33.02-18.92.03-37.79-.29-56.7-1.11v-18h9v-10h10v-46h8v-37h-6c-1.81-3.88-2.24-6.91-2.23-11.17v-3.7l.03-3.96c.01-1.36.01-2.72.01-4.08.01-3.57.03-7.14.05-10.71.02-3.65.03-7.29.04-10.94.02-7.15.06-14.29.1-21.44h-10v-9h-9v-19h-9c-.72-6.39-1.1-12.57-1-19h-9v-9h-9v-9h-10v-10h-9v-18h-9v-9c-1.27.01-2.53.02-3.84.04-1.7 0-3.4.01-5.1.02l-2.52.03c-5.59.02-10.99-.38-16.54-1.09v-18h28v-9h19v-9h18v-10h19v-9h19v-9h18v-10h19v-10h10v-8h10v9h7l1 28h9v19h9v27h10v19h10v18h9v19h10v18h9v-9h8v-9h10v-9h9v-9h10v-10h37v9l3.94-.06c1.35-.02 2.71-.01 4.06.06 1 1 1 1 1.1 3.07-.03 2.31-.07 4.62-.1 6.93h9v9h10v10h9v-28h-9l-1-47h-27v9h-9l1-28h-10v-9h-19v-9h-10v-10h19v9l4.44-.06c4.93-.01 9.67.43 14.56 1.06v9h18v-56h9v-9h29z"/><path fill="#d9d8d7" d="M368 410h19v1h-18v9h-19v9h-28c.16 1.98.16 1.98 1 12l-1 6c4.62.17 4.62.17 28 1v9h9v18h9v10h10v9h9v9h9c.83 6.4 1.09 12.55 1 19h9v19h9v9h10c.01.38.01.38.03 2.28.1 7.11.2 14.21.31 21.32.05 3.65.11 7.31.16 10.96l.15 10.58c.03 2 .06 4 .08 5.99l.06 3.7c.02 1.08.04 2.15.05 3.25.15 2.74.55 5.25 1.16 7.92h6v37h-8v46h-10v10h-9v18c1.64 0 3.27-.01 4.96-.01 17.98-.02 35.96.08 53.95.21l11.46.09c7.18.05 14.37.1 21.55.16l24.61.18c16.82.12 33.65.24 50.47.37v9h48v-9h8V625h-8v-46h-9v-47h9v37h9v28h9v28h9v74h10v29h28v-9c6.07-.77 11.89-1.1 18-1v-9h9v-10h19v-8h29v8h8v10h19c1 9 1 9 1 19h27v9h-18v10h-19v9h-18v9h-10v10h-18v9h-10v9h-10v9c-8.75 1.26-17.49 1.15-26.31 1.12h-2.45c-15.1-.02-30.16-.42-45.24-1.12v-9h-9v28h-8v-9h-10v9h-19v10h36v8H518v8c-1 1-1 1-2.79 1.12h-2.39c-.91.01-1.82.01-2.75.01-1.01 0-2.02-.01-3.06-.01h-3.22c-3.59 0-7.18 0-10.77-.01h-24.28c-7.99-.01-15.99-.01-23.98-.02-12.98 0-25.95-.01-38.92-.01l-37.81-.03h-14.04c-32.33-.01-64.66-.03-96.99-.05l-1-8h-8c-1.2-3.75-1.1-7.33-1.06-11.25.01-1.26.02-2.53.02-3.83.02-.96.03-1.93.04-2.92h9v9h10v9l9-1v-9h-18v-9h-19v-28h-10V691h-9v-1h9v-46h9v-38h10v-47h9v-27h10v-38h9v-9h9v-28h9v-10h10v-9h18v-10h28v-9h19z"/><path fill="#0c090b" d="M677 308h64v8h-9v76h-9v19h-9v18h19v9h19v9h18v225h-9v10h8v9h29v8h18v-8h38v8h-28v29h18v10h9v18h10v9h9v19h20v28h-19v9h27v9h-8v10h-10v9H247v-9h-10v-9h-9v-29h-9V691h9v102h10v9h9v1l-8 1-1 17h19v9h18v9l3 1h-12c-1.16-3.48-.71-5.46 0-9h-10v-9h-9l1 16c3 .75 5.97 1.41 9 2l1 7h259l1-8h111v-8h-36v-10h19v-9h10v9h8v-28h9v9h74v-9h10v-9h10v-9h18v-10h10v-9h18v-9h19v-10h18v-9h-27c-1-10-1-10-1-19h-19v-10h-8v-8h-29v8h-19v10h-9v9c-6.07.77-11.89 1.1-18 1v9h-28v-29h-10v-74h1v9h9v-9h8v-18h-8c-.75-6.37-1.1-12.58-1-19h-9v-28h-9v-38h18c.77-6.07 1.1-11.89 1-18h9v-28h-9l-1-47h-27v9h-9l1-28h-10v-9h-19v-9h-10v-10h19v9l4.44-.06c4.93-.01 9.67.43 14.56 1.06v9h18v-56h9v-9h29z"/><path fill="#ecab84" d="M546 74h150v9h18v10h19v9h18v10h10v9h8v19h10v37h-9v19h-9v9h-10v37l-9 1-1 9h-18v9h-10v-9h-9v-19h9v-10h10v-8c6.07-.77 11.89-1.1 18-1v-8h-9v-29h-28v-9h-27v-9c-1.34.01-2.68.01-4.06.02-5.02.01-10.03.03-15.04.03l-6.49.03c-3.13.01-6.25.01-9.37.02-.96 0-1.91.01-2.89.01h-2.79c-.8.01-1.59.01-2.41.01-4.33-.18-8.64-.69-12.95-1.12v56h56v9h9v10h-19v9h10v10h-19v-9h-9l-1 18h-46v-9h-9v9h-10v36h19v48l-8 1-1 8h-10v28h-19v-9h-8v-10h-9v-37h-19v10h-19v-10h-10v-9h-9v-47h-9v-18h-10v-19h-9v-56h10v-28h9v-18h9v-10h9v-9h10v-9h9V93h19v-9h9z"/><path fill="#946855" d="M732 429h1v9h19v9h18v225h-9v10h8v9h29v8h18v-8h38v8h-28v29h18v10h9v18h10v9h9v19h20v28h-19v9h27v9h-8v10h-10v9H247v-9h-10v-9h-9v-29h-9V691h9v102h10v9h9v1l-8 1-1 17h19v9h18v9l3 1h-12c-1.16-3.48-.71-5.46 0-9h-10v-9h-9l1 16c3 .75 5.97 1.41 9 2 .17 1.15.17 1.15 1 7h259l1-8h111v-8h-36v-10h19v-9h10v9h8v-28h9v9h74v-9h10v-9h10v-9h18v-10h10v-9h18v-9h19v-10h18v-9h-27c-1-10-1-10-1-19h-19v-10h-8c-1.11-7.1-1.13-14.07-1.1-21.25 0-1.25.01-2.51.01-3.8 0-3.31.01-6.61.02-9.92.01-3.39.02-6.77.02-10.16.01-6.62.03-13.25.05-19.87h9V466h-8v-9h8v-9h-18v-9h-19z"/><path fill="#ebebe9" d="M770 485h9c1.15 37.62 1.15 37.62 1 55 4.46.16 4.46.16 27 1v-47h10v37h9v29h9v9h10v28h9v19h9v18h10v28h9v19h10v18h9v38h9v9h9v47h-9v19h-9v19h-9v-1h8v-9c-.68.04-.68.04-4.13.25-1.81.11-3.62.21-5.43.31-.9.06-1.79.11-2.72.17-5.08.28-9.71.2-14.72-.73v-9h19v-28h-20v-19h-9v-9h-10v-18h-9v-10h-18v-29h28v-8h-38v8h-18v-8h-29v-9h-8v-10h9z"/><path fill="#fbe0cf" d="m621 158 56 1v9h27v9h28v29h9v8c-6.07.77-11.89 1.1-18 1v8h-10v10h-9v19h9v9h10v-9h18v-9h1v74h-10v-1h9v-8h-64v28h-29v9h-9v56h-18v-9l-3.88.06c-5.09.01-10.06-.49-15.12-1.06v-9h-19v-28h10l-.06-3.94c-.02-1.35-.01-2.71.06-4.06l1-1h8v-48h-19v-36h10v-9h9v9h46v-10c.29-2.67.61-5.34 1-8h9v9h19v-10h-10v-9h19v-10h-9v-9h-56z"/><path fill="#850c04" d="M546 74h150v9h18v10h19v9h18v10h-19v-9h-19v9h-74v9c-2.62.19-5.25.38-7.88.56-.37.03-.37.03-2.26.17-5.63.38-5.63.38-7.86-.73v-8h-9l.06 4c.01 4.42-.42 8.63-1.06 13h-8v-8h-29v9h-18v9h-10v8c-6.18.79-11.65 1-18 1v28h18v-9h10v9h8v10h-26l-1 9h-10v9h-18v9h28v9h19v10h-9v9h-10v10h-9v-10h-20v-9h-9v38h9v9h10v18h10v10h9v9h-9v19h-19v-10h-10v-9h-9v-47h-9v-18h-10v-19h-9v-56h10v-28h9v-18h9v-10h9v-9h10v-9h9V93h19v-9h9z"/><path fill="#fcdec9" d="M612 532h9v37h9v28h9v28h9v74h10v29h28v-9c6.07-.77 11.89-1.1 18-1v-9h9v-10h19v-8h29v8h8v10h19c1 9 1 9 1 19h27v9h-18v10h-19v9h-18v9h-10v10h-18v9h-10v9h-10v9c-8.75 1.26-17.49 1.15-26.31 1.12h-2.45c-15.1-.02-30.16-.42-45.24-1.12v-9h-9v28h-8v-9h7v-19h-8v-47h8v-8h-27v8h-19v-9h38v-9h8V625h-8v-46h-9z"/><path fill="#f5b592" d="M499 326h10v10h19v-10h19v37h9v10h8v9h19v10h10v9h19v9h10q.045 4.47.06 8.94l.03 2.52c.02 5.59-.38 10.99-1.09 16.54h9v-9h27c.69 6.19 1.14 12.01 1.1 18.19 0 .42 0 .42-.01 2.52 0 2.62-.01 5.23-.03 7.85 0 1.79-.01 3.58-.01 5.37-.01 4.36-.03 8.71-.05 13.07h9v28h-9v-10h-10v-9h-9l-1-9-8-1v-9h-37v10h-10v9h-9v9h-10v9h-8v9h-9v-18h-10v-19h-9v-18h-10v-19h-10v-27h-9v-19h-9c-1.21-9.34-1.09-18.6-1-28h-7v-9h-10v8h-1v-9h19v-18h10v18h8v-27h-9z"/><path fill="#b8653a" d="M713 103h19v9h29v9h8v19h10v37h-9v19h-9v9h-10v37l-9 1-1 9h-18v9h-10v-9h-9v-19h9v-10h10v-8c6.07-.77 11.89-1.1 18-1v-8h-9v-29h-28v-10h-8v-9h-29v-9h-55v57h-19v-38h9v-19h9v-18h-18v9h-10v37h-9v10h-10v-10h-8v-9h-10v9h-18v-28c6.32-.7 11.77-1.1 18-1v-8h10v-9h18v-9h29v8h8l1-17h9v8h18v-9h74z"/><path fill="#c97248" d="M677 308h64v8h-9v76h-9v19h-9v18h-1v-9h-9v9h-27v-9h-19v18h-1v-9h-27v9h-9l1-28h-10v-9h-19v-9h-10v-10h19v9l4.44-.06c4.93-.01 9.67.43 14.56 1.06v9h18v-56h9v-9h29z"/><path fill="#dad9d7" d="M368 486h9v8h10v9h9c.83 6.4 1.09 12.55 1 19h9v19h9v9h10c.01.38.01.38.03 2.28.1 7.11.2 14.21.31 21.32.05 3.65.11 7.31.16 10.96l.15 10.58c.03 2 .06 4 .08 5.99l.11 6.95c.15 2.74.55 5.25 1.16 7.92h6v37h-8v46h-10v10h-9v18h28v1h-38v-9l-3.88.06c-5.08.01-10.07-.47-15.12-1.06-.1-6.15-.1-6.15 0-8l1-1h9V607h-9c-.77-6.73-1.1-13.23-1-20h-9v-56h-9v-7c3.13-1.86 5.37-2.2 9-2l-.06-3.88c-.06-3.87-.06-3.87 1.06-6.12-.07-.41-.07-.41-.43-2.48-.75-4.65-.68-9.19-.63-13.9 0-.92.01-1.85.01-2.8.01-2.28.03-4.55.05-6.82"/><path fill="#9d301f" d="M546 74h150v9h18v10h19v9h18v10h-19v-9h-19v9h-74v9c-2.62.19-5.25.38-7.88.56-.37.03-.37.03-2.26.17-5.63.38-5.63.38-7.86-.73v-8h-9l.06 4c.01 4.42-.42 8.63-1.06 13h-8v-8h-29v9h-18v9h-9v-1h8v-9h9v-8h-65v26c-9 1-9 1-18 1v-18h9v-10h9v-9h10v-9h9V93h19v-9h9z"/><path fill="#d5d5d4" d="M770 485h9c1.15 37.62 1.15 37.62 1 55 4.46.16 4.46.16 27 1v-47h10v37h9v29h9v9h10v28h9v19h9v18h10l-1 28h-9v-19h-9c-.77-6.07-1.1-11.89-1-18-.71.16-1.41.33-2.14.5-2.96.52-5.67.6-8.67.56-.98-.01-1.95-.02-2.96-.02-.37-.01-.37-.01-2.23-.04-1.21 3.62-1.11 6.93-1.06 10.69 0 .7.01 1.4.01 2.12.01 1.73.03 3.46.05 5.19l-9 1c.01 1.22.02 2.43.04 3.68 0 1.59.01 3.17.02 4.76l.03 2.43c.01 2.04-.04 4.09-.09 6.13-1 1-1 1-3.07 1.1-.41-.01-.41-.01-2.49-.04-.83-.01-1.66-.02-2.51-.02-.63-.02-1.27-.03-1.93-.04-1-15.67-1.12-31.3-1-47h-9l-1-65h-8v37h-9v75h9v28h-29v-9h-8v-10h9z"/><path fill="#f8f0e0" d="m621 158 56 1v9h27v9h28v29h9v8c-6.07.77-11.89 1.1-18 1v8h-10v10h-9v37h9v19h10v18c-5.11.02-10.22.04-15.33.05l-5.21.03c-2.5.01-4.99.01-7.49.02-.78 0-1.56.01-2.37.01-1.87 0-3.73-.05-5.6-.11-1.89-1.89-1.13-4.58-1.14-7.08.01-.8.01-1.6.02-2.42-.01-.8-.01-1.6-.02-2.42.01-5.95.01-5.95 1.14-7.08 1.52-.07 3.04-.08 4.56-.06.83.01 1.66.02 2.51.02.63.02 1.27.03 1.93.04-.16-1.11-.33-2.23-.5-3.38-.61-4.88-.61-9.7-.56-14.62 0-.87.01-1.74.01-2.64.01-2.12.03-4.24.05-6.36h-9v-18h10v-19l-4.44.06c-4.93.01-9.67-.43-14.56-1.06v-9h-56z"/><path fill="#050604" d="M593 466h37v9l3.94-.06c1.35-.02 2.71-.01 4.06.06 1 1 1 1 1.1 3.07-.03 2.31-.07 4.62-.1 6.93h9v9h10c.2 3.17.38 6.33.56 9.5.06.89.11 1.77.17 2.69.3 5.42.29 10.46-.73 15.81-2.88 1.44-5.82 1.59-9 2v-2h-10v38h9v28h9c.82 6.38 1.12 12.57 1 19h8v18h-8v9h-9v-9h-10v-28h-9l-1-37h-7l-1-38h-10v66h-9v-19h-9v-37h-10c-.82-9.81-1.09-19.18 0-29h-10v10c-3 1-3 1-8 0v-19h9v-9h9v-9h10z"/><path fill="#eff1f0" d="M509 354h10v9h9v19h9v10h10v9h9v19h9v8l3.94-.06c4.75-.01 9.34.46 14.06 1.06v9h10v9h9v19h-9v10h-10v9h-9v9h-10v9h-8v9h-9v-18h-10v-19h-9v-18h-10v-28h-9l-1-37h-8l-1-19h10z"/><path fill="#f7dcc2" d="M686 224h10v19h-10v18h9l1 27c-1.49.16-1.49.16-9 1v17l36 1v-18h-10v-19h-9v-18h9v9h10v-9h18v-9h1v74h-10v-1h9v-8h-64v28h-28v-9h9v-10h9v-37h-73l-1 9h9v8h-19v-36h10v-9h9v9h46v-10c.29-2.67.61-5.34 1-8h9v9h19v-10h-10v-9h19z"/><path fill="#c6cac7" d="M882 681h10v18h9v38h9v9h9v47h-9v19h-9v19h-9v-1h8v-9c-1.36.08-2.73.17-4.13.25-1.81.11-3.62.21-5.43.31-.9.06-1.79.11-2.72.17-5.08.28-9.71.2-14.72-.73v-9h19v-28h-20v-19h-9v-9h-10v-18h-9v-10h-18v-29h28v-8h9v8h9v9h-9v10h19v10h9l-1-28-7-1c-.9-6.07-1.09-11.86-1-18"/><path fill="#e79b77" d="M788 756h57v9h9v10h8v18h-8v28c-1.49.16-1.49.16-9 1l-1 18h-17v-9h8v-29h-9v10h-9l.06 4.44c.02 1.52.01 3.04-.06 4.56-1 1-1 1-3.07 1.1-1.15-.02-1.15-.02-6.93-.1v9h-9c-2.98-11.91-.73-25.81 0-38h-10v19h-9v28h-19c-.13-18.71.19-37.31 1-56h8v-9h10v-10h9z"/><path fill="#983f1c" d="M499 233h9v9h20v10h9v-10h10v-9h9v10h-9v19c7.94-.06 7.94-.06 10.44-.09 1.85-.01 3.71.04 5.56.09 1 1 1 1 1.1 4.82-.01 1.58-.02 3.16-.04 4.74 0 .81-.01 1.62-.01 2.45-.01 1.99-.03 3.99-.05 5.99h-8v37h37v19h-37v9h8v18h10v9h9v10h-19v-9h-8v-10h-9v-37h-19v-9h9v-9h-9v-10h-10v-18h-10v-9h-9z"/><path fill="#731405" d="M751 112h10v9h8v19h10v37h-9v19h-9v9h-10v37l-9 1-1 9h-18v9h-10v-9h-9v-19h9v-10h10v-8c6.07-.77 11.89-1.1 18-1v-8h-9v-29h-28v-10h-8v-9h-19v-9h36v9h29v10h10v9h9l-.09-2.28c-.58-14.58-1.08-29.13-.91-43.72h-9z"/><path fill="#e8a98b" d="M732 691h29v8h8v10h19c1 9 1 9 1 19h27v9h-18v10h-19v9h-18v9h-10v10h-18v9h-10v9h-10v9c-8.75 1.26-17.49 1.15-26.31 1.12h-2.45c-15.1-.02-30.16-.42-45.24-1.12v-9h-9v28h-8v-9h7v-19h-8q-.045-4.47-.06-8.94l-.03-2.52c-.02-5.59.38-10.99 1.09-16.54h7v19l3.98-.09c48.7-1.12 48.7-1.12 71.02-.91v-8h19v-10h9v-9h10v-10h46v-9h-9v-9h9v-9l-46-1v-9h-29v-10h19z"/><path fill="#f3b286" d="M713 103h19v9h19v19h9c1.14 15.33 1.11 30.63 1 46h-9v-9h-10v-10h-29v-9h-27v-8l-3.91.06c-4.91 0-9.71-.43-14.59-1-.81-.08-1.62-.17-2.45-.26-5.92-.67-5.92-.67-7.05-1.8v-7h-19v-19h74z"/><path fill="#9d9e9c" d="M369 532h9v18h9c.17 6.11.17 6.11 1 37h8c1 1 1 1 1.11 4.51 0 1.56 0 3.12-.01 4.68 0 .82-.01 1.64-.01 2.49 0 2.62-.01 5.25-.03 7.88 0 1.78-.01 3.56-.01 5.34-.01 4.36-.03 8.73-.05 13.1h9v66h10v-28h8v-94h-9v-19h10l.03 2.28c.1 7.11.2 14.21.31 21.32.05 3.65.11 7.31.16 10.96l.15 10.58c.03 2 .06 4 .08 5.99l.11 6.95c.15 2.74.55 5.25 1.16 7.92h6v37h-8v46h-10v10h-9v18h28v1h-38v-9l-3.88.06c-5.08.01-10.07-.47-15.12-1.06-.1-6.15-.1-6.15 0-8l1-1h9V607h-9v-29h-9z"/><path fill="#0a0201" d="M714 794h18v9h-9v37h9v8H564v-8h75v-37h28v9h38v-9h9z"/><path fill="#a6a7a9" d="M612 532h9v37h9v28h9v28h9v74h10v29h9v9h-19v9h-18v-9h-9v-9h8V625h-8v-46h-9z"/><path fill="#9d482c" d="M779 747h19v9h-10v9h-9v10h-10v9h-8v64h-29v-8h-9v-37h9v-9h-18v9h-9v9h-38v-9c7.59-.16 7.59-.16 46-1v-9h10v-9h10v-9h18v-10h10v-9h18z"/><path fill="#c06d3f" d="m696 326 17 1 1 36h9v28c.5.16.5.16 3 1h-13v19h-9v8h-8v-8h-10l1-38c10.12-1.12 10.12-1.12 13.6-1.1.74.01 1.47.01 2.23.01.37.01.37.01 2.23.03.77 0 1.54.01 2.34.01 1.86.01 3.73.03 5.6.05v-8l-46-1v9l4.44-.06c5.01-.07 9.45.49 14.56 1.06v19h-38v-38c11.25-1.12 11.25-1.12 15.13-1.1.83.01 1.65.01 2.5.01.41.01.41.01 2.49.03a1311 1311 0 0 1 8.88.06v-8h10v-9h9z"/><path fill="#aaa7a6" d="M219 691h9v102h10v9h9v1l-8 1-1 17h19v9h18v9l3 1h-12c-1.16-3.48-.71-5.46 0-9h-10v-9h-9l1 16c3 .75 5.97 1.41 9 2 .17 1.15.17 1.15 1 7h259l1-8h111v-8h-36v-10h19v-9h10v9h8v-28h9v9h28v1h-28v37h-75v9H247v-9h-10v-9h-9v-29h-9z"/><path fill="#c68060" d="M732 429h1v9h19v9h18v225h-9v10h8v9h29v8h18v-8h38v8h-28v29h18v9h-9v9l-9 1v9h-28v-19h18v-9h-27c-1-10-1-10-1-19h-19v-10h-8c-1.11-7.1-1.13-14.07-1.1-21.25 0-1.25.01-2.51.01-3.8 0-3.31.01-6.61.02-9.92.01-3.39.02-6.77.02-10.16.01-6.62.03-13.25.05-19.87h9V466h-8v-9h8v-9h-18v-9h-19z"/><path fill="#6a0804" d="M472 223h37v10h28v19h-9v-10h-20v-9h-9v38h9v9h10v18h10v10h9v9h-9v19h-19v-10h-10v-9h-9v-47h-9v-19h-9v-9h9v-9h-9z"/><path fill="#f5f2f1" d="M602 738h27v8h-8v65c-15.66.56-31.33 1-47 1v-66h28z"/><path fill="#bc825b" d="M546 74h150v9h18v10h19v9h18v10h-19v-9h-19v9h-65v-9h29V93h-19c-.16-1.32-.16-1.32-1-8-.44-.01-.44-.01-2.68-.03-8.43-.1-16.85-.2-25.28-.31-4.33-.05-8.66-.11-12.99-.16l-12.59-.15-4.75-.06c-11.59-.13-23.14-.61-34.71-1.29v-8h-17v9h-1z"/><path fill="#f5c6ac" d="M602 298h10v29h9v36h8v-9h9v-9h1v56h-18v-9l-3.88.06c-5.09.01-10.06-.49-15.12-1.06v-9h-19v-28h10l-.06-3.94c-.02-1.35-.01-2.71.06-4.06.16-.17.16-.17 1-1h8z"/><path fill="#a44016" d="M677 308h64v8h-9v76l-9-1v-28h-9c-1.06-7.71-1.12-15.29-1.06-23.06 0-1.25.01-2.5.01-3.78.01-3.05.03-6.11.05-9.16-.6.01-1.19.01-1.81.02-5.18.03-10.07-.27-15.19-1.02v10h-9v9h-10v8c-12.68.8-25.29 1.13-38 1v-9h9v-9h29z"/><path fill="#cacdcd" d="M368 410h19v1h-18v9h-19v9h-28c.16 1.98.16 1.98 1 12l-1 6c4.62.17 4.62.17 28 1v9h-28v-9h-19v9h-9v28h-9c.01.96.01 1.91.02 2.9.06 14.91-.24 29.82-.52 44.72-.05 2.67-.1 5.33-.14 8L284 560h-9v-10h-9v10h-9c.01.79.01 1.58.02 2.39.08 14.57.16 29.08-1.02 43.61h-9v-47h9v-27h10v-38h9v-9h9v-28h9v-10h10v-9h18v-10h28v-9h19z"/><path fill="#f4d0b7" d="M704 709h38v9c1.07-.01 2.15-.01 3.25-.02 4.02-.01 8.04-.03 12.06-.03l5.2-.03c2.51-.01 5.01-.01 7.52-.02.38 0 .38 0 2.31-.01 5.29 0 10.41.45 15.66 1.11v9h-9v9h9v9h-9v-8h-28v-10l-37 1v8h-18c-1-6-1-6 0-9-.64.08-.64.08-3.88.5-5.05.57-10.04.6-15.12.5.19 1.3.37 2.6.56 3.94.32 2.21.32 2.21.44 4.06-1.66 1.66-3.78 1.36-6.06 1.56-.46.04-.46.04-2.79.26-.71.06-1.42.12-2.15.18v7c-6.57.85-12.95 1.13-19.56 1.06-.46 0-.46 0-2.77-.01-2.22-.01-4.45-.03-6.67-.05v18h-8v9l3.94-.06c1.35-.02 2.71-.01 4.06.06 1 1 1 1 1.1 3.07-.03 2.31-.07 4.62-.1 6.93h-10v-19h-7v9h-1v-28h8v-8h-27v8h-19v-9h47v9h18v-9h19v-9h19v-9c6.07-.77 11.89-1.1 18-1z"/><path fill="#969a9a" d="M770 485h9v66c1.49-.16 1.49-.16 9-1 .1 6.93.1 6.93 0 9-1 1-1 1-4.12 1.13-1.28 0-2.56 0-3.88-.01-1.28.01-2.56.01-3.88.01C773 560 773 560 772 559l-1 10h8v66h10v28h9v28h-29v-9h-8v-10h9z"/><path fill="#b47f61" d="M624.208 213.88c.97 0 1.95 0 2.95.01h3.34c1.2 0 2.4.01 3.63.01 1.22 0 2.44.01 3.7.01 3.91 0 7.82.02 11.73.03 2.65 0 5.29.01 7.94.01 6.5.01 13 .03 19.5.05v9h9v10h-19v9h10v10h-19v-9h-9l-1 18h-19v-9c-1.21.01-2.43.02-3.68.04-1.59 0-3.17.01-4.76.02l-2.43.03c-2.04.01-4.09-.04-6.13-.09-1-1-1-1-1.1-2.85.04-2.05.07-4.1.1-6.15h-9v-20h19v-8c1-1 1-1 3.21-1.12"/><path fill="#f1eff0" d="M798 551h8c.99 7.41 1.13 14.66 1.1 22.13 0 1.23-.01 2.46-.01 3.73q0 5.85-.03 11.7c0 2.66-.01 5.32-.01 7.97-.01 6.49-.03 12.98-.05 19.47h9c.85 18.69 1.13 37.3 1 56h10l-1 10h-10v8h-9v-18h-9v-9h-9v-75h9z"/><path fill="#e9ebe7" d="M845 728h18v9c1.18-.01 2.37-.02 3.59-.04 8.21-.05 16.25-.01 24.41 1.04.16 1.49.16 1.49 1 9h17v46h-8v18h-9v-27h-20v-19h-9v-9h-9v-19h-9z"/><path fill="#aaa8a6" d="M303 793h49v1l-10 1-1 7 44-1 1-8h77c0 10 0 10-1 19H322v-10h-19z"/><path fill="#dcdedc" d="M573 738h9v1l-7 1-1 34h-1v-9h-9v28c-25.06.98-49.94.9-75 0v-9h-21v-1h30l1-18h47v-19h26v1h-8v9h9z"/><path fill="#c5c8c8" d="M807 494h10v37h9v29h-20v-9h-8v37h-9v47h-10v-66h-8v-15h1l1 5h14v-8h-8v-30h1v19c4.46.16 4.46.16 27 1z"/><path fill="#bebebe" d="M406 541h9v28h9v94h-8v28h-10v-66h-9c-.03-2.81-.05-5.62-.06-8.44l-.03-2.43c-.01-2.04.04-4.09.09-6.13.17-.16.17-.16 1-1h8z"/><path fill="#939792" d="M667 522h10v103h-10v-18h-9c-.72-6.39-1.1-12.57-1-19h-9v-28h-9v-28h9v9h19z"/><path fill="#c7c7c7" d="M228 718h1v19h10c.18 11.52.18 11.52-1 17h-1l-1-7-6 1-1 26h8l2 2c-.38 3.62-.38 3.62-1 7h9v-10l10 1v9c.51 0 .51 0 3.09-.02 37.36-.17 37.36-.17 52.91 1.02l-1 9h-9v9h19v10h-10v-9h-27v8l3.94-.06c4.75-.01 9.34.46 14.06 1.06v9h19v8c4.95.16 4.95.16 30 1v1c-13.44.87-26.56 1-40 0v-9c-1.11.01-2.22.02-3.37.04-17.43.12-17.43.12-23.63-1.04-1-1-1-1-1.1-2.85.03-2.05.07-4.1.1-6.15h-9c-1.48-2.96-1.06-5.74-1-9-.77.01-1.54.01-2.34.02-3.53.02-7.06.03-10.6.04l-3.67.03c-6.56.02-12.89-.2-19.39-1.09v-9h-10z"/><path fill="#f2b091" d="M732 691h29v8h8v10h19c1 9 1 9 1 19h27v9h-18v10h-19v9h-18v9h-29v-9h10v-10h46v-9h-9v-9h9v-9l-46-1v-9h-29v-10h19z"/><path fill="#e9edee" d="M770 457h19v9h9v18h9v57c-20.25 0-20.25 0-27-1-1.39-18.31-1.1-36.65-1-55h-9z"/><path fill="#cf6d43" d="M574 122h9v55h-9v10h-10v-10h-8v-9h-10v9h-18v-28c6.32-.7 11.77-1.1 18-1v-8h10v-9h18z"/><path fill="#deb18b" d="M741 243h1v74h-10v-1h9v-8h-64v28h-28v-9h9v-10c6.21-.73 11.84-1.23 18 0v-9h-8v-10h9v9h46v-18h-10v-19h-9v-18h9v9h10v-9h18z"/><path fill="#ba693a" d="M538 187h26v10l18-1c1.16 3.47 1.07 6.36 1 10h-9v8h10v-8h8v17h-9v10h-9v-10h-37v-9h-28v-9h18v-9h10z"/><path fill="#a7a3a5" d="M564 765h9c.77 6.11 1.14 12.04 1.1 18.19 0 .83-.01 1.66-.01 2.52 0 2.62-.01 5.23-.03 7.85 0 1.79-.01 3.58-.01 5.37-.01 4.36-.03 8.71-.05 13.07 1.17-.08 2.34-.15 3.55-.23 14.48-.93 28.94-.86 43.45-.77v-18h8v19h-17v9h-19v10h36v8h-65v-36c-1.49.16-1.49.16-9 1l1-10c1.32-.16 1.32-.16 8-1z"/><path fill="#e9e9e8" d="m360 550 2 1-1 1c-.23 1.35-.41 2.7-.56 4.06-.15 1.3-.29 2.6-.44 3.94h8v27h9c.77 6.73 1.1 13.23 1 20h9c.02 6.39.04 12.77.05 19.16l.03 6.51c.01 3.13.01 6.26.02 9.39 0 .96.01 1.92.01 2.91 0 5.76-.37 11.32-1.11 17.03h-17l-1-18-9-1c-.02-11.98-.04-23.96-.05-35.93-.01-5.57-.01-11.13-.03-16.69-.01-5.36-.01-10.72-.01-16.08-.01-2.06-.01-4.11-.02-6.16v-8.58c-.01-.86-.01-1.71-.01-2.6.01-5.85.01-5.85 1.12-6.96"/><path fill="#c6cdcc" d="M630 607h8v18h10l.57 40.2c.31 20.93.5 41.86.43 62.8h-10v-10h-9z"/><path fill="#f0b18d" d="M564 288h10v19h9v-10h19v48l-8 1-1 8h-10v18h-9v-9h-10v-18h-8v-9h37v-19h-29v-10h-7v-9h7z"/><path fill="#f3c3a4" d="M686 224h10v19h-10v18h9l1 27c-1.49.16-1.49.16-9 1v18h-10v-9h-9v10h8v9h-9v-37h-9v-19h9v-9h10v-10h-10v-9h19z"/><path fill="#edefea" d="M630 429h27c.69 6.19 1.14 12.01 1.1 18.19 0 .83-.01 1.66-.01 2.52 0 2.62-.01 5.23-.03 7.85 0 1.79-.01 3.58-.01 5.37-.01 4.36-.03 8.71-.05 13.07h9v28h-9v-10h-10v-9h-9l-1-9-8-1v-18h-8v-10h7l-.06-3.94c-.08-4.83.51-9.13 1.06-14.06"/><path fill="#898987" d="M415 550h10l.03 2.28c.1 7.11.2 14.21.31 21.32.05 3.65.11 7.31.16 10.96l.15 10.58c.03 2 .06 4 .08 5.99l.11 6.95c.15 2.74.55 5.25 1.16 7.92h6v37h-8v46h-10v10h-9v18h28v1h-38v-9l-3.88.06c-5.08.01-10.07-.47-15.12-1.06-.1-6.15-.1-6.15 0-8 1-1 1-1 3.07-1.1.41.01.41.01 2.49.04.83.01 1.66.02 2.51.02.63.02 1.27.03 1.93.04l-.06-3.94c-.01-4.75.46-9.34 1.06-14.06h9v-9h9v9h10v-28h8v-94h-9z"/><path fill="#0c0c25" d="M546 494h1v18h9v-9h8v-9h1v19h7l1-10h10v29h10v56h-10v-19h-10v-9h-9c-.03-3.15-.05-6.29-.06-9.44l-.03-2.72c0-.43 0-.43-.01-2.59 0-.39 0-.39-.01-2.39C564 541 564 541 565 540c2.67-.14 5.32-.04 8 0v-8h-9v-10h-17c-.82-6.4-1.13-12.61-1.06-19.06 0-.87.01-1.73.01-2.63.01-2.1.03-4.21.05-6.31"/><path fill="#fce1c6" d="m621 158 56 1v9l-28 1-1 37h9v8h-36z"/><path fill="#8f5d3a" d="M732 177h1v9h9v19h9v37c-1.49.16-1.49.16-9 1l-1 9h-18v9h-10v-9h-9v-19h9v-10h10v-8c6.07-.77 11.89-1.1 18-1v-8h-9z"/><path fill="#7d1c0b" d="M779 747h19v9h-10v9h-9v10h-10v9h-9v9c-6.04.76-11.89 1.14-17.97 1.1-.81 0-1.62-.01-2.45-.01-2.55 0-5.1-.01-7.64-.03-1.74 0-3.49-.01-5.23-.01-4.23-.01-8.47-.03-12.71-.05v9h-9v9h-38v-9c7.59-.16 7.59-.16 46-1v-9h10v-9h10v-9h18v-10h10v-9h18z"/><path fill="#7d0902" d="M547 75h17v8h19v10h19v9l4.44-.06c4.93-.01 9.67.43 14.56 1.06v9h-48v-9h-36V84h10z"/><path fill="#fbdcbe" d="M686 223h27v10h-9v37h9v19h10v18c-5.11.02-10.22.04-15.33.05l-5.21.03c-2.5.01-4.99.01-7.49.02-.78 0-1.56.01-2.37.01-1.87 0-3.73-.05-5.6-.11-1.89-1.89-1.13-4.58-1.14-7.08.01-.8.01-1.6.02-2.42-.01-.8-.01-1.6-.02-2.42.01-5.95.01-5.95 1.14-7.08 1.52-.07 3.04-.08 4.56-.06.42 0 .42 0 2.51.02.32.01.32.01 1.93.04-.16-1.11-.33-2.23-.5-3.38-.61-4.88-.61-9.7-.56-14.62 0-.87.01-1.74.01-2.64.01-2.12.03-4.24.05-6.36h-9v-18h10v-19h-10z"/><path fill="#9e3b14" d="M583 84c9.63-.02 19.26-.04 28.89-.05 4.48-.01 8.95-.01 13.42-.03 4.31-.01 8.62-.01 12.93-.01 1.65-.01 3.3-.01 4.95-.02h6.9c.66 0 .66 0 3.98-.01C657 84 657 84 658 85v8h19v10h-29v9h-27v-9l-3.88.06c-5.09.01-10.06-.49-15.12-1.06v-9h-19z"/><path fill="#f5a47a" d="M779 765h18v9h-9v38h-9v28h-19c-.13-18.71.19-37.31 1-56h8v-9h10z"/><path fill="#e99868" d="M593 131h18v18h-9v19h-9v38h9v8h-9v9h-1v-17h-8v8h-10v-8h9c-.16-1.65-.16-1.65-1-10-1.11.17-2.23.33-3.38.5-4.89.62-9.69.57-14.62.5v-10h10v-10h9v-37h10z"/><path fill="#eda280" d="M556 223h18v10h9v9h-9v10h-9v18h8c1 1 1 1 1.1 2.85-.03 2.05-.07 4.1-.1 6.15h9v28h-9v-19h-10v10h-7v9h7v10h-8v-37h8l-1-17-16-1v-19h9z"/><path fill="#aa6543" d="M564 75h131v9h-9v18h-9v-9h-19c-.16-1.32-.16-1.32-1-8-.44-.01-.44-.01-2.68-.03-8.43-.1-16.85-.2-25.28-.31-4.33-.05-8.66-.11-12.99-.16l-12.59-.15-4.75-.06c-11.59-.13-23.14-.61-34.71-1.29z"/><path fill="#c8c5c6" d="M807 560h28v9h-9v74h-10v-27h-9z"/><path fill="#a46445" d="M751 112h10v9h8v19h10v37h-9v19h-9v9h-1v-9l-3.94.06c-1.35.02-2.71.01-4.06-.06-1-1-1-1-1.11-3.59 0-1.13.01-2.25.01-3.41.01-1.22.01-2.43.01-3.69l.03-3.87c0-.64 0-.64.01-3.89.01-3.18.03-6.37.05-9.55h1v9h9l-.09-2.28c-.58-14.58-1.08-29.13-.91-43.72h-9z"/><path fill="#716a65" d="M630 793h9v9h28v1h-28v37h-75v8h-47l1-9h111v-8h-36v-10h19v-9h10v9h8z"/><path fill="#f4b48b" d="M648 354h48v9h-29v9l4.44-.06c5.01-.07 9.45.49 14.56 1.06v19h-38z"/><path fill="#a63112" d="M518 158h10v19h18v-9h10v9h8v10h-26l-1 9h-10v9h-18v-9h-19v-9l28-1z"/><path fill="#f0f0ed" d="M509 354h10v9h9v19h9v10h-9c.01 1.04.02 2.07.04 3.14 0 1.37.01 2.74.02 4.11l.03 2.07c.01 3.37-.03 6.45-1.09 9.68h-8v6h-1v-6h-9c-.72-6.39-1.1-12.57-1-19h-8l-1-19h10z"/><path fill="#ebeae8" d="M499 326h10v19h9v9h-9v19h-10c.08.45.08.45.5 2.75.79 5.39.58 10.82.5 16.25h8c1.09 7.87 1.12 15.62 1.06 23.56 0 1.3-.01 2.59-.01 3.93-.01 3.17-.03 6.34-.05 9.51h9v9h-10v-27h-9v-19h-9c-1.21-9.34-1.09-18.6-1-28h-7v-9h-10v8h-1v-9h19v-18h10v18h8v-27h-9z"/><path fill="#b46842" d="M556 317h37v19h-37v9h8v18h10v9h9v10h-19v-9h-8v-10h-9v-28h36v-8h-27z"/><path fill="#040504" d="M660.766 662.886c.75.01 1.5.01 2.27.02.81 0 1.62 0 2.45.01.85 0 1.7.01 2.58.02.85.01 1.7.01 2.58.01 2.12.02 4.24.03 6.35.05.18 6.37.33 12.73.49 19.1.05 2.15.1 4.31.16 6.47.36 13.22.29 26.23-.65 39.43h-19c-.02-8.32-.04-16.65-.05-24.98 0-3.86-.01-7.73-.02-11.6-.01-3.73-.02-7.45-.02-11.18 0-1.43-.01-2.85-.01-4.28-.01-1.99-.01-3.98-.01-5.97 0-1.13 0-2.27-.01-3.44.17-3.49.17-3.49 2.89-3.66"/><path fill="#ebebe9" d="M387 531h9v10h10v66c-1.49.16-1.49.16-9 1l-1-20c-1.32-.16-1.32-.16-8-1-.88-6.76-1.13-13.35-1.1-20.16 0-1.03.01-2.06.01-3.12q0-4.89.03-9.78c0-2.23.01-4.45.01-6.67.01-5.42.03-10.85.05-16.27"/><path fill="#d47b5c" d="M788 793h10v38h9v-9l10-1v19h-19v8h-19v-36h9z"/><path fill="#edb28e" d="M732 691h29v8h8v11h10v8h-37v-9h-29v-10h19z"/><path fill="#a65e44" d="M704 308h37v8h-9v76l-9-1v-28h-9v-9h9v-37h-19z"/><path fill="#764735" d="M629 233h38v9h10v10h-19v-9h-9l-1 18h-19v-9h-17v-9c2.8-.16 2.8-.16 17-1z"/><path fill="#5b2113" d="M462 177h10v20h9v17h18v9h-27v10h9v9h-9v9h9v1h-10v-19h-9z"/><path fill="#8d857e" d="M863 812h10v9h27v9h-8v10h-10v9h-38v-1c1.49-.16 1.49-.16 9-1l1-16h9z"/><path fill="#d7a989" d="M704 718v1h-8v9c-6.38.82-12.57 1.12-19 1 .19 1.3.37 2.6.56 3.94.32 2.21.32 2.21.44 4.06-1.66 1.66-3.78 1.36-6.06 1.56-.46.04-.46.04-2.79.26-.71.06-1.42.12-2.15.18v7c-6.57.85-12.95 1.13-19.56 1.06-.92 0-1.83-.01-2.77-.01-2.22-.01-4.45-.03-6.67-.05v18h-8v9l3.94-.06c1.35-.02 2.71-.01 4.06.06 1 1 1 1 1.1 3.07-.03 2.31-.07 4.62-.1 6.93h-10v-19h-7v9h-1v-28h8v-8h-27v8h-19v-9h47v9h18v-9h19v-9h19v-9c6.07-.77 11.89-1.1 18-1"/><path fill="#faba93" d="M816 757h21l-1 8h8v10h-9v9l-7 1c-1.02 3.05-1.2 5.35-1.32 8.54l-.12 3.25-.12 3.4c-.05 1.13-.09 2.26-.13 3.43-.11 2.79-.21 5.58-.31 8.38h-19v-19c1.49-.16 1.49-.16 9-1z"/><path fill="#9b8e8e" d="M574 420h9v8c.62-.01 1.23-.02 1.87-.04 5.81-.06 11.37.3 17.13 1.04v9h27v9h-7v10h8v9h-28v-19h-9v-9h-10v-9h-9z"/><path fill="#c07450" d="M686 784h37v9h-10v9c-8.75 1.26-17.49 1.15-26.31 1.12h-2.45c-15.1-.02-30.16-.42-45.24-1.12v-9h47z"/><path fill="#706c6b" d="M629 634h1v84h9v10h10v-29h9v29h9v9h-19v9h-18v-9h-9v-9h8z"/><path fill="#aea2a2" d="M854 691h9v8h9v9h-9v19h-18l-1-8-18-1v-19h28z"/><path fill="#c97e52" d="M547 233h9v10h-9v19c7.94-.06 7.94-.06 10.44-.09 1.85-.01 3.71.04 5.56.09 1 1 1 1 1.1 4.82-.01 1.58-.02 3.16-.04 4.74 0 .81-.01 1.62-.01 2.45-.01 1.99-.03 3.99-.05 5.99h-8v37h-9v-47h-10v-28h10z"/><path fill="#868a8a" d="M219 691h9c.15 14.18.3 28.35.44 42.53l.21 19.75c.07 6.35.13 12.69.19 19.04.03 2.43.05 4.86.08 7.28.04 3.39.07 6.78.1 10.17.01 1.01.03 2.02.04 3.06.01.92.02 1.84.02 2.79l.03 2.43C229 800 229 800 228 802h-9z"/><path fill="#dadedc" d="M284 531h1c.83 6.73 1.11 13.41 1.12 20.19.01.74.01 1.49.02 2.26-.04 13.45-.04 13.45-2.14 15.55-2.65.45-5.32.7-8 1-.92 6.21-1.12 12.23-1.06 18.5 0 .92.01 1.84.01 2.78.01 2.24.03 4.48.05 6.72l-8 1-1 36h-1v-28h-8v-47h9v-10h9v10h9z"/><path fill="#a19d95" d="M770 643h9v29h9v-19h1v10h9v28h-29v-9h-8v-10h9z"/><path fill="#d06752" d="M499 233h9c.83 6.4 1.09 12.55 1 19h9v19h9c.83 5.74 1.09 11.2 1 17h9v10h-19v-18h-10v-9h-9z"/><path fill="#720902" d="M490 298h9v10h10v9h9v-19h10v10h9v9h-9v19h-19v-10h-10v-9h-9z"/><path fill="#e3a474" d="M593 401h19v9h10q.045 4.47.06 8.94l.03 2.52c0 .82 0 1.65.01 2.5 0 .75.01 1.5.01 2.27-.16 3.94-.67 7.85-1.11 11.77h-19v-9l-3.88.06c-5.08.01-10.07-.47-15.12-1.06v-8h9l-.06-4.44c-.07-5.01.49-9.45 1.06-14.56"/><path fill="#dedede" d="M406 625h18v38h-8v28h-10z"/><path fill="#b4b5b6" d="M228 718h1v19h10c.18 11.52.18 11.52-1 17h-1l-1-7-6 1-1 26h8l2 2c-.38 3.62-.38 3.62-1 7h9v-10l9 1v10h9v18h10c-.17.5-.17.5-1 3v-2c-.77.01-1.54.01-2.34.02-3.53.02-7.06.03-10.6.04l-3.67.03c-6.56.02-12.89-.2-19.39-1.09v-9h-10z"/><path fill="#a5836c" d="M509 336h19v18h9v19h10v9h9v19h-9v-9h-10v-10h-9v-19h-9c-.77-6.07-1.1-11.89-1-18h-9z"/><path fill="#fcd9b9" d="M677 168h27v9h28v29h9v8c-6.07.77-11.89 1.1-18 1v8h-9v-9c1.49-.16 1.49-.16 9-1v-6h-8v-1h8c-.01-1.04-.02-2.07-.04-3.14 0-1.37-.01-2.74-.02-4.11l-.03-2.07c-.01-3.48.24-6.27 1.09-9.68h-29v-10h-9v-8h-9z"/><path fill="#af623a" d="M612 131h46c.16 1.16.16 1.16 1 7 4.46.5 4.46.5 27 3v8h-9v9h-10v-9c-1.27.01-2.53.02-3.84.04-1.7 0-3.4.01-5.1.02-.41.01-.41.01-2.52.03-5.59.02-10.99-.38-16.54-1.09v-7h-27z"/><path fill="#f5f1f8" d="M629 438h19v9h9v29c-7 0-7 0-9-1-3-.14-5.99-.04-9 0v-9h-9v-9h-8v-10h7z"/><path fill="#c8bec1" d="M238 607h9v18h9v19h-9v9h-9l-1 28h-8c-1.09-7.87-1.12-15.62-1.06-23.56 0-1.3.01-2.59.01-3.93.01-3.17.03-6.34.05-9.51 1.49-.16 1.49-.16 9-1z"/><path fill="#791e02" d="M583 382h19v9l4.44-.06c4.93-.01 9.67.43 14.56 1.06v9l3.94-.06c4.83-.08 9.13.51 14.06 1.06v26h-9v-8h-8v-10h-10v-9h-19v-9h-10z"/><path fill="#797979" d="M368 410h19v1h-18v9h-19v9h-28c.17 1.98.17 1.98 1 12l-1 6c4.62.17 4.62.17 28 1v9h-28v-9h-19v9h-9v28h-10v-28h9v-10h10v-9h18v-10h28v-9h19z"/><path fill="#bcbcba" d="M368 709h10l-1 9 4.44-.06c4.93-.01 9.67.43 14.56 1.06v9h10v9h-19v-10c-1.25.16-2.49.33-3.78.49-5.61.62-11.17.64-16.82.61-1.07 0-2.15-.01-3.25-.01-3.41 0-6.81-.01-10.21-.03-2.32 0-4.64-.01-6.96-.01-5.66-.01-11.32-.03-16.98-.05l2-1v-8c8.05-1.03 16.01-1.12 24.12-1.06.63 0 .63 0 3.77.01 3.04.01 6.07.03 9.11.05z"/><path fill="#dba474" d="M723 289h9v9h10v19h-10v-1h9v-8h-64v28h-28v-9h9v-10c6.21-.73 11.84-1.23 18 0v-9h-8v-10h9v9h46z"/><path fill="#efa77f" d="M733 112h18v19h9c1.14 15.33 1.11 30.63 1 46h-9v-9h-10v-10h10v-9h-10v-36h-9z"/><path fill="#c8c3cc" d="M564 765h9c.77 6.11 1.14 12.04 1.1 18.19 0 .83-.01 1.66-.01 2.52 0 2.62-.01 5.23-.03 7.85 0 1.79-.01 3.58-.01 5.37-.01 4.36-.03 8.71-.05 13.07 1.17-.08 2.34-.15 3.55-.23 14.48-.93 28.94-.86 43.45-.77v-18h8v19h-17v9h-39v-19h-9v-9h9v-9h-9z"/><path fill="#8e0705" d="M472 223h37v10h28v19h-9v-10h-20v-9h-9v5h-1v-5h-8l.06 3.94c.02 1.35.01 2.71-.06 4.06-2.36 2.36-7.5 1.99-10.69 2.06-2.44 0-4.87-.02-7.31-.06v-1h9v-9h-9z"/><path fill="#adabaa" d="M303 793h49v1l-10 1-1 7 44-1 1-8h77v10c-.33-.16-.33-.16-2-1v-8h-74v9h-46v8h121v1H322v-10h-19z"/><path fill="#9b3226" d="M509 214h28v9h19v10h-9v9h-10v-9h-28z"/><path fill="#f2b18b" d="M845 775h17v18h-8v28c-1.49.16-1.49.16-9 1l-1 9h-8v-28h9z"/><path fill="#591a0c" d="M723 224h10v9h9c.1 6.15.1 6.15 0 8-1 1-1 1-3.07 1.1-1.15-.02-1.15-.02-6.93-.1v10h-9v9h-10v-9h-9v-19h19z"/><path fill="#8c8d8b" d="M388 607h8c.77 6.07 1.1 11.89 1 18h8v37c-1.15.16-1.15.16-7 1l-2 18h-8v-28h8c-.01-.62-.02-1.23-.04-1.87-.06-5.81.3-11.37 1.04-17.13h-9z"/><path fill="#aeacaa" d="M490 803h39l-1 8h17v1h-8c.01.64.02 1.28.04 1.93 0 .83.01 1.66.02 2.51.01.82.03 1.64.04 2.49C537 821 537 821 536 822c-2.67.14-5.32.04-8 0-.16-1.49-.16-1.49-1-9h-17l-1 8-18 2-1 6h-1v-7l-83 1-1-2c14.66-1.2 29.32-1.15 44.01-1.13 3.51.01 7.01 0 10.52 0q5.07-.015 10.14 0c1.25 0 2.5-.01 3.79-.01.58 0 .58 0 3.53.01h3.09c3.04.14 5.93.57 8.92 1.13l-.06-3.94c-.08-4.83.51-9.13 1.06-14.06"/><path fill="#d78360" d="M556 223h18v10h9v9h-19v21l-17-1v-19h9z"/><path fill="#8a0c02" d="M498 177c1 1 1 1 1.12 3.94C499 184 499 184 498 186h-9v11h19v8h-9v8h-17v-17h-10v-18c8.67-.95 17.28-1.39 26-1"/><path fill="#a63e2c" d="m696 326 17 1v27h-55v-1h19v-8h10v-9h9z"/><path fill="#fdead1" d="M696 252h8v18h9v19h10v18h-19v-27l-8-1z"/><path fill="#969696" d="M256 532h10v28h-9c.01.79.01 1.58.02 2.39.08 14.57.16 29.08-1.02 43.61h-9v-47h9z"/><path fill="#f2bb91" d="M686 224h10v19h-10v18c-6.4.83-12.55 1.09-19 1v9h-9v-10h9v-9h10v-10h-10v-9h19z"/><path fill="#17172a" d="M611 522h10c1.12 8.04 1.11 15.96 1.06 24.06 0 1.36-.01 2.71-.01 4.07-.01 3.29-.03 6.58-.05 9.87h7v9h-8v-37h-9v47h9v28h-1v-19h-8v19h-10l-1-19h-8v-19h9v19h9z"/><path fill="#c9cbca" d="M844 597h10v19h9v18h10l-1 28h-9v-19h-9c-1.33-8.98-1.09-17.95-1-27h-9z"/><path fill="#525151" d="M732 429h1v9h19v9h18v225h-9v18h-1v-56h9V466h-8v-9h8v-9h-18v-9h-19z"/><path fill="#f2c6a3" d="M696 765h27v10h-19v8c-21.67 1.06-43.31 1.11-65 1v-1h19v-8c8.04-1.12 15.96-1.11 24.06-1.06 1.36 0 2.71.01 4.07.01 3.29.01 6.58.03 9.87.05z"/><path fill="#f4b596" d="M564 392q4.47-.045 8.94-.06c.42-.01.42-.01 2.57-.03.81 0 1.62 0 2.45-.01.75 0 1.5-.01 2.27-.01C582 392 582 392 583 393c.14 2.67.04 5.32 0 8h10c1.68 3.35.53 7.01.06 10.62-.1.81-.2 1.61-.3 2.43-.25 1.99-.5 3.97-.76 5.95-4.66.67-8.8 1.15-13.5.56-.86-.1-1.71-.2-2.59-.31-.63-.08-1.26-.16-1.91-.25v8h-9v-8h-9v-9h8v8h9v-18h-9z"/><path fill="#e5ede8" d="M648 542h19v46h-9v-19h-9c-1.33-9-1.07-17.92-1-27"/><path fill="#c37248" d="M602 159h9v37h-9v10h-9v-38h9z"/><path fill="#998b8e" d="M779 691h19v8h18v-8h38v8h-28v10h-19v-9h-28z"/><path fill="#986143" d="M630 215h37v8h19v10h-37l-1-9-18-1z"/><path fill="#94471b" d="M835 737c6.11-.1 11.93.23 18 1v18h10v18h-9v-9h-9v-9h-19v-9c1.49-.16 1.49-.16 9-1z"/><path fill="#f1c6a6" d="M621 149h46v9h29v9h8v1h-27v-9c-1.34.01-2.68.01-4.06.02-5.02.01-10.03.03-15.04.03l-6.49.03c-3.13.01-6.25.01-9.37.02-.96 0-1.91.01-2.89.01-6.12 0-12.07-.41-18.15-1.11z"/><path fill="#bac1c0" d="M630 607h8v18h10v28h-18z"/><path fill="#a54e2f" d="M826 802h9v19h-9v27h-28v-8h19v-28h9z"/><path fill="#d87c55" d="M733 803h18v28h-9v9h-10q-.045-6.72-.06-13.44l-.03-3.82c-.02-6.67.18-13.13 1.09-19.74"/><path fill="#ced3d4" d="M574 793h28v9l4.44-.06c1.52-.02 3.04-.01 4.56.06 1 1 1 1 1.1 2.85-.03 2.05-.07 4.1-.1 6.15-12.69.8-25.28 1.1-38 1z"/><path fill="#c86f46" d="M826 728h18v9h-9v9l-9 1v9h-28v-9h18v-9c1-1 1-1 3.07-1.1 1.15.02 1.15.02 6.93.1z"/><path fill="#883520" d="M779 747h19v9h-10v9h-9v10h-10v9h-8v-10h8v-9h-8v-9h18z"/><path fill="#2d2929" d="M658 420h19v9h-10v47h-9z"/><path fill="#f9b18c" d="M704 113v8c.64-.01 1.28-.02 1.93-.04.83 0 1.66-.01 2.51-.02.82-.01 1.64-.03 2.49-.04 2.07.1 2.07.1 3.07 1.1v9h-27v-10c-.73.08-.73.08-4.44.5-4.89.49-9.65.66-14.56.5-2.05-2.05-1.7-6.3-2-9 9.35-4.67 27.75-.49 38 0"/><path fill="#2d2d2d" d="m429.563 568.938 3.44.06c.94 24.11 1.09 48.2 1.06 72.32v2.29c-.01 9.46-.03 18.93-.06 28.39h-9v-19h8v-37h-6c-2.46-4.76-2.28-9.2-2.23-14.42v-2.73c0-1.89.01-3.79.02-5.69.02-2.91.02-5.83.02-8.74.01-1.84.01-3.68.02-5.53v-2.65c.06-7.22.06-7.22 4.73-7.3"/><path fill="#6f0c02" d="m751 168 1 27 8 1v9h-18v-19h-9v-18c7-1 7-1 18 0"/><path fill="#e5e3e5" d="M285 803h27v9h29v9h-38v-9l-3.94.06c-4.75.01-9.34-.46-14.06-1.06z"/><path fill="#9d9f9f" d="M509 728h64v9h-64z"/><path fill="#d7d0d2" d="M798 672h9v18h9v-8h28v9h-28v8h-18z"/><path fill="#cf9677" d="M638 345h1v56h-18v-9h-9v-1h17v-37h9z"/><path fill="#af5e2b" d="M751 812h9l1 36h-29v-8h10v-9h9z"/><path fill="#6f6e6f" d="M415 550h10l.03 2.28c.1 7.11.2 14.21.31 21.32.05 3.65.11 7.31.16 10.96l.15 10.58c.03 2 .06 4 .08 5.99l.06 3.7c.02 1.08.04 2.15.05 3.25.15 2.74.55 5.25 1.16 7.92h6v37h-8c-1.22-16.8-1.12-33.6-1.07-50.44.01-3.79.02-7.59.02-11.38.01-7.39.03-14.79.05-22.18h-9z"/><path fill="#df8a63" d="M564 187h29v19h9v8h-9v9h-1v-17h-8v8h-10v-8h9l-1-10c-1.11.16-2.23.33-3.38.5-4.89.62-9.69.57-14.62.5z"/><path fill="#a16c54" d="M761 682h8v9h10v9h28v9c-12.37.13-24.65-.23-37-1l-1-8-8-1c-.89-5.94-.97-11.07 0-17"/><path fill="#b85b35" d="M583 112h56v9c-2.62.19-5.25.38-7.88.56-.37.03-.37.03-2.26.17-5.63.38-5.63.38-7.86-.73v-8h-9l.06 4c.01 4.42-.42 8.63-1.06 13h-8v-8h-20z"/><path fill="#a42f12" d="M583 84h39l-1 19c-10.12 0-10.12 0-14.56-.5-1.47-.16-2.93-.33-4.44-.5v-9h-19z"/><path fill="#858587" d="M229 803h8c.9 6.07 1.09 11.86 1 18h19v9h18v9l3 1h-12c-1.16-3.48-.71-5.46 0-9h-10v-9h-9c.04.57.04.57.25 3.46.11 1.5.21 2.99.31 4.48.06.75.11 1.51.17 2.28.13 1.93.21 3.85.27 5.78-1 1-1 1-3.07 1.1-1.15-.02-1.15-.02-6.93-.1v-9h-9z"/><path fill="#bbacac" d="M826 718q4.47-.045 8.94-.06l2.57-.03c.81 0 1.62 0 2.45-.01.75 0 1.5-.01 2.27-.01C844 718 844 718 845 719v8h18v-9h19v10h-9v9h-10v-9h-18v9h9v19h-1v-18h-9v-10h-18z"/><path fill="#cec5be" d="M499 326h10v19h9v9h-9v10h-10v-9h-9v27h-1v-18h-7v-9h-10v8h-1v-9h19v-18h10v18h8v-27h-9z"/><path fill="#aaafae" d="M788 551h1l-1 37h-8v9h8v19c-1.49.16-1.49.16-9 1v-48h-8v-15h1l1 5h14z"/><path fill="#7d7470" d="M639 411h19v8h9v1h-9v18h-1v-9h-27v9h-9c-.1-6.11.23-11.93 1-18h8v8h9z"/><path fill="#ca734f" d="M648 103h48c.16 1.16.16 1.16 1 7l7 1v-8h9v9h-65z"/><path fill="#a7a1a0" d="M779 624v11h10c.13 12.37-.23 24.65-1 37h-9v-29h-9v-18c8-1 8-1 9-1"/><path fill="#545a5d" d="M612 532h9v37h9v19h-1v-10c-.57.08-.57.08-3.44.5-4.61.67-8.74.5-13.56.5z"/><path fill="#bf977e" d="M574 420h9v8c.62-.01 1.23-.02 1.87-.04 5.81-.06 11.37.3 17.13 1.04v9h19v9h-28v-9h-10v-9h-9z"/><path fill="#f8dfd0" d="M649 243h9v9h9v9h-10v10c-19 .18-19 .18-27-1v-8c6.07-.77 11.89-1.1 18-1-.01-.63-.02-1.26-.04-1.91-.05-5.47.24-10.67 1.04-16.09"/><path fill="#2e0601" d="M714 794h18v9h-9v37h-1v-9c-1.13.19-2.27.37-3.44.56-1.17.15-2.35.29-3.56.44-1-1-1-1-1.11-2.77 0-.74.01-1.49.01-2.27.01-.8.01-1.61.01-2.45l.03-2.57c0-.86.01-1.71.01-2.59.01-2.12.03-4.23.05-6.35l-9-1v-9h9z"/><path fill="#f5c3a7" d="M770 718c6.11-.1 11.93.23 18 1v9h-9v9h9v9h-9v-8l-27-1v-9h18z"/><path fill="#a7a6a6" d="M415 569h9v56h-9z"/><path fill="#908c8c" d="M770 569h9c.03 7.81.04 15.63.05 23.44l.03 7.99c.01 3.81.01 7.63.02 11.44 0 1.2.01 2.4.01 3.63v3.34c.01.97.01 1.95.01 2.95C779 624 779 624 778 625h-8z"/><path fill="#f3ba99" d="M779 765h18v9h-9v19l-18 1v-19h9z"/><path fill="#90593b" d="M704 308h37v8h-9v20h-9v-19h-19z"/><path fill="#ba6139" d="M574 122h9v27h-19l-1-9h-7v-9h18z"/><path fill="#fae8d6" d="M845 728h18c.16 3.13.16 3.13 1 19h7c2.06 2.06 1.41 6.22 1.56 9.06.05.76.09 1.52.13 2.3.11 1.88.21 3.76.31 5.64h-10v-8h-9v-19h-9z"/><path fill="#732d18" d="M723 784h10v9h18v1h-37v9h-9v9h-38v-9c7.59-.16 7.59-.16 46-1v-9h10z"/><path fill="#e1e1e3" d="M798 551h8c.77 6.11 1.14 12.04 1.1 18.19 0 .83-.01 1.66-.01 2.52 0 2.62-.01 5.23-.03 7.85 0 1.79-.01 3.58-.01 5.37-.01 4.36-.03 8.71-.05 13.07l-18-1v-9h9z"/><path fill="#d3966c" d="M593 233h9v10h9l1 8 17 1v9h-27v-10h-9z"/><path fill="#abaaa9" d="M369 532h9v18h9v10h-10v18h-8z"/><path fill="#131c1a" d="M648 625h1l1 28h8v46h-10z"/><path fill="#cd8a51" d="M611 131h1v10h27v7h9v1h-36v57h-10v-10h9v-37h-9v-10h9z"/><path fill="#8e8a8d" d="M573 541h11v18h8v20h-9v-10h-10z"/><path fill="#f6cbab" d="M621 158h9v1h-8v28h7v19h28v8h-36z"/><path fill="#8a8582" d="M518 839h103v1h-57v8h-47z"/><path fill="#e6e4e5" d="M237 688h2l-1 11h8v-8c3.39-1.04 6.47-1.23 10-1l2 2c-.3 1.67-.64 3.34-1 5 .08 2.07.23 4.13.44 6.19.73 8.44.8 16.42-.44 24.81h-1v-29h-9l.06 4.44c.02 1.52.01 3.04-.06 4.56-1 1-1 1-3.07 1.1-1.15-.02-1.15-.02-6.93-.1v9h-9q-.045-4.5-.06-9l-.03-2.54c-.02-5.25.33-10.26 1.09-15.46h8z"/><path fill="#9d3f14" d="M713 392h10v19h-9v18h-1v-9h-9v9h-8v-9h-10v-9h10v8h8v-8h9z"/><path fill="#faad8f" d="M798 793h9v19h10c.1 6.93.1 6.93 0 9-1 1-1 1-3.07 1.1-1.15-.02-1.15-.02-6.93-.1v9h-9c-2.98-11.91-.73-25.81 0-38"/><path fill="#b2b5b6" d="M816 532h10v28h-19v-18c2.96-1.48 5.74-1.06 9-1z"/><path fill="#e7e6dd" d="M620 746h1v65h-9l-1-8-9-1v-9h10c-.01-1.22-.02-2.43-.04-3.68 0-1.59-.01-3.17-.02-4.76l-.03-2.43c-.01-2.04.04-4.09.09-6.13l1-1h7z"/><path fill="#f9b897" d="M564 288h10v19h9v10h-19v-10h-7v-9h7z"/><path fill="#be8c6f" d="M528 373h19v9h9v19h-9v-9h-10v-10h-9z"/><path fill="#9b2e21" d="M490 289h19v9h9v19h-9v-9h-10v-10h-9z"/><path fill="#bab9b5" d="M770 643h9v39h-18v-10h9z"/><path fill="#373434" d="M574 532h19v56h-10v-9h9v-20h-8v-18h-10z"/><path fill="#8d3017" d="M677 149h36v9h29v1h-38v8h-8v-9h-19z"/><path fill="#808684" d="M275 485h9v9h-8l-1 38h-9v-38h9z"/><path fill="#b4653b" d="M556 317h36v18h-9v-8h-27z"/><path fill="#b9603f" d="M564 75h62c-3.61 1.81-4.54 2.25-8.25 2.12L614 77l-3 7c-15.7.11-31.33.08-47-1z"/><path fill="#ba784d" d="M612 224h17v18c-9 1.12-9 1.12-13 1.06-.76-.01-1.53-.02-2.31-.02-.56-.02-1.12-.03-1.69-.04v8h-1v-8h-9v-10h10z"/><path fill="#c75d36" d="M527 196h20c-1 8-1 8-2 9-2.67.14-5.32.04-8 0v9h-28v-9h18z"/><path fill="#b86d4d" d="M582 200h1v6h-9v8h10v-8h8v17h-9v10h-9v-10h-9v-9h8v-9h9z"/><path fill="#b3b4b6" d="M910 747h9v46h-9z"/><path fill="#9e3a19" d="M667 363c5.1-.02 10.21-.04 15.31-.05l5.2-.03c2.51-.01 5.01-.01 7.52-.02.38 0 .38 0 2.31-.01 5.29 0 10.41.45 15.66 1.11v8c-15.42.8-30.59 1.13-46 0z"/><path fill="#7d210e" d="M648 336h10v9h19v8c-12.68.8-25.29 1.13-38 1v-9h9z"/><path fill="#f6a770" d="M593 131h18v18h-9v10h-9z"/><path fill="#d7d6c6" d="M873 747h10v9h9q.045 4.47.06 8.94l.03 2.57c0 .41 0 .41.01 2.45 0 .38 0 .38.01 2.27C892 774 892 774 891 775c-3 .14-5.99.04-9 0v-10h-9v18h19v1h-20v-19h-9v-1h10z"/><path fill="#fae4d3" d="M724 187h8v19h9v8c-6.07.77-11.89 1.1-18 1v8h-9v-9l9-1v-6h-8v-1h8c-.01-1.04-.02-2.07-.04-3.14 0-1.37-.01-2.74-.02-4.11-.01-.34-.01-.34-.03-2.07-.01-3.37.03-6.45 1.09-9.68"/><path fill="#c4c5bb" d="M872 699v9h-9v10h-9v-9h-18v-9c12.02-.74 23.96-1.14 36-1"/><path fill="#f1cfb5" d="M696 280h8v27l-8.44.06-2.66.03c-1.97.01-3.93-.04-5.9-.09-1.89-1.89-1.13-4.58-1.14-7.08.01-.8.01-1.6.02-2.42-.01-.8-.01-1.6-.02-2.42.01-5.95.01-5.95 1.14-7.08 1.52-.07 3.04-.08 4.56-.06.83.01 1.66.02 2.51.02.63.02 1.27.03 1.93.04z"/><path fill="#976d59" d="M622 765h7v19h10v9h-9v28h-8v-9h7v-19h-8q-.045-4.47-.06-8.94l-.03-2.52c-.02-5.59.38-10.99 1.09-16.54"/><path fill="#a32e22" d="M472 197h9v17h18v9h-27z"/><path fill="#d0cdcd" d="M256 589h1v18h8v18h-18v-18h-9v36h-1v-37h19z"/><path fill="#d7b39d" d="M704 718v1h-8v9c-6.38.82-12.57 1.12-19 1 .19 1.3.37 2.6.56 3.94.32 2.21.32 2.21.44 4.06-1.66 1.66-3.78 1.36-6.06 1.56-.46.04-.46.04-2.79.26-.71.06-1.42.12-2.15.18v7c-6.4.83-12.55 1.09-19 1v-10h19v-9h19v-9c6.07-.77 11.89-1.1 18-1"/><path fill="#bcbcbc" d="M293 447h10v10h-9v28h-10v-28h9z"/><path fill="#af441d" d="M527 223h29v10h-9v9h-10v-9h-10z"/><path fill="#d28d72" d="M732 177h1v9h9v37h-19v-8c6.07-.77 11.89-1.1 18-1v-8h-9z"/><path fill="#ebe4e6" d="M257 633c1.56 3.11 1.02 6.38.91 9.78l-.06 2.33-.15 4.88-.21 7.49c-.04 1.58-.09 3.16-.14 4.74l-.06 2.27c-.17 5.28-.17 5.28-1.29 7.51-2.65.59-5.29.74-8 1l-1 8c-3 1-5.88 1.51-9 2v-11h9v-28h9c-.01-.71-.02-1.42-.04-2.15 0-.92-.01-1.84-.02-2.79-.01-.91-.03-1.83-.04-2.77.1-2.29.1-2.29 1.1-3.29"/><path fill="#a9a8a7" d="M387 503h9c.83 6.4 1.09 12.55 1 19h9v19h-10v-19h-9z"/><path fill="#dd9771" d="M723 765h28v10h-18v9h-10z"/><path fill="#bd633c" d="M547 233h9v10h-9c.01.78.01 1.56.02 2.37.02 3.52.03 7.05.04 10.57l.03 3.73c0 1.17 0 2.34.01 3.54 0 1.09.01 2.17.01 3.29C547 269 547 269 546 270h-9v-28h10z"/><path fill="#b5acae" d="M630 429h27c.69 6.19 1.14 12.01 1.1 18.19 0 .83-.01 1.66-.01 2.52 0 2.62-.01 5.23-.03 7.85 0 1.79-.01 3.58-.01 5.37-.01 4.36-.03 8.71-.05 13.07h-1v-29h-9v-9h-18z"/><path fill="#ba703f" d="M648 131h10l1 7c4.46.5 4.46.5 27 3v8h-9v9h-10v-17l-3.88.06c-5.09.01-10.06-.49-15.12-1.06z"/><path fill="#764c32" d="M863 793h19v19h-19z"/><path fill="#cebcb3" d="M621 793h8v19h-17v9h-19v-10h28z"/><path fill="#939392" d="M377 560h10v37h-9c-.77-12.35-1.13-24.63-1-37"/><path fill="#8f462c" d="M723 224h10v9h9c.1 6.15.1 6.15 0 8-1 1-1 1-3.07 1.1-1.15-.02-1.15-.02-6.93-.1v10h-9z"/><path fill="#cacdca" d="M862 629h1v5h10l-1 28h-9v-19h-9v-9h8z"/><path fill="#eef1f0" d="M891 709v19h-9v-10h-19v-9c9.48-1.38 18.47-.64 28 0"/><path fill="#8b3221" d="M547 75h17v8h19v1h-27v9h-19v-9h10z"/><path fill="#c37754" d="M807 765h9v19h-9v9h-9v-19h9z"/><path fill="#13170c" d="m667 485 10 1v26c-6.64.66-12.46 1.11-19 1v-9h9z"/><path fill="#b06b45" d="M639 354h9v38h-9z"/><path fill="#f2ccb0" d="M612 261h27v1h-9v8h9v9h-18v-8h-9z"/><path fill="#760a03" d="M509 233h28v19h-9v-10h-19z"/><path fill="#7c0702" d="M499 271h9v9h10v18h-9v-9h-16v-1h6z"/><path fill="#f2f2f2" d="M399.066 550.902c.41.01.41.01 2.5.04.82 0 1.65.01 2.5.02.64.01 1.28.03 1.93.04.03 4.29.05 8.58.07 12.87 0 1.21.01 2.41.02 3.65.02 6.89-.21 13.64-1.09 20.48-5.75.12-5.75.12-8-1-.17-4.34-.33-8.67-.5-13-.04-1.22-.09-2.44-.14-3.7-.5-13.29-.5-13.29-.36-18.3 1-1 1-1 3.07-1.1"/><path fill="#b68066" d="M723 289h9v9h10v19h-10v-1h9v-8h-64v-1h46z"/><path fill="#b6b7b8" d="M228 718h1v19h10c.18 11.52.18 11.52-1 17h-1l-1-7-6 1-1 26h8c.19 2.98.38 5.96.56 8.94.06.85.11 1.7.17 2.57l.15 2.45c.05.75.09 1.5.14 2.27C238 792 238 792 237 793h-9z"/><path fill="#d1875f" d="M686 784h37v9h-37z"/><path fill="#b96140" d="M779 812h9l1 36h-10z"/><path fill="#c4c6c4" d="M531.96 792.886c1.29.01 2.59.01 3.92.02h2.08l6.6.03c1.49.01 2.98.01 4.47.01 3.66.02 7.31.03 10.97.05l-4 1v9h-66v9h-1v-10h39v-8c1-1 1-1 3.96-1.11"/><path fill="#a9aaad" d="M564 784h9v9h-9zm0 9v9h9v19h-9v-18c-1.49.16-1.49.16-9 1l1-10c4-1 4-1 8-1"/><path fill="#ad7554" d="M630 215h19v8c.63-.01 1.26-.02 1.91-.04 5.47-.05 10.67.24 16.09 1.04v9h-18l-1-9-18-1z"/><path fill="#7e7f80" d="M228 644h9v37h-8c-1.09-7.87-1.12-15.62-1.06-23.56 0-1.3.01-2.59.01-3.93.01-3.17.03-6.34.05-9.51"/><path fill="#ce9c7b" d="M723 252h18v27h-9v-18h-9z"/><path fill="#70351a" d="M770 141h9v36h-9z"/><path fill="#7b0a01" d="M498 177c1 1 1 1 1.12 3.94C499 184 499 184 498 186c-2.81.16-2.81.16-17 1v9h-9v-18c8.67-.95 17.28-1.39 26-1"/><path fill="#fad7ba" d="M696 719h18v18h-18c-1.09-6.52-.65-11.46 0-18"/><path fill="#c2bdbb" d="M284 812h19v9h19v8c4.95.16 4.95.16 30 1v1c-13.44.87-26.56 1-40 0v-9c-1.11.01-2.22.02-3.37.04-17.43.12-17.43.12-23.63-1.04l-1-1z"/><path fill="#99331d" d="M481 131h18v17c-6.18.79-11.65 1-18 1z"/><path fill="#a7a7a5" d="M368 709h10l-1 18h-27v-8h18z"/><path fill="#8d7369" d="M854 831h9v8l18 1v8q-6.72.045-13.44.06l-3.87.03c-.61 0-.61 0-3.69.01-1.12 0-2.25.01-3.41.01C854 848 854 848 853 847c.09-2.7.24-5.37.44-8.06.05-.76.1-1.52.16-2.3.13-1.88.26-3.76.4-5.64"/><path fill="#a53f16" d="M546 168h10v9h8v10h-26l-1 4v-5h9v-8h-18v-1h18z"/><path fill="#eff4f8" d="M639 699h10v29h-10z"/><path fill="#f1a87f" d="M648 373h1v9h8v9h20v-18h9v19h-38z"/><path fill="#b48562" d="M742 205h9v19h-28v9h-10v-10h29z"/><path fill="#5b5b5b" d="M471 718h28v10h-37v-1h9z"/><path fill="#aa8574" d="M732 691h10v9h-9v9h-20v-10h19z"/><path fill="#5f5f5f" d="M667 522h10v103h-10v-18h1v9h8v-84h-9z"/><path fill="#c9cacb" d="M797 550h10v10h-1v-9h-8v37h-9v-29l8 1z"/><path fill="#b06746" d="M583 382h19v9h10v1h-10v9h-9v-9h-10z"/><path fill="#dc8c69" d="M732 812h10v28h-10z"/><path fill="#8b8373" d="M882 784h10v28h-10z"/><path fill="#b96644" d="M564 363h10v9h9v10h-19z"/><path fill="#faf3e9" d="M509 354h10v9h9v10h-19z"/><path fill="#bf5b39" d="M509 242h19v19h-10v-9h-9z"/><path fill="#fcd0b1" d="M583 354h10v9l3.94-.06c1.35-.02 2.71-.01 4.06.06 1 1 1 1 1 10h-19z"/><path fill="#9b6a4b" d="M862 803h1v28h-9v9h-9v-10h8c.16-2.97.16-2.97 1-18h8z"/><path fill="#db8b69" d="M826 793h10v38h8v9h-17v-9h8v-29h-9z"/><path fill="#bcb7ad" d="M873 812h28v19h-9v-1h8v-9c-.68.04-.68.04-4.13.25-1.81.11-3.62.21-5.43.31-.45.03-.45.03-2.72.17-5.08.28-9.71.2-14.72-.73z"/><path fill="#e6926f" d="M816 728h10v9c-1.49.16-1.49.16-9 1l-1 9h-18v-10h18z"/><path fill="#f7a37e" d="M639 112h19v9c-2.05 2.05-6.3 1.7-9 2l-1 8h-9z"/><path fill="#170f11" d="M761 598h6v9h2v27h-8z"/><path fill="#d8d8d8" d="M388 578h9v9l2.88-.06C403 587 403 587 405 588v-10h1v29l-9 1-1-20-8-1z"/><path fill="#e6c8aa" d="M704 252h9c.66 9.35 1.16 18.62 1 28h9v9h-10v-19h-9z"/><path fill="#e9b18e" d="M677 289h9c.16 2.97.16 2.97 1 18h-10v-9h-9v10h8v9h-9v-20h10z"/><path fill="#c56936" d="M574 167v20h-10v-10h-8v-9c2.81-.17 5.62-.33 8.44-.5.8-.05 1.6-.1 2.43-.14 6.02-.36 6.02-.36 7.13-.36"/><path fill="#a58075" d="M808 709h18v19h-10v-10h-8z"/><path fill="#a4a4a2" d="M424 634h1c.21 41.45.21 41.45-1 57h-8v-28h8z"/><path fill="#fbbc9b" d="M732 756h29v9h-29z"/><path fill="#7d8285" d="M649 699h9v29h-9z"/><path fill="#dfa17d" d="M742 691h19v8h8v1h-9c.19 1.3.37 2.6.56 3.94.32 2.21.32 2.21.44 4.06-1 1-1 1-3.07 1.1-1.15-.02-1.15-.02-6.93-.1v-9h-9z"/><path fill="#6e706f" d="M761 643h9v29h-9z"/><path fill="#21281c" d="M546 494h1v18h9v-9h8v19h-17c-.82-6.4-1.13-12.61-1.06-19.06 0-.87.01-1.73.01-2.63.01-2.1.03-4.21.05-6.31"/><path fill="#8a3815" d="M602 392h19v9h9v1h-9v8h-9v-9h-10z"/><path fill="#fcd1b3" d="M667 373h10v18h-19v-9h9z"/><path fill="#791e09" d="M658 336h29v9h-29z"/><path fill="#9b200e" d="M489 187h1v9h19v27h-10v-9h-18v-17h-9v-1h10v17h17v-8h9v-8h-19z"/><path fill="#cc734e" d="M583 122h19v9h-9v9h-10z"/><path fill="#a6a8a7" d="M509 728c4.62.16 4.62.16 28 1v7h27v1h-55z"/><path fill="#7b7b7c" d="M247 560h9c.02 3.97.04 7.94.05 11.91l.03 4.05c.01 1.94.01 3.88.02 5.82 0 1.17.01 2.33.01 3.54C256 588 256 588 255 589h-8z"/><path fill="#b5b4b3" d="M331 793h21v1l-10 1-1 7 44-1 1-8h77v10c-.33-.16-.33-.16-2-1v-8h-74v9h-56z"/><path fill="#e5ab83" d="M593 401h9v10h-9v9h9v9c-6.42.1-12.63-.25-19-1v-8h9l-.06-4.44c-.01-4.93.43-9.67 1.06-14.56"/><path fill="#e5e6e5" d="M648 447h9v29h-7c-2-2-2-2-2.23-4.71l.03-3.39c.01-1.21.02-2.42.02-3.67l.06-3.85c0-.64 0-.64.02-3.88.03-3.17.06-6.33.1-9.5"/><path fill="#712e18" d="M723 363h9v29l-9-1z"/><path fill="#f99d72" d="M585 168h7v19h-18v-10h9l-.12-3.38C583 170 583 170 585 168"/><path fill="#7a7878" d="M639 532h9c1.37 9.42.67 18.55 0 28h-9z"/><path fill="#351b0c" d="M593 821h28v9h-28z"/><path fill="#ac7b5d" d="M723 812h9v28h-9z"/><path fill="#551302" d="M639 803h28v9h-28z"/><path fill="#b1b2b2" d="M434 728h28v9h-28z"/><path fill="#3d3d3c" d="M406 718h28v9h-28z"/><path fill="#b1b1b0" d="M387 719h9v9h10v9h-19z"/><path fill="#383838" d="M658 448h9v28h-9z"/><path fill="#bebebe" d="M322 448h28v9h-28z"/><path fill="#ba7661" d="M509 336h19c0 6.35-.21 11.82-1 18h-9v-9h-9z"/><path fill="#b57248" d="M649 327h28v9h-28z"/><path fill="#ac603e" d="M547 289h9v28h-9z"/><path fill="#c07950" d="M704 168h28v9h-28z"/><path fill="#ecbc93" d="M528 345h18v18l-9 1v-10h-9z"/><path fill="#8f6552" d="M847.066 820.902c1.16.02 1.16.02 6.93.1l-1 9h-8v10h8l1 8c-6.37.74-12.58 1.1-19 1v-9h9l-.03-3.9-.03-5.04c-.01-.85-.02-1.7-.02-2.58-.01-.8-.01-1.61-.01-2.45-.01-.75-.01-1.49-.02-2.27.17-2.6.58-2.74 3.18-2.86"/><path fill="#9f9fa9" d="M621 438h8v9h-7v10h8v9h-18v-9h9z"/><path fill="#b2664b" d="M639 793q4.47-.045 8.94-.06l2.52-.03c5.59-.02 10.99.38 16.54 1.09v8h-28z"/><path fill="#f5987d" d="M519 280h9v8h9v10c-6.11.1-11.93-.23-18-1z"/><path fill="#cb9b78" d="M602 252h27v9h-27z"/><path fill="#b8baba" d="m779 541 19 1-1 18h-7c-2.05-2.05-1.7-6.3-2-9h-9z"/><path fill="#e1b192" d="M556 411h8v8h9v-8h10v9h-9v8h-9v-8h-9z"/><path fill="#dbab90" d="M556 401h17v18h-9v-8h-8z"/><path fill="#f7e9d4" d="M873 765h9v10l10-1v8c-3.31 1.65-7 1.1-10.62 1.06L873 783z"/><path fill="#282e2e" d="M611 522h10c1.12 8.04 1.11 15.96 1.06 24.06 0 1.36-.01 2.71-.01 4.07-.01 3.29-.03 6.58-.05 9.87h7v9h-8v-37h-9v37h-1z"/><path fill="#7b7e7e" d="M229 803h8c.89 6.05 1.12 11.89 1.06 18 0 .87-.01 1.74-.01 2.64-.01 2.12-.03 4.24-.05 6.36h-9z"/><path fill="#fac7b1" d="m583 279 9 1 1 8 9 1v8h-19z"/><path fill="#680501" d="M574 93v9h-27v-8c8.98-1.33 17.95-1.09 27-1"/><path fill="#8b401d" d="M732 840h29v8h-29z"/><path fill="#e4e5e4" d="M378 672h8c1.08 9.21 1.34 17.82 0 27h-8z"/><path fill="#eceff0" d="M630 607h8l1 27h-9z"/><path fill="#787c7c" d="M257 532h9l-1 27h-8z"/><path fill="#c67c47" d="M612 141h27v7h9v1h-36z"/><path fill="#c1865d" d="M761 149h8v28h-8z"/><path fill="#6e7374" d="M614 541h6v28h-8c-.06-4.29-.09-8.58-.12-12.88l-.06-3.7c0-.59 0-.59-.02-3.54l-.03-3.27C612 543 612 543 614 541"/><path fill="#f9cbad" d="M683.063 773.938c1.45.01 2.9.01 4.36.01 3.52.01 7.05.03 10.58.05v1h-22c.16.33.16.33 1 2v7h-38v-1h19v-8c8.35-1.18 16.65-1.11 25.06-1.06"/><path fill="#464547" d="M648 625h1v56h8v18h-9z"/><path fill="#605f5e" d="M537 840h27v8h-27z"/><path fill="#84412a" d="M677 803h27v8h-27z"/><path fill="#cc8d6c" d="M751 112h10v9h8v1h-8v27h-1v-18h-9z"/><path fill="#797878" d="M396 709h10v18h28v1h-37c-.66-6.64-1.11-12.46-1-19"/><path fill="#454545" d="M433 616h1v56h-9v-19h8z"/><path fill="#3c3d3b" d="M648 560h1v9h9v28h-1v-9h-9z"/><path fill="#6b616b" d="M499 401h10v28h9v9h-10v-27h-9z"/><path fill="#88604c" d="M713 392h10v19h-9v18h-1z"/><path fill="#c19075" d="M648 242h29v10h-19v-9h-9v8h-1z"/><path fill="#0e0804" d="M622 243h26v8h-26z"/><path fill="#e9a789" d="M667 158h29v9h8v1h-27v-9h-10z"/><path fill="#c7c6c4" d="M583 737h47v9h-1v-8h-27v8h-19z"/><path fill="#eda582" d="M563 376h1v6h19v10h10v9h-10l-1-8-9-1v-9h-10z"/><path fill="#bd6c50" d="M751 168h1v9h9v28h-1v-9l-3.94.06c-1.35.02-2.71.01-4.06-.06-1-1-1-1-1.11-3.59 0-1.13.01-2.25.01-3.41.01-1.22.01-2.43.01-3.69l.03-3.87c0-.64 0-.64.01-3.89.01-3.18.03-6.37.05-9.55"/><path fill="#86190f" d="M489 223h20v19h-1v-9h-9v5h-1v-5h-8z"/><path fill="#cdc8c2" d="M630 466h9v9l10-1c1.66 3.33.82 7 .56 10.62-.05.81-.1 1.61-.16 2.43-.13 1.99-.26 3.97-.4 5.95h9v1h-10v-9h-9l-1-9-8-1z"/><path fill="#902106" d="M583 93h19v9l4.44-.06c4.93-.01 9.67.43 14.56 1.06v9h-10v-9h-18v-9h-10z"/><path fill="#823d2c" d="M630 793h9v9h28v1h-28v9h-9z"/><path fill="#e8b189" d="M704 775h19c.16 1.32.16 1.32 1 8-1 1-1 1-2.87 1.12-.81 0-1.63 0-2.47-.01h-2.79c-1 0-2-.01-3.03-.01-1.02 0-2.04-.01-3.09-.01q-4.905 0-9.81-.03c-2.21 0-4.43-.01-6.64-.01-5.43-.01-10.87-.03-16.3-.05v-1h27z"/><path fill="#ccccca" d="M415 653h9v10h-8v28h-10v-9h9z"/><path fill="#b1b4b6" d="M779 457h10v9h9v10h-10v-9h-9z"/><path fill="#de9774" d="M564 242h10v10h-9v18h8v9h-9z"/><path fill="#cd7d5d" d="M556 223h18v10h9v9h-19v-9h9v-9h-17z"/><path fill="#f7f6f6" d="M331 466h10q.045 4.47.06 8.94l.03 2.57c0 .81 0 1.62.01 2.45 0 .75.01 1.5.01 2.27C341 484 341 484 340 485c-1.51.23-3.04.41-4.56.56-.42.04-.42.04-2.51.26-.63.06-1.27.12-1.93.18-.84-6.9-1.02-13.11 0-20"/><path fill="#eccfb9" d="M648 737h29v1l-10 1v7c-6.4.83-12.55 1.09-19 1z"/><path fill="#dde5e0" d="M882 691h1v8h8v10h-28v-1h9v-9l2 1c1.37.07 2.75.08 4.12.06L882 700z"/><path fill="#a59ea0" d="M238 634h9v19h-9v10h-1c-.03-3.15-.05-6.29-.06-9.44-.01-.44-.01-.44-.03-2.66-.02-5.72.36-11.23 1.09-16.9"/><path fill="#d3d2d3" d="M406 625h18v9h-17v29h-1z"/><path fill="#cc8755" d="M602 401h10v9h10v10l-10-1v-8h-10z"/><path fill="#db845e" d="M760 812h1v19h18v9h-19z"/><path fill="#a44323" d="M788 793h10v19h-10z"/><path fill="#282828" d="M453 718h18v9c-7.87 1.09-15.62 1.12-23.56 1.06-.65 0-.65 0-3.93-.01-3.17-.01-6.34-.03-9.51-.05v-1h19z"/><path fill="#3b3a3b" d="M415 550h10v19h-10z"/><path fill="#d5d6db" d="M573 541h10v19h-10z"/><path fill="#3d3641" d="M518 457h10v18h9v10h-9c-.83-6.4-1.09-12.55-1-19h-9z"/><path fill="#d68e62" d="M704 373h10v19h-10z"/><path fill="#e2b097" d="M667 252h10v10h-10v9h-9v-10h9z"/><path fill="#9f5c46" d="M499 112h10v10h-10v9h-9v-10h9z"/><path fill="#dcdfe6" d="M574 802q4.47-.045 8.94-.06l2.57-.03c.81 0 1.62 0 2.45-.01.75 0 1.5-.01 2.27-.01C592 802 592 802 593 803v9h-19z"/><path fill="#7c2604" d="M714 335h9v19h-10q-.045-4.47-.06-8.94l-.03-2.57c0-.81 0-1.62-.01-2.45 0-.75-.01-1.5-.01-2.27C713 336 713 336 714 335"/><path fill="#2a2a2b" d="M322 429h1v9h17v9h10v1q-4.47.045-8.94.06c-.41.01-.41.01-2.52.03-5.59.02-10.99-.38-16.54-1.09z"/><path fill="#de8f6e" d="M528 326h19v9c-3.31 1.65-6.99 1.1-10.62 1.06-.81 0-1.61-.01-2.43-.01-1.99-.01-3.97-.03-5.95-.05z"/><path fill="#d7905a" d="M564 187h19v12l-1-3c-1.11.16-2.23.33-3.38.5-4.89.62-9.69.57-14.62.5z"/><path fill="#0f1211" d="M621 625h8v51h-1v-32h-6c-1-1-1-1-1.11-2.77 0-.74.01-1.49.01-2.27.01-.8.01-1.61.01-2.45l.03-2.57c0-.86.01-1.71.01-2.59.01-2.12.03-4.23.05-6.35"/><path fill="#f0b797" d="M583 401h10c1.68 3.35.53 7.01.06 10.62-.1.81-.2 1.61-.3 2.43-.25 1.99-.5 3.97-.76 5.95-1.32.17-1.32.17-8 1-2.08-3.12-2.24-3.54-1.98-7.01.03-.38.03-.38.16-2.3.06-.78.13-1.57.2-2.38.05-.79.11-1.59.17-2.41.14-1.97.29-3.93.45-5.9"/><path fill="#84584c" d="M462 177h10v1h-9v54h9c3.02.23 5.99.62 9 1v9h-9v9h9v1h-10v-19h-9z"/><path fill="#e5a884" d="M547 335v19h-1v-9h-18v-9c2.79-.17 5.58-.33 8.38-.5.79-.05 1.58-.1 2.4-.14 5.99-.36 5.99-.36 8.22-.36"/><path fill="#a3a098" d="M882 821h18v9h-8v10h-10v-1h9v-9h-9z"/><path fill="#c76d4a" d="M817 821v19h-10v-18c1.46-.16 2.93-.33 4.44-.5.41-.05.41-.05 2.49-.28C816 821 816 821 817 821"/><path fill="#d4d4d5" d="M564 765h9c.83 6.4 1.09 12.55 1 19h-10z"/><path fill="#cb9370" d="M547 382h9v19h-9v-9h-10v-1h10z"/><path fill="#b98665" d="M862 775h1q.045 6.72.06 13.44l.03 3.82c.02 6.67-.18 13.13-1.09 19.74h-8v-19h8z"/><path fill="#421606" d="M872 793h10v18h-10z"/><path fill="#c97e5f" d="M658 793h28v9h-19v-8h-9z"/><path fill="#d7b4a3" d="M826 718h18v10h-18z"/><path fill="#a27c6d" d="M779 691h19v8h9v1h-28z"/><path fill="#353233" d="M396 503h10v19h-9c-.72-6.39-1.1-12.57-1-19"/><path fill="#7e5744" d="M639 411h19v8h9v1h-28z"/><path fill="#ad633c" d="M648 401c.92 3.68.96 5.16 0 9h19v9h-9v-8h-19v-9c3.2-1.07 5.66-1.07 9-1"/><path fill="#ac6539" d="M667 363h20v9h-20z"/><path fill="#f1c5a4" d="M732 280h10v18h-10z"/><path fill="#c78e71" d="M629 224h20v9h-20z"/><path fill="#d39d74" d="M733 112h18v19h-9v-18h-9z"/><path fill="#ca7c4c" d="M686 103h10l1 7 7 1v-8h9v9h-27z"/><path fill="#c6ccc6" d="M648 542h19v17h-1v-8l-17-1v10h-1z"/><path fill="#ece9e2" d="M556 420h9v8l3.94-.06c4.75-.01 9.34.46 14.06 1.06v9h-10v-9c-1.14.01-2.29.02-3.46.04-1.5 0-2.99.01-4.48.02-.37.01-.37.01-2.28.03-1.93.01-3.86-.04-5.78-.09-1-1-1-1-1.1-2.85.03-2.05.07-4.1.1-6.15"/><path fill="#f7d0b1" d="M593 252h9v9l-8 1-1 8c-1.01.08-1.01.08-6.05.49C585 271 585 271 583 274v-13h10z"/><path fill="#cb8565" d="M807 718v9h9v1h-27v-9c.35.01.35.01 2.12.04.91 0 1.82.01 2.76.02.45.01.45.01 2.74.04 3.6-.15 6.57-1.18 10.38-1.1"/><path fill="#68696a" d="M629 634h1v84h8v10h-9z"/><path fill="#9a7057" d="M714 373h9v18l3 1h-12z"/><path fill="#730701" d="M518 122h20l-1 9h-20z"/><path fill="#ad4f2e" d="M528 280h10c.03 3.19.05 6.37.06 9.56l.03 2.72c.02 5.02-.23 9.77-1.09 14.72h-9v-9h9v-10h-9z"/><path fill="#f5bc9d" d="M704 177h28v10l-9-1v-8h-10v8h-9z"/><path fill="#e4e6e7" d="M593 784v9h-19v-9c6.63-.96 12.35-.84 19 0"/><path fill="#f0bb9a" d="M638 747h10v8h-9v20l-9-1v-9h8z"/><path fill="#a4a3a3" d="M406 541h9v28h-1v-9h-7c-.96-6.37-1.11-12.56-1-19"/><path fill="#969a91" d="M574 476h9v9h-9v9h-10v-9c1.49-.17 1.49-.17 9-1z"/><path fill="#a95725" d="M657 84h20v9h-19z"/><path fill="#b09c97" d="M593 812h19v9h-19z"/><path fill="#97989c" d="M910 774h9v19h-9z"/><path fill="#984727" d="M779 747h19v9h-19z"/><path fill="#aeadae" d="M873 728h19v9h-19z"/><path fill="#c7c9cc" d="M630 699h9v19h-9z"/><path fill="#939092" d="M789 672h9v19h-9z"/><path fill="#969492" d="M779 653h9v19h-9z"/><path fill="#a9adab" d="M630 643c6.11-.1 11.93.23 18 1v9h-18z"/><path fill="#dadbda" d="M378 607h9v27h-1v-9h-8z"/><path fill="#bdc3c0" d="M844 597h9v19h-9z"/><path fill="#838481" d="M378 578h9v19h-9z"/><path fill="#5d5f64" d="M564 541h9v19h-9z"/><path fill="#f2f2f1" d="M387 531h9v19h-9z"/><path fill="#232324" d="M406 522h9v19h-9z"/><path fill="#9a9d9a" d="M266 513h9v19h-9z"/><path fill="#050305" d="M406 503h9v19h-9z"/><path fill="#cfcecf" d="M303 448h19v9h-19z"/><path fill="#b97b62" d="M602 438h19v9h-19z"/><path fill="#3b1b0e" d="M677 429h19v9h-19z"/><path fill="#a8613f" d="M677 420h19v9h-19z"/><path fill="#ce925e" d="M639 354h9v19h-9z"/><path fill="#aa694c" d="M723 317h9v19h-9z"/><path fill="#d5946d" d="M593 317h9v19h-9z"/><path fill="#df8364" d="M564 317h19v9h-19z"/><path fill="#998376" d="M629 252h19v9h-19z"/><path fill="#a37a65" d="M704 233h9v19h-9z"/><path fill="#d99b6f" d="M667 233h19v9h-19z"/><path fill="#720701" d="M509 233h19v9h-19z"/><path fill="#cc6942" d="M537 214h19v9h-19z"/><path fill="#a33411" d="M518 214h19v9h-19z"/><path fill="#a67052" d="M761 177h9v19h-9z"/><path fill="#fde0c6" d="M677 168h27v9h-18v-8h-9z"/><path fill="#a13720" d="M472 158h9v19h-9z"/><path fill="#cd9d7a" d="M648 149h19v9h-19z"/><path fill="#fbca9f" d="M713 121c1 1 1 1 1 10h-18v-9c5.66-.82 11.28-1.43 17-1"/><path fill="#a77851" d="M732 103h19v9h-19z"/><path fill="#cdccc8" d="M901 793h8c.17 1.48.34 2.96.5 4.44.09.82.19 1.64.28 2.49.29 4.02.22 8.05.22 12.07h-18v-1h9z"/><path fill="#cd9579" d="M639 784q4.47-.045 8.94-.06l2.57-.03c.81 0 1.62 0 2.45-.01.75 0 1.5-.01 2.27-.01C657 784 657 784 658 785v8h-19z"/><path fill="#e8e9e8" d="M322 709h19v9h-19z"/><path fill="#facdac" d="M667 280h10v17h-10z"/><path fill="#f7b681" d="M593 140h9v19h-9z"/><path fill="#aa593b" d="M789 700h18v9h-18c-1-4-1-4 0-9"/><path fill="#ede5e3" d="M845 728h18v9c-4.1 1.04-7.61.94-11.81.56-1.16-.1-2.33-.2-3.52-.31-.88-.08-1.76-.16-2.67-.25z"/><path fill="#fcd7bb" d="M686 289h10l-1 18h-8c-1-1-1-1-1.1-4.82.01-1.58.02-3.16.04-4.74 0-.41 0-.41.01-2.45.01-1.99.03-3.99.05-5.99"/><path fill="#d59d7c" d="M583 289v18h-9v-18c2-1 2-1 9 0"/><path fill="#dddfd8" d="M892 756h10l-1 18h-9z"/><path fill="#afa5a8" d="M779 598h9v18l-9 1z"/><path fill="#c87864" d="M677 346h18v8h-37v-1h19z"/><path fill="#a3714a" d="M733 224h18v10l-18-1z"/><path fill="#8e442c" d="M760 196v9h-18v-9c6.33-.9 11.67-.9 18 0"/><path fill="#2f2c2a" d="M630 822h9v18h-9z"/><path fill="#ece2d5" d="M892 793h9v18h-9z"/><path fill="#410200" d="M733 784h18v9h-18z"/><path fill="#a04422" d="M798 775h9v18h-9z"/><path fill="#6c1804" d="M733 775h18v9h-18z"/><path fill="#cdd1c4" d="M883 756h9v18h-9z"/><path fill="#d89d7c" d="M761 747h18v9h-18z"/><path fill="#9d745a" d="M630 737h18v9h-18z"/><path fill="#a16c4f" d="M826 728h18v9h-18z"/><path fill="#6c5849" d="M649 728h18v9h-18z"/><path fill="#b3ac9f" d="M779 672h1v9h8v9h-18v-8h9z"/><path fill="#e8e8eb" d="M630 681h9v18h-9z"/><path fill="#d6dcd8" d="M873 663h9v18h-9z"/><path fill="#c4bebf" d="M817 625h9v18h-9z"/><path fill="#8e8d8d" d="M238 607h9v18h-9z"/><path fill="#9fa5a5" d="M817 532h9v18h-9z"/><path fill="#ac6a4c" d="M622 420h8v8h9v1h-9v9h-9c-.1-6.11.23-11.93 1-18"/><path fill="#c2b7be" d="M509 411h9v18h-9z"/><path fill="#ef9c7a" d="M621 392h18v9h-18z"/><path fill="#f9ab89" d="M574 354h9v18h-9z"/><path fill="#a9abaa" d="M490 336h9v18h-9z"/><path fill="#904b33" d="M723 336h9v18h-9z"/><path fill="#e7d9cc" d="M490 335h18v19h-8v-18h-10z"/><path fill="#be6233" d="M677 308h9v18h-9z"/><path fill="#661805" d="M686 308h18v9h-18z"/><path fill="#5d1207" d="M490 298h9v18h-9z"/><path fill="#c59c76" d="M723 289h9v18h-9z"/><path fill="#5a1f15" d="M481 252h9v18h-9z"/><path fill="#de876c" d="M547 243h9v18h-9z"/><path fill="#a63116" d="M537 224h9v18h-9z"/><path fill="#a8775f" d="M649 224h18v9h-18z"/><path fill="#812c09" d="M621 131h18v9h-18z"/><path fill="#9b3718" d="M593 112h18v9h-18z"/><path fill="#82301f" d="M519 94h18v9h-18z"/><path fill="#b06034" d="M677 84h9v18h-9z"/><path fill="#f6ab86" d="M816 757h21l-1 8c-3.13.16-3.13.16-19 1-1-2-1-2-1-9"/><path fill="#6e686d" d="M481 355h1v9h7l1 28h-1v-9h-7c-1.21-9.34-1.09-18.6-1-28"/><path fill="#c6613f" d="m696 326 17 1v9h-17z"/><path fill="#df906f" d="M556 289h8v9h-7v9h7v10h-8z"/><path fill="#e7a671" d="M713 103h19v8c-6.37.75-12.58 1.1-19 1z"/><path fill="#bcbdbb" d="m560 793-4 1v9h-66v9h-1v-10h58c-.16-1.32-.16-1.32-1-8 4.72-.65 9.22-1.12 14-1"/><path fill="#bfbfc2" d="M229 774h8c.19 2.98.38 5.96.56 8.94.06.85.11 1.7.17 2.57l.15 2.45c.05.75.09 1.5.14 2.27C238 792 238 792 237 793h-8z"/><path fill="#f4ecda" d="M863 747h8c2.06 2.06 1.41 6.22 1.56 9.06.05.76.09 1.52.13 2.3.11 1.88.21 3.76.31 5.64h-10z"/><path fill="#e8ba96" d="M612 261h17v10l-17-1z"/><path fill="#b69579" d="M696 84h18v9h19v9h18v1h-19v-9h-28l-1-8-7-1z"/><path fill="#c5c4c3" d="M368 531h9v1h-8v46h9v19h-1v-10h-9z"/><path fill="#8c8d8c" d="M732 429h1v9h19v9h18v28h-1v-9h-8v-9h8v-9h-18v-9h-19z"/><path fill="#dcaa87" d="M638 345h1v28h-1v-10h-8v29h-18v-1h17v-37h9z"/><path fill="#a45d3e" d="M564 75h20l-1 8h-19z"/><path fill="#611200" d="M714 794h18v9c-6.11.1-11.93-.23-18-1z"/><path fill="#7f8180" d="M219 691h9l-1 18c-1.32.16-1.32.16-8 1z"/><path fill="#d9d6dd" d="M639 682h9v17h-9z"/><path fill="#712102" d="M630 411h9v17h-9z"/><path fill="#b55c2c" d="M687 373h8c.19 2.98.38 5.96.56 8.94.06.85.11 1.7.17 2.57l.15 2.45c.05.75.09 1.5.14 2.27C696 391 696 391 695 392h-8z"/><path fill="#e0755e" d="M696 354h17v9h-17z"/><path fill="#993a0d" d="M751 793h9v18h-8z"/><path fill="#797b7b" d="M285 457h8v19h-8z"/><path fill="#c48760" d="M723 215h19v8h-19z"/><path fill="#7d1708" d="M677 150h19v8h-19z"/><path fill="#8f4419" d="M648 141h19v8h-19z"/><path fill="#040405" d="M417 522h7v19h-8q-.045-4.47-.06-8.94l-.03-2.57c0-.81 0-1.62-.01-2.45 0-.75-.01-1.5-.01-2.27C416 523 416 523 417 522"/><path fill="#2e2e2f" d="m499 718 9 1v8h65v1h-74z"/><path fill="#b66440" d="M770 700h19l-1 8h-18z"/><path fill="#cf6b43" d="M528 197h18v7c-2.12 2.12-6.62 1.42-9.56 1.56-.81.05-1.62.09-2.45.13-1.99.11-3.99.21-5.99.31z"/><path fill="#63150e" d="M472 243q3.69-.045 7.38-.06l2.11-.03c5.28-.02 5.28-.02 7.51 1.09.59 2.65.74 5.29 1 8-6.11.1-11.93-.23-18-1z"/><path fill="#d5d4d4" d="M284 802h38v10h-10v-9h-27v8h9v1h-10z"/><path fill="#c87350" d="M584 206h8v17h-9c-.09-5.8.17-11.26 1-17"/><path fill="#7b120a" d="M537 93h19v1h-9v8h27v10h-1v-9h-36z"/><path fill="#c06f52" d="M761 840h18v8h-18z"/><path fill="#dea582" d="M854 775h8v18h-8z"/><path fill="#601509" d="M770 757h18v8h-18z"/><path fill="#c7b8b9" d="M798 691h18v8h-18z"/><path fill="#535558" d="M621 607h8v18h-8z"/><path fill="#686268" d="M584 541h8v18h-8z"/><path fill="#751d06" d="M704 318h18v8h-18z"/><path fill="#fbedde" d="M630 262h18v8h-18z"/><path fill="#a8483d" d="M499 233h9c.1 6.93.1 6.93 0 9l-1 1h-7v27h9v9h9v1h-10v-9h-9z"/><path fill="#6d6b6c" d="M867.816 839.902c1.58.01 3.16.02 4.75.04a1186 1186 0 0 1 8.43.06v8h-18c0-7.98 0-7.98 4.82-8.1"/><path fill="#3b393c" d="M593 466h37v9h8v1h-9v-9h-8v9c-6.93.1-6.93.1-9 0l-1-1v-8h-18z"/><path fill="#6f3729" d="M464 206h8v17h-8z"/><path fill="#b56043" d="M713 354h1v9h9v10h-27v-1h17v-8h-9v-1h9z"/><path fill="#a04b43" d="M658 346h19v7h-19z"/><path fill="#181b32" d="M564 522h10v9h9v1h-9v7l4 1c-2.99.87-5.64 1.11-8.75 1.06-.8-.01-1.6-.02-2.42-.02-.61-.02-1.21-.03-1.83-.04v-1h8v-8h-9z"/><path fill="#29292a" d="M573 728h1v8h38v-8h9v9h-48z"/><path fill="#3c3938" d="M760 634h9v9h-8v47h-1z"/><path fill="#bbbbbc" d="M788 560h1v56h-1v-19h-8v-9h8z"/><path fill="#6f7070" d="M649 699h9v29h-9v-10h7c-.01-.63-.02-1.26-.04-1.91-.05-5.47.24-10.67 1.04-16.09h-8z"/><path fill="#8f3814" d="M704 317h19v18c-1.65.17-1.65.17-10 1v-9h-9v-1h18v-8h-18z"/><path fill="#181719" d="M564 840h57v1l-47 1v6h-10z"/><path fill="#989798" d="M247 821h10v9h18v9l3 1h-12c-1.16-3.48-.71-5.46 0-9h-10v-9h-9z"/><path fill="#b4b5b4" d="M509 728c4.62.16 4.62.16 28 1v1l-18 1-1 5h18v1h-27z"/><path fill="#bebfc1" d="M648 438h10v38h-1v-29h-9z"/><path fill="#a44721" d="M760 784h1v28h-10v-10h-9c-.04-2.33-.04-4.67 0-7 1-1 1-1 2.85-1.1 2.05.03 4.1.07 6.15.1.99 5.71 1.1 11.21 1 17h8z"/><path fill="#b7bcbc" d="M573 784h1v37h-1v-19h-9v-9h9z"/><path fill="#c97451" d="M769 700h1v8c1.27-.01 2.53-.02 3.84-.04 1.7 0 3.4-.01 5.1-.02.41-.01.41-.01 2.52-.03 5.59-.02 10.99.38 16.54 1.09v9h-10v-9h-19z"/><path fill="#aaa9aa" d="M387 578h1v9l3.94-.06c1.35-.02 2.71-.01 4.06.06 1 1 1 1 1.11 3.68 0 1.17-.01 2.34-.01 3.54-.01 1.26-.01 2.52-.01 3.82l-.03 4.02c0 1.35-.01 2.69-.01 4.04-.01 3.3-.03 6.6-.05 9.9h-1v-19h-8c-.82-6.38-1.12-12.57-1-19"/><path fill="#d69767" d="M621 215h1v9h-10v9h-10v-10h19z"/><path fill="#9c5c43" d="M518 93h19v1h-18v9h9v9h-10z"/><path fill="#929091" d="M471 354h19v28h-1v-18h-7v-9h-10v8h-1z"/><path fill="#ac6e41" d="M602 233h10v9h9v1h-9v8h-1v-8h-9z"/><path fill="#a8a8a9" d="M228 672h1v9h8v10h-8v8h-1v-8h-9v-1h9z"/><path fill="#e18c6d" d="M797 812h1v9h18v1h-9v9h-9c-1.01-4.04-1.11-7.64-1.06-11.75 0-.7.01-1.39.01-2.11.01-1.72.03-3.43.05-5.14"/><path fill="#b05f31" d="M835 737h9v1h-8v18h-10v-9c1.49-.16 1.49-.16 9-1z"/><path fill="#dfe0df" d="M350 728h29l-1 9h-10v-8c-.28.04-.28.04-1.69.25-5.37.72-9.96.62-15.31-.25l-1 2z"/><path fill="#d5d5d8" d="M648 699h1v29h-10v-9h9z"/><path fill="#eb9e7a" d="M769 709h19c1.12 10.12 1.12 10.12 1.06 14.56-.01.85-.02 1.7-.02 2.57-.02.62-.03 1.23-.04 1.87h-1v-9h-9v-9h-10z"/><path fill="#c2684b" d="M518 271h9l1 9h-9v17h9v1h-10c-.2-3.37-.38-6.75-.56-10.12-.06-.96-.11-1.91-.17-2.89-.25-4.83-.35-9.23.73-13.99"/><path fill="#d06b46" d="M547 233h9v10h-9v19h-1c-.03-3.15-.05-6.29-.06-9.44-.01-.44-.01-.44-.03-2.66-.02-5.72.36-11.23 1.09-16.9"/><path fill="#8c8c8c" d="M481 719h9v8h9v1h-37v-1h19z"/><path fill="#77574a" d="M713 699h19v1h-9v9h-10z"/><path fill="#565358" d="M592 560h1v28h-10v-9h9z"/><path fill="#333230" d="M639 522h10v19h-1v-9h-9z"/><path fill="#a69ca9" d="M518 438h1v9h9v10h-10z"/><path fill="#e1c5b1" d="M518 354h1v9h9v10h-10z"/><path fill="#9e694e" d="M723 812h9v1h-8v18h8v9h-9z"/><path fill="#bfbfbf" d="M434 728h9v8h18v-8h1v9h-28z"/><path fill="#464a47" d="M546 494h1v18h9v-9h8v10h-18z"/><path fill="#babdb4" d="M658 476h9v28h-9v-1h8v-18h-8z"/><path fill="#646661" d="M658 448h1v18h8v10h-9z"/><path fill="#6f2312" d="M499 308h10v9h-9v9h-1v-9h-9v-1h9z"/><path fill="#e0e0de" d="M387 550h1l1 19h7c1 1 1 1 1.1 2.85-.02 1.02-.02 1.02-.1 6.15h-10z"/><path fill="#eb9a71" d="M677 140c2.81-.03 5.62-.05 8.44-.06l2.43-.03c2.04-.01 4.09.04 6.13.09 1 1 1 1 1 8h18v1h-27v-8h-9z"/><path fill="#830a06" d="M493 288h25v10h-9v-9h-16z"/><path fill="#4b3123" d="M593 821h28v9h-10l1-8h-19z"/><path fill="#b9663e" d="M667 327h10v9h-28v-1l18-1z"/><path fill="#913f22" d="M648 336h1c.03 2.08.05 4.17.06 6.25.01 1.16.03 2.32.04 3.52C649 349 649 349 648 353h10v1h-19v-9h9z"/><path fill="#890f08" d="M518 298h10v10l-9-1v10h-1z"/><path fill="#cb7649" d="M582 200h1v6h-9v17h-9v-9h8v-9h9z"/><path fill="#c7754c" d="M826 793h10v21h-1v-12h-9z"/><path fill="#c1c1bf" d="M331 793h21v1l-10 1-1 7h-10z"/><path fill="#e1e2e2" d="M293 494h11c-.88 8.88-.88 8.88-2 10l-3.44-.12-3.56.12-2 3z"/><path fill="#efd8c4" d="M546 392h1v9h9v10l-10-1z"/><path fill="#d48160" d="M592 193h1v13h9v8h-9v9h-1z"/><path fill="#848987" d="M769 643h1v29h-9v-9h8z"/><path fill="#d48056" d="M648 131h10l1 7 9 1v1h-20z"/><path fill="#935a36" d="M816 718h10v10h-10z"/><path fill="#3b4339" d="M667 522h10v10h-10z"/><path fill="#9c9b94" d="M583 466h10v10h-10z"/><path fill="#89888d" d="M499 401h10v10h-10z"/><path fill="#df9d79" d="M648 373h1v9h8l1 10h-10z"/><path fill="#d69b70" d="M658 363h9v9h10v1h-19z"/><path fill="#363034" d="M472 355h9v9h-18v9h-1v-10h10z"/><path fill="#802a1e" d="M518 326h10v10h-10z"/><path fill="#d29669" d="M583 307h10v10h-10z"/><path fill="#a53f28" d="M509 242h19v10h-1v-9h-9v8h-9z"/><path fill="#f9c7a4" d="M687 224h9v19h-9v-1h8v-9l-8 1z"/><path fill="#d7936b" d="M602 196h10v10h-10z"/><path fill="#b45e47" d="M732 177h1v9h9v10h-9c-.82-6.38-1.12-12.57-1-19"/><path fill="#c2592e" d="M537 167h19v1h-10v9h-9z"/><path fill="#bd583c" d="M583 112h10v10h-10z"/><path fill="#931104" d="M583 93h19v10h-9v-9h-10z"/><path fill="#a7a49f" d="M892 812h9v19h-9v-1h8v-9h-8z"/><path fill="#d6815e" d="M797 775h1v18h-10v-9h9z"/><path fill="#c9704e" d="M742 765h9v10h-18v-1h9z"/><path fill="#654030" d="M677 718h18v1h-9v9h-9z"/><path fill="#62605f" d="M424 672h1v27h-10v-8h9z"/><path fill="#282d2d" d="M649 672h9v27h-1v-18h-8z"/><path fill="#30332b" d="M667 485h1v9h8v10h-9z"/><path fill="#979a9a" d="M275 485h9v9h-8v9h-1v-8h-9v-1h9z"/><path fill="#d3a181" d="M668 298h9v19h-1v-9h-8z"/><path fill="#c7755b" d="M686 158h10v9h8v1c-6.11.1-11.93-.23-18-1z"/><path fill="#9a2d1b" d="M648 93c6.93-.1 6.93-.1 9 0 1 1 1 1 1.1 3.07-.03 2.31-.07 4.62-.1 6.93h-10z"/><path fill="#f6fafa" d="M499 373h10v10c-1.49.17-1.49.17-9 1-.97-3.87-1.08-7.04-1-11"/><path fill="#f9e4ca" d="m650 205 17 1v7h10v1h-20v-8h-7z"/><path fill="#fcdab6" d="M595 261h17v9h-10v-8h-7z"/><path fill="#30353c" d="M612 579h9v28h-1v-19l-8-1z"/><path fill="#e2e5df" d="M844 682h9l1 8h9v1h-19z"/><path fill="#b2b4b4" d="M256 532h1v27h8v-18h1v19h-9v29h-1v-29h-9v-1h9z"/><path fill="#c06e40" d="M639 392h9v9c-5.97 1.33-11.93 1.09-18 1v-1h9z"/><path fill="#ae5426" d="M611 112h1c.11 6.11-.1 11.95-1 18h-8v-8h-10v-1h18z"/><path fill="#826e5b" d="M863 812h9v10c-1.49.16-1.49.16-9 1z"/><path fill="#d9d8d9" d="M229 691h8v9h-8v18h-1q-.045-4.5-.06-9l-.03-2.54c-.02-5.25.33-10.26 1.09-15.46"/><path fill="#b8b8b7" d="M416 681v10h-10v-9c1.46-.16 2.93-.33 4.44-.5.41-.05.41-.05 2.49-.28C415 681 415 681 416 681"/><path fill="#081017" d="M658 653h9v10c-1.49.16-1.49.16-9 1z"/><path fill="#686767" d="M415 550h1v10h8v9h-9z"/><path fill="#dbdcda" d="M396 541h10v10l-10-1z"/><path fill="#967e85" d="M603 447h18v10l-9-1v-8h-9z"/><path fill="#df9371" d="M612 429h9v9h-19v-1h10z"/><path fill="#d37853" d="M667 392h11l-1 9h-10z"/><path fill="#efab79" d="M668 316c3.02.18 6 .62 9 1v9h-10c-.1-6.93-.1-6.93 0-9z"/><path fill="#dfc6b9" d="M649 243h9v9h-9v9h-1c-.11-6.11.1-11.95 1-18"/><path fill="#e88c68" d="M639 112h19v1h-10v8h-9z"/><path fill="#8d442d" d="M556 75h8v8h19v1h-27z"/><path fill="#d77f5f" d="M732 831h10v9h-10z"/><path fill="#f7af8e" d="M733 812h9v10h-9z"/><path fill="#be6d39" d="M751 812h9v10h-9z"/><path fill="#8c8b8a" d="M527 812h10c.1 6.93.1 6.93 0 9-1 1-1 1-2.85 1.1-2.05-.03-4.1-.07-6.15-.1z"/><path fill="#625040" d="M882 793h9v9h-8v9h-1z"/><path fill="#d37957" d="M798 793h9v10h-9z"/><path fill="#c6997c" d="M629 775h10v9h-10z"/><path fill="#a1564a" d="M770 765h9v10h-9z"/><path fill="#fbcba7" d="M826 765h10v9h-10z"/><path fill="#c17860" d="M788 756h10v9h-10z"/><path fill="#d28467" d="M751 756h10v9h-10z"/><path fill="#fbceb7" d="M732 747h10v9h-10z"/><path fill="#da7d57" d="M807 738h9v9h-18v-1h9z"/><path fill="#969696" d="M583 737h10v9h-10z"/><path fill="#bca694" d="M667 728h10v9h-10z"/><path fill="#3e160c" d="M751 682h9v9h-18v-1h9z"/><path fill="#eeefee" d="M406 672h9v10h-9z"/><path fill="#cccecc" d="M789 653h9v10h-9z"/><path fill="#818381" d="M649 569h9v10h-9z"/><path fill="#141319" d="M593 569h9v10h-9z"/><path fill="#b8b8b6" d="M387 504h1v9h8v9h-9z"/><path fill="#393432" d="M648 494h10v9h-10z"/><path fill="#dce3de" d="M547 466h9v10h-9z"/><path fill="#68331f" d="M667 420h10v9h-10z"/><path fill="#744430" d="M639 411h10v9h-10z"/><path fill="#faccb0" d="M574 401h9v10h-9z"/><path fill="#7b270c" d="M602 392h10v9h-10z"/><path fill="#e2a78d" d="M602 382h10v9h-10z"/><path fill="#bfc1c1" d="M490 382h9v10h-9z"/><path fill="#ecaa7e" d="M704 373h10v9h-10z"/><path fill="#db9474" d="M583 373h10v9h-10z"/><path fill="#9b4422" d="M564 363h9v10h-9z"/><path fill="#a17150" d="M528 363h9v10h-9z"/><path fill="#3a0803" d="M509 326h9v10h-9z"/><path fill="#e1ae84" d="M583 298h10v9h-10z"/><path fill="#f1caa4" d="M723 261h9v10h-9z"/><path fill="#ac9680" d="M723 252h10v9h-10z"/><path fill="#645844" d="M713 252h10v9h-10z"/><path fill="#cf9276" d="M667 252h10v9h-10z"/><path fill="#e2af85" d="M602 252h10v9h-10z"/><path fill="#4e3d2e" d="M723 242h9v10h-9z"/><path fill="#080804" d="M713 243h10v9h-10z"/><path fill="#8c5135" d="M667 243h10v9h-10z"/><path fill="#b0744a" d="M677 223h9v10h-9z"/><path fill="#8c4a20" d="M667 224h10v9h-10z"/><path fill="#da8e71" d="M583 223h9v10h-9z"/><path fill="#eccbb1" d="M714 214h18v1h-9v8h-9z"/><path fill="#fde5ca" d="M695 177h9v10h-9z"/><path fill="#ef9263" d="M574 177h9v10h-9z"/><path fill="#f9c19b" d="M742 149h10v9h-10z"/><path fill="#cb7151" d="M713 149h10v9h-10z"/><path fill="#c17e56" d="M631 141h8v7h9v1h-27v-1l3.31-.12c3.69-.88 3.69-.88 5.63-3.94z"/><path fill="#992e19" d="M499 122h10v9h-10z"/><path fill="#9c674b" d="M751 112h9v10h-9z"/><path fill="#b44f39" d="M648 103h10v9h-10z"/><path fill="#9c3d15" d="M667 93h10v9h-10z"/><path fill="#91503e" d="M537 84h10v9h-10z"/><path fill="#b2aeb1" d="M284 812h10v9c-6.93.1-6.93.1-9 0-1-1-1-1-1.1-2.85.03-2.05.07-4.1.1-6.15"/><path fill="#fcc6a3" d="M807 802h9v10h-9z"/><path fill="#fdc6a8" d="M779 774h9v10c-6.15.1-6.15.1-8 0-1-1-1-1-1.1-3.07.03-2.31.07-4.62.1-6.93"/><path fill="#cc835c" d="M723 775h10v9h-10z"/><path fill="#b1876e" d="M622 765h7v10h-7v18h-1q-.045-4.47-.06-8.94l-.03-2.52c-.02-5.59.38-10.99 1.09-16.54"/><path fill="#c9cac9" d="M499 728h10v9c-6.93.1-6.93.1-9 0-1-1-1-1-1.1-2.85.03-2.05.07-4.1.1-6.15"/><path fill="#c8c4ca" d="M873 718h9v10c-6.15.1-6.15.1-8 0-1-1-1-1-1.1-3.07.03-2.31.07-4.62.1-6.93"/><path fill="#969696" d="M380.066 708.902c1.16.02 1.16.02 6.93.1v9h-10c-.09-6.15-.09-6.15 0-8 1-1 1-1 3.07-1.1"/><path fill="#afb5aa" d="M854 691h9v9h-19v-1h10z"/><path fill="#101614" d="M649 634h10c-.88 8.88-.88 8.88-2 10-2.67.14-5.32.04-8 0z"/><path fill="#898888" d="M415 569h9v10c-6.15.1-6.15.1-8 0-1-1-1-1-1.1-3.07.03-2.31.07-4.62.1-6.93"/><path fill="#e4b387" d="M593 307c6.15-.1 6.15-.1 8 0 1 1 1 1 1.1 3.07-.03 2.31-.07 4.62-.1 6.93h-9z"/><path fill="#830b07" d="M472 223h9v10h-9z"/><path fill="#b6683e" d="M602 177h9v10c-6.15.1-6.15.1-8 0-1-1-1-1-1.1-3.07.03-2.31.07-4.62.1-6.93"/><path fill="#8b1804" d="M612 84h10c.1 6.15.1 6.15 0 8-1 1-1 1-3.07 1.1-1.15-.02-1.15-.02-6.93-.1z"/><path fill="#971c16" d="M499 149h10c.12 6.75.12 6.75-1 9h-9z"/><path fill="#82482b" d="M863 793h9v9c-1.49.16-1.49.16-9 1z"/><path fill="#c1c6c6" d="m644.625 633.875 3.38.12v10h-9c-.2-6.05-.2-6.05 0-8 2-2 2-2 5.62-2.12"/><path fill="#694b3d" d="M723 382h9v10l-9-1z"/><path fill="#e2b491" d="M583 252h10v9h-9z"/><path fill="#74361b" d="M509 103h9v10h-9z"/><path fill="#edab85" d="M826 775h9v9c-1.11.1-2.23.21-3.38.31-1.19.23-2.39.46-3.62.69l-2 3z"/><path fill="#fce3d6" d="M593 279h15v1l-5 1-1 7h-9z"/><path fill="#c87b4a" d="M574 187h9v12l-1-3c-.57.09-.57.09-3.44.56-.59.07-.59.07-3.56.44-1-1-1-1-1.1-3.07.03-2.31.07-4.62.1-6.93"/><path fill="#e8b796" d="m677 248 1 4h8v9h-9z"/><path fill="#8a8b8a" d="m378 587 9 1v9h-9z"/><path fill="#747367" d="M368 476h9l1 9h-10z"/><path fill="#fbfcfd" d="M509 392h9v9c-.56.07-.56.07-3.38.44C511 402 511 402 509 403z"/><path fill="#80140a" d="M556 84h12l-3 1v8h-9z"/><path fill="#f5a480" d="M836 803h9v9c-1.49.16-1.49.16-9 1z"/><path fill="#59595a" d="M425 611c2 3 2 3 2 5h6v10c-3 0-3 0-8-1z"/><path fill="#cbcecd" d="M257 560h9v8c-1.49.5-1.49.5-9 3z"/><path fill="#f6f3e7" d="M583 438h9v8c-6.75 2-6.75 2-9 2z"/><path fill="#c96339" d="M678 411h8v9h-19v-1h11z"/><path fill="#faca9d" d="M537 354h9v9c-1.49.17-1.49.17-9 1z"/><path fill="#5d0200" d="M509 233h9c1.16 3.48.71 5.46 0 9h-9z"/><path fill="#e4926c" d="M677 122h9v9c-6.75 1.12-6.75 1.12-9 0z"/><path fill="#bb7a58" d="M847.066 820.902c1.16.02 1.16.02 6.93.1l-1 9c-1.48.16-1.48.16-9 1-.09-6.94-.09-6.94 0-9 1-1 1-1 3.07-1.1"/><path fill="#aba496" d="M873 812h9v9c-3.07 1.53-5.7.55-9 0z"/><path fill="#c1c2c2" d="M275 803h9v9h-9c-1.53-3.07-.55-5.7 0-9"/><path fill="#db9d73" d="M714 775h9c.88 6.15.88 6.15 1 8-1 1-1 1-3.07 1.1-1.15-.02-1.15-.02-6.93-.1z"/><path fill="#dea87f" d="M723 765h10l-1 9h-9z"/><path fill="#cca78a" d="M648 737h10l-1 9h-9z"/><path fill="#b0b4b3" d="M639 625h9v9c-6.15.88-6.15.88-8 1-1-1-1-1-1.1-3.07.03-2.31.07-4.62.1-6.93"/><path fill="#626262" d="m658 597 9 1v9h-9z"/><path fill="#e3e2e4" d="M331 494h9c.96 3.84.92 5.32 0 9h-9z"/><path fill="#b6bab1" d="M574 476h9v9h-10z"/><path fill="#989593" d="M630 466h9v10l-9-1z"/><path fill="#d5b9b3" d="M621 438h8v9h-7v10h-1z"/><path fill="#a5694c" d="M657 410h10v9h-9z"/><path fill="#b85e2e" d="M696 402v9h-9v-9c6.75-1.12 6.75-1.12 9 0"/><path fill="#840906" d="M528 233h9v9c-1.49.16-1.49.16-9 1z"/><path fill="#814328" d="M835 840h9v9h-9z"/><path fill="#c76e45" d="M742 822h9v9h-9z"/><path fill="#958981" d="M629 803h1v18h-8v-9h7z"/><path fill="#73625b" d="M612 812h9v9h-9z"/><path fill="#998f90" d="M593 812h9v9h-9z"/><path fill="#cac8c9" d="M294 812h9v9h-9z"/><path fill="#d98567" d="M733 803h9v9h-9z"/><path fill="#652712" d="M667 803h9v9h-9z"/><path fill="#180901" d="M873 802h9v9h-9z"/><path fill="#d89b71" d="M817 803h9v9h-9z"/><path fill="#f79a7a" d="M798 803h9v9h-9z"/><path fill="#d3885f" d="M779 803h9v9h-9z"/><path fill="#ce6f49" d="M742 803h9v9h-9z"/><path fill="#7b3a24" d="M723 803h9v9h-9z"/><path fill="#c3c9c3" d="M602 803h10v8h-11z"/><path fill="#7f543a" d="M873 784h9v9h-9z"/><path fill="#762a09" d="M751 784h9v9h-9z"/><path fill="#898a8c" d="M910 784h9v9h-9z"/><path fill="#e69670" d="M807 784h9v9h-9z"/><path fill="#8a3818" d="M723 784h9v9h-9z"/><path fill="#ba6c44" d="M714 784h9v9h-9z"/><path fill="#d89b6f" d="M686 784h9v9h-9z"/><path fill="#460600" d="M751 775h9v9h-9z"/><path fill="#943d21" d="M733 775h9v9h-9z"/><path fill="#c4c4c3" d="M564 775h9v9h-9z"/><path fill="#c57f5b" d="M845 765h9v9h-9z"/><path fill="#8f4a26" d="M854 765h9v9h-9z"/><path fill="#f1b38e" d="M836 765h8v10h-9z"/><path fill="#db9675" d="M798 765h9v9h-9z"/><path fill="#a06d4c" d="M854 756h9v9h-9z"/><path fill="#f3aa8a" d="M742 756h9v9h-9z"/><path fill="#fcd0af" d="M723 756h9v9h-9z"/><path fill="#a56b4c" d="M779 747h9v9h-9z"/><path fill="#ccd0cf" d="M564 747h9v9h-9z"/><path fill="#ce8961" d="M817 728h9v9h-9z"/><path fill="#c9c5d1" d="M863 728h9v9h-9z"/><path fill="#b48470" d="M835 728h9v9h-9z"/><path fill="#604d3c" d="M649 728h9v9h-9z"/><path fill="#e2e5e3" d="M257 728h9v9h-9z"/><path fill="#d78b6f" d="M789 719h9v9h-9z"/><path fill="#f9b698" d="M779 719h9v9h-9z"/><path fill="#272726" d="M425 718h9v9h-9z"/><path fill="#82503f" d="M695 709h9v9h-9z"/><path fill="#cbcbc9" d="M359 709h9v9h-9z"/><path fill="#b88371" d="M808 709h9v9h-9z"/><path fill="#c5c9c4" d="M863 699h9v9h-9z"/><path fill="#95726b" d="M807 700h9v9h-9z"/><path fill="#edab7f" d="M760 700h9v9c-2.81.62-2.81.62-6 1l-3-2c-.41-2.71-.13-5.24 0-8"/><path fill="#dba185" d="M733 700h9v9h-9z"/><path fill="#3b1408" d="M704 700h9v9h-9z"/><path fill="#696868" d="M406 700h9v9h-9z"/><path fill="#c6c7c5" d="M378 700h9v9h-9z"/><path fill="#abacaa" d="M397 672h9v9h-9z"/><path fill="#aab0b2" d="M789 663h9v9h-9z"/><path fill="#2a2b2a" d="M425 663h9v9h-9z"/><path fill="#e2dcde" d="M238 663h9v9h-9z"/><path fill="#b9b3b4" d="M238 644h9v9h-9z"/><path fill="#aaa1a2" d="M817 625h9v9h-9z"/><path fill="#c1c0c0" d="M415 625h9v9h-9z"/><path fill="#b7afb1" d="M238 625h9v9h-9z"/><path fill="#39393a" d="M639 616h9v9h-9z"/><path fill="#adadad" d="M397 616h9v9h-9z"/><path fill="#a29c9d" d="M779 598h9v9h-9z"/><path fill="#acadac" d="M378 598h9v9h-9z"/><path fill="#dddede" d="M789 588h9v9h-9z"/><path fill="#b1b4b2" d="M658 588h9v9h-9z"/><path fill="#414342" d="M630 588h9v9h-9z"/><path fill="#28282f" d="M593 579h9v9h-9z"/><path fill="#adb2b2" d="M835 569h9v9h-9z"/><path fill="#b5b6b7" d="M826 560h9v9h-9z"/><path fill="#bfc4c2" d="M649 560h9v9h-9z"/><path fill="#f4f8f6" d="M649 550h9v9h-9z"/><path fill="#474546" d="M639 551h9v9h-9z"/><path fill="#bab9b7" d="M378 550h9v9h-9z"/><path fill="#868585" d="M406 541h9v9h-9z"/><path fill="#1d1c1c" d="M415 541h9v9h-9z"/><path fill="#cececc" d="M378 541h9v9h-9z"/><path fill="#919595" d="M817 532h9v9h-9z"/><path fill="#485347" d="M658 532h9v9h-9z"/><path fill="#51504f" d="M406 532h9v9h-9z"/><path fill="#babebd" d="M266 532h9v9h-9z"/><path fill="#8b8a8a" d="M397 522h9v9h-9z"/><path fill="#5a5959" d="M397 513h9v9h-9z"/><path fill="#b4b7b3" d="M547 503h9v9h-9z"/><path fill="#030611" d="m569.563 502.938 3.44.06v10c-3.29 1.1-4.72.8-8 0q-.045-2.22-.06-4.44c-.02-.82-.03-1.64-.04-2.49.17-3.6.92-3.06 4.66-3.13"/><path fill="#c0bfbc" d="M378 494h9v9h-9z"/><path fill="#6e7071" d="M266 495h9v9h-9z"/><path fill="#2d2b2b" d="M387 494h9v9h-9z"/><path fill="#b4b7b8" d="M798 485h9v9h-9z"/><path fill="#1c1d19" d="M668 486h9v17h-1v-9h-8z"/><path fill="#10110c" d="M574 485h9v9h-9z"/><path fill="#62615b" d="M378 485h9v9h-9z"/><path fill="#979997" d="M537 485h9v9h-9z"/><path fill="#c3cdcc" d="M770 476h9v9h-9z"/><path fill="#2d2930" d="M528 476h9v9h-9z"/><path fill="#b1afb4" d="M528 466h9v9h-9z"/><path fill="#6c6d69" d="M359 466h9v9h-9z"/><path fill="#e0e3e4" d="M770 457h9v9h-9z"/><path fill="#969795" d="M350 457h9v9h-9z"/><path fill="#808384" d="M602 457h9v9h-9z"/><path fill="#c4c6c0" d="M593 457h9v9h-9z"/><path fill="#737473" d="M341 448h9v9h-9z"/><path fill="silver" d="M303 448h9v9h-9z"/><path fill="#7d7e7e" d="M294 448h9v9h-9z"/><path fill="#a66551" d="M612 438h9v9h-9z"/><path fill="#a38e7a" d="M593 438h9v9h-9z"/><path fill="#2f0904" d="M677 429h9v9h-9z"/><path fill="#f6f7f9" d="M564 429h9v9h-9z"/><path fill="#29150d" d="M658 420h9v9h-9z"/><path fill="#703d21" d="M704 411h9v9h-9z"/><path fill="#d09669" d="M593 411h9v9h-9z"/><path fill="#cdc5ce" d="M509 411h9v9h-9z"/><path fill="#5c2e1a" d="M714 401h9v9h-9z"/><path fill="#3e3d42" d="M490 392h9v9h-9z"/><path fill="#9a5134" d="M612 392h9v9h-9z"/><path fill="#fbc7ab" d="M564 392h9v9h-9z"/><path fill="#ad7a5b" d="M547 392h9v9h-9z"/><path fill="#ccd0d2" d="M499 392h9v9h-9z"/><path fill="#df9270" d="M574 382h9v9h-9z"/><path fill="#fcc9a7" d="M658 382h9v9h-9z"/><path fill="#e7bd9e" d="M658 373h9v9h-9z"/><path fill="#fabb9e" d="M593 373h9v9h-9z"/><path fill="#a54928" d="M574 373h9v9h-9z"/><path fill="#cfa389" d="M528 373h9v9h-9z"/><path fill="#832203" d="M687 364h9v9h-9z"/><path fill="#bd7b51" d="M639 354h9v9h-9z"/><path fill="#cf9e79" d="M528 354h9v9h-9z"/><path fill="#f4e6d7" d="M509 354h9v9h-9z"/><path fill="#9d412b" d="M714 354h9v9h-9z"/><path fill="#fcb79a" d="M574 354h9v9h-9z"/><path fill="#da896b" d="M564 354h9v9h-9z"/><path fill="#d18966" d="M547 354h9v9h-9z"/><path fill="#d6b098" d="M509 345h9v9h-9z"/><path fill="#943923" d="M687 336h9v9h-9z"/><path fill="#7b3c23" d="M723 336h9v9h-9z"/><path fill="#f09a88" d="M639 336h9v9h-9z"/><path fill="#e6a880" d="M593 336h9v9h-9z"/><path fill="#440c01" d="M500 317h9v9h-9z"/><path fill="#933d1f" d="M677 308h9v9h-9z"/><path fill="#f9d2a8" d="M658 308h9v9h-9z"/><path fill="#bd6948" d="M547 308h9v9h-9z"/><path fill="#fac1a7" d="M695 298h9v9h-9z"/><path fill="#fedbc4" d="M704 298h9v9h-9z"/><path fill="#e7b492" d="M732 289h9v9h-9z"/><path fill="#e5be9e" d="M686 280h10v8l-10 1z"/><path fill="#fdd6bc" d="M612 271h9v9h-9z"/><path fill="#882e09" d="M528 270h9v9h-9z"/><path fill="#f5cab1" d="M658 252h9v9h-9z"/><path fill="#f4c19d" d="M593 252h9v9h-9z"/><path fill="#67312b" d="M481 252h9v9h-9z"/><path fill="#8d5836" d="M612 243h9v9h-9z"/><path fill="#d28d6d" d="M574 233h9v9h-9z"/><path fill="#e2a679" d="M612 233h9v9h-9z"/><path fill="#a4372f" d="M472 233h9v9h-9z"/><path fill="#aa5f33" d="M733 224h9v9h-9z"/><path fill="#a76f58" d="M714 224h9v9h-9z"/><path fill="#e5c1ad" d="M704 224h9v9h-9z"/><path fill="#700a03" d="M499 223h9v9h-9z"/><path fill="#bb6940" d="M574 214h9v9h-9z"/><path fill="#efcbb8" d="M677 214h9v9h-9z"/><path fill="#f0a484" d="M593 214h9v9h-9z"/><path fill="#a6321d" d="M509 214h9v9h-9z"/><path fill="#931403" d="M499 214h9v9h-9z"/><path fill="#9e6947" d="M742 205h9v9h-9z"/><path fill="#87321c" d="M742 196h9v9h-9z"/><path fill="#ba4829" d="M509 187h9v9h-9z"/><path fill="#8f3326" d="M733 177h9v9h-9z"/><path fill="#f1b996" d="M695 168h9v9h-9z"/><path fill="#a95835" d="M723 168h9v9h-9z"/><path fill="#d1785b" d="M742 159h9v9h-9z"/><path fill="#953a1c" d="M704 149h9v9h-9z"/><path fill="#daaa8b" d="m648 149 10 1v8h-10z"/><path fill="#a86740" d="M668 149h9v9h-9z"/><path fill="#ae412f" d="M528 149h9v9h-9z"/><path fill="#e39870" d="M751 140h9v9h-9z"/><path fill="#bb653d" d="M639 131h9v9h-9z"/><path fill="#b06025" d="M612 131h9v9h-9z"/><path fill="#672f1a" d="M481 131h9v9h-9z"/><path fill="#e49f6e" d="M742 122h9v9h-9z"/><path fill="#c57046" d="M639 121v10c-6.15.1-6.15.1-8 0-1-1-1-1-1.1-2.85.03-2.05.07-4.1.1-6.15 7.88-1 7.88-1 9-1"/><path fill="#c4613d" d="M574 122h9v9h-9z"/><path fill="#c86948" d="M612 113h9v9h-9z"/><path fill="#7f4e34" d="M742 103h9v9h-9z"/><path fill="#825030" d="M686 75h9v9h-9z"/><path fill="#5d2212" d="M547 75h9v9h-9z"/><path fill="#925339" d="M732 840h10v8h-10z"/><path fill="#4f473f" d="M630 822h9c.1 6.15.1 6.15 0 8-1 1-1 1-2.85 1.1-2.05-.03-4.1-.07-6.15-.1z"/><path fill="#983e20" d="M817 821h8v10h-8z"/><path fill="#986c56" d="M844 738h9v9c-6.15.1-6.15.1-8 0-1-1-1-1-1.1-2.85.03-2.05.07-4.1.1-6.15"/><path fill="#906d53" d="M630 737h9c.1 6.15.1 6.15 0 8-1 1-1 1-2.85 1.1-2.05-.03-4.1-.07-6.15-.1z"/><path fill="#959590" d="M844 691h10v8h-10z"/><path fill="#715044" d="M732 691h10v8h-10z"/><path fill="#a8a7a3" d="M761 672h8v10h-8z"/><path fill="#5c5e5d" d="M761 643h8v10h-8z"/><path fill="#888c8f" d="M621 578h8v10h-8z"/><path fill="#464e50" d="M612 569h8v10h-8z"/><path fill="#9c9b9b" d="M331 448h10v8h-10z"/><path fill="#1d1f20" d="M659 438h8v10h-8z"/><path fill="#eba881" d="M602 429h10v8h-10z"/><path fill="#be774e" d="M603 401h9v9h-9z"/><path fill="#4e4c4c" d="M482 373h7c.82 6.38 1.12 12.57 1 19h-1v-9h-7z"/><path fill="#9d4618" d="M677 364h10v8h-10z"/><path fill="#b86b4a" d="M556 363h8v10h-8z"/><path fill="#919292" d="M491 336h8v10h-8z"/><path fill="#e98662" d="M696 326h8v10h-8z"/><path fill="#f8b090" d="M574 270h9v9h-9z"/><path fill="#a8431b" d="M537 206h10v8h-10z"/><path fill="#632d1a" d="M464 196h8v10h-8z"/><path fill="#7c4125" d="M761 186h8v10h-8z"/><path fill="#b6744c" d="M761 149h8v10h-8z"/><path fill="#ae4c27" d="M621 93h8v10h-8z"/><path fill="#ad5b3e" d="M825 833h1v15h-9v-8h8z"/><path fill="#fdc79c" d="M817 793h8v9h-9c-.12-6.75-.12-6.75 1-9"/><path fill="#d59c80" d="M648 784q2.22-.045 4.44-.06c.82-.01 1.64-.03 2.49-.04 2.07.1 2.07.1 3.07 1.1.04 2.33.04 4.67 0 7h-10z"/><path fill="#e4e3d6" d="M892 774v8c-3.21 1.61-6.44 1.06-10 1v-8c1.48-.17 2.96-.33 4.44-.5.41-.05.41-.05 2.49-.28C891 774 891 774 892 774"/><path fill="#9f775d" d="M863 765h9l-1 10-8-1z"/><path fill="#949392" d="M416 681c2.33-.04 4.67-.04 7 0 1 1 1 1 1.1 3.07-.01.82-.03 1.64-.04 2.49-.01.83-.02 1.66-.02 2.51-.02.63-.03 1.27-.04 1.93h-8z"/><path fill="#c4c6be" d="M779 672v9h-9v-8c2.96-1.48 5.74-1.06 9-1"/><path fill="#c7ceca" d="M873 663h9v8c-3.2 1.07-5.66 1.07-9 1z"/><path fill="#939b98" d="M771 569h8v10h-8z"/><path fill="#b6b7b7" d="M816 541v9h-9v-8c2.96-1.48 5.74-1.06 9-1"/><path fill="#d6a482" d="M583 420h10v8h-10z"/><path fill="#6a0d04" d="M658 336c6.75-.12 6.75-.12 9 1v8h-9z"/><path fill="#fcd3b3" d="M670.066 158.902c.41.01.41.01 2.5.04.82 0 1.65.01 2.5.02.64.01 1.28.03 1.93.04v8h-10c-.04-2.34-.04-4.67 0-7 1-1 1-1 3.07-1.1"/><path fill="#a2a5a7" d="M910 747h9v8c-1.49.16-1.49.16-9 1z"/><path fill="#c7c8c8" d="M378 607h9v9c-6.75.12-6.75.12-9-1z"/><path fill="#972c09" d="m518 214 9 1v8h-9z"/><path fill="#fbbf8f" d="M593 140h9c.25 5.62.25 5.62-2 9-3.62.69-3.62.69-7 1z"/><path fill="#c0643d" d="M667 103h10v8h-10z"/><path fill="#ebac80" d="M779 793h9l-1 9h-8z"/><path fill="#b9bcbc" d="M863 616v9h-9c-.19-3.38-.19-3.38 0-7 3.44-2.29 4.99-2.18 9-2"/><path fill="#af7e62" d="M547 382v9h-9v-8c6.75-2.12 6.75-2.12 9-1"/><path fill="#fac8a7" d="M677 354h9l1 8h-10z"/><path fill="#f5c29e" d="M677 243h9v9h-8z"/><path fill="#707072" d="M257 840v8h-9v-8c3.33-1.11 5.62-.84 9 0"/><path fill="#cd805b" d="m840.563 830.938 3.44.06v9h-9c1-8.98 1-8.98 5.56-9.06"/><path fill="#ad7a5c" d="M714 373h8v9c-2.76.6-5.16 1-8 1z"/><path fill="#b66542" d="M593 196c2.33-.04 4.67-.04 7 0 1 1 1 1 1.1 2.85-.02 1.02-.02 1.02-.1 6.15l-8 1z"/><path fill="#b46d42" d="M713 168h10v8h-10z"/><path fill="#ca7357" d="M593 75c6.75-.12 6.75-.12 9 1v7h-10c-.12-5.75-.12-5.75 1-8"/><path fill="#eca884" d="m845 822-1 9h-8v-9c3.68-.92 5.16-.96 9 0"/><path fill="#e4e6e4" d="M546 784h10l-1 8c-6.15.1-6.15.1-8 0-1-1-1-1-1.06-4.56z"/><path fill="#5d6162" d="M612 532h8v9l-8 2z"/><path fill="#dee8e6" d="M789 476h9l-1 9h-8z"/><path fill="#f6cdbb" d="m592 288 10 1v8h-9z"/><path fill="#974331" d="M473 158h8v9l-7 1c-1.61-3.21-1.06-6.44-1-10"/><path fill="#6d6f6e" d="M238 831h9c.38 2.33.71 4.66 1 7-1 1-1 1-3.07 1.1-.82-.01-1.64-.03-2.49-.04-.83-.01-1.66-.02-2.51-.02-.63-.02-1.27-.03-1.93-.04z"/><path fill="#6b6e6e" d="M238 821v9h-9v-8c6.75-1 6.75-1 9-1"/><path fill="#be7056" d="M658 794h9v8h-10z"/><path fill="#fbe3cb" d="M855 747h8c1.12 6.75 1.12 6.75 0 9h-9z"/><path fill="#dedfed" d="M798 672h9v9h-8z"/><path fill="#c7654b" d="M658 103h9c.8 3.29 1.1 4.71 0 8h-9z"/><path fill="#fdbea2" d="M797 765v9h-9l1-8c2.93-.98 4.96-1.08 8-1"/><path fill="#c48d6a" d="M770 748h9v8h-10z"/><path fill="#924c26" d="M836 738h8l1 9h-9z"/><path fill="#e8b799" d="M704 709h9v9h-9z"/><path fill="#cb9a83" d="M742 691h10l-1 8h-9z"/><path fill="#121212" d="M622 551h7c.9 6.05 1.11 11.89 1 18h-1v-9h-7z"/><path fill="#181e17" d="M556 513h8v9h-9z"/><path fill="#020202" d="M489 391v10h-8v-8c3.09-1.76 4.23-2 8-2"/><path fill="#916254" d="M509 336h9v8c-1.49.17-1.49.17-9 1z"/><path fill="#e8c098" d="M714 280h9v9l-9-1z"/><path fill="#874c27" d="M658 233h9v9h-8z"/><path fill="#aa7351" d="M659 224h8v9h-9z"/><path fill="#903f11" d="M621 131h8l1 9h-9z"/><path fill="#8b1b0e" d="M546 131h9v8c-1.49.16-1.49.16-9 1z"/><path fill="#ac553c" d="M798 840h9v8h-9z"/><path fill="#c36c50" d="M789 840h9v8h-9z"/><path fill="#757373" d="M882 831h9v8h-9z"/><path fill="#894524" d="M845 831h8v9h-8z"/><path fill="#b96139" d="M742 831h9v8h-9z"/><path fill="#7b7773" d="M892 821h8v9h-8z"/><path fill="#d48562" d="M827 822h8v9h-8z"/><path fill="#964521" d="M827 803h8v9h-8z"/><path fill="#746c5e" d="M883 802h8v9h-8z"/><path fill="#9f9c9b" d="M341 803h9v8h-9z"/><path fill="#cd9571" d="M854 793h8v9h-8z"/><path fill="#d9926c" d="M761 784h8v9h-8z"/><path fill="#9b5345" d="M761 775h8v9h-8z"/><path fill="#701301" d="M761 765h8v9h-8z"/><path fill="#76350f" d="M845 747h8v9h-8z"/><path fill="#ba6740" d="M798 747h9v8h-9z"/><path fill="#f7ccab" d="M639 747h9v8h-9z"/><path fill="#cecfd0" d="M573 737h10v9h-9v-7h3z"/><path fill="#fcc9a8" d="M779 738h9v8h-9z"/><path fill="#e8e9ec" d="M602 738h9v8h-9z"/><path fill="#cacbca" d="M406 728h9v8h-9z"/><path fill="#a0a19f" d="M397 728h9v8h-9z"/><path fill="#dec3be" d="M835 719h9v8h-9z"/><path fill="#626161" d="M472 719h9v8h-9z"/><path fill="#303030" d="M462 719h9v8h-9z"/><path fill="#9ea1a4" d="M630 709h8v9h-8z"/><path fill="#a8acad" d="M892 700h8v9h-8z"/><path fill="#b9b5b7" d="M836 700h8v9h-8z"/><path fill="#8c4735" d="M798 700h9v8h-9z"/><path fill="#e2e3e2" d="M368 700h9v8h-9z"/><path fill="#cccdcb" d="M322 700h9v8h-9z"/><path fill="#6e706f" d="M219 691h9v8h-9z"/><path fill="#c2acab" d="M798 691h9v8h-9z"/><path fill="#9d9c9c" d="M406 691h9v8h-9z"/><path fill="#ece7ec" d="M807 682h9v8h-9z"/><path fill="#909092" d="M229 672h8v9h-8z"/><path fill="#5d5d5d" d="M425 644h8v9h-8z"/><path fill="#afb0b0" d="M863 635h9v8h-9z"/><path fill="#252423" d="M761 625h8v9h-8z"/><path fill="#262b2a" d="M621 625h8v9h-8z"/><path fill="#686969" d="M238 607h8v9h-8z"/><path fill="#8d8d8d" d="M668 607h8v9h-8z"/><path fill="#6c6c73" d="M621 607h8v9h-8z"/><path fill="#a8a7a8" d="M247 598h9v8h-9z"/><path fill="#c0bfc1" d="M584 569h8v9h-8z"/><path fill="#3c3e3f" d="M621 560h8v9h-8z"/><path fill="#a3a1a5" d="M584 560h8v9h-8z"/><path fill="#f6f6f8" d="M574 550h8v9h-8z"/><path fill="#040613" d="M564 532h9v8h-9z"/><path fill="#313b3b" d="M612 523h8v9h-8z"/><path fill="#a5a9a3" d="M556 494h8v9h-8z"/><path fill="#a1a8aa" d="M771 485h8v9h-8z"/><path fill="#5c5c5c" d="M761 457h8v9h-8z"/><path fill="#292a2b" d="M761 448h8v9h-8z"/><path fill="#9d9b9c" d="M649 429h8v9h-8z"/><path fill="#c2a093" d="M630 429h9v8h-9z"/><path fill="#ded0c9" d="M574 429h9v8h-9z"/><path fill="#6c3d23" d="M696 420h8v9h-8z"/><path fill="#76381e" d="M630 420h9v8h-9z"/><path fill="#efac7d" d="M612 420h9v8h-9z"/><path fill="#a7806a" d="M574 420h9v8h-9z"/><path fill="#a77f64" d="M564 411h9v8h-9z"/><path fill="#dcc8af" d="M556 411h8v9h-8z"/><path fill="#903711" d="M630 402h9v8h-9z"/><path fill="#ab7c5e" d="M556 401h8v9h-8z"/><path fill="#e88e6c" d="M621 392h8v9h-8z"/><path fill="#d49d7d" d="M556 392h8v9h-8z"/><path fill="#51220d" d="M724 373h8v9h-8z"/><path fill="#e58069" d="M704 355h9v8h-9z"/><path fill="#954223" d="M556 354h8v9h-8z"/><path fill="#9a6e5c" d="M519 345h8v9h-8z"/><path fill="#e08c69" d="M556 336h8v9h-8z"/><path fill="#c58c6f" d="M649 327h9v8h-9z"/><path fill="#fbc8a7" d="M565 289h8v9h-8z"/><path fill="#d39169" d="M556 289h8v9h-8z"/><path fill="#e49c73" d="M556 280h8v9h-8z"/><path fill="#c26a49" d="M528 280h9v8h-9z"/><path fill="#6a0b03" d="M509 280h9v8h-9z"/><path fill="#dc8c66" d="M564 271h9v8h-9z"/><path fill="#fbe1c5" d="M630 262h9v8h-9z"/><path fill="#b9a28a" d="M705 252h8v9h-8z"/><path fill="#836d5d" d="M630 252h9v8h-9z"/><path fill="#cda88f" d="M621 252h8v9h-8z"/><path fill="#a67d61" d="M733 243h8v9h-8z"/><path fill="#9e2c0b" d="M538 224h8v9h-8z"/><path fill="#ce5d43" d="M528 224h9v8h-9z"/><path fill="#d09e80" d="M723 215h9v8h-9z"/><path fill="#b25730" d="M556 214h8v9h-8z"/><path fill="#f3c5a3" d="M732 206h9v8h-9z"/><path fill="#f3ba92" d="M612 206h9v8h-9z"/><path fill="#eca07e" d="M602 206h9v8h-9z"/><path fill="#ea9468" d="M574 206h9v8h-9z"/><path fill="#fccba3" d="M704 178h9v8h-9z"/><path fill="#9f3306" d="M537 178h9v8h-9z"/><path fill="#bc5428" d="M556 168h8v9h-8z"/><path fill="#b16c35" d="M602 159h9v8h-9z"/><path fill="#f4c197" d="M621 149h8v9h-8z"/><path fill="#a42f1f" d="M537 140h9v8h-9z"/><path fill="#784b2f" d="M723 94h9v8h-9z"/><path fill="#b56d4d" d="M584 75h9l-1 8h-9c-.12-5.75-.12-5.75 1-8"/><path fill="#a3a5a5" d="M565 784h8v9c-2.33.04-4.67.04-7 0-1-1-1-1-1.1-2.85.03-2.05.07-4.1.1-6.15"/><path fill="#9b9194" d="M856.848 718.902c2.05.03 4.1.07 6.15.1v8h-9c-.04-2.34-.04-4.67 0-7 1-1 1-1 2.85-1.1"/><path fill="#e1e0e1" d="m233.563 708.938 3.44.06v9h-8c-.1-6.15-.1-6.15 0-8 1-1 1-1 4.56-1.06"/><path fill="#ccc9ce" d="M639 691c6.15-.1 6.15-.1 8 0 1 1 1 1 1.06 4.56L648 699h-9z"/><path fill="#868385" d="m289.563 466.938 3.44.06v9h-8c-.1-6.15-.1-6.15 0-8 1-1 1-1 4.56-1.06"/><path fill="#b4452f" d="M696 336h8c.1 6.15.1 6.15 0 8-1 1-1 1-4.56 1.06L696 345z"/><path fill="#8d633f" d="m709.563 83.938 3.44.06v9h-8c-.1-6.15-.1-6.15 0-8 1-1 1-1 4.56-1.06"/><path fill="#be9d93" d="M622 793h7v10h-7z"/><path fill="#444345" d="M323 439h8v8h-9c-.12-5.75-.12-5.75 1-8"/><path fill="#cda588" d="M733 252h8v8c-2.76.6-5.16 1-8 1z"/><path fill="#9d3c1a" d="M798 784c2.33-.04 4.67-.04 7 0 1 1 1 1 1.1 2.85-.02 1.02-.02 1.02-.1 6.15h-8z"/><path fill="#c78760" d="M622 214h7q.045 2.22.06 4.44c.01.82.03 1.64.04 2.49C629 223 629 223 628 224q-3 .06-6 0z"/><path fill="#29293b" d="M574 532h9v8l-9-1z"/><path fill="#141218" d="M500 411h8v8c-2.76.6-5.16 1-8 1z"/><path fill="#f3c19f" d="M622 261h7v10l-7-1z"/><path fill="#f8b398" d="M686 354h9v8h-8z"/><path fill="#9d2710" d="m495.625 139.875 3.38.12v8h-9c-.13-2.87-.13-2.87 0-6 2-2 2-2 5.62-2.12"/><path fill="#6d2517" d="M779 757h9v8h-9l3-2h-3z"/><path fill="#a96b43" d="M630 215h9l-1 8h-8z"/><path fill="#5a2513" d="M519 94h9l-1 8h-8z"/><path fill="#744223" d="M854 822h8v8h-8z"/><path fill="#b15436" d="M780 813h8v8h-8z"/><path fill="#89432a" d="m700.563 802.938 3.44.06v8h-9c1.01-7.98 1.01-7.98 5.56-8.06"/><path fill="#878a89" d="M229 803h8v8h-8z"/><path fill="#b16245" d="M705 794h8v8h-8z"/><path fill="#a3a3a3" d="M901 738h8v8h-8z"/><path fill="#787b7e" d="M565 728h8v8h-8z"/><path fill="#817b7a" d="M836 691h8v8h-8z"/><path fill="#a8aaaa" d="M883 682h8v8h-8z"/><path fill="#9ea3a0" d="M631 644h8v8h-8z"/><path fill="#dad8d8" d="M854 635h8v8h-8z"/><path fill="#a9aead" d="M845 598h8v8h-8z"/><path fill="#c3c2c1" d="M388 579h8v8h-8z"/><path fill="#a4a3a4" d="M808 551h8v8h-8z"/><path fill="#7a797c" d="M565 551h8v8h-8z"/><path fill="#8f9393" d="M257 551h8v8h-8z"/><path fill="#929496" d="M808 495h8v8h-8z"/><path fill="#a5a3a4" d="M285 476h8v8h-8z"/><path fill="#a7acad" d="M789 467h8v8h-8z"/><path fill="#977969" d="M584 429h8v8h-8z"/><path fill="#dbcbbc" d="M565 420h8v8h-8z"/><path fill="#b16535" d="M696 411h8v8h-8z"/><path fill="#893618" d="M584 383h8v8h-8z"/><path fill="#94291a" d="M696 345h8v8h-8z"/><path fill="#9c423b" d="M658 346h10l-1 7h-9z"/><path fill="#a26a51" d="M705 308h8v8h-8z"/><path fill="#8d320b" d="M519 262h8v8h-8z"/><path fill="#5d4836" d="M705 243h8v8h-8z"/><path fill="#95452f" d="M481 140h8v8h-8z"/><path fill="#854e36" d="M761 122h8v8h-8z"/><path fill="#8d654d" d="M622 775h7v9h-7z"/><path fill="#923b14" d="M622 411h7v9h-7z"/><path fill="#c8654a" d="M557 317h7v9h-7z"/><path fill="#b16e4a" d="M622 233h7v9h-7z"/><path fill="#cd7d4c" d="M677 141h9v7h-9z"/><path fill="#acaeaf" d="M816 532h1v18h9v1h-9l.06 3.94c.02 1.35.01 2.71-.06 4.06-1 1-1 1-3.07 1.1-1.15-.02-1.15-.02-6.93-.1v-10h9zm-8 19v8h8v-8z"/><path fill="#949391" d="M622 831h7v8h-7z"/><path fill="#b0b0ac" d="M902 803h7v8h-7z"/><path fill="#8c472e" d="M622 429h7v8h-7z"/><path fill="#27120b" d="M622 243h7v8h-7z"/><path fill="#5d291a" d="M464 179h7v8h-7z"/><path fill="#5e2a13" d="M770 169h8v7h-8z"/><path fill="#9a9d9c" d="M537 730h9v6h-9z"/><path fill="#c7cdcd" d="M788 457h1v9h9v10h-10v-9h-9v-1h9zm1 10v8h8v-8z"/><path fill="#464746" d="M660 457h6v9h-6z"/><path fill="#8c5b41" d="M856.066 820.902c1.16.02 1.16.02 6.93.1v10h-9v9h-1v-9h-8v-1h8l-.06-3.94c-.02-1.35-.01-2.71.06-4.06 1-1 1-1 3.07-1.1m-2.07 1.1v8h8v-8z"/><path fill="#959694" d="M387 668h1v13h8v-10h1v10h9v1h-9v9h-1v-9h-9z"/><path fill="#611101" d="M687 308h16v2c-3 1.5-5.79 1.09-9.12 1.06-1.29-.01-2.57-.02-3.89-.02-.49-.01-.49-.01-2.99-.04z"/><path fill="#dbdfdc" d="M872 644h1v18h9v1h-9v8h-1v-8h-9v-1h9z"/><path fill="#692011" d="M472 149h11l-1 5-1-3-7 2v5h-2z"/><path fill="#824725" d="M704 411h5v8h-5z"/><path fill="#d8d8d2" d="m648 474 2 2c-.02 2.92-.14 5.72-.38 8.62-.05.81-.11 1.61-.17 2.43-.14 1.99-.29 3.97-.45 5.95h9v1h-10v-18h-9v-1c1.46-.22 2.92-.43 4.38-.62.4-.06.4-.06 2.46-.36.71 0 1.42-.01 2.16-.02"/><path fill="#b87e54" d="M611 233h1v9h9v1h-9v8h-1v-8h-9v-1h9z"/><path fill="#c19e87" d="M573 411h1v8h9v1h-9v8h-1v-8h-9v-1h9z"/><path fill="#822b0a" d="M629 402h1v8h9v1h-9v9h-1v-9h-7v-1h7z"/><path fill="#bdbdbe" d="M228 683h1v7h8v1h-8v8h-1v-8h-9v-1h9z"/><path fill="#a1a5a3" d="M771 541h1l1 13h-2v15h-1c-.18-18.82-.18-18.82 1-28"/><path fill="#8f3827" d="M472 158h1l.15 2.15c.07.92.15 1.84.23 2.79.06.91.13 1.83.21 2.77.13.76.27 1.51.41 2.29l2 1-3 8h-1z"/><path fill="#bcb8bd" d="M863 718h10c.84 6.65.96 12.37 0 19h-1v-9l-2-1h2v-8h-9z"/><path fill="#51100a" d="M472 248h8l1 3h-9z"/><path fill="#946e5b" d="M710 237h3v6h-8c.64-.25 1.28-.5 1.94-.75 2.06-1.25 2.06-1.25 2.81-3.37.08-.62.16-1.24.25-1.88"/><path fill="#530b01" d="M695 308h8v2c-2.71 1.35-5.01 1.07-8 1z"/><path fill="#e8e7eb" d="m518 409 2 2c-.38 3.12-.38 3.12-1 6h-1v-6h-9v-1c1.46-.22 2.92-.43 4.38-.62.4-.06.4-.06 2.46-.36.71 0 1.42-.01 2.16-.02"/></svg>