<svg xmlns="http://www.w3.org/2000/svg" width="581" height="581" viewBox="226 246 581 581"><path fill="#fbcda6" d="M511 246h83v6h14v7l2.94-.06C614 259 614 259 615 260v6h14v7h6v7h7v14h7v7h7v6h7v14h7v13h7v70h-7v13h-7v41h-7v34h-14v21h-7v14h-6v14h-7v6h-8v7h-13v14h14v6l2.94-.06C621 574 621 574 622 575q.06 3 0 6h7v7h6v7h28v7h13v7h14v7h7v6h7v14h7v14h7v20h7v14h6v21h7v14h7v20h7v14h7v20h6c1 1 1 1 1.11 2.95 0 .83-.01 1.66-.01 2.52 0 .45 0 .45-.01 2.73l-.03 2.86c0 .95-.01 1.9-.01 2.88-.01 2.35-.03 4.71-.05 7.06h7v32H388v-25h7v-69h7v-75h-6l-1 3v-37h-7v-14h-6v-7h-7v-13h34v-8h20v-6h14v-7h7v-7h7v-7h6v-7h14v-27h-6v-14h-7v-14h-7v-6h-7v-7h-7v-28h-6l-1-20-6-1v-20h6v-13h-6c-1-1-1-1-1.12-2.94 0-.85 0-1.7.01-2.58v-2.91c0-1.05.01-2.09.01-3.17 0-1.06.01-2.13.01-3.22 0-3.42.01-6.83.03-10.24 0-2.31.01-4.62.01-6.93.01-5.67.03-11.34.05-17.01h7v-20h7v-14h7v-7h7v-13h7v-14c1.15-.17 1.15-.17 7-1v-6h6v7h-6v6h6v8h-6l.06 2.94C471 300 471 300 470 301h-6v26c-6 1-6 1-14 1v27h-13v35h6c.16 2.14.16 2.14 1 13h19v-6h-6v-8h13v-6h-6v-7h6v-7h-6v-7h20v-7h-7v-7h14v-13h-7v-7h28v6h13v-10h8v3h13v-13h-7v-21h7v14h7v20h7l-1-33h-6v-14h-28v6c-.99.17-.99.17-6 1l-1 7h-6v13h-7v-7h-7v-6h-7v6h-6l-1-14h14v-6h21v-7h54v-7h14v-6c-6.75 1.88-6.75 1.88-9 3v-3l-11 1v-8h-55v6h-14v-7h13z"/><path fill="#ea1c25" d="M409 582h21v6h6v7h7v14h7v7h7v14h7v6h6v8h7v6h14v-7h7v-7h21v7l2.94-.06C525 643 525 643 526 644v6h14v7h33v-7h22v-6h6v-8h6v-6h21v6h14v-20h-6v-7h-8v-20h7v6h28v7h13v7h14v7h7v6h7v14h7v14h7v20h7v14h6v21h7v14h7v20h7v14h7v20h6c1 1 1 1 1.11 2.95 0 .83-.01 1.66-.01 2.52-.01.9-.01 1.8-.01 2.73l-.03 2.86c0 .95-.01 1.9-.01 2.88-.01 2.35-.03 4.71-.05 7.06h7v32H388v-25h7v-69h7v-75h-6l-1 3v-37h-7v-14h-6v-7h-7v-13h34z"/><path fill="#97492d" d="M615 266h14v7h6v7h7v14h7v7h7v6h7v14h7v13h7v70h-7v13h-7v41h-7v34h-14v21h-7v14h-6v14h-7v6h-8v7h-13v14h14v6l2.94-.06C621 574 621 574 622 575q.06 3 0 6h7v7h6v1h-7v20h8v7h6v20h-14v-6h-21v6h-6v8h-6v6h-22v7h-33v-7h-14l-1-6-6-1v-7h-21v7h-7v7h-14v-6h-7v-8h-6v-6h-7v-14h-7v-7h-7v-14h-7v-7h-6v-6h-21v-1h20v-6h14v-7h7v-7h7v-7h6v-7h14v-27h-6v-14h13l1 20h6v7h7v7h7v7h20v7h14v7h48v-27l-34-1v-7h-7v-6h36v-3l-22-1v-10h-27v-4h-14v-2l-7-1v-7h13v7h48v-7h-13v-13h-14v-7h28v-55h6v-7h14v-7h14v-7h13l1-48h-14v-7h-7v-6h-35v-8c18.37-.12 36.65.02 55 1v6h14v-6h7v-21h-7v-13h-14v-7h-6v-7h6v-7h-6z"/><path fill="#c6131c" d="M409 582h21v6h6v7h7v14h7v7h7v14c-2.31-.16-2.31-.16-14-1v14h7v7h-20v-7h-21v14h7v13h7v7c.46-.01.46-.01 2.81-.04 1.2 0 2.39-.01 3.63-.02 1.19-.01 2.39-.03 3.62-.04 2.94.1 2.94.1 3.94 1.1q.06 3 0 6h6v7h14v7h-21v7h-13v6l-1 1h-6v14h34v6h-7v7l-6 1c-.17.99-.17.99-1 6h-7v7h-6v7h-7l.06 2.94C416 766 416 766 415 767h-6v14h14v44h240v-4h28v-5c1-1 1-1 3.56-1.06l2.44.06c.12-.78.25-1.57.38-2.38C698 810 698 810 700 808h4l-.06-2.94C704 802 704 802 705 801h6v-34h-7v-14h-7v-7h-7v-13h-6c-1-1-1-1-1.1-3.94.01-.6.01-.6.04-3.62.01-1.2.02-2.4.02-3.63.01-.46.01-.46.04-2.81h-7v-7h-6v-7h-14v-7h-8v-6c-1.29.01-2.58.02-3.9.04-1.68 0-3.36.01-5.04.02-.42.01-.42.01-2.57.03-.81 0-1.62 0-2.45.01-.75 0-1.5.01-2.27.01C630 692 630 692 629 691v-5l-20-1v7c-2.14.16-2.14.16-13 1-.84 4.19-1.28 8.06-1.56 12.31-.09 1.26-.17 2.51-.26 3.8-.06.96-.12 1.91-.18 2.89h-13v7h-34l-1-7h7v-7h14v-7h6c-.01-.57-.01-1.14-.02-1.72-.02-2.62-.03-5.23-.04-7.84l-.03-2.72c-.02-5.02.23-9.77 1.09-14.72h-8v7h-6v6h-7c.01 1.02.02 2.05.04 3.11 0 1.36.01 2.72.02 4.08l.03 2.04c.02 3.72-.2 7.15-1.09 10.77h-5v-27h6v-13h-8v-7h28v-7h22v-6h6v-8h6v-6h21v6h14v-20h-6v-7h-8v-20h7v6h28v7h13v7h14v7h7v6h7v14h7v14h7v20h7v14h6v21h7v14h7v20h7v14h7v20h6c1 1 1 1 1.11 2.95 0 .83-.01 1.66-.01 2.52-.01.9-.01 1.8-.01 2.73l-.03 2.86c0 .95-.01 1.9-.01 2.88-.01 2.35-.03 4.71-.05 7.06h7v32H388v-25h7v-69h7v-75h-6l-1 3v-37h-7v-14h-6v-7h-7v-13h34z"/><path fill="#f9bab3" d="M354 588h55v1h-34v13h7v7h6v14h7l1 34h6v75h-7v69h-7v25H258v-32h7v-21h6v-20h7v-14h7v-27h7v-28h7v-14h7v-13h7v-14h6c-.01-.93-.02-1.85-.04-2.81 0-1.2-.01-2.39-.02-3.63-.01-1.19-.03-2.39-.04-3.62.1-2.94.1-2.94 1.1-3.94h6v-13h7v-8h7v-13h14z"/><path fill="#f19b70" d="M511 246h83v6h14v7l2.94-.06C614 259 614 259 615 260c.07 2.19.08 4.38.06 6.56-.01 1.2-.02 2.4-.02 3.63-.01.46-.01.46-.04 2.81h6v7h-6v7h6v7h14v13h7v21h-7v6h-14v-6c-.56.01-1.13.01-1.71.02-17.79.14-35.52-.36-53.29-1.02v8h-34v-8h-6v8h2l-2 4-1-4h-20v6h-7v21h-7v14h-6v20h-7v21h6l-.06-3.62c-.01-3.56.36-6.89 1.06-10.38h6v-7h55v7h7v35h-13v6h-35v-6h27v-8c.29-2.01.6-4.01 1-6h-7v7h-21v6h-14v-13h-20v82h-7v-14h-7v-6h-7v-7h-7v-28h-6l-1-20-6-1v-20h6v-13h-6c-1-1-1-1-1.12-2.94 0-.85 0-1.7.01-2.58v-2.91c0-1.05.01-2.09.01-3.17 0-1.06.01-2.13.01-3.22 0-3.42.01-6.83.03-10.24 0-2.31.01-4.62.01-6.93.01-5.67.03-11.34.05-17.01h7v-20h7v-14h7v-7h7v-13h7v-14l7-1v-6h6v7h-6v6h6v8h-6l.06 2.94C471 300 471 300 470 301h-6v26c-6 1-6 1-14 1v27h-13v35h6l1 13h19v-6h-6v-8h13v-6h-6v-7h6v-7h-6v-7h20v-7h-7v-7h14v-13h-7v-7h28v6h13v-10h8v3h13v-13h-7v-21h7v14h7v20h7l-1-33h-6v-14h-28v6l-6 1-1 7h-6v13h-7v-7h-7v-6h-7v6h-6l-1-14h14v-6h21v-7h54v-7h14v-6c-6.75 1.88-6.75 1.88-9 3v-3l-11 1v-8h-55v6h-14v-7h13z"/><path fill="#90060d" d="M628 589h7v6h28v7h13v7h14v7h-13v6h6v21h8v7h6v14h6l1 3c.99.16.99.16 6 1v9h-6l1 9h5v5h8v15h-7v26h7v14h7v14h6v28h7v28h-3l-1 4-2-1-1 6h-68v-4h28v-5c1-1 1-1 3.56-1.06l2.44.06c.06-.39.06-.39.38-2.38C698 810 698 810 700 808h4l-.06-2.94C704 802 704 802 705 801h6v-34h-7v-14h-7v-7h-7v-13h-6c-1-1-1-1-1.1-3.94.01-.6.01-.6.04-3.62.01-1.2.02-2.4.02-3.63.01-.46.01-.46.04-2.81h-7v-7h-6v-7h-14v-7h-8v-6c-1.29.01-2.58.02-3.9.04-1.68 0-3.36.01-5.04.02l-2.57.03c-.81 0-1.62 0-2.45.01-.75 0-1.5.01-2.27.01C630 692 630 692 629 691v-5l-20-1v7c-2.14.16-2.14.16-13 1-.84 4.19-1.28 8.06-1.56 12.31-.09 1.26-.17 2.51-.26 3.8-.06.96-.12 1.91-.18 2.89h-13v7h-34l-1-7h7v-7h14v-7h6c0-.28 0-.28-.02-1.72-.02-2.62-.03-5.23-.04-7.84l-.03-2.72c-.02-5.02.23-9.77 1.09-14.72h-8v7h-6v6h-7c.01 1.02.02 2.05.04 3.11 0 1.36.01 2.72.02 4.08l.03 2.04c.02 3.72-.2 7.15-1.09 10.77h-5v-27h6v-13h-8v-7h28v-7h22v-6h6v-8h6v-6h21v6h14v-20h-6v-7h-8z"/><path fill="#fad2cd" d="M347 602h14v7h-7v6h-7v14h7v14h-7v14h-6v7h-7v7h-7v6h7v14h7v21h6v14h7v13h-7v8h-6v6h-7v7h-14v-14h-7v-20h-7v-7h-7v27l-5 1-1 12h5c.17-.99.17-.99 1-6h7v7h7v34h7v-6h6v-15h14v-7h7v-7h6v-6c5.35-1 9.62-.85 15 0v7l-5 1-2 6h-7v7h-7v6h-6l.06 3.44C341 787 341 787 340 788q-3 .06-6 0v6h-7v7h-7v24h27v-11h14v7h6c.16.83.16.83 1 5H258v-32h7v-21h6v-20h7v-14h7v-27h7v-28h7v-14h7v-13h14v-13h7v-14h7v-14h7v-7h6z"/><path fill="#7a7a7d" d="M615 266h14v7h6v7h7v14h7v7h7v6h7v14h7v13h7v70h-7v13h-7v41h-7v34h-14v21h-7v14h-7v13h-7l1-20h4v-8h-4v-13h6v-6c4.88-1 4.88-1 6-1l1-20h7v-34h-20v6h-14v-6h8c-.16-.82-.16-.82-1-5h-20l-1-9h21v6h7l-1-6-6-1v-6h-28v13h-13v-13h6v-7h14v-7h14v-7h13l1-48h-14v-7h-7v-6h-35v-8c18.37-.12 36.65.02 55 1v6h14v-6h7v-21h-7v-13h-14v-7h-6v-7h6v-7h-6z"/><path fill="#f6a279" d="M485 540h6v14h7v7h7v7h13v7c.32-.08.32-.08 1.94-.5 6.42-1.05 12.68-.59 19.06.5v13h21v7h-14v7h21v7h6c.2 3.31.38 6.62.56 9.94.06.94.11 1.89.17 2.86.05.9.1 1.8.15 2.73.05.83.09 1.66.14 2.52C574 629 574 629 573 630c-2.52.09-5.01.12-7.54.1-.37 0-.37 0-2.28-.01-2.41 0-4.83-.01-7.24-.03-1.64 0-3.27-.01-4.9-.01-4.02-.01-8.03-.03-12.04-.05v7c.77-.07 1.53-.14 2.32-.22 10.9-.91 21.75-.87 32.68-.78v9h5v-2h8v-6h7v13h-21v7h-33v-7h-14l-1-6-6-1v-7h-21v7h-7v7h-14v-6h-7v-8h-6v-6h-7v-14h-7v-7h-7v-14h-7v-7h-6v-6h-21v-1h20v-6h14v-7h7v-7h7v-7h6v-7h14v1h-13v6h7v14h6v-14h7z"/><path fill="#f4f5f5" d="M512 253h55l1 7h10l1 2 2-2c3.12-.12 3.12-.12 6 0v6h-14v7h-54v7h-21v6h-14l1 14h6v-6h7v6h7v7h7v-13h6l-.06-3.44C518 287 518 287 519 286q3-.06 6 0v-6h28v14h6c.8 4.22 1.12 8.2 1.1 12.49 0 .6 0 .6-.01 3.63-.01.62-.01.62-.03 3.76 0 1.26-.01 2.52-.01 3.82-.01 3.1-.03 6.2-.05 9.3h-7v-20h-7v-14h-7v21h7v13h-13v-3h-8v10h-13v-6h-28v7h7v13h-14v7h7v7h-20v7h6v7h-6v7h6v6h-13v8h6v6c-4.13.99-8.01 1.13-12.25 1.12-1.24.01-2.49.01-3.77.01C444 404 444 404 443 403c-.07-2.19-.08-4.38-.06-6.56.01-1.2.02-2.4.02-3.63.02-.93.03-1.86.04-2.81h-6v-35h13v-27l14-1v-26c.99-.17.99-.17 6-1l1-6h6v-8h-6v-6h6v-14h7v-7h28z"/><path fill="#c76b45" d="M587 417h28v6l2.94-.06C621 423 621 423 622 424q.06 3 0 6h-7v-6h-21c.16 1.49.16 1.49 1 9h20l1-2v7h-8v6h14v-6h20v34h-7v20c-2 1-2 1-6 1l-1 6h-6v13h4v8h-4c.01.94.02 1.88.04 2.85 0 1.25.01 2.49.02 3.77.01 1.23.03 2.46.04 3.73-.09 3.33-.46 6.39-1.1 9.65h7v-13h1v14h-7v6h-1v-6h-20v6h-7v7h-7v-20l-34-1v-7h-7v-6h36v-3c-3.63-.16-3.63-.16-22-1v-10h-27v-4h-14v-2l-7-1v-7h13v7h48v-7h-13v-13h-14v-7h28v-42h13z"/><path fill="#cdcecf" d="M511 246h83v6h14v7l2.94-.06C614 259 614 259 615 260c.07 2.19.08 4.38.06 6.56-.01 1.2-.02 2.4-.02 3.63-.01.46-.01.46-.04 2.81h6v7h-6v7h6v7h14v13h7v21h-7v6h-14v-6c-.56.01-1.13.01-1.71.02-17.79.14-35.52-.36-53.29-1.02v8h-34v-8h-6v8h2l-2 4-1-4h-20v6h-7v8h-14v6h-7v-7h14v-13h-7v-7h28v6h13v-10h8v3h13v-13h-7v-21h7v14h7v20h7l-1-33h-6v-14h-28v6c-.99.17-.99.17-6 1l-1 7h-6v13h-7v-7h-7v-6h-7v6h-6l-1-14h14v-6h21v-7h54v-7h14v-6c-6.75 1.88-6.75 1.88-9 3v-3l-11 1v-8h-55v6h-14v-7h13z"/><path fill="#f6a37a" d="M477.133 423.121c.81.05 1.61.1 2.44.15.84.05 1.68.11 2.55.17.43.02.43.02 2.58.15 2.1.13 4.2.27 6.3.41v7h-6v7h-7v13h6v21h7v6c11.04.13 21.98-.24 33-1l1-6h7v-6h8v-8l5-1c1.49 4.94 1.06 9.87 1 15h14v1h-14v7h14v13h13v7h-48v-7h-13v7l7 1v2h14v4h27v10c.91-.01 1.83-.02 2.78-.04 6.51-.04 12.79.01 19.22 1.04v3h-36v6h7v7c.81-.01 1.63-.01 2.47-.02 3.72-.02 7.44-.03 11.15-.04l3.9-.03c1.24 0 2.48-.01 3.77-.01 1.14 0 2.28-.01 3.46-.01 3.25.11 3.25.11 9.25 1.11v27h-48v-7h-14v-7h-20v-7h-7v-7h-7v-7h-6c-.89-4.52-1.11-8.78-1.07-13.38l.03-3.77c.01-.94.03-1.88.04-2.85h-13v-82c2.35-1.18 3.52-1.05 6.13-.88"/><path fill="#af5053" d="M677 616h20v6h7v14h7v14h7v20h7v14h6v21h7v14h7v20h7v14h7v20h6c1 1 1 1 1.11 2.95 0 .83-.01 1.66-.01 2.52-.01.9-.01 1.8-.01 2.73l-.03 2.86c0 .95-.01 1.9-.01 2.88-.01 2.35-.03 4.71-.05 7.06h7v32H388v-25h1v24h342v-10l3 4 1-3h3v-28h-7v-28h-6v-14h-7v-14h-7v-26h7v-15h-8v-5h-5c-1.48-2.96-1.06-5.74-1-9h6v-9h-6l-1-4h-6v-14h-6v-7h-8v-21h-6z"/><path fill="#fbd5cf" d="M347 602h14v7h-7v6h-7v14h7v14h-7v14h-6v7h-7v7h-7v6h7v14h7v21h6v14h7v13h-7v8h-6v6h-7v7h-14v-14h-7v-20h-7v-8h-7v-33h7v-14h7v-14h7v-13h7v-14h7v-14h7v-7h6z"/><path fill="#c9111c" d="M545 664h8v13h-6v27h5l1-20h7v-6h6v-7h8l-1 27h-6v7h-14v7l-6 1v6h34v-7h13c-.02-.94-.05-1.88-.07-2.85-.02-1.25-.04-2.49-.05-3.77-.03-1.23-.05-2.46-.08-3.73.2-3.65.2-3.65 2.2-9.65h13v-7h21v6l18 1v6h8v7h-14v-7h-13v14h10l-1 7h11v7h-28v-7h-7v-7h-6v7h-21v6h7v7h7v7h7v7h-14v7h-7v14h-5c-1.97-1.97-1.41-5.67-1.56-8.38-.04-.71-.09-1.43-.13-2.17-.32-5.82-.42-11.62-.31-17.45h-6v-7h-21v-6h-34v-7c-.51 0-.51 0-3.11.02-3.78.01-7.57.03-11.36.03l-4.93.03c-2.35.01-4.71.01-7.06.02-.74 0-1.48.01-2.24.01-1.77 0-3.53-.05-5.3-.11-1-1-1-1-1.12-3.5.12-2.5.12-2.5 1.12-3.5 1.87-.09 3.75-.12 5.62-.11h3.64c1.31 0 2.62.01 3.96.01 1.35 0 2.69.01 4.03.01 3.55 0 7.09.01 10.63.02 3.62.01 7.23.02 10.84.02 7.09.01 14.19.03 21.28.05v-6h-6v-35h6z"/><path fill="#7d3e31" d="m645.563 381.938 2.44.06c.17 4.38.33 8.75.5 13.13.02.61.02.61.14 3.69.31 8.4.4 16.77.36 25.18h13v34h-6v34h-14v21h-7v14h-7v13h-7l1-20h4v-8h-4v-13h6v-6c4.87-1 4.87-1 6-1l1-20h7v-34h-20v6h-14v-6h8c-.17-.82-.17-.82-1-5h-20l-1-9h21v6h7c-.17-.99-.17-.99-1-6-.99-.16-.99-.16-6-1v-6h-28v13h-13v-13h6v-7h14v-6h14v6h14v7h6v6h7v-19h7c-.01-.63-.01-1.26-.02-1.91-.02-2.84-.03-5.68-.04-8.53l-.03-3c0-.95-.01-1.89-.01-2.87-.01-.87-.01-1.75-.02-2.65.18-3.08.57-3.02 3.68-3.1"/><path fill="#bbbdbe" d="M471 273h6v7h-6v6h6v8h-6l.06 2.94C471 300 471 300 470 301h-6v26c-6 1-6 1-14 1v27h-13v35h6l1 13h19v-6h-6v-8h13v-6h-6v-7h6v-7h-6v-7h20v13h-7v15h-7c.04.75.07 1.5.11 2.27.16 3.47.31 6.95.45 10.42.06 1.18.11 2.36.17 3.57.33 8 .07 15.78-.73 23.74h-6v7h-7v-6h-7v20h-6v27h6v-7h7v8h-14v-28h-6l-1-20-6-1v-20h6v-13h-6c-1-1-1-1-1.12-2.94 0-.85 0-1.7.01-2.58v-2.91c0-1.05.01-2.09.01-3.17 0-1.06.01-2.13.01-3.22 0-3.42.01-6.83.03-10.24 0-2.31.01-4.62.01-6.93.01-5.67.03-11.34.05-17.01h7v-20h7v-14h7v-7h7v-13h7v-14c1.15-.17 1.15-.17 7-1z"/><path fill="#fac0b9" d="M464 555h6v27h7v14h7v13h7v7h7v6h7v8h7v6h-14v7h-7v7h-14v-6h-7v-8h-6v-6h-7v-14h-7v-7h-7v-14h-7v-7h-6v-6h-21v-1h20v-6h14v-7h7v-7h14z"/><path fill="#f5a49f" d="M388 623h7l1 34h6v75h-7v69h-7v25h-7v-19h-6v-6h6v-35h7v-47h-7v-7h-6l.06 2.94C375 718 375 718 374 719q-3 .06-6 0v6c-1.15.16-1.15.16-7 1v-28h7v-7h7v-14h6l1-20h7v-20l-2-1 1-3c.07-1.73.08-3.46.06-5.19-.01-.9-.02-1.8-.02-2.73-.02-.69-.03-1.37-.04-2.08"/><path fill="#b56643" d="M471 506h13l1 20h6v7h7v7h7v7h14v4h-8v-3h-6v6h7v7h20c.16.99.16.99 1 6l13 1 1 3-1 2c2.31.16 2.31.16 14 1v8h20v20h7v34h7v-6h6c.95 4.76 1.08 9.17 1 14h-6v6h-1v-13h-7v6h-8v2h-5v-9c-1.35.07-2.71.14-4.1.22-10.31.53-20.57.94-30.9.78v-7l34-1v-20h-6v-7h-21v-7h14v-7h-21v-13h-21v-7h-13v-7h-7v-7h-7v-14h-6l-1 14h-7v14h-6v-14h-7v-6h13v-28h-6z"/><path fill="#bebfbf" d="M512 246h82v6h14v7l2.94-.06C614 259 614 259 615 260c.07 2.19.08 4.38.06 6.56-.01 1.2-.02 2.4-.02 3.63-.02.93-.03 1.86-.04 2.81h6v7h-6v7h6v7h14v13h7v21h-7v6h-14v-6c-.28 0-.28 0-1.73.02-17.45.13-34.84-.35-52.27-1.02v-6h7v-14h7v14h6l1-6h6v6h7v6h7v-6h7v-7h-7v-14h6v-13h-6v7l-6 1-1 12h-7v-34h7v-7l5-1 1-5h-13v-7l-82-1z"/><path fill="#b3101a" d="M683 726h7v6h8v7h6v7h13l1 14h13v28h7v28h-3c-.16.66-.16.66-1 4l-2-1-1 6h-68v-4h28v-5c1-1 1-1 3.56-1.06l2.44.06c.06-.39.06-.39.38-2.38C698 810 698 810 700 808h4l-.06-2.94C704 802 704 802 705 801h6v-34h-7v-14h-7v-7h-7v-13h-6c-1-1-1-1-1.06-4.06z"/><path fill="#eb936d" d="M587 417h28v6l2.94-.06C621 423 621 423 622 424q.06 3 0 6h-7v-6h-21l1 9h20l1-2v7h-8v6h14v-6h20v6h-7v22c-.99-.17-.99-.17-6-1v7h-28v-7h-7v-7h-7v13c-2.14.17-2.14.17-13 1v-42h13z"/><path fill="#f9b38c" d="M526 424h7l-1 14h-27v6h34v7l2.94-.06C545 451 545 451 546 452c.14 2.67.04 5.32 0 8l-2-3h-4v8h-8v6h-7l.06 2.94C525 477 525 477 524 478c-3.63.39-7.29.47-10.94.62-1.01.06-2.01.11-3.05.16-6.44.28-12.62.06-19.01-.78v-6h-7v-21h-6v-13h7v-7h6v6h14v-6h21z"/><path fill="#9e3f44" d="M718 732h13v8h7v20h7v21h7v13h-7v7h7v7h7v7h6v-20h7v31H388v-25h1v24h342v-10l3 4 1-3h3v-28h-7v-28h-6v-14h-7z"/><path fill="#e6222b" d="M409 582h21v6h6v7h7v14h7v7l-6 1v5h-7v-6l-3.62.06c-3.56.01-6.89-.36-10.38-1.06v-6h-21v48h-6l-1 3v-37h-7v-14h-6v-7h-7v-13h34z"/><path fill="#fabcb5" d="M363 760h5v13h-7c.17 1.65.17 1.65 1 10h12v18h-6v14h7v11h-7l-1-5h-6v-7h-14v11h-27v-24h7v-7h7v-6l6-1 1-7h6v-6h7v-7c1.15-.16 1.15-.16 7-1z"/><path fill="#bebfc0" d="M511 246h1v6c.94 0 1.88 0 2.84-.01 8.86-.02 17.72-.03 26.58-.04 4.55-.01 9.1-.01 13.66-.03 4.39-.01 8.79-.01 13.18-.01 1.68-.01 3.36-.01 5.03-.02h7.05c.69-.01 1.38-.01 2.09-.01 3.96 0 7.68.36 11.57 1.12v7h13v5c-1 1-1 1-3.56 1.06L601 266v7h-7v7l-13-1v15h-8v-7h-6v-7h-7v6h-7v-6h-28v6c-.99.17-.99.17-6 1l-1 7h-6v13h-7v-7h-7v-6h-7v6h-6l-1-14h14v-6h21v-7h54v-7h14v-6c-6.75 1.88-6.75 1.88-9 3v-3l-11 1v-8h-55v6h-14v-7h13z"/><path fill="#5f6065" d="M663 322h6v13h7v68h-6v14h-7v41h-1v-34h-13c-1.33-13.99-1.09-27.96-1-42-.99.17-.99.17-6 1l-1-20h-6v-7h1v6h13v20h6v-6h2v-6h5v6h8v-14h-14v-6h7z"/><path fill="#c7656b" d="M614 568h1v6l2.94-.06C621 574 621 574 622 575q.06 3 0 6h7v7h6v1h-7v20h8v7h6v20h-14v-6h-27v-55h13z"/><path fill="#f7b98d" d="M526 327h6v8h69v6h7v7h14c.02 5.87.04 11.74.05 17.61l.03 5.99c.01 2.88.01 5.75.02 8.63 0 .88.01 1.77.01 2.69v2.54c.01.74.01 1.47.01 2.22-.14 2.8-.66 5.56-1.12 8.32h-20v-14h6v-27h-6v-6c-2.31-.17-2.31-.17-14-1v-6h-76v6h-13v-7h7v-6h20l1 3 2-3h-2z"/><path fill="#f8b88e" d="M587 403h7v7h-14v7h-6v55c-9.57 0-18.54-.23-28-1l-1-19-6-1 1-13c8.5-1.12 8.5-1.12 13 0v-28h20v-6h6v5h8z"/><path fill="#6f3320" d="M573 650h21v7c-3.3.16-3.3.16-20 1v12h7v7h7v29h-7v13h-34l-1-7h7v-7h14v-7h6c0-.28 0-.28-.02-1.72-.02-2.62-.03-5.23-.04-7.84l-.03-2.72c-.02-5.02.23-9.77 1.09-14.72h-8v7h-6v6h-7c.01 1.02.02 2.05.04 3.11 0 1.36.01 2.72.02 4.08l.03 2.04c.02 3.72-.2 7.15-1.09 10.77h-5v-27h6v-13h-8v-7h28z"/><path fill="#af6a6e" d="M677 616h20v6h7v14h7v14h7v20h7v14h6v1h-7v27h-7v7h-6v-13h7v-15h-8v-5h-5c-1.48-2.96-1.06-5.74-1-9h6v-9h-6l-1-4h-6v-14h-6v-7h-8v-21h-6z"/><path fill="#c56e45" d="M594 506h14c1.41 6.74.67 13.19 0 20h7v14h13v-13h1v14h-7v6h-1v-6h-20v6h-7v7h-7v-20l-34-1v-7h-7v-6h36v-3l-22-1v-7h14v4h20z"/><path fill="#ce7248" d="M539 581c13.72-.12 27.31.21 41 1v20h7v34h7v-6h6c.95 4.76 1.08 9.17 1 14h-6v6h-1v-13h-7v6h-8v2h-5v-9c-.68.04-.68.04-4.1.22-10.31.53-20.57.94-30.9.78v-7l34-1v-20h-6v-7h-21v-7h14v-7h-21z"/><path fill="#dd8460" d="M519 403h34v35h-13v6h-35v-6h27v-8c.29-2.01.6-4.01 1-6h-7v7h-15v-6h-7v6h-6v-11h34v-3l-20-1v-6h7z"/><path fill="#db7b59" d="M470 417h1v89h-7v-14h-7v-6h-7v-7h7v-8h-7v7h-6v-27h6v-20h7v6h7v-7h6z"/><path fill="#da7e4e" d="M622 348h6v7h7v8h6c.95 4.77 1.13 9.39 1.1 14.24 0 .77-.01 1.54-.01 2.33 0 2.44-.01 4.87-.03 7.31 0 1.65-.01 3.31-.01 4.97-.01 4.05-.03 8.1-.05 12.15h-7v19h-7v-6h-6v-7h-14v-6h-14v-1h14v-7h13z"/><path fill="#df8a83" d="M463 547h14v1h-13v6h7v14h6v-14h7v14h-6v13h7v14h6v7h7v7h7v7h7v7h6v7h7v7h7v6h14v7h27v7h-33v-7h-14l-1-6-6-1v-7h-7v-6h-7v-8h-7v-6h-7v-7h-7v-13h-7v-14h-7v-27h-6v6h-7v-7h6z"/><path fill="#c7c7ca" d="M464 362h20v13h-7v15h-7c.04.75.07 1.5.11 2.27.16 3.47.31 6.95.45 10.42.06 1.18.11 2.36.17 3.57.33 8 .07 15.78-.73 23.74h-6v7h-7v-6h-7v20h-6v27h6v-7h7v8h-14v-49h7c-.01-.98-.02-1.95-.04-2.96 0-1.27-.01-2.54-.02-3.85-.01-.63-.01-.63-.04-3.83.1-3.36.1-3.36 1.1-6.36 3-2 3-2 6-2l-.06-3.44C457 404 457 404 458 403c1.67-.04 3.33-.04 5 0v-6h-6v-8h13v-6h-6v-7h6v-7h-6z"/><path fill="#aeafb4" d="M656 307h7v14h7v13h7v70h-7v-1h6v-68h-7v-13h-6v34h-7v6h14v14h-8v-6h-5v6h-2v6h-6v-26h-7v-8h-13v-6h7v-6c2.14-.17 2.14-.17 13-1v-14h13v-13h-6z"/><path fill="#d1734f" d="M587 417h28v6l2.94-.06C621 423 621 423 622 424q.06 3 0 6h-7v-6h-21l1 9h20l1-2v7h-8v6h-20v13h6v1h-7v13c-2.14.17-2.14.17-13 1v-42h13z"/><path fill="#e1e3e4" d="M525 280h28v14h6c.8 4.22 1.12 8.2 1.1 12.49-.01 1.2-.01 2.4-.01 3.63-.01.62-.01.62-.03 3.76 0 1.26-.01 2.52-.01 3.82-.01 3.1-.03 6.2-.05 9.3h-7v-20h-7v-14h-7v21h7v13h-13v-3l-3-1h2v-3c-2.14.17-2.14.17-13 1-1-5-1-5 0-7h6v-7h7l-1-20h-12v-1h6z"/><path fill="#e4aeae" d="M306 657h7v14h-7v14h-7v33h-7c.08.5.08.5.5 3 .57 3.99.6 7.91.56 11.94 0 .68-.01 1.37-.01 2.07-.01 1.66-.03 3.33-.05 4.99h-8v13h-6v21h-7v20h-7v-21h6v-20h7v-14h7v-27h7v-28h7v-14h7z"/><path fill="#ec8c8b" d="M388 623h7l1 34h6v75h-7v-27h-6c-1.43-2.86-1.13-5.31-1.13-8.51 0-.66-.01-1.33-.01-2.02 0-2.2.01-4.4.02-6.59v-2.27c.02-16.22.5-32.41 1.12-48.61l-2-1 1-3c.07-1.73.08-3.46.06-5.19-.01-.9-.02-1.8-.02-2.73-.02-.69-.03-1.37-.04-2.08"/><path fill="#980d13" d="M498 636h21v7l2.94-.06C525 643 525 643 526 644v6h14v7h-7v7h-35v-7h-14v-7h7v-7h7z"/><path fill="#943f43" d="M683 643h8v7h6v14h6l1 3 6 1v9h-6l1 9h5v5h8v15h-7v6h-14v-28h-7v-27h-7z"/><path fill="#cccdcf" d="M539 293h7v14h7v21h13v7h-34v-8h-6v8h2l-2 4c-.16-.66-.16-.66-1-4h-20v6h-7v8h-14v6h-7v-7h14v-13h-7v-7h28v6h13v-10h8v3h13v-13h-7z"/><path fill="#737578" d="M615 266h14v7h6v7h7v14h7v7h7v7h6v13h-13v-7h-7v-7h-7v-13h-14v-7h-6v-7h6v-7h-6z"/><path fill="#f9bd91" d="M485 582h6v6h7v7h8v7h5v-14h-6v-6h14v6h7v7h6v7h-7v21l-13-1v-6h-7v-7h-7v-7h-7v-7h-6z"/><path fill="#863c24" d="M594 404h14v6h14v7h6v6h7v-13h7v27h-13v-6h-7c-.16-1.15-.16-1.15-1-7l-6-1v-6h-28v13h-13v-13h6v-7h14z"/><path fill="#e4e5e6" d="M471 273h6v7h-6v6h6v8h-6l.06 2.94C471 300 471 300 470 301h-6v26c-6 1-6 1-14 1v27h-13v-6h6v-35h7v-7h7v-13h7v-14c1.15-.17 1.15-.17 7-1z"/><path fill="#a65639" d="M545 664h8v13h-6v27h5l1-20h7v-6h6v-7h8l-1 27h-6v7h-14v7h-7v-7h-7v-34h6z"/><path fill="#f7b488" d="M532 533h49v14h-7v7h-34l-1-7h-7z"/><path fill="#db7b7a" d="M389 732h6v69h-7v25h-7v-19h-6v-6h6v-35h7c-.01-1.2-.02-2.4-.04-3.63-.06-10.18.19-20.23 1.04-30.37"/><path fill="#818287" d="M663 322h6v13h7v68h-6v14h-1v-14h-6v-27h7v-14h-14v-6h7z"/><path fill="#fac198" d="M532 472h7v6l21 1v13h13v7h-48v-7h-6v-6h7v-7h6z"/><path fill="#fbb69b" d="M485 431h6c.73 4.77 1.12 8.27 0 13 .59-.01 1.17-.02 1.77-.04 9.1-.09 18.15.48 27.23 1.04l-1 13h-7v7c-3.3.17-3.3.17-20 1l-1 5h-6l-1-19-6-1v-13h7z"/><path fill="#f6a581" d="M526 327h6v8h69v6h7v7h-7v-6h-90v6h-13v-7h7v-6h20l1 3 2-3h-2z"/><path fill="#f6ab7d" d="M485 540h6v14h7v20h7v14h6v14h-5v-7h-8v-7h-7v-6l-13-1v-13h6c-.01-.6-.01-1.2-.02-1.82-.02-2.75-.03-5.49-.04-8.24l-.03-2.86c-.02-5.14.2-10.01 1.09-15.08"/><path fill="#a4121b" d="M395 732h7v92h21v1h-34v-24h6z"/><path fill="#561f13" d="M601 541h20v6h-7v7h-13c.01 1.43.02 2.86.04 4.34 0 1.87.01 3.73.02 5.6l.03 2.86c0 .45 0 .45.01 2.73 0 .41 0 .41.01 2.52C601 574 601 574 600 575c-4.34.14-8.66.04-13 0v14h-6v-14h-8v-9h7v-5h7v-7h7v-7h7z"/><path fill="#af4038" d="M512 492h13v7h76v7h-7v7h-20v-4h-14v-3h-27v-4h-14v-2l-7-1z"/><path fill="#b1545a" d="M677 616h20v6h7v28h6v15l-6-1v-7h-7v-7h-6v-7h-8v-21h-6z"/><path fill="#c06a6f" d="M752 753h7v20h6c1 1 1 1 1.11 2.95 0 .83-.01 1.66-.01 2.52-.01.9-.01 1.8-.01 2.73l-.03 2.86c0 .95-.01 1.9-.01 2.88-.01 2.35-.03 4.71-.05 7.06h7v32h-1v-31h-7v20h-6v-7h-7v-7h-7v-7h7v-13h-7v-21h7v14h6v-20h-6z"/><path fill="#f6bf94" d="M587 403h7v7h-14v7h-6v55h-14v-7h13l-1-35h-5v-6h-7v20h-7v-34h20v-6h6v5h8z"/><path fill="#801117" d="M628 589h7v6h28v7h13v7h14v7h-13v6h6v7h-7c-.06-1.11-.12-2.22-.18-3.36-.09-1.46-.17-2.93-.26-4.39l-.12-2.21c-.2-3.47-.53-6.69-1.44-10.04-.51.17-1.02.35-1.55.53-3.32.64-6.33.31-9.7.03-1.26-.1-2.53-.2-3.83-.31-.96-.08-1.93-.16-2.92-.25v-7h-14v14h-6v-7h-8z"/><path fill="#f09694" d="M382 753h6v13h-7v35h-6v6h6v19h-6c-1.12-7.62-1.12-7.62 0-11h-7v-14h6v-18c-2.14.16-2.14.16-13 1v-11h14v-13h7z"/><path fill="#b95d3c" d="M532 404h14v26c-2.14.17-2.14.17-13 1v-7h-7v7h-15v-6h-7v6h-6v-11h34v-3h-7v-7h7z"/><path fill="#f09267" d="M546 602h21v7h6c.2 3.31.38 6.62.56 9.94.03.47.03.47.17 2.86.05.9.1 1.8.15 2.73.05.83.09 1.66.14 2.52C574 629 574 629 573 630c-2.52.09-5.01.12-7.54.1-.37 0-.37 0-2.28-.01-2.41 0-4.83-.01-7.24-.03-1.64 0-3.27-.01-4.9-.01-4.02-.01-8.03-.03-12.04-.05v-1h6l1-13h7v-7h-7z"/><path fill="#7b7c7d" d="M512 246h82v6h14v7h6v7h-7v-6h-13v-7l-82-1z"/><path fill="#d6d6d8" d="M560 280h7v7h6c1.31 6.95 1.11 13.88 1.06 20.94 0 1.25-.01 2.51-.01 3.8-.01 3.09-.03 6.17-.05 9.26h-7l.06 2.94C567 327 567 327 566 328c-2.19.07-4.38.08-6.56.06-.6 0-.6 0-3.63-.02-.93-.02-1.86-.03-2.81-.04v-1h7l-1-33h-6v-8h7z"/><path fill="#ed9a6a" d="M580 478c14.78-.18 14.78-.18 21 1v6h6v7h-13v7h-21v-7h-13v-7h20z"/><path fill="#f08f6a" d="M581 534h6v27h-48v-7h-14v-7h14l1 7h34v-7h7z"/><path fill="#bfbfc1" d="M498 280h27v6l-6 1-1 7h-6v13h-7v-7h-7v-6h-7v6h-6l-1-14h14z"/><path fill="#de7f55" d="M574 636v9h5v-2h8v-6h7v13h-48v-7h-7c-.04-1.67-.04-3.33 0-5 5.43-5.43 27.65-2.06 35-2"/><path fill="#a24c47" d="M471 506h13c.79 16.09 1.12 31.92 0 48h-7v14h-6v-14h-7v-6h13v-28h-6z"/><path fill="#ec9868" d="M622 348h6v7h7v41h-14z"/><path fill="#c16a3f" d="M539 581c11.73-.11 23.31-.03 35 1v27h-7v-7h-21v-7h14v-7h-21z"/><path fill="#f6a176" d="M477.133 423.121c.81.05 1.61.1 2.44.15.84.05 1.68.11 2.55.17.43.02.43.02 2.58.15 2.1.13 4.2.27 6.3.41v7h-6v7h-8c.07.79.14 1.59.22 2.41.77 10.01.89 19.99.9 30.03 0 .71.01 1.41.01 2.14.01 2.04 0 4.07 0 6.1v3.61c-.13 2.71-.13 2.71-1.13 3.71h-6v-62c2.35-1.18 3.52-1.05 6.13-.88"/><path fill="#d0d2d5" d="M464 362h20v13h-7v15h-14l1 6c.07 2.29.09 4.58.06 6.88-.01 1.15-.02 2.3-.02 3.49-.02.87-.03 1.73-.04 2.63l-7 2c-.04-2.33-.04-4.67 0-7 1-1 1-1 3.56-1.06l2.44.06v-6h-6v-8h13v-6h-6v-7h6v-7h-6zm-7 49v13h-7c-.12-7.62-.12-7.62 1-11 3-2 3-2 6-2"/><path fill="#da2f36" d="M409 582h21v6h6v7h-6c-.17-.83-.17-.83-1-5l-7-1c.17.99.17.99 1 6-13.79 1.35-27.19 2.52-41 1v6h-7v-13h34z"/><path fill="#a2a3a6" d="M628 294h7v13h7v21h-7v6h-14v-6h-7v-1h8v-12h7c-.16-3.46-.16-3.46-1-21"/><path fill="#e5bbba" d="M340 595h14v7h-7v7h-6v7h-7v14h-7v14h-7v13h-7v-14h6c-.01-.93-.02-1.85-.04-2.81 0-1.2-.01-2.39-.02-3.63-.01-1.19-.03-2.39-.04-3.62.1-2.94.1-2.94 1.1-3.94h6v-13h7v-8h7z"/><path fill="#f9e2c8" d="M511 355h22l-1 14h-6v7l2.94-.06C532 376 532 376 533 377v6h-21z"/><path fill="#cd6e6c" d="M518 630h7v7h7v6h14v7h27v7h-33v-7h-14l-1-6c-.99-.16-.99-.16-6-1z"/><path fill="#facfaa" d="M560 424h7v6l6-1v36h-13z"/><path fill="#e89573" d="M484 349h14v13h-7v14h-6v20h-15v-6h7v-15h7z"/><path fill="#a65c3d" d="M464 465h7v41h-7v-14h-7v-6h-7v-7h7v-8h7z"/><path fill="#e98c64" d="M628 444h7v22l-6-1v7h-28v-7h-7v-7h14v7h14v-6l1-1h5z"/><path fill="#a0725e" d="M566 327c4.34-.02 8.68-.04 13.02-.05l4.43-.03c2.13-.01 4.25-.01 6.38-.02 1.28 0 2.55-.01 3.87-.01 2.66.09 4.78.31 7.3 1.11v6h14v7l2.94-.06C621 341 621 341 622 342v6h-14v-7h-7v-6h-35z"/><path fill="#f29d78" d="M544 456c2.92 4.82 2.13 9.5 2 15h14v1h-14v6h-7v-6h-7v7h-6v7h-7v6h-7l1 8h-2v-8c-.99.17-.99.17-6 1v-7c1.15-.17 1.15-.17 7-1v-6l12-2 1-6h7v-6h8v-8z"/><path fill="#f5ae8c" d="M526 424h7l-1 14h-27v6h34v7h-13l1-5c-.47-.01-.47-.01-2.87-.08-3.53-.09-7.06-.19-10.58-.29-1.53-.05-3.05-.09-4.58-.13l-6.58-.18c-.68-.02-1.36-.04-2.06-.05-3.24-.11-6.23-.3-9.33-1.27v-7h14v-6h21z"/><path fill="#a3141e" d="M402 657h1v13h6v62h-7z"/><path fill="#acadaf" d="M525 324h7v3h-6v8h2l-2 4c-.16-.66-.16-.66-1-4h-20v6h-7v8h-14v6h-7v-7h14v-13h-7v-7h28v6h13z"/><path fill="#c46465" d="M718 670h7v14h6v1h-7v27h-7v7h-6v-13h7v-15h-8v-5h-5c-1.48-2.96-1.06-5.74-1-9h6v-6h1v6h6v7h7v-13h-6z"/><path fill="#a35135" d="M621 410h1v7h6v6h7v-13h7v27h-13v-6h-7l-1-7c-.99-.17-.99-.17-6-1v-6h-20v-1h26z"/><path fill="#f9b78c" d="M491 362h7v20h-7v21h-6l-1 14h-6v-21h7v-20h6z"/><path fill="#a7aaac" d="M574 307h7v14h6l1-6h6v6h7v6h7v-6h14v6c-18.07 2.5-36.81.67-55 0v-6h7z"/><path fill="#95736d" d="M430 410h7v7h13v13h-7v21h-6l-1-20-6-1z"/><path fill="#e1a7a7" d="M292 725h1v15h-8v13h-6v21h-7v20h-7v-21h6v-20h7v-14h14z"/><path fill="#8a7e7c" d="M491 396h55v7h-48v7h-7z"/><path fill="#737373" d="M615 266h14v7h6v21h-14v-7h-6v-7h6v-7h-6z"/><path fill="#9d4930" d="M587 417h28v6l2.94-.06C621 423 621 423 622 424q.06 3 0 6h-7v-6h-21l1 9-1-2h-7v6h-7v7h-6v-14h13z"/><path fill="#ab0d15" d="M690 726h14v6h14v14h7v14h-7l-1-14h-13v-7h-6v-7h-8z"/><path fill="#c55f63" d="M395 671h7v61h-7z"/><path fill="#f5b181" d="M491 506h20v21h-19c-1.03-7.2-1.07-13.75-1-21"/><path fill="#dd9e9f" d="M443 568h7v7h-6v20h6v14h-7v-14h-7v-7h-6v-6h-21v-1h20v-6h14z"/><path fill="#cb6c48" d="M635 444h7v28h-7v6c-8.95 1.69-18.03 1.41-27 0v-6h21v-7h5z"/><path fill="#706b6f" d="M649 403h20v14h-6v41h-1v-34h-13z"/><path fill="#f39f70" d="M485 540h6v14h7v7h-7v20h-13v-13h6c-.01-.6-.01-1.2-.02-1.82-.02-2.75-.03-5.49-.04-8.24l-.03-2.86c-.02-5.14.2-10.01 1.09-15.08"/><path fill="#7e3725" d="M595 582h6v47h-6v-7h-7v-14h4v2h2c-.01-.81-.01-1.63-.02-2.46-.02-3.66-.03-7.32-.04-10.98-.01-.64-.01-.64-.03-3.87 0-.61 0-.61-.01-3.69 0-1.12-.01-2.25-.01-3.41C594 583 594 583 595 582"/><path fill="#b66240" d="M546 472h41v6h-7v7h-20v-6h-14z"/><path fill="#8a2f20" d="M573 499h28v7h-7v7h-20v-4h-14v-3l-3-1c3.05-1.53 5.76-.84 9.12-.56 1.29.1 2.57.2 3.89.31.99.08 1.97.16 2.99.25z"/><path fill="#c21319" d="M484 650h21v7h28v7h-35v-7h-14z"/><path fill="#f7b486" d="M498 403h21v7h-7v6c.86-.01 1.71-.02 2.6-.04 5.91-.04 11.58-.04 17.4 1.04v3c-3.92.06-7.83.09-11.75.12l-3.37.06c-.53 0-.53 0-3.24.02l-2.98.03c-2.76-.24-4.27-.92-6.66-2.23-2.24-.29-4.49-.49-6.75-.62-1.17-.08-2.34-.15-3.55-.23-.89-.05-1.78-.1-2.7-.15v-7h7z"/><path fill="#ae5659" d="M724 685h7v41h-14v-14h7z"/><path fill="#c87551" d="M594 424h21v6c2.31.17 2.31.17 14 1v6h13v1h-20v6h-14v-6h8l-1-5h-20z"/><path fill="#be6339" d="M512 561h20l1 6 13 1c.16.5.16.5 1 3l-1 2c2.31.16 2.31.16 14 1v7h-21v-6h-7v-7c-.86.01-1.71.02-2.6.04-5.91.04-11.58.04-17.4-1.04z"/><path fill="#e9e9ea" d="M477 321h14v7h-7v7h7v13h-14v-14h-7c-.04-1.67-.04-3.33 0-5 1-1 1-1 4.06-1.06l2.94.06z"/><path fill="#eff1f2" d="M547 287h6v7h6c.8 4.22 1.12 8.2 1.1 12.49-.01 1.2-.01 2.4-.01 3.63l-.03 3.76c0 1.26-.01 2.52-.01 3.82-.01 3.1-.03 6.2-.05 9.3h-7v-20h-7q-.045-4.155-.06-8.31c-.01-.4-.01-.4-.03-2.38 0-.76 0-1.52-.01-2.3 0-.69-.01-1.39-.01-2.11.11-1.9.11-1.9 1.11-4.9"/><path fill="#c7131e" d="M567 815h33v10h-40v-4h7z"/><path fill="#e2875d" d="M546 520h28v8h6v5h-27v-7h-7z"/><path fill="#f5a878" d="M614 348h8c.02 5.87.04 11.74.05 17.61l.03 5.99c.01 2.88.01 5.75.02 8.63 0 .88.01 1.77.01 2.69 0 4.48-.2 8.67-1.11 13.08h-7z"/><path fill="#8c8c90" d="M649 356h7v6h14v14h-8v-6h-5v6h-2v6h-6z"/><path fill="#e17f6b" d="M545 664h8v13h-6l-1 28h-7v-34h6z"/><path fill="#e58b60" d="M567 609h6c.2 3.31.38 6.62.56 9.94.03.47.03.47.17 2.86.05.9.1 1.8.15 2.73.05.83.09 1.66.14 2.52C574 629 574 629 573 630c-2.52.09-5.01.12-7.54.1-.37 0-.37 0-2.28-.01-2.41 0-4.83-.01-7.24-.03-1.64 0-3.27-.01-4.9-.01-4.02-.01-8.03-.03-12.04-.05v-1h6l1-13h7v7h14z"/><path fill="#fcc6bf" d="M495.5 450.886c1.08.01 2.17.01 3.28.02.59 0 .59 0 3.55.01.62 0 .62 0 3.73.02.62 0 .62 0 3.75.01 3.06.02 6.13.03 9.19.05v7h-7v7h-21c.95-13.95.95-13.95 4.5-14.11"/><path fill="#c7585a" d="M382 602h7l1 5h6v29h6v21h-6l-1 3v-37h-7v-14h-6z"/><path fill="#898c8d" d="M471 273h6v7h-6v6h6v8h-6l.06 2.94C471 300 471 300 470 301q-3 .06-6 0v6h-7v-13h7v-14c1.15-.17 1.15-.17 7-1z"/><path fill="#a90d16" d="M642 602h14v7h13v13h-13v-6h-7v-7h-7z"/><path fill="#f19b98" d="M361 773h7l-1 8 8-1v27h6v19h-6c-1.12-7.62-1.12-7.62 0-11h-7v-14h6v-18c-2.14.16-2.14.16-13 1z"/><path fill="#d68153" d="M580 478h7v1h-6v13h13v7h-21v-7h-13v-7h20z"/><path fill="#f6bdb7" d="M306 691h14l1 6h6v15h-7v-7h-14z"/><path fill="#ba6138" d="M574 582h6v20h7v13c-2.14.16-2.14.16-13 1z"/><path fill="#cd121c" d="M683 726h7v6h8v7h6v7l2.44-.06C709 746 709 746 710 747q.06 3 0 6c-4.63 1.02-8.34.84-13 0v-7h-7v-13h-6c-1-1-1-1-1.06-4.06z"/><path fill="#e1875b" d="M594 520h7v14h-7v20h-7v-20h-6v-1h6v-6h7z"/><path fill="#dc1d25" d="M411.625 601.938c.42 0 .42 0 2.54.03l1.84.03c-.33 2.31-.67 4.62-1 7h-13v27h-6v-33c11.24-1.12 11.24-1.12 15.62-1.06"/><path fill="#af5a3e" d="M635 363h6c.95 4.77 1.13 9.39 1.1 14.24 0 .77-.01 1.54-.01 2.33 0 2.44-.01 4.87-.03 7.31 0 1.65-.01 3.31-.01 4.97-.01 4.05-.03 8.1-.05 12.15h-15v-1h8z"/><path fill="#9a9b9e" d="M656 307h7v14h7v13h7v70h-7v-1h6v-68h-7v-13h-6v34h-7v-1h6v-13h-6v-21h6v-13h-6z"/><path fill="#db1922" d="M470 644h7v6h7v7h14v7h-21v-7h-7z"/><path fill="#ce7479" d="M677 616h20v6h7v1h-7v7h-6v6h-8v-14h-6z"/><path fill="#b6684b" d="M450 431h7v6h7v21h-7v-7h-7z"/><path fill="#f09878" d="M450 424h7v7h-7v20h-6v27h6v-7h7v8h-14v-49h7z"/><path fill="#f3ac91" d="M546 509h14v7c.92-.01 1.84-.02 2.78-.04 6.51-.04 12.79.01 19.22 1.04v3h-43v-7h7z"/><path fill="#7b7e80" d="M430 349h6v47h-6z"/><path fill="#813726" d="M642 435c.33.17.33.17 2 1v4l2.12-2.06c2.88-1.94 2.88-1.94 6.19-1.69.45.12.45.12 2.69.75v7h-3v14h-4l1 13h-6z"/><path fill="#aaadb0" d="M437 396h6l1 7 13 1v7c-.97.25-1.94.5-2.94.75-1.01.41-2.02.82-3.06 1.25l-1 4h-13z"/><path fill="#e28082" d="M614 609h8v20h-20v-6h6v-7h6z"/><path fill="#a84e50" d="M601 582h7c.02 4.57.04 9.14.05 13.71l.03 4.66c.01 2.24.01 4.49.02 6.73 0 .68.01 1.37.01 2.08 0 4.38-.4 8.5-1.11 12.82h-6z"/><path fill="#fdc7b7" d="M539 534h21v13h-21z"/><path fill="#58291e" d="M601 541h20v6h-7v7h-20v-7h7z"/><path fill="#b75b38" d="M628 493h1v33h6v1h-7v13h-7l1-20h4v-8h-4v-13h6z"/><path fill="#f5ad83" d="M601 450h21c0 5.52-.13 9.76-1 15h-13v-7h-7z"/><path fill="#8d3a41" d="M745 740h6l1 13c.99.16.99.16 6 1v20h-6v-14h-7z"/><path fill="#d4d5d6" d="M505 285v15h-7v-6h-7v6h-6l-1-14c3.31-.17 6.62-.33 9.94-.5.94-.05 1.89-.1 2.86-.14.9-.05 1.8-.09 2.73-.14.83-.04 1.66-.09 2.52-.13.98-.04 1.97-.09 2.95-.09"/><path fill="#ce141d" d="M656 705h14v7h6v7h7v7h-14v-14h-13z"/><path fill="#b6603a" d="M608 485h7c.94 6.1 1 11.79.62 17.94-.04.86-.08 1.72-.13 2.61-.36 6.32-.36 6.32-1.49 7.45-2.5.12-2.5.12-5 0-1-1-1-1-1.06-4.06L608 506h-7v-7h7z"/><path fill="#616264" d="M663 322h6v13h7v23l-2-2-4-1v-14h-7z"/><path fill="#c0643b" d="M581 622h6v14h7v-6h6c.95 4.76 1.08 9.17 1 14h-6v6h-1v-13h-7v6h-7c-.11-7.1.06-13.96 1-21"/><path fill="#d8d9da" d="M443 314h1v14h6v27h-13v-6h6z"/><path fill="#bbbbbd" d="M622 294h6c.92 4.66 1.12 9.15 1.06 13.88 0 .68-.01 1.37-.01 2.08-.01 1.68-.03 3.36-.05 5.04h-7v6h-7v-14h7z"/><path fill="#cd121c" d="M594 794h20v7h-6v7h-14z"/><path fill="#6c2024" d="M573 650h21v7c-3.3.16-3.3.16-20 1v5h-14v-6h13z"/><path fill="#d87f51" d="M560 588h13v7h-6v7h-21v-7h14z"/><path fill="#a7a7ab" d="M532 328h34v7h-34z"/><path fill="#cd7854" d="M519 403h34v7h-7v-6h-14v6h-7v6h-13v-6h7z"/><path fill="#bf6152" d="M540 650h33v7h-33z"/><path fill="#a7a7a8" d="M615 287h6c1.24 6.66 1.09 13.25 1 20h-7v7h-7v-14h7z"/><path fill="#626262" d="M635 280h7v14h7v6h-7v7h-7z"/><path fill="#ce6b72" d="M697 637h7v13h6v15l-6-1v-7h-7z"/><path fill="#84858a" d="M663 341h7v14l5 1 1 6h-20v-6h7z"/><path fill="#dc9497" d="M258 794h7v32h-7z"/><path fill="#f0976d" d="M541.95 636.886c.83.01 1.67.01 2.52.02.9 0 1.8 0 2.73.01.47 0 .47 0 2.86.02.95.01 1.9.01 2.88.01 2.35.02 4.71.03 7.06.05v13h-14v-7h-7c-.04-1.66-.04-3.33 0-5 1-1 1-1 2.95-1.11"/><path fill="#a05030" d="M546 568c3.31-.03 6.62-.05 9.94-.06l2.86-.03c.45 0 .45 0 2.73-.01.41 0 .41 0 2.52-.01C566 568 566 568 567 569q.06 3 0 6h6v7h-13v-8h-15z"/><path fill="#916e5f" d="M608 396h27v7c-5.37.76-10.58 1.14-16 1.1-.72 0-1.44-.01-2.19-.01q-3.405 0-6.81-.03c-1.55 0-3.11-.01-4.66-.01-3.78-.01-7.56-.03-11.34-.05v-1h14z"/><path fill="#a7a8ab" d="M649 321h7c.03 3.37.05 6.75.06 10.12l.03 2.89c.01 4.78-.08 9.29-1.09 13.99h-6v-7h-6v-6h6z"/><path fill="#f3a8a1" d="M388 623h7v34h-6v-20l-2-1 1-3c.07-1.73.08-3.46.06-5.19-.01-.9-.02-1.8-.02-2.73-.02-.69-.03-1.37-.04-2.08"/><path fill="#8b888a" d="M457 417h13v13h-6v7h-7z"/><path fill="#673e2d" d="M574 671h7v6h6v28h-6v-27h-7z"/><path fill="#f0a276" d="M574 451h6v7h7v13c-2.14.17-2.14.17-13 1z"/><path fill="#b7595c" d="M389 766h6v35h-6z"/><path fill="#cc7f5e" d="M471 506h13v14h-6v28h-1v-28h-6z"/><path fill="#d99399" d="M614 568h1v6l2.94-.06C621 574 621 574 622 575q.06 3 0 6h7v7h-1v-6h-7v6h-6v-6h-14v-7h13z"/><path fill="#d4d5d6" d="m581 279 13 1c.03 4.13.05 8.25.06 12.38l.03 3.56c0 1.12 0 2.24.01 3.4 0 1.03.01 2.07.01 3.14C594 305 594 305 593 307h-5v-21l-7 1z"/><path fill="#ed9b73" d="M546 410h7v28h-13v6h-1v-7h7z"/><path fill="#fbc899" d="M498 389c4.17-.03 8.33-.05 12.5-.06l3.55-.03c6.09-.01 11.94.14 17.95 1.09l-1 5c-11.35.68-22.63 1.15-34 1z"/><path fill="#d57777" d="M389 732h6v34h-6z"/><path fill="#932b2e" d="M375 589h34v6h-34z"/><path fill="#a54b30" d="M629 492h6v34h-6c-1.23-11.44-.75-22.54 0-34"/><path fill="#8e121a" d="M711 732h7v14h7v14h-7l-1-14h-6z"/><path fill="#d01720" d="M525 670h8v7h6v7h-7v-6h-7v6h-7v-7h-6v-6h7v6h6z"/><path fill="#e31827" d="M416 622h14v7h7v7h-14v-6h-7z"/><path fill="#b25556" d="M635 609h1v7h6v20h-14v-6h-7v-1h14z"/><path fill="#6a3421" d="m547 677 13 1v6h-7c.01 1.02.02 2.05.04 3.11 0 1.36.01 2.72.02 4.08l.03 2.04c.02 3.72-.2 7.15-1.09 10.77h-5z"/><path fill="#84331d" d="M601 568h13v7h-13v7c-2.33.38-4.66.71-7 1l-1-1c-1.67-.04-3.33-.04-5 0v7h-1v-14c2.14-.16 2.14-.16 13-1z"/><path fill="#ea8e60" d="M539 588h21v7h-14v7h-7z"/><path fill="#f8be8e" d="M491 506h14v14h-14z"/><path fill="#aeb2b4" d="M491 335h14v6h-7v8h-14v6h-7v-7h14z"/><path fill="#d68789" d="M285 712h7v27h-7z"/><path fill="#facc9f" d="M498 403h21v7h-14v6h-7z"/><path fill="#b39f96" d="M491 396h20v7h-13v7h-7z"/><path fill="#6c5956" d="M635 356h1v6h13v48h-1v-28l-6 1-1-20h-6z"/><path fill="#a99894" d="M484 349h14v13h-13v7h-1z"/><path fill="#392f27" d="M594 424h21v9h-20z"/><path fill="#291a10" d="M505 421h27v3h-6v7h-15v-7h-6z"/><path fill="#874b33" d="M546 679h1v25h5l-.06-2.44C552 699 552 699 553 698c2.35-.07 4.71-.08 7.06-.06 1.29.01 2.58.02 3.91.02 1 .02 2 .03 3.03.04v7h-14v7h-7z"/><path fill="#8e252b" d="M683 643h8v34h6v7h-7v-27h-7z"/><path fill="#e9875c" d="M601 335h14v6l2.94-.06C621 341 621 341 622 342v6h-14v-7h-7z"/><path fill="#f59d74" d="M484 506c3 0 3 0 7 1l1 20h6v6h-7v-7h-6c-.88-4.52-1.11-8.78-1.06-13.38.01-1.24.02-2.49.02-3.77.01-.47.01-.47.04-2.85"/><path fill="#f2996e" d="M505 335h13v7h-7v6h-13v-7h7z"/><path fill="#e79572" d="M491 424h7v7h6v-6h7v6h-6v6h-14z"/><path fill="#a24b4e" d="M628 589h7v6h28v7h-1v-6h-27v13h-7z"/><path fill="#ed9d99" d="M587 637h7v13h-20v-5h5v-2h8z"/><path fill="#553323" d="M567 705h6v7h7v6h-20c-.16-.83-.16-.83-1-5h-5v-1c2.14-.16 2.14-.16 13-1z"/><path fill="#f5a176" d="M581 534h6v20h-13v-7h7z"/><path fill="#a1a2a4" d="M643 335v6h6v7h-20v-6h7v-6c5.88-1 5.88-1 7-1"/><path fill="#c2c6c9" d="M478 335h13v13h-13z"/><path fill="#713722" d="M478 520h6c.99 9.15.89 17.85 0 27h-6z"/><path fill="#81513a" d="M470 485v21h-6v-14h-7v-6c4.47-.71 8.43-1 13-1"/><path fill="#f8cac3" d="M329 631h4v5h7v8h-7v6h-6c-.05-2.79-.09-5.58-.12-8.38l-.06-2.4c-.01-2.07.08-4.15.18-6.22z"/><path fill="#b0232c" d="M402 657h1v13h6v14l-6 1v47h-1z"/><path fill="#9e5b4e" d="M444 451h6v27h-6z"/><path fill="#b56169" d="M744 719h1v20h7v14h-1v-13h-6v20h-6v-20h5z"/><path fill="#6c2a20" d="M595 582h6v26h-6c-.2-4.15-.38-8.29-.56-12.44-.06-1.18-.11-2.37-.17-3.59-.05-1.12-.1-2.24-.15-3.4-.05-1.05-.09-2.09-.14-3.16C594 583 594 583 595 582"/><path fill="#e79883" d="M587 431h7v2h21l1-2v7c-3.97.02-7.94.04-11.91.05l-4.05.03c-1.94.01-3.88.01-5.82.02-.58 0-.58 0-3.54.01C588 438 588 438 587 437q-.06-3 0-6"/><path fill="#ab0b16" d="M622 678h7v6h6v7h14v7h-1v-6c-1.29.01-2.58.02-3.9.04-1.68 0-3.36.01-5.04.02-.42.01-.42.01-2.57.03-.81 0-1.62 0-2.45.01-.75 0-1.5.01-2.27.01C630 692 630 692 629 691v-5l-20-1v7c-2.14.16-2.14.16-13 1l-1 5h-1v-7h14v-7h14z"/><path fill="#c98385" d="M409 588v1h-34v6h-20v-6c17.98-1.34 35.98-1.1 54-1"/><path fill="#994a31" d="M587 622h8v7l12 1v6h-7v-6h-6v6h-7z"/><path fill="#903b40" d="M676 609h14v7h-13v6h6v7h-7z"/><path fill="#646564" d="M618 267h10v6h7v7h-7v7h-6v-14l5-1v-4h-9z"/><path fill="#f3a883" d="M544 456c2.92 4.82 2.13 9.5 2 15h14v1h-14v6h-7c-.1-7.09-.1-13.98 1-21z"/><path fill="#a71119" d="M484 650h21v7h-21z"/><path fill="#cd774c" d="M539 581h21v7h-21z"/><path fill="#6e3221" d="M635 492h7v21h-7z"/><path fill="#893d23" d="M635 472h7l.15 2.59c.07 1.1.15 2.21.23 3.35.03.55.03.55.21 3.34.13.9.27 1.79.41 2.72l2 1h-3v7h-7z"/><path fill="#7e8083" d="M642 314h7v21h-7z"/><path fill="#c1c3c5" d="M567 253h20v7c-1.11.31-2.23.62-3.38.94C580 262 580 262 578 263v-3l-11 1z"/><path fill="#f4a6a2" d="M361 773h7l-1 8 8-1v28h-7v-7h6v-18c-2.14.16-2.14.16-13 1z"/><path fill="#ba565b" d="M745 760h7v21h-7z"/><path fill="#d07649" d="M505 561h7v6l20 1v6l-14 1v-7h-13z"/><path fill="#c88366" d="M608 526h7v14h13v-13h1v14h-7v6h-1v-6h-20v-1h7z"/><path fill="#bfc1c2" d="M553 273h15l-1 7h-7v6h-7z"/><path fill="#934043" d="M724 685h7v20h-7z"/><path fill="#d01c23" d="M470 644h7v6h7v7h-14z"/><path fill="#c3bfc0" d="M457 396h7v13l-7 2c-.04-2.33-.04-4.67 0-7 1-1 1-1 3.56-1.06l2.44.06v-6h-6zm0 15v13h-7c-.12-7.62-.12-7.62 1-11 3-2 3-2 6-2"/><path fill="#f9ba92" d="M491 362h7v20h-7z"/><path fill="#8f1821" d="M389 801h6c.2 3.27.38 6.54.56 9.81.06.93.11 1.86.17 2.82.05.89.1 1.78.15 2.7.05.82.09 1.65.14 2.49C396 821 396 821 395 824h-6z"/><path fill="#d67a52" d="M608 472h21v7c-7.09.1-13.98.1-21-1z"/><path fill="#7d7f83" d="M601 328h20v6h13v1c-11.06.11-21.98.01-33-1z"/><path fill="#c26641" d="M512 492h13v7h8v3h-14v-2l-7-1z"/><path fill="#a75836" d="M546 561h34v4h-34z"/><path fill="#f69669" d="M514.438 539.813c.79-.01 1.58-.02 2.39-.04 2.06 0 4.12.11 6.17.23 2 2 2 2 2 7h-20c0-8.81 1.89-7.18 9.44-7.19"/><path fill="#ab8f84" d="M566 327h31v1h-16v7h-15z"/><path fill="#af4f35" d="M539 417h7v13c-2.14.17-2.14.17-13 1v-7h6z"/><path fill="#b2b3b5" d="M471 362h13v13h-7v-6h-6z"/><path fill="#df885b" d="M594 479h7v6h6v7h-13z"/><path fill="#ca927d" d="M443 430h1v15h5l-3 6h-2v27h6v-7h7v8h-14z"/><path fill="#d88362" d="M470 417h1v48h-1v-21h-6v-14h6z"/><path fill="#f6ab7e" d="M478 396h6c.71 7.18 1.26 13.87 0 21h-6z"/><path fill="#da7e4f" d="M629 375h6v21h-7z"/><path fill="#72331f" d="M546 565h34v1h-7v9h-6l-1-6-20-1z"/><path fill="#bb6a4c" d="M464 465h7v41h-1v-35l-6 1v6h-7v-7h7z"/><path fill="#e58887" d="M388 747h1v20h-7v58h6v1h-7v-19h-6v-6h6v-35h7z"/><path fill="#df8159" d="M629 444h6v22l-6-1z"/><path fill="#e9a080" d="M540 677h6v21h-6z"/><path fill="#bc653c" d="M539 575h21v6h-21z"/><path fill="#e5825c" d="M471 465h6v21h-6z"/><path fill="#915643" d="M437 430h6v21h-6z"/><path fill="#edb491" d="M594 417h21v6h-21z"/><path fill="#dbdddf" d="M437 369h6v21h-6z"/><path fill="#f6b38b" d="M526 341h82v7h-7v-6h-75z"/><path fill="#9f5134" d="M622 424h12v3l2-3c.19 4.82-.24 8.5-2 13h-5v-6h-7z"/><path fill="#913f48" d="M759 774h6v20h-6z"/><path fill="#d9888c" d="M272 753h6v20h-6z"/><path fill="#8b383e" d="M738 719h6v20h-6z"/><path fill="#cf8589" d="M293 685h6v20h-6z"/><path fill="#b3565c" d="M710 671h1v6h6v8h-6v6h-1v-5h-5c-1.48-2.96-1.06-5.74-1-9h6z"/><path fill="#cf7e83" d="M341 596h13v6h-7v7h-6z"/><path fill="#8f2a31" d="M409 582h20v6h-20z"/><path fill="#92442c" d="M601 541h20v6h-20z"/><path fill="#f5c5a2" d="M505 431h20v6h-20z"/><path fill="#5a5b5d" d="M670 383h6v20h-6z"/><path fill="#909294" d="M430 349h6v20h-6z"/><path fill="#898c8d" d="M437 328h6v20h-6z"/><path fill="#8b3033" d="M573 650h21v7h-13v-4h-7c-.16.66-.16.66-1 4z"/><path fill="#f7a77a" d="M559 608h8v15h-7c-1-1-1-1-1.1-4.16.01-.64.01-.64.04-3.9.01-1.29.02-2.58.02-3.91.02-1 .03-2 .04-3.03"/><path fill="#cbcbcd" d="M607 300h1v14h7v7h-7v5h-1v-5l-2.44.06C602 321 602 321 601 320q-.06-3 0-6h6z"/><path fill="#abacae" d="M574 307h7v14c-1.98.17-1.98.17-12 1v5h-2v-6h7z"/><path fill="#974047" d="M717 650v20h-6v-19c5-1 5-1 6-1"/><path fill="#f8c299" d="m519 502 13 1v10l-1-4-5 1-1 3h-6z"/><path fill="#885746" d="M430 411h6v19h-6z"/><path fill="#fabb96" d="M532 533h21v1h-14v13h-7z"/><path fill="#ca7151" d="M525 403h28v7h-7v-6h-14v6h-7z"/><path fill="#c0c3c3" d="M471 273h6v7h-6v6h6v8h-6v6h-1c-.17-3.46-.17-3.46-1-21h2z"/><path fill="#b0644c" d="M588 417h6v6c.81-.01 1.63-.01 2.46-.02 3.66-.02 7.32-.03 10.98-.04l3.87-.03c.61 0 .61 0 3.69-.01 1.12 0 2.25-.01 3.41-.01C621 423 621 423 622 424q.06 3 0 6h-7v-6h-27z"/><path fill="#ef9d9a" d="M470 637h1v6h20v7h-14v-6h-7z"/><path fill="#900911" d="M731 802h1v6h2l-.94 2.88c-1.34 4.65-1.66 9.3-2.06 14.12h-20v-1h13v-10h7z"/><path fill="#c36867" d="M594 630h6c.95 4.76 1.08 9.17 1 14h-6v6h-1v-13h-7v-1h7z"/><path fill="#753024" d="M573 575h8v14h6v6h-7v-13h-7z"/><path fill="#fcbda7" d="M511 451h8v7h-7v7h-7v-7h6z"/><path fill="#9e4c4c" d="M601 582h7v13l-5 1-1 8h-1z"/><path fill="#ac6047" d="M545 664h8v13h-6l-1 2c-.16-2.48-.16-2.48-1-15"/><path fill="#ae5532" d="M608 485h7c.78 5.02 1.13 8.98 0 14h-7z"/><path fill="#ee9069" d="M512.625 484.938c.5 0 .5 0 3.04.03l2.34.03v7h-6c.33 2.64.65 5.28 1 8h-2v-8c-1.99.33-3.96.66-6 1v-7c2.64-1.32 4.67-1.09 7.62-1.06"/><path fill="#af5a40" d="M450 431h7l1 14h-8z"/><path fill="#8f4147" d="M731 705h7v14h-7z"/><path fill="#cd7073" d="M532 643h14v7h-14z"/><path fill="#af3b43" d="M450 616h7v14h-7z"/><path fill="#c75e62" d="M388 609h7v14h-7z"/><path fill="#d1737c" d="M443 595h7v14h-7z"/><path fill="#f19669" d="M539 588h7v14h-7z"/><path fill="#db805b" d="M477 554h7v14h-7z"/><path fill="#ed9467" d="M525 492h14v7h-14z"/><path fill="#ee9773" d="M450 451h7v14h-7z"/><path fill="#9ba7b1" d="M457 423h7v14h-7z"/><path fill="#b5b2b3" d="M594 396h14v7h-14z"/><path fill="#a5a1a6" d="M532 396h14v7h-14z"/><path fill="#9b9ca0" d="M663 362h7v14h-7z"/><path fill="#dd8059" d="M628 355h7v14h-7z"/><path fill="#e5e8e8" d="M464 362h7v7h6v7h-7v-7h-6z"/><path fill="#bfc0c2" d="M649 321h7v14h-7z"/><path fill="#ced0d1" d="M512 287h6v7h-6v13h-7v-7h6z"/><path fill="#9fa1a3" d="M539 273h14v7h-14z"/><path fill="#8c8d8d" d="M484 259h14v7h-14z"/><path fill="#f4ab88" d="M559 516c15.74-.18 15.74-.18 23 1v3h-36v-1h13z"/><path fill="#b3b3b5" d="M608 321h14v6c-7.02 1.1-13.91 1.1-21 1v-1h7z"/><path fill="#d3d4d5" d="M477 321h14v7c-2.15.03-4.29.05-6.44.06-1.19.01-2.39.03-3.62.04C478 328 478 328 477 327z"/><path fill="#e2865e" d="M542.941 636.902c.6.01.6.01 3.62.04.6 0 .6 0 3.63.02.93.01 1.85.03 2.81.04v7h-5l-1 6h-1v-7h-7c-.04-1.67-.04-3.34 0-5 1-1 1-1 3.94-1.1"/><path fill="#a9a9a9" d="M615 273h6v7h-6v6h-7v-7h6z"/><path fill="#b4b3b4" d="M460.723 409.902c.55.01.55.01 3.34.04.55 0 .55 0 3.35.02.85.01 1.71.03 2.59.04l1 7h-14c0-6.97 0-6.97 3.72-7.1"/><path fill="#a35055" d="M540 650h13l1 7h-14z"/><path fill="#918480" d="M608 396h14l-1 7h-13z"/><path fill="#d70f1a" d="M587 774h7v13h-7z"/><path fill="#f6ada8" d="M368 760h7v13h-7z"/><path fill="#c66366" d="M718 719h13v7h-13z"/><path fill="#bf6f74" d="M718 670h7v14h6v1l-11 1v6l-2 1v-2h-7v-6c2.14-.16 2.14-.16 13-1v-13h-6z"/><path fill="#542518" d="M574 663v7h-14v-6c4.72-.77 9.22-1.1 14-1"/><path fill="#d28b90" d="M306 657h7v13h-7z"/><path fill="#af4f53" d="M457 630h7v6h6v7h-7v-7h-6z"/><path fill="#9c454b" d="M697 623h7v13h-7z"/><path fill="#a65231" d="M560 575h13v7h-13z"/><path fill="#a04f56" d="M601 568h13v7h-13z"/><path fill="#f19e6f" d="M485 540h6v14h-7z"/><path fill="#e36963" d="M560 509h13v7h-13z"/><path fill="#df716e" d="M539 506h21v3h-14v4h-7z"/><path fill="#eda878" d="M560 492h13v7h-13z"/><path fill="#e39866" d="M560 486h14v13h-1v-7h-13z"/><path fill="#f6e6cd" d="M560 458h13v7h-13z"/><path fill="#f8d8bc" d="M560 424h7v13h-7z"/><path fill="#e29778" d="M437 410h13v7h-13z"/><path fill="#e58c6b" d="M491 349h7v13h-7z"/><path fill="#933439" d="M683 643h8v34h6v7h-7v-40h-7z"/><path fill="#deb2b3" d="M340 595h14v1h-13v20h-8v-8h7z"/><path fill="#e19e71" d="M526 424h7l-1 14h-6z"/><path fill="#c36641" d="M581 602h6v13h-7c-.03-1.79-.05-3.58-.06-5.38-.01-.99-.03-1.99-.04-3.02.1-2.6.1-2.6 1.1-4.6"/><path fill="#890913" d="M637 600h2v2h3v14h-6q-.045-3.72-.06-7.44c-.01-.35-.01-.35-.03-2.14-.01-1.81.04-3.61.09-5.42z"/><path fill="#af6448" d="M498 420h19v1h-12v3h6v1h-7v6h-6z"/><path fill="#e9908d" d="M388 623h7v13h-6c-1-3.01-1.1-5.04-1.06-8.19.01-.9.02-1.8.02-2.73.02-.69.03-1.37.04-2.08"/><path fill="#e8916b" d="M580 458h7v13h-6c-1-3.01-1.1-5.04-1.06-8.19.01-.9.02-1.8.02-2.73.02-.69.03-1.37.04-2.08"/><path fill="#f5a880" d="M526 444h13v7h-13l1-5z"/><path fill="#cb2225" d="M450 630h7v6h6v7h-6l-1-6c-.99-.16-.99-.16-6-1z"/><path fill="#d13036" d="M382 602h7l1 5h6v29h-1v-27h-13z"/><path fill="#f49970" d="M485 520h7v7h6v6h-7v-7h-6z"/><path fill="#be5c37" d="M629 478h6v14c-2 1-2 1-6 0z"/><path fill="#625851" d="M635 355c2.31.17 2.31.17 14 1v6h-13z"/><path fill="#daddde" d="M471 294h6v7h-6v6h-7v-6l6-1z"/><path fill="#8e0911" d="M711 732h6v14h-6z"/><path fill="#993d41" d="M711 719h6l1 13h-7z"/><path fill="#f3a1a2" d="m436 582 7 1v12h-7z"/><path fill="#703423" d="M622 527h6v13h-7z"/><path fill="#f0a87f" d="M546 479h14v6h-14z"/><path fill="#fbcdaa" d="M546 459h7v12h-7z"/><path fill="#662712" d="M649 437h6v7h-3v14h-3z"/><path fill="#867c7a" d="M437 396h6v14h-6z"/><path fill="#f39164" d="M485 362h6v14h-6z"/><path fill="#cf7252" d="M601 335h14v6h-14z"/><path fill="#848183" d="M491 335h14v6h-14z"/><path fill="#c0c1c4" d="M498 328h14v6h-14z"/><path fill="#8b8d8e" d="M444 314h6v14h-6z"/><path fill="#8e9090" d="M498 253h14v6h-14z"/><path fill="#613f30" d="M642 486h14v6h-14z"/><path fill="#f29b75" d="M590.941 334.902c.6.01.6.01 3.62.04.6 0 .6 0 3.63.02.93.01 1.85.03 2.81.04v6h-14c0-5.97 0-5.97 3.94-6.1"/><path fill="#d0d2d3" d="M540 280h13v6h-14z"/><path fill="#a12027" d="M395 732h6l-1.97 1.6c-2.63 3.1-2.54 4.79-2.58 8.82l-.06 3.94v4.25c-.01 1.45-.03 2.9-.05 4.35-.04 3.82-.06 7.63-.08 11.45-.02 3.89-.06 7.79-.1 11.68-.08 7.64-.13 15.27-.16 22.91h-1z"/><path fill="#f6bcb8" d="M282 774h3v13h-7c-.12-7.75-.12-7.75 1-10h2z"/><path fill="#dc926b" d="M462 464c2 3 2 3 2 7h-14v-6c.78.01 1.56.02 2.37.04 1.01 0 2.02.01 3.07.02.5.01.5.01 3.06.04 2.5-.1 2.5-.1 3.5-1.1"/><path fill="#767676" d="M615 266h14v7h-1v-6l-1 5c-3.98 1.33-7.85 1.07-12 1z"/><path fill="#db8f91" d="M279 740h6v13h-6z"/><path fill="#923f44" d="M718 671h6v13h-6z"/><path fill="#d1878c" d="M300 671h6v13h-6z"/><path fill="#ce8183" d="M313 644h6v13h-6z"/><path fill="#974347" d="M704 637h6v13h-6z"/><path fill="#72090e" d="M505 637h13v6h-13z"/><path fill="#d28284" d="M320 630h6v13h-6z"/><path fill="#d18489" d="M327 616h6v13h-6z"/><path fill="#da8075" d="M478 582h6v13h-6z"/><path fill="#b76166" d="M430 575h13v6h-13z"/><path fill="#f8ba92" d="M478 568h6v13h-6z"/><path fill="#f49f72" d="M574 548h13v6h-13z"/><path fill="#6f3526" d="M629 513h6v13h-6z"/><path fill="#8b4f38" d="M471 506h6v13h-6z"/><path fill="#bf4e3f" d="M560 499h13v6h-13z"/><path fill="#d47b52" d="M560 472h13v6h-13z"/><path fill="#8f4422" d="M574 472h13v6h-13z"/><path fill="#ba6440" d="M546 472h13v6h-13z"/><path fill="#fcd2af" d="M560 465h13v6h-13z"/><path fill="#bb643e" d="M608 438h13v6h-13z"/><path fill="#ce6e58" d="M444 417h6v13h-6z"/><path fill="#484447" d="M649 424h6v13h-6z"/><path fill="#924428" d="M608 410h13v6h-13z"/><path fill="#ababae" d="M629 342h13v6h-13z"/><path fill="#b7725d" d="M505 335h13v6h-13z"/><path fill="#d8dadc" d="M478 335h6v13h-6z"/><path fill="#abaeb2" d="M533 328h13v6h-13z"/><path fill="#e2e4e4" d="M512 328h13v6h-13z"/><path fill="#5c5d5f" d="M663 322h6v13h-6z"/><path fill="#5e6162" d="M656 308h6v13h-6z"/><path fill="#c8c8c8" d="M485 287h6v13h-6z"/><path fill="#666769" d="M594 253h13v6h-13z"/><path fill="#f5a47b" d="M601 450h21v8h-1v-7h-13v7h-7z"/><path fill="#e58a64" d="M547 417h5v13h-6q-.045-2.97-.06-5.94c-.01-1.1-.03-2.2-.04-3.34.1-2.72.1-2.72 1.1-3.72"/><path fill="#b46240" d="M621 410h1v7h6v1h-7v5h-6v-6h-20v-1h26z"/><path fill="#f7aeaa" d="M368 815h7v11h-7z"/><path fill="#e2b3b5" d="M463 547h14v1h-13v6h6v1h-6v6h-7v-7h6z"/><path fill="#b9a5a2" d="M532 328h1v6h13v-6h6v5c2.31.17 2.31.17 14 1v1h-34z"/><path fill="#8f2523" d="m546 712 7 1v5h27v-6h1v7h-34z"/><path fill="#a4a6a7" d="M568 273h12v6h-13z"/><path fill="#b25a5d" d="m608 608-1 14h-5v-13c5-1 5-1 6-1"/><path fill="#f8c3c1" d="M450 568h4c-.31 1.07-.62 2.14-.94 3.25-1.39 5.51-1.7 11.1-2.06 16.75h-1v-7h-6v-6h6z"/><path fill="#804127" d="M505 548h6v3h8l1-2c.04 1.67.04 3.33 0 5l-1 1c-2.36-.09-4.71-.25-7.06-.44-1.29-.1-2.58-.2-3.91-.31-.5-.04-.5-.04-3.03-.25z"/><path fill="#54342a" d="M512 421h20v3h-6v7h-15v-6h1v5h13l-1-7h-12z"/><path fill="#56565a" d="M663 404h6v12h-6z"/><path fill="#858686" d="M621 273h1v20h7v1h-8v-7h-6v-7h6z"/><path fill="#a4a6a7" d="M567 252a1707 1707 0 0 1 10.12-.06c.48-.01.48-.01 2.89-.03 4.78-.01 9.29.08 13.99 1.09v7h-7v-7h-20z"/><path fill="#902f35" d="M525 644h1v6h14v7h-8v-6h-7z"/><path fill="#73311e" d="M643 458h5l1 13h-6z"/><path fill="#fbc096" d="M509 417h23v3h-23z"/><path fill="#f6a9a2" d="M547 509c4.16-.08 7.95.02 12 1v5c-1.81.03-3.62.05-5.44.06-1.01.01-2.02.03-3.06.04-2.5-.1-2.5-.1-3.5-1.1-.04-1.67-.04-3.33 0-5"/><path fill="#f0bd96" d="M498 403h21v7h-7v-5l-13-1v5h-1z"/><path fill="#ac5833" d="M539 568h7l1 3-1 2c2.31.16 2.31.16 14 1v1h-21z"/><path fill="#7a3a24" d="M546 565h21l-1 4-20-1z"/><path fill="#cc6d48" d="M532 417h7v7h-7v-3h-15v-1h15z"/><path fill="#b8bbbe" d="M471 362h13v1h-5v12h-2v-6h-6z"/><path fill="#5b595b" d="M643 362h6v9l-3 1c-1.19 2.06-1.19 2.06-2 4h-1z"/><path fill="#7a3f27" d="M573 678h1c.03 3.37.05 6.75.06 10.12l.03 2.89c.01 4.78-.08 9.29-1.09 13.99h-6v-7h6z"/><path fill="#b35459" d="M697 657h7v7c.99.16.99.16 6 1-3 2-3 2-7 2v-3h-6z"/><path fill="#eb9570" d="M525 630h1v6h13c1.33 2.67.67 4.17 0 7h-7v-6h-7z"/><path fill="#963133" d="M621 630h7v6h14v1h-21z"/><path fill="#4d2d1b" d="M608 424h7v9h-7z"/><path fill="#aa583e" d="M628 513h1v13h6v1h-13v-7h6z"/><path fill="#a54630" d="M587 506h7v7h-20v-1h13z"/><path fill="#c16545" d="M587 458h7v6h-6v13h-1v-5h-7v-1h7z"/><path fill="#bf8b7a" d="M470 417h1v20h-7v-7h6z"/><path fill="#959598" d="M622 321h7q.06 3 0 6c-1 1-1 1-4.06 1.06L622 328v6h-1v-6h-7v-1h8z"/><path fill="#f3a67e" d="M546 431h7v7h-13v6h-1v-7h7z"/><path fill="#9b5441" d="M587 417h1v7h6l1 9-1-2h-7z"/><path fill="#78797c" d="M663 341h7v14l5 1 1 6h-6c-.88-4.52-1.11-8.78-1.06-13.38.01-1.24.02-2.49.02-3.77.01-.47.01-.47.04-2.85h-6z"/><path fill="#d3865b" d="M574 516h13v10h-5v-9h-8z"/><path fill="#d6d6d8" d="M457 396h7c.03 2.15.05 4.29.06 6.44.01 1.19.03 2.39.04 3.62C464 409 464 409 463 410q-3 .06-6 0-.06-3 0-6c1-1 1-1 3.56-1.06l2.44.06v-6h-6z"/><path fill="#3c251c" d="M505 421h7v2h5v7h-5c-.17-.82-.17-.82-1-5-.99-.17-.99-.17-6-1z"/><path fill="#a64a4e" d="M732 719h6v13l-2-1 1-4h-5z"/><path fill="#911d24" d="M545 657h8v7h-8z"/><path fill="#b25857" d="M498 636h14v1h-7v6h-7z"/><path fill="#fac294" d="M498 574h7v8h-7z"/><path fill="#9f5336" d="M484 520h1v6h6v8h-7z"/><path fill="#962727" d="M558 504c2.54.09 5.04.24 7.56.44.36.02.36.02 2.16.16 1.76.13 3.52.26 5.28.4v4h-13v-3l-3-1z"/><path fill="#94482b" d="M635 472h7v6h-6v14h-1z"/><path fill="#e5a99c" d="M594 434h14v4h-14z"/><path fill="#ae5737" d="M621 418h7v5h7l-1 5-1-3-12-1z"/><path fill="#a8a9ab" d="M642 348h7v8h-7z"/><path fill="#a1a3a6" d="M491 341h7v8h-7z"/><path fill="#e6e6e7" d="M484 314h7v7h-14v-1h7z"/><path fill="#933239" d="M738 788h1c.02 4.06.04 8.11.05 12.17l.03 4.14c.01 1.98.01 3.97.02 5.96 0 1.19.01 2.38.01 3.61-.09 2.59-.34 4.67-1.11 7.12h-7v-6l3 4 1-3h3z"/><path fill="#a50b14" d="m687.563 697.938 3.44.06v7h-8c-.05-2-.04-4 0-6 1-1 1-1 4.56-1.06"/><path fill="#934227" d="M588 602h6v8h-2v-2h-4v14h-1c-.03-2.4-.05-4.79-.06-7.19l-.03-2.04c-.02-3.72.2-7.15 1.09-10.77"/><path fill="#dcdddd" d="M471 349h6v6h7v7h-1v-6h-12z"/><path fill="#da6d6e" d="M395 636h1v15h5v6h-5l-1 3z"/><path fill="#ec9d75" d="M525 502h8v4h6v7h-6l-1-10h-7z"/><path fill="#d98364" d="M457 458h7v9l-2-2c-2.62.38-2.62.38-5 1z"/><path fill="#eaeae9" d="M467.723 347.902c.55.01.55.01 3.34.04.55 0 .55 0 3.35.02.85.01 1.71.03 2.59.04v1h-6v6h-7c-.05-2-.04-4 0-6 1-1 1-1 3.72-1.1"/><path fill="#babcbe" d="M587 308h7v7h-6c-.16.66-.16.66-1 4z"/><path fill="#7e452a" d="m547 677 13 1v6h-7l-1-6h-5z"/><path fill="#9b482b" d="M533 410h6v7c-7.43.29-7.43.29-11-2h4z"/><path fill="#f3af87" d="M525 602h7c-.33.16-.33.16-2 1v6h-4v14h-1z"/><path fill="#7a352d" d="M601 574v8l-7 1v-8c5.88-1 5.88-1 7-1"/><path fill="#f29d70" d="M614 348h8v7h-7z"/><path fill="#e1b4a0" d="M525 324h7v3h-6v8h2l-2 4-1-4h-13v-1h13z"/><path fill="#933d42" d="M685 609h5v7h-13v-1h6c.07-.31.07-.31.44-1.88C684 611 684 611 685 609"/><path fill="#f2afaf" d="M450 609h8l-1 7h-7z"/><path fill="#cc444e" d="M429 582h1v6h6v7h-6c-1.1-4.41-1.08-8.48-1-13"/><path fill="#88493b" d="M654 454h3v3h5v1h-6v28h-1c-.03-.76-.05-1.52-.08-2.31q-.165-5.19-.36-10.38l-.12-3.63-.12-3.5c-.04-1.07-.08-2.13-.11-3.23-.21-2.95-.21-2.95-.79-5.77-.14-.72-.28-1.44-.42-2.18z"/><path fill="#c0a08b" d="M498 403v7h-7v-7c3.13-1.04 3.99-.93 7 0"/><path fill="#807e84" d="M649 362h1v14h5v6h-6z"/><path fill="#9e5055" d="M745 821h7v5h-21v-1h14z"/><path fill="#a60913" d="M683 719h7v7h-7z"/><path fill="#a56249" d="M546 705h7v7h-7z"/><path fill="#b50c18" d="M649 698h7v7h-7z"/><path fill="#c57154" d="M539 698h7v7h-7z"/><path fill="#ec9492" d="M375 698h7v7h-7z"/><path fill="#c54f55" d="M477 650h7v7h-7z"/><path fill="#ce121a" d="M450 650h7v7h-7z"/><path fill="#973235" d="M491 643h7v7h-7z"/><path fill="#df7d7f" d="M484 643h7v7h-7z"/><path fill="#974645" d="m594 629 13 1v6h-7v-6h-6z"/><path fill="#d4774f" d="M539 630h7v7h-7z"/><path fill="#ed9567" d="M560 623h7v7h-7z"/><path fill="#f8caa2" d="M505 602h7v7h-7z"/><path fill="#d27b76" d="M491 602h7v7h-7z"/><path fill="#ed9a96" d="M484 602h7v7h-7z"/><path fill="#db8279" d="M484 595h7v7h-7z"/><path fill="#b7484e" d="M436 595h7v7h-7z"/><path fill="#843d2b" d="M580 582h1v7h6v6h-7z"/><path fill="#c96a70" d="M601 575h7v7h-7z"/><path fill="#d0868b" d="M450 561h7v7h-7z"/><path fill="#de7c53" d="M505 561h7v7h-7z"/><path fill="#b0573b" d="M505 554h7v7h-7z"/><path fill="#d47754" d="M498 554h7v7h-7z"/><path fill="#ad563d" d="M532 554h7v7h-7z"/><path fill="#cd6d4d" d="M477 554h7v7h-7z"/><path fill="#843620" d="M594 547h7v7h-7z"/><path fill="#d87a58" d="M525 547h7v7h-7z"/><path fill="#d7794d" d="M491 547h7v7h-7z"/><path fill="#d3774e" d="M484 534h7v6h-6v7h-1z"/><path fill="#f5f4c3" d="M450 471h7v7h-7z"/><path fill="#e7896a" d="M532 465h7v7h-7z"/><path fill="#e27f59" d="M594 458h7v7h-7z"/><path fill="#8f7870" d="M457 437h7v7h-7z"/><path fill="#ca6d49" d="M491 424h7v7h-7z"/><path fill="#ae5539" d="M635 410h7v7h-7z"/><path fill="#9c4d38" d="M580 410h7v7h-7z"/><path fill="#b49b97" d="M587 403h7v7h-7z"/><path fill="#c17b5e" d="M546 403h7v7h-7z"/><path fill="#818487" d="M635 348h7v7h-7z"/><path fill="#716761" d="M628 348h7v7h-7z"/><path fill="#f7a77e" d="M498 348h7v7h-7z"/><path fill="#f2a175" d="M601 341h7v7h-7z"/><path fill="#c07257" d="M498 341h7v7h-7z"/><path fill="#b8b8b9" d="M580 307h1v14h-6v-7h5z"/><path fill="#8c8d8f" d="M635 307h7v7h-7z"/><path fill="#8f9192" d="M450 307h7v7h-7z"/><path fill="#c9ccce" d="M457 307h7v7h-7z"/><path fill="#dfe2e2" d="M518 287h1v13h-7v-6h6z"/><path fill="#e1e3e3" d="M491 293h13v7h-6v-6h-7z"/><path fill="#919292" d="M594 273h7v7h-7z"/><path fill="#8c8e8f" d="M477 266h7v7h-7z"/><path fill="#8c452c" d="M560 568q3-.06 6 0c1 1 1 1 1.06 4.06L567 575h-7z"/><path fill="#bd6742" d="m591.063 546.938 2.94.06v7h-7c-.05-2-.04-4 0-6 1-1 1-1 4.06-1.06"/><path fill="#a94934" d="M588 464h6v8h-6z"/><path fill="#b1aead" d="m508.063 395.938 2.94.06v7h-7c-.05-2-.04-4 0-6 1-1 1-1 4.06-1.06"/><path fill="#c3674a" d="M629 355h6v8h-6z"/><path fill="#d26f48" d="M615 341q3-.06 6 0c1 1 1 1 1.06 4.06L622 348h-7z"/><path fill="#7d7875" d="M601 328h8v6h-8z"/><path fill="#d58771" d="M526 327h6v8h-6z"/><path fill="#e3e4e4" d="M477 286q3-.06 6 0c1 1 1 1 1.06 4.06L484 293h-7z"/><path fill="#e28a8a" d="M505 629c1.79-.03 3.58-.05 5.38-.06.99-.01 1.99-.03 3.02-.04 2.6.1 2.6.1 4.6 1.1v6h-6v-6h-7z"/><path fill="#f6b990" d="m539 492 8 1-1 6h-7z"/><path fill="#885341" d="M437 431c.33.17.33.17 2 1v17h4v2h-6z"/><path fill="#fad6b5" d="M560 437h7l-1 7h-6z"/><path fill="#ad5c3c" d="M525 410h8l-1 7h-7z"/><path fill="#e1e3e4" d="M498 259h14v1l-8 1v5h-6z"/><path fill="#ab0b14" d="M670 706h6c1.1 4.41 1.08 8.48 1 13h-1v-7h-6z"/><path fill="#f2c2bd" d="M299 685h7v6h-6l-1 3z"/><path fill="#f2c3a4" d="M540 677h6v8c-.99-.16-.99-.16-6-1z"/><path fill="#b96061" d="M594 630h6l1 12h-1v-5c-.99-.16-.99-.16-6-1z"/><path fill="#b37c4a" d="M457 480h6l1 6h-14v-1h7z"/><path fill="#e49466" d="M594 478v1h-6l-1 6h-6v-6c4.39-.86 8.53-1.09 13-1"/><path fill="#f7c1b2" d="M505 458h6l1 7h-7z"/><path fill="#f8ad84" d="M542.5 450.875c2.5.12 2.5.12 3.5 1.12.14 2.68.04 5.33 0 8l-2-3h-4c-.33 1-.66 1.99-1 3-.1-6.15-.1-6.15 0-8 1-1 1-1 3.5-1.12"/><path fill="#aca2a3" d="M498 396h7l-1 7-7-1z"/><path fill="#fbb1af" d="M580 644h10l-2 5h-8z"/><path fill="#f4c0b9" d="M354 596h8c.04 1.67.04 3.33 0 5-1 1-1 1-4.56 1.06L354 602z"/><path fill="#bc5d3e" d="M602 478c2.34.29 4.67.62 7 1l-2 6h-6q-.06-3 0-6z"/><path fill="#f9be96" d="M601 389h6l1 7h-7z"/><path fill="#f5af82" d="M608 348h6l1 7-7 1z"/><path fill="#b45762" d="M525 643h7v7h-6z"/><path fill="#821013" d="M498 643h7l-1 7h-6z"/><path fill="#dd7f54" d="M567 623h6c.38 1.99.71 3.99 1 6-1 1-1 1-4.06 1.06L567 630z"/><path fill="#c26133" d="M581 622h6v7l-3 1-3-2c-.19-3.12-.19-3.12 0-6"/><path fill="#af5d3c" d="M581 554h6v7h-7z"/><path fill="#e17d5b" d="M601 465h7v6l-7 1z"/><path fill="#b8b9bd" d="m443 403 7 1v6h-7z"/><path fill="#cdced0" d="M491 341v7h-7v-6c5.88-1 5.88-1 7-1"/><path fill="#a9aaaf" d="M649 321h7v6l-7 1z"/><path fill="#aa0e18" d="M711 746h6v7h-6z"/><path fill="#c80f19" d="M670 712h6v7h-6z"/><path fill="#5b2e16" d="M574 698h6v7h-6z"/><path fill="#83282d" d="M690 678h7v6h-7z"/><path fill="#c0131a" d="M525 671h7v6h-7z"/><path fill="#714633" d="M574 671h7v6h-7z"/><path fill="#9f1823" d="M403 670h6v7h-6z"/><path fill="#a81c20" d="M560 657h7v6h-7z"/><path fill="#ca6760" d="M553 650h7v6h-7z"/><path fill="#b05c5b" d="M546 650h7v6h-7z"/><path fill="#b3484f" d="M470 644h7v6h-7z"/><path fill="#d27166" d="M539 643h7v7h-5z"/><path fill="#88090f" d="M518 644h7v6h-7z"/><path fill="#d47c70" d="M525 637h7v6h-7z"/><path fill="#7f1519" d="M635 637h7v6h-7z"/><path fill="#d88789" d="M587 637h7v6h-7z"/><path fill="#b2593e" d="M581 636h6v7h-6z"/><path fill="#f6bdb8" d="M334 636h6v7h-6z"/><path fill="#af4d4c" d="M628 630h7v6h-7z"/><path fill="#92272d" d="M676 623h7v6h-7z"/><path fill="#9f4a53" d="M690 616h7v6h-7z"/><path fill="#8a2a2f" d="M636 609h6v7h-6z"/><path fill="#a62c35" d="M444 609h6v7h-6z"/><path fill="#cb6c6b" d="M382 602h6v7h-6z"/><path fill="#d07b4f" d="M567 602h6v7h-6z"/><path fill="#c51d27" d="M437 602h6v7h-6z"/><path fill="#c85f65" d="M375 595h6v7h-6z"/><path fill="#c97142" d="M567 595h6v7h-6z"/><path fill="#62291e" d="M581 582h6v7h-6z"/><path fill="#e5865a" d="M532 575h7v6h-7z"/><path fill="#ca7568" d="M471 568h6v7h-6z"/><path fill="#77311d" d="M587 554h7v6h-7z"/><path fill="#b95964" d="M464 548h7v6h-7z"/><path fill="#aa523a" d="M478 547h6v7h-6z"/><path fill="#e48a5e" d="M485 540h6v7h-6z"/><path fill="#e58c5f" d="M608 527h6v7h-6z"/><path fill="#b15733" d="M601 499h6v7h-6z"/><path fill="#e88c62" d="M471 499h6v7h-6z"/><path fill="#9a4b2f" d="M608 485h6v7h-6z"/><path fill="#dc9064" d="M560 486h7v6h-7z"/><path fill="#6f605a" d="M457 486h7v6h-7z"/><path fill="#e68963" d="M512 485h6v7h-6z"/><path fill="#875c35" d="M450 479h7v6h-7z"/><path fill="#e28a62" d="M539 472h7v6h-7z"/><path fill="#bd7b27" d="M457 472h7v6h-7z"/><path fill="#f8ad88" d="M451 458h6v7h-6z"/><path fill="#b85539" d="M581 451h6v7h-6z"/><path fill="#e3845f" d="M635 438h7v6h-7z"/><path fill="#f1a97a" d="M628 438h7v6h-7z"/><path fill="#f9ca9d" d="M553 438h7v6h-7z"/><path fill="#542d21" d="M649 437h6v7h-6z"/><path fill="#dd9c74" d="M615 431h1v7h-8v-5h7z"/><path fill="#ba5f3d" d="M622 431h7v6h-7z"/><path fill="#b7593a" d="M580 431h7v6h-7z"/><path fill="#918c85" d="M504 425h7v6h-7z"/><path fill="#895133" d="M533 424h6v7h-6z"/><path fill="#9c9995" d="M526 424h7v6h-7z"/><path fill="#59685d" d="M615 424h7v6h-7z"/><path fill="#100700" d="M601 424h7v6h-7z"/><path fill="#6e321f" d="M498 424h6v7h-6z"/><path fill="#d9a496" d="M450 424h7v6h-7z"/><path fill="#a7583d" d="M574 417h6v7h-6z"/><path fill="#545257" d="M656 417h6v7h-6z"/><path fill="#c96f43" d="M628 417h7v6h-7z"/><path fill="#d67451" d="M540 410h6v7h-6z"/><path fill="#ef9c6f" d="M505 410h7v6h-7z"/><path fill="#c2633f" d="M608 404h7v6h-7z"/><path fill="#78665f" d="M628 397h7v6h-7z"/><path fill="#adb5c2" d="M594 397h7v6h-7z"/><path fill="#af8e84" d="M470 390h7v6h-7z"/><path fill="#db8b5d" d="M621 390h7v6h-7z"/><path fill="#afaeb1" d="M463 390h7v6h-7z"/><path fill="#d8dbdd" d="M464 376h6v7h-6z"/><path fill="#a5a5a7" d="M663 369h6v7h-6z"/><path fill="#d6d9db" d="M471 369h6v7h-6z"/><path fill="#ba7f68" d="M485 362h6v7h-6z"/><path fill="#9d9da2" d="M649 356h7v6h-7z"/><path fill="#7a7a7e" d="M642 356h7v6h-7z"/><path fill="#cb6c4b" d="M622 348h6v7h-6z"/><path fill="#b47157" d="M491 349h7v6h-7z"/><path fill="#8e979e" d="M484 349h7v6h-7z"/><path fill="#808387" d="M642 342h7v6h-7z"/><path fill="#fcb789" d="M511 342h7v6h-7z"/><path fill="#ea9e79" d="M518 335h7v6h-7z"/><path fill="#626465" d="M628 335h7v6h-7z"/><path fill="#8e9394" d="M491 335h7v6h-7z"/><path fill="#dd7954" d="M581 328h6v7h-6z"/><path fill="#c57556" d="M567 328h6v7h-6z"/><path fill="#a9a9ab" d="M615 321h7v6h-7z"/><path fill="#c9cacb" d="M450 314h7v6h-7z"/><path fill="#5e6163" d="M642 308h7v6h-7z"/><path fill="#e4e6e6" d="M471 294h6v7h-6z"/><path fill="#8c8c8d" d="M629 280h6v7h-6z"/><path fill="#99999a" d="M608 280h7v6h-7z"/><path fill="#e1e2e3" d="M560 253h7v6h-7z"/><path fill="#f5a9a6" d="M382 746c1.67-.04 3.33-.04 5 0 1 1 1 1 1.06 4.06L388 753h-6z"/><path fill="#ba0e17" d="M698 732c1.67-.04 3.33-.04 5 0 1 1 1 1 1.06 4.06L704 739h-6z"/><path fill="#5a2c18" d="M567 705h6v7c-1.67.04-3.33.04-5 0-1-1-1-1-1.06-4.06z"/><path fill="#68382b" d="M553 663c.99.16.99.16 6 1v6l-6 1z"/><path fill="#f9b386" d="M485 431h6q.06 3 0 6c-1 1-1 1-3.56 1.06L485 438z"/><path fill="#824030" d="M635 404q3-.06 6 0c1 1 1 1 1.06 3.56L642 410h-7z"/><path fill="#68686b" d="M663 335h7c.04 1.67.04 3.33 0 5-1 1-1 1-4.06 1.06L663 341z"/><path fill="#717377" d="M643 320h5l1 8h-6z"/><path fill="#b3b5b7" d="M561 273h7c.04 1.67.04 3.33 0 5-1 1-1 1-4.06 1.06L561 279z"/><path fill="#f7a9a6" d="M381 753h1v7h-7v-6l2.44.06C380 754 380 754 381 753"/><path fill="#d5784e" d="M629 465c1.67-.04 3.33-.04 5 0 1 1 1 1 1.12 3.5C635 471 635 471 634 472c-1.67.04-3.33.04-5 0z"/><path fill="#ef8b61" d="M471 465h6v7h-6z"/><path fill="#7e3f26" d="M560 671h5l1 7h-6z"/><path fill="#562b23" d="M553 657h6v7c-.99-.16-.99-.16-6-1z"/><path fill="#c65f66" d="M677 616h8l-2 6h-6z"/><path fill="#f8b893" d="M540 514h6v6h-7z"/><path fill="#bb4739" d="M560 500h8l-1 5h-7z"/><path fill="#c16b4d" d="M458 444h6v7h-6z"/><path fill="#b0593c" d="M575 437h5v7h-6z"/><path fill="#9a8580" d="M466 423h4v7h-6c-.12-2.38-.12-2.38 0-5z"/><path fill="#a7a7ab" d="M622 328h7l-1 6h-6z"/><path fill="#d87952" d="m529.563 437.938 2.44.06 1 6h-7a93 93 0 0 1 0-5c1-1 1-1 3.56-1.06"/><path fill="#757c89" d="M437 417h6v8l-1-2h-5z"/><path fill="#f2bcb8" d="M286 760h6v6l-6 1z"/><path fill="#ec8f67" d="M547 643c.99.16.99.16 6 1v6h-6z"/><path fill="#f7ad80" d="M485 554h6v7c-.99-.16-.99-.16-6-1z"/><path fill="#a75439" d="M451 438h6l1 7h-4l-1-2c-.33.17-.33.17-2 1z"/><path fill="#c68861" d="M615 430h7l-1 7h-5z"/><path fill="#d8dbdd" d="m443 397 1 3h6v3h7v1c-2.15.03-4.29.05-6.44.06-1.19.01-2.39.03-3.62.04C444 404 444 404 443 403q-.06-3 0-6"/><path fill="#eceeef" d="M457 397h6v6l-6 1z"/><path fill="#d6d8da" d="M601 321h6l1 6h-7z"/><path fill="#72432b" d="M574 705h6v6h-6z"/><path fill="#eaa7a5" d="M293 705h6l-1 7h-5z"/><path fill="#b88b74" d="M567 671h6v6h-6z"/><path fill="#cf6c72" d="M711 671h6v6h-6z"/><path fill="#5a2f1a" d="M553 671h6v6h-6z"/><path fill="#ca151a" d="M512 671h6v6h-6z"/><path fill="#703a2e" d="M567 657h6v6h-6z"/><path fill="#9a2f34" d="M595 644h6v6h-6z"/><path fill="#a6464c" d="M464 637h6v6h-6z"/><path fill="#ce181f" d="M450 630h6v6h-6z"/><path fill="#cf878a" d="M334 609h6v6h-6z"/><path fill="#843033" d="M629 589h6v6h-6z"/><path fill="#96454a" d="M622 582h6v6h-6z"/><path fill="#aa5330" d="M574 582h6v6h-6z"/><path fill="#e37d82" d="M615 582h6v6h-6z"/><path fill="#a35158" d="M615 575h6v6h-6z"/><path fill="#c66b43" d="M539 575h6v6h-6z"/><path fill="#e48b74" d="M471 575h6v6h-6z"/><path fill="#f8d0cc" d="M450 568h4c-.15.54-.15.54-.94 3.25-1.39 5.51-1.7 11.1-2.06 16.75h-1z"/><path fill="#cb7e82" d="M444 568h6v6h-6z"/><path fill="#f7b5b4" d="M464 555h6v6h-6z"/><path fill="#e69162" d="M581 548h6v6h-6z"/><path fill="#9d5b40" d="M498 541h6v6h-6z"/><path fill="#a55037" d="M615 534h6v6h-6z"/><path fill="#a65637" d="M491 534h6v6h-6z"/><path fill="#d5744f" d="M485 520h6v6h-6z"/><path fill="#622116" d="M588 500h6v6h-6z"/><path fill="#b65d3e" d="M595 493h6v6h-6z"/><path fill="#f8b689" d="M519 486h6v6h-6z"/><path fill="#d78056" d="M595 479h6v6h-6z"/><path fill="#e98c69" d="M519 479h6v6h-6z"/><path fill="#99472a" d="M553 472h6v6h-6z"/><path fill="#ee9371" d="M526 472h6v6h-6z"/><path fill="#df8961" d="M588 451h6v6h-6z"/><path fill="#da8b6a" d="M505 431v6h-7v-5c5.88-1 5.88-1 7-1"/><path fill="#66301c" d="M622 424h6v6h-6z"/><path fill="#e4a280" d="M609 417h6v6h-6z"/><path fill="#e5e5e4" d="M450 417h6v6h-6z"/><path fill="#f3aa7f" d="M498 416h27v1h-16l-1 3c-.54-.31-1.07-.62-1.62-.94-2.78-1.24-5.38-1.65-8.38-2.06z"/><path fill="#f4c3a5" d="M437 411h6v6h-6z"/><path fill="#818189" d="M656 404h6v6h-6z"/><path fill="#bec0c2" d="M437 390h6v6h-6z"/><path fill="#b2b3b8" d="M471 376h6v6h-6z"/><path fill="#a2593e" d="M635 363h6v6h-6z"/><path fill="#78665d" d="M622 342h6v6h-6z"/><path fill="#737170" d="M615 335h6v6h-6z"/><path fill="#bdbfc2" d="M643 335h6v6h-6z"/><path fill="#de825d" d="M512 335h6v6h-6z"/><path fill="#9a9c9d" d="M643 329h6v6h-6z"/><path fill="#828382" d="M574 328h6v6h-6z"/><path fill="#f1f3f4" d="M478 328h6v6h-6z"/><path fill="#5a5b5d" d="M649 301h6v6h-6z"/><path fill="#929496" d="M643 301h6v6h-6z"/><path fill="#b7b9b9" d="M485 287h6v6h-6z"/><path fill="#c5c7c8" d="M512 287h6v6h-6z"/><path fill="#9e9fa0" d="M512 280h6v6h-6z"/><path fill="#daddde" d="M471 280h6v6h-6z"/><path fill="#cecfcf" d="M519 280h6v6h-6z"/><path fill="#a9a9aa" d="M588 273h6v6h-6z"/><path fill="#8e9090" d="M471 273h6v6h-6z"/><path fill="#676868" d="M608 260h6v6h-6z"/><path fill="#e6947c" d="M546 665h7v5h-7z"/><path fill="#f4b3af" d="M505 630h7v5h-7z"/><path fill="#d67857" d="M519 541c1.67-.04 3.33-.04 5 0 1 1 1 1 1.06 3.56L525 547h-6z"/><path fill="#dd5e5f" d="M560 509h13l-1 4c-2.88.12-2.88.12-6 0l-2-2z"/><path fill="#8d291f" d="M575 509h12v3h-11z"/><path fill="#a14f30" d="M574 472h7v5h-7z"/><path fill="#fccba5" d="M560 465h6c.04 1.67.04 3.33 0 5-1 1-1 1-3.56 1.06L560 471z"/><path fill="#db845e" d="M622 438h6v6c-1.67.04-3.33.04-5 0-1-1-1-1-1.06-3.56z"/><path fill="#bf6346" d="M539 425h7v5h-7z"/><path fill="#c45a43" d="M444 417h5v7h-5z"/><path fill="#9e9fa1" d="M629 342c1.67-.04 3.33-.04 5 0 1 1 1 1 1.06 3.56L635 348h-6z"/><path fill="#a26a55" d="M594 328h7v5h-7z"/><path fill="#e9eaeb" d="M553 322h7v5h-7z"/><path fill="#e7e8e8" d="M512 253h6v6c-1.67.04-3.33.04-5 0-1-1-1-1-1.06-3.56z"/><path fill="#b5584e" d="M560 651h5c-.5.66-.5.66-3 4l11 1v1h-19v-1h6z"/><path fill="#cd8187" d="M457 555h6v5l-6 1z"/><path fill="#c46f45" d="M629 404h6v5c-3 1-3 1-6 1z"/><path fill="#860f12" d="M581 706h7l-2 6h-5z"/><path fill="#ea8661" d="M574 554h7v6l-7-1z"/><path fill="#954a2e" d="M505 548h6v3h8v1h-14z"/><path fill="#d0764b" d="M511 547h8v4h-8z"/><path fill="#a25639" d="M457 452h6v5l-6 1z"/><path fill="#f8e4d0" d="M562 430h4v7h-5z"/><path fill="#75321e" d="M615 541h6v6c-.99-.16-.99-.16-6-1z"/><path fill="#dd9c80" d="M540 672h6v5h-6z"/><path fill="#ba6167" d="M520 636h5v6h-5z"/><path fill="#5e2615" d="M580 561h7l-1 5c-.99-.16-.99-.16-6-1z"/><path fill="#3f140a" d="M601 548h6v5h-6z"/><path fill="#ea956e" d="M520 404h5v6h-5z"/><path fill="#828587" d="M458 301h5v6h-5z"/><path fill="#939494" d="M629 294h6v5h-6z"/><path fill="#b6b6b7" d="M601 260h6v5h-6z"/><path fill="#921d25" d="M395 732h6c-.64.51-1.29 1.02-1.95 1.55-2.73 3.26-2.64 5.49-2.8 9.7-.06 1.26-.11 2.53-.17 3.83-.03.96-.05 1.93-.08 2.92h-1z"/><path fill="#85383c" d="M725 685h6v10h-2c-.12-5.75-.12-5.75 1-8l-5 2z"/><path fill="#e9ebed" d="M453 321h4l1 7h-8l3-1z"/><path fill="#c46167" d="M704 678h7l-1 5-5-1z"/><path fill="#823a26" d="M622 527h5l-1 7h-4z"/><path fill="#bd5b42" d="m573 509 1 4h7v3h-8z"/><path fill="#8b6559" d="M465 485h5v6l-5-1z"/><path fill="#e68f6e" d="M449 432h1v19l-4-1c.32-.51.63-1.02.96-1.55 1.38-3.25 1.47-6.18 1.66-9.7.08-1.26.15-2.53.23-3.83z"/><path fill="#757577" d="M657 370h5v6h-4z"/><path fill="#f8e0c7" d="M553 459v6h-6c.81-2.44.81-2.44 2-5 3-1 3-1 4-1"/><path fill="#dadbdb" d="M567 259h20v1c-1.11.31-2.23.62-3.38.94C580 262 580 262 578 263v-3l-11 1z"/><path fill="#882129" d="m731 815 3 4 1-3h3v5h-7z"/><path fill="#951218" d="M731 802h1v6h2l-2 7h-8v-1h7z"/><path fill="#dd8b8f" d="M343 603h4v6h-6l2-1z"/><path fill="#78331d" d="M646 444h3v14c-1.81-3.62-2.32-5.37-2.62-9.25-.08-.89-.15-1.78-.23-2.7-.05-.68-.1-1.35-.15-2.05"/><path fill="#9a5f4d" d="M437 430h6l-3 9h-1c-.14-1.11-.29-2.23-.44-3.38C438 432 438 432 437 430"/><path fill="#af111a" d="M594 650h7l-1.94.94C597 652 597 652 596 653a95 95 0 0 0-.06 5.06c.01.92.02 1.84.02 2.79.02.71.03 1.42.04 2.15-.33.16-.33.16-2 1z"/><path fill="#94472a" d="M574 561h6v4h-7z"/><path fill="#682e22" d="M608 547h5v5h-5z"/><path fill="#eca981" d="M574 517h8v3h-9z"/><path fill="#b85c3e" d="M560 479c.83.17.83.17 5 1l-1 5h-4z"/><path fill="#b95a5c" d="M724 685v6h-5c.38-2.44.38-2.44 1-5 2-1 2-1 4-1"/><path fill="#d8847f" d="M494 602h4v7h-4z"/><path fill="#ab5937" d="m546 561 8 1-1 3h-7z"/><path fill="#9c4e33" d="M520 547h5v8l-3-1v-6z"/><path fill="#b66045" d="M525 499h8v3h-8z"/><path fill="#9b312a" d="M533 499h6v4h-6z"/><path fill="#dd7a4f" d="M615 404h5l-2 5 2 1h-5z"/><path fill="#be6649" d="M615 341q3-.06 6 0c1 1 1 1 1.06 4.06L622 348l-3-4-4 1z"/><path fill="#d97e57" d="M514 499h11v3h-6v-2h-5z"/><path fill="#f8ac86" d="M547 529h5v4h-6z"/><path fill="#472115" d="M505 421h7l-1 4c-.99-.17-.99-.17-6-1z"/><path fill="#e5c3ba" d="M525 324h7v3l-7 1z"/><path fill="#b05157" d="M745 821h7v3h-7z"/><path fill="#7e4e38" d="M608 430h7v3h-7z"/><path fill="#ed966a" d="M525 417h7v3h-7z"/><path fill="#63301c" d="M553 706h5v4h-5z"/><path fill="#713628" d="M648 436h1v8h-3c.88-6.88.88-6.88 2-8"/><path fill="#9ea5a3" d="M505 425h6v6c-.43-.5-.87-.99-1.31-1.5C508 428 508 428 505 428z"/><path fill="#e8a57f" d="m594 417 1 3c1.85.73 1.85.73 4.06 1.19.74.16 1.47.31 2.23.48q.84.165 1.71.33v1h-9z"/><path fill="#9b9ea2" d="M569 322h4v5h-4z"/><path fill="#8c4347" d="M701 623h3v6l-3-1c-.75-2-.75-2-1-4z"/><path fill="#cd7c57" d="M581 513h6v3h-6z"/><path fill="#8c695c" d="M457 438h6v2l-5 1-1 3z"/><path fill="#773827" d="M526 421h6v3h-6z"/><path fill="#96969a" d="M655 369h1v7l-4-1 1-4h2z"/><path fill="#985238" d="M636 364h2l1 2h2v3h-5z"/><path fill="#6e6461" d="M635 355h7l-3 6h-1v-5z"/><path fill="#a04547" d="m704 684 1 2h4v3h-5z"/><path fill="#6e2818" d="M594 555v5c-.99-.16-.99-.16-6-1 3.83-4 3.83-4 6-4"/><path fill="#a1462d" d="m592 507 2 1v5l-5-1z"/><path fill="#bf4f43" d="M533 503h5l1 3h-6z"/><path fill="#834d39" d="M437 446c.33.17.33.17 2 1v2h4v2h-6z"/><path fill="#d1865d" d="M621 432v5h-5c0-2 0-2 1.38-3.62C619 432 619 432 621 432"/></svg>