<svg xmlns="http://www.w3.org/2000/svg" width="966" height="966"><path fill="#c19c65" d="M523.605 58.87c1.2 0 2.4-.01 3.63-.01 1.3 0 2.61 0 3.95.01 1.34 0 2.68-.01 4.03-.01 2.81 0 5.63 0 8.44.01h10.85q4.155-.015 8.31 0c1.98 0 3.97-.01 5.95-.01.6 0 .6 0 3.63.01h3.21c2.39.13 2.39.13 3.39 1.13.08 1.85.09 3.71.07 5.56l-.03 3.07c-.01.39-.01.39-.04 2.37 1.06-.01 2.11-.01 3.2-.02 3.9-.01 7.8-.03 11.7-.04 1.69 0 3.38-.01 5.08-.02 2.42-.01 4.85-.01 7.27-.02.38 0 .38 0 2.3-.01 1.82 0 3.64.05 5.45.11 1 1 1 1 1.1 3.5-.03 2.84-.06 5.67-.1 8.5h12v13h12v12c.5-.17.5-.17 3-1 2.7-.18 5.3-.09 8 0 1 1 1 1 1.1 3.5-.03 2.84-.06 5.67-.1 8.5l12 1v12l12-1v13h12l1 12 5.44-.06c1.86-.02 3.71-.01 5.56.06 1 1 1 1 1.12 3.13-.01.92-.01 1.84-.02 2.78 0 .99 0 1.98-.01 3-.01 1.04-.01 2.08-.02 3.15-.01 1.05-.01 2.09-.02 3.17-.01 2.59-.03 5.18-.05 7.77l11 1c.86 3.41 1.08 5.37.88 8.77-.04.88-.09 1.77-.14 2.69-.06.92-.12 1.84-.17 2.79-.06.94-.11 1.87-.16 2.84-.13 2.3-.27 4.6-.41 6.91h12c.86 3.41 1.08 5.37.88 8.77-.04.88-.09 1.77-.14 2.69-.06.92-.12 1.84-.17 2.79-.06.94-.11 1.87-.16 2.84-.13 2.3-.27 4.6-.41 6.91.86-.01 1.71-.02 2.59-.04 1.11 0 2.21-.01 3.35-.02 1.1-.01 2.21-.03 3.34-.04 2.72.1 2.72.1 3.72 1.1.09 2.67.12 5.31.1 7.97v2.42l-.03 7.67c-.01 1.73-.01 3.46-.02 5.19-.01 4.25-.02 8.5-.05 12.75.79-.08 1.57-.17 2.38-.25 1.01-.11 2.02-.21 3.06-.31 1.01-.11 2.02-.21 3.06-.32l2.5-.12c1 1 1 1 1.12 3.36v6.75c-.01 1.28-.01 2.57-.02 3.89v3.97l-.03 10.45c-.01 3.55-.01 7.1-.02 10.66-.01 6.97-.02 13.94-.05 20.92.79-.01 1.57-.02 2.38-.04.5 0 .5 0 3.06-.02 1.01-.01 2.02-.03 3.06-.04 2.5.1 2.5.1 3.5 1.1.1 1.57.13 3.14.13 4.71 0 1.01.01 2.03.01 3.08 0 1.13 0 2.25-.01 3.41.01 1.18.01 2.36.01 3.58v19.88c0 5.68 0 11.37-.01 17.06 0 6.58 0 13.16.01 19.75v27.05c0 3.76 0 7.51-.01 11.27.01 1.13.01 2.26.01 3.42 0 1.02-.01 2.03-.01 3.08v2.7c-.13 2.01-.13 2.01-1.13 3.01h-11v35l-12 1c.02 1.65.03 3.3.04 5l.03 6.44c.01 1.09.01 2.17.02 3.3.01 1.03.01 2.06.01 3.13.01.96.01 1.92.02 2.9-.12 2.23-.12 2.23-1.12 3.23h-11l-1 94h12c1 1 1 1 1.12 4.42 0 1.52-.01 3.03-.02 4.55v2.42l-.03 7.67c-.01 1.73-.01 3.46-.02 5.19-.01 4.25-.02 8.5-.05 12.75.79-.08 1.57-.17 2.38-.25 1.01-.11 2.02-.21 3.06-.31 1.01-.11 2.02-.21 3.06-.32l2.5-.12c1 1 1 1 1.1 3.72-.03 3.09-.06 6.19-.1 9.28h23l1 11c1.65.06 3.3.12 5 .18 2.15.09 4.29.17 6.44.26l3.3.12 3.14.12c.95.04 1.91.08 2.9.11 2.22.21 2.22.21 3.22 1.21.08 1.85.09 3.71.07 5.56-.01.51-.01.51-.03 3.07-.01.39-.01.39-.04 2.37.79-.01 1.57-.02 2.38-.04.5 0 .5 0 3.06-.02 1.01-.01 2.02-.03 3.06-.04 2.5.1 2.5.1 3.5 1.1.08 1.69.09 3.37.07 5.06l-.03 2.79c-.01.71-.02 1.42-.04 2.15.7.02 1.39.05 2.1.08 3.11.11 6.23.23 9.34.36l3.3.12 3.14.12c.95.04 1.91.08 2.9.11 2.22.21 2.22.21 3.22 1.21.08 1.85.09 3.71.07 5.56-.01.51-.01.51-.03 3.07-.01.39-.01.39-.04 2.37.7-.01 1.39-.01 2.1-.02 3.11-.02 6.23-.03 9.34-.04l3.3-.03c1.04 0 2.07 0 3.14-.01.95 0 1.91-.01 2.9-.01 2.22.11 2.22.11 3.22 1.11.08 1.85.09 3.71.07 5.56-.01.51-.01.51-.03 3.07-.01.39-.01.39-.04 2.37.7-.01 1.39-.01 2.1-.02 3.11-.02 6.23-.03 9.34-.04l3.3-.03c1.04 0 2.07 0 3.14-.01.95 0 1.91-.01 2.9-.01 2.22.11 2.22.11 3.22 1.11-.09 1.86-.24 3.71-.43 5.56-.1 1.01-.21 2.03-.31 3.07-.09.78-.17 1.56-.26 2.37.86-.01 1.71-.02 2.59-.04.56 0 .56 0 3.35-.02 1.1-.01 2.21-.03 3.34-.04 2.72.1 2.72.1 3.72 1.1.08 1.85.09 3.71.07 5.56-.01.51-.01.51-.03 3.07-.01.39-.01.39-.04 2.37.79-.01 1.57-.02 2.38-.04.5 0 .5 0 3.06-.02 1.01-.01 2.02-.03 3.06-.04 2.5.1 2.5.1 3.5 1.1.08 1.85.09 3.71.07 5.56-.01.51-.01.51-.03 3.07-.01.39-.01.39-.04 2.37.79-.01 1.57-.02 2.38-.04.5 0 .5 0 3.06-.02 1.01-.01 2.02-.03 3.06-.04 2.5.1 2.5.1 3.5 1.1.08 1.85.09 3.71.07 5.56-.01.51-.01.51-.03 3.07-.01.39-.01.39-.04 2.37.79-.01 1.57-.02 2.38-.04.5 0 .5 0 3.06-.02 1.01-.01 2.02-.03 3.06-.04 2.5.1 2.5.1 3.5 1.1.16 2.59.26 5.16.32 7.75l.06 2.35c.07 2.49.13 4.98.19 7.46.04 1.68.08 3.37.13 5.05q.165 6.195.3 12.39c.71-.01 1.43-.02 2.16-.04.46 0 .46 0 2.78-.02.92-.01 1.84-.03 2.78-.04 2.28.1 2.28.1 3.28 1.1.09 2.59.12 5.16.1 7.75v2.35l-.03 7.46c-.01 1.68-.01 3.37-.02 5.05-.01 4.13-.02 8.26-.05 12.39.79-.01 1.57-.02 2.38-.04.5 0 .5 0 3.06-.02 1.01-.01 2.02-.03 3.06-.04 2.5.1 2.5.1 3.5 1.1.1 1.87.12 3.75.12 5.62v3.64c-.01 1.31-.01 2.62-.02 3.96v4.03l-.03 10.63c-.01 3.61-.01 7.23-.02 10.84-.01 7.09-.02 14.19-.05 21.28 1.08-.17 2.15-.33 3.25-.5 3.75-.5 3.75-.5 7.75-.5 1.22 3.64 1.14 6.98 1.12 10.78v2.39c0 2.61-.01 5.23-.02 7.84v5.44l-.03 14.3c-.01 4.87-.01 9.74-.02 14.6-.01 9.55-.02 19.1-.05 28.65l12 1v49h-928c0-24 0-24 1-25h11v-72c3.1-1.03 4.53-.98 7.69-.56.41.05.41.05 2.45.31.62.08 1.23.16 1.86.25v-2.64c-.02-8.19-.04-16.39-.05-24.59 0-4.21-.01-8.42-.02-12.64-.01-4.06-.02-8.13-.02-12.19 0-1.56-.01-3.11-.01-4.66-.01-2.17-.01-4.34-.01-6.51 0-1.24 0-2.48-.01-3.75.12-3.02.12-3.02 1.12-6.02h11c0-1.78-.01-3.56-.01-5.4-.02-5.88-.03-11.75-.04-17.63 0-3.56-.01-7.12-.02-10.69-.01-4.09-.02-8.18-.02-12.28-.01-1.28-.01-2.57-.02-3.89v-3.58c0-1.05 0-2.09-.01-3.17.12-2.36.12-2.36 1.12-3.36 1.86-.07 3.71-.08 5.57-.06 1.01.01 2.02.01 3.06.02.39.01.39.01 2.37.04 0-1.06-.01-2.11-.01-3.2-.02-3.9-.03-7.8-.04-11.7-.01-1.69-.01-3.38-.02-5.07-.01-2.43-.02-4.85-.02-7.28-.01-.38-.01-.38-.02-2.3 0-1.82.05-3.63.11-5.45l1-1h11v-24h12l-.03-5-.03-6.44c-.01-1.09-.01-2.18-.02-3.3-.01-1.03-.01-2.07-.01-3.13-.01-.96-.01-1.92-.02-2.91.11-2.22.11-2.22 1.11-3.22 3.67-.14 7.33-.04 11 0v-12h12l-.06-5.44c-.02-1.85-.01-3.71.06-5.56 1-1 1-1 3.73-1.1.55.01.55.01 3.34.04 1.1.01 2.21.01 3.34.02.43.01.43.01 2.59.04-.16-.5-.16-.5-1-3l1-9h23v-12l24-1v-8l1-3h23l-.03-10.47c-.01-3.32-.01-6.65-.02-9.98-.01-2.32-.01-4.65-.02-6.97-.01-3.33-.02-6.65-.02-9.98-.01-1.05-.01-2.09-.02-3.17v-2.91c0-.85 0-1.7-.01-2.58.12-1.94.12-1.94 1.12-2.94l11-1v-34h12l-.03-4.28c-.03-5.23-.06-10.46-.08-15.69-.01-2.27-.02-4.53-.04-6.8-.02-3.25-.03-6.5-.04-9.75-.01-.51-.01-.51-.03-3.09v-2.85c-.01-.83-.01-1.66-.02-2.52.24-2.02.24-2.02 2.24-4.02 2.17-.2 2.17-.2 4.63-.13l2.48.06c.62.02 1.25.05 1.89.07.01-.59.03-1.17.04-1.78.1-6.08.22-12.16.34-18.25l.12-6.81c.06-3.26.12-6.52.19-9.78.01-1.02.03-2.05.05-3.1l.06-2.85c.01-.84.03-1.67.05-2.53.15-1.9.15-1.9 1.15-2.9h11v-72l12-1v-2.69c-.02-8.34-.04-16.69-.05-25.03 0-4.29-.01-8.58-.02-12.87-.01-4.14-.02-8.27-.02-12.41 0-1.58-.01-3.16-.01-4.75-.01-2.2-.01-4.41-.01-6.62 0-1.26 0-2.52-.01-3.81.12-2.82.12-2.82 1.12-3.82 1.86-.07 3.71-.08 5.57-.06 1.01.01 2.02.01 3.06.02.39.01.39.01 2.37.04v-2.02c-.02-6.92-.04-13.85-.05-20.78-.01-2.58-.01-5.17-.02-7.75-.01-3.72-.02-7.43-.02-11.15-.01-1.16-.01-2.31-.02-3.5v-3.28c0-.94 0-1.89-.01-2.87.12-2.65.12-2.65 1.12-7.65h11c0-.54 0-.54-.01-3.29-.02-4.01-.03-8.02-.04-12.04-.01-1.74-.01-3.48-.02-5.21-.01-2.5-.02-4.99-.02-7.49-.01-.39-.01-.39-.02-2.37 0-1.87.05-3.73.11-5.6 1-1 1-1 3.51-1.1.5.01.5.01 3.06.04 1.01.01 2.02.01 3.06.02.39.01.39.01 2.37.04 0-.35 0-.35-.01-2.1-.02-3.11-.04-6.22-.05-9.34-.01-1.09-.01-2.18-.02-3.3 0-.51 0-.51-.01-3.13-.01-.48-.01-.48-.02-2.91.11-2.22.11-2.22 1.11-3.22h12v-24h12c-.16-1.57-.33-3.14-.5-4.75-.55-6.07-.84-12.16-.5-18.25 1.74-1.74 4.2-1.37 6.57-1.56 1.01-.09 2.02-.17 3.06-.26l2.37-.18-.03-2.15c-.01-.46-.01-.46-.03-2.79l-.03-2.78c.09-2.28.09-2.28 1.09-3.28 2.02-.07 4.05-.08 6.07-.06 1.1.01 2.21.01 3.34.02.86.02 1.71.03 2.59.04-.08-.78-.16-1.57-.25-2.37-.1-1.01-.2-2.03-.31-3.07-.1-1.01-.21-2.02-.31-3.06-.04-.82-.08-1.65-.13-2.5 1-1 1-1 3.73-1.1 3.09.03 6.18.07 9.27.1v-12l11-1 1-11h12V96h12l-.06-5.94c-.02-2.02-.01-4.04.06-6.06 1-1 1-1 3.32-1.11 1 0 2 .01 3.03.01 1.08 0 2.16.01 3.27.01.57.01.57.01 3.45.03a2383 2383 0 0 1 11.93.06c-.08-.78-.16-1.57-.25-2.37-.1-1.01-.2-2.03-.31-3.07-.1-1.01-.21-2.02-.31-3.06-.04-.82-.08-1.65-.13-2.5 1.89-1.88 5.13-1.17 7.64-1.21l2.09-.03c2.3-.03 4.6-.05 6.9-.08l4.77-.06c4.2-.06 8.39-.1 12.59-.15 4.27-.05 8.55-.11 12.83-.16 8.39-.11 16.79-.21 25.18-.31l-.03-2.15c-.01-.46-.01-.46-.03-2.79l-.03-2.78c.19-4.44 2.86-3.41 6.7-3.41"/><path fill="#5e704c" d="M373 253h12v72h-11v72h12v73h12v24h12v24h12v12h12v12h12v12h36v24h72v-12h24v24h-12v12h-12v12h-72v-12h-24v-12h-12v-12h-12v121h12v12h24v12h96v-12h24v-12h12v-12h12v-13h12v-48h-12v-84h-12v-12h12v-12h12v-24h12v-24h12c0-.89 0-1.78-.01-2.7-.02-8.43-.03-16.86-.04-25.28-.01-4.34-.01-8.67-.03-13-.01-4.19-.01-8.38-.01-12.57-.01-1.59-.01-3.18-.02-4.77-.02-8.62.15-17.1 1.11-25.68h11v-61h13v12h12v24h12v12h12v12h12v61h-12v-49l-11 1-1 36h-12v48h-13v12h-12v36h-12v36h12v12h13v12h24v12h12v-96h11c1.17 31.66 1.11 63.32 1 95 .85-.01 1.71-.02 2.59-.04.55 0 .55 0 3.35-.02 1.1-.01 2.2-.03 3.34-.04 2.72.1 2.72.1 3.72 1.1.09 2.67.12 5.31.1 7.97 0 .4 0 .4-.01 2.42 0 2.56-.01 5.11-.03 7.67 0 1.73-.01 3.46-.01 5.19-.01 4.25-.03 8.5-.05 12.75.39-.04.39-.04 2.37-.25 1.01-.11 2.02-.21 3.07-.31 1.01-.11 2.02-.21 3.06-.32l2.5-.12c1 1 1 1 1.1 3.72-.03 3.1-.07 6.19-.1 9.28h23l1 11c1.65.06 3.3.12 5 .18 2.14.09 4.29.17 6.44.26l3.3.12 3.13.12c.96.04 1.92.08 2.91.11C795 662 795 662 796 663c.07 1.85.08 3.71.06 5.56-.01 1.01-.02 2.03-.02 3.07-.01.39-.01.39-.04 2.37.78-.01 1.56-.02 2.37-.04.51 0 .51 0 3.07-.02 1.01-.01 2.02-.03 3.06-.04 2.5.1 2.5.1 3.5 1.1.07 1.69.08 3.38.06 5.06 0 .46 0 .46-.02 2.79-.01.35-.01.35-.04 2.15.69.03 1.38.05 2.1.08 3.11.11 6.22.23 9.34.36l3.3.12 3.13.12c.96.04 1.92.08 2.91.11C831 686 831 686 832 687c.07 1.85.08 3.71.06 5.56-.01 1.01-.02 2.03-.02 3.07-.01.39-.01.39-.04 2.37.35 0 .35 0 2.1-.02 3.11-.02 6.22-.03 9.34-.04l3.3-.03c1.03 0 2.07 0 3.13-.01.96 0 1.92-.01 2.91-.01C855 698 855 698 856 699c.07 1.85.08 3.71.06 5.56-.01 1.01-.02 2.03-.02 3.07-.01.39-.01.39-.04 2.37.35 0 .35 0 2.1-.02 3.11-.02 6.22-.03 9.34-.04l3.3-.03c1.03 0 2.07 0 3.13-.01.96 0 1.92-.01 2.91-.01C879 710 879 710 880 711c-.09 1.86-.25 3.71-.44 5.56-.05.51-.05.51-.31 3.07-.08.78-.16 1.56-.25 2.37.85-.01 1.71-.02 2.59-.04.55 0 .55 0 3.35-.02 1.1-.01 2.2-.03 3.34-.04 2.72.1 2.72.1 3.72 1.1.07 1.85.08 3.71.06 5.56-.01 1.01-.02 2.03-.02 3.07-.01.39-.01.39-.04 2.37.78-.01 1.56-.02 2.37-.04.51 0 .51 0 3.07-.02 1.01-.01 2.02-.03 3.06-.04 2.5.1 2.5.1 3.5 1.1.07 1.85.08 3.71.06 5.56-.01 1.01-.02 2.03-.02 3.07-.01.39-.01.39-.04 2.37.78-.01 1.56-.02 2.37-.04.51 0 .51 0 3.07-.02 1.01-.01 2.02-.03 3.06-.04 2.5.1 2.5.1 3.5 1.1.07 1.85.08 3.71.06 5.56-.01 1.01-.02 2.03-.02 3.07-.01.39-.01.39-.04 2.37.78-.01 1.56-.02 2.37-.04.51 0 .51 0 3.07-.02 1.01-.01 2.02-.03 3.06-.04 2.5.1 2.5.1 3.5 1.1.16 2.59.26 5.16.32 7.75l.06 2.35.18 7.46c.05 1.68.09 3.37.13 5.05.11 4.13.21 8.26.31 12.39.71-.01 1.42-.02 2.15-.04.46 0 .46 0 2.79-.02.91-.01 1.83-.03 2.77-.04 2.29.1 2.29.1 3.29 1.1.09 2.59.12 5.16.1 7.75 0 .78-.01 1.55-.01 2.35 0 2.49-.01 4.98-.03 7.46 0 1.68-.01 3.37-.01 5.05-.01 4.13-.03 8.26-.05 12.39.78-.01 1.56-.02 2.37-.04.51 0 .51 0 3.07-.02 1.01-.01 2.02-.03 3.06-.04 2.5.1 2.5.1 3.5 1.1.09 1.87.12 3.75.11 5.62v3.64c0 1.31-.01 2.62-.01 3.96 0 1.35-.01 2.69-.01 4.03 0 3.55-.01 7.09-.02 10.63-.01 3.62-.02 7.23-.02 10.84-.01 7.09-.03 14.19-.05 21.28 1.07-.16 2.14-.33 3.25-.5 3.75-.5 3.75-.5 7.75-.5 1.22 3.65 1.13 6.98 1.11 10.78v2.39c0 2.61 0 5.23-.01 7.84 0 1.81-.01 3.63-.01 5.44 0 4.77-.01 9.54-.02 14.3-.01 4.87-.02 9.74-.02 14.6-.01 9.55-.03 19.1-.05 28.65l12 1v49H361v-24h12l1-108h11v60h13v-73h-12v-36h-12v-24h-13V711h12v-60h-11v24h-13v-37h12v-96h-12v-48h-12V385h12v-24h12v-84h12z"/><path fill="#e69e7d" d="M638 121h12v11h12v13h12l-1-14h2v13h12l1 12 5.44-.06c1.85-.02 3.71-.01 5.56.06 1 1 1 1 1.11 3.13 0 .92-.01 1.84-.01 2.78-.01.99-.01 1.98-.01 3l-.03 3.15c0 1.05-.01 2.09-.01 3.17-.01 2.59-.03 5.18-.05 7.77l11 1c.85 3.41 1.07 5.38.88 8.77-.05.89-.1 1.77-.15 2.69s-.11 1.84-.17 2.79c-.05.94-.1 1.87-.16 2.84-.13 2.3-.26 4.61-.4 6.91h12c.85 3.41 1.07 5.38.88 8.77-.05.89-.1 1.77-.15 2.69s-.11 1.84-.17 2.79c-.05.94-.1 1.87-.16 2.84-.13 2.3-.26 4.61-.4 6.91.85-.01 1.71-.02 2.59-.04.55 0 .55 0 3.35-.02 1.1-.01 2.2-.03 3.34-.04 2.72.1 2.72.1 3.72 1.1.09 2.67.12 5.31.1 7.97 0 .4 0 .4-.01 2.42 0 2.56-.01 5.11-.03 7.67 0 1.73-.01 3.46-.01 5.19-.01 4.25-.03 8.5-.05 12.75.78-.08 1.56-.17 2.37-.25.51-.05.51-.05 3.07-.31 1.01-.11 2.02-.21 3.06-.32l2.5-.12c1 1 1 1 1.12 3.36 0 1.05 0 2.09-.01 3.17v3.58c0 1.28-.01 2.57-.01 3.89 0 .66 0 .66-.01 3.97 0 3.48-.01 6.97-.02 10.45-.01 3.55-.02 7.1-.02 10.66-.01 6.97-.03 13.95-.05 20.92.78-.01 1.56-.02 2.37-.04 1.01 0 2.02-.01 3.07-.02 1.01-.01 2.02-.03 3.06-.04 2.5.1 2.5.1 3.5 1.1.1 1.57.13 3.14.13 4.71 0 1.02 0 2.03.01 3.08-.01.57-.01.57-.01 3.42v3.57q.015 4.86 0 9.72c0 3.39 0 6.77.01 10.16 0 5.68 0 11.37-.01 17.06-.01 6.58 0 13.16 0 19.75q.015 8.46 0 16.92c0 3.38 0 6.75.01 10.13 0 3.76-.01 7.52-.01 11.27 0 1.13 0 2.26.01 3.42-.01.51-.01.51-.01 3.08v2.7C760 446 760 446 759 447h-11v35l-12 1c.01 1.65.02 3.3.04 5 0 2.14.01 4.29.02 6.44l.03 3.3c0 .51 0 .51.01 3.13 0 .48 0 .48.01 2.91C736 506 736 506 735 507h-11l-1 36h-1v-37h-11v96h-12v-12h-24v-12h-13v-12h-12v-36h12v-36h12v-12h13v-48h12c0-.54 0-.54-.02-3.29-.01-4.01-.03-8.02-.03-12.04l-.03-5.21c-.01-2.5-.01-4.99-.02-7.49 0-.78-.01-1.56-.01-2.37 0-1.87.05-3.73.11-5.6l1-1h11v49h12v-61h-12v-12h-12v-12h-12v-24h-12v-12h-13v61h-11l-1 84h-12v24h-12v24h-12v12h-12v12h12v84h12v48h-12v13h-12v12h-12v12h-24v12h-96v-12h-24v-12h-12V578h12v12h12v12h24v12h72v-12h12v-12h12v-24h-24v12h-72v-24h-36v-12h-12v-12h-12v-12h-12v-24h-12v-24h-12v-73h-12v-72h11v-72h-11v-24h11v-12h1v36h12v-36h12v-12h12v-12h12v-12h24v-12h36v-12h12v12h60v12h24v12h12v12h12v12h12v24h12v-36h-11v-24h11v12h12v-24h-24v11h-12v-11h-12v-12h-24v-12h-36v-13h84v13h12z"/><path fill="#5a3f23" d="M373 253h12v72h-11v72h12v73h12v24h12v24h12v12h12v12h12v12h36v24h72v-12h24v24h-12v12h-12v12h-72v-12h-24v-12h-12v-12h-12v121h12v12h24v24h120v24h-36v12h48v12h-36v24h11v12h25v-12h12v-12h12v24h-12v24h-12v12h12v109h-12v11h12v49H361v-24h12l1-108h11v60h13v-73h-12v-36h-12v-24h-13V711h12v-60h-11v24h-13v-37h12v-96h-12v-48h-12V385h12v-24h12v-84h12z"/><path fill="#586947" d="M206 651h23v132h12v48h12v36h12v36h12v85h-12v36H48c0-24 0-24 1-25h11v-72c3.09-1.03 4.53-.97 7.69-.56.81.1 1.61.2 2.45.31.61.08 1.23.16 1.86.25 0-.87 0-1.74-.01-2.64-.02-8.19-.03-16.39-.04-24.59-.01-4.21-.01-8.42-.03-12.64-.01-4.06-.01-8.13-.01-12.19-.01-1.55-.01-3.11-.02-4.66v-6.51c-.01-1.24-.01-2.48-.01-3.75C72 857 72 857 73 854h11c-.01-1.78-.01-3.56-.02-5.4l-.03-17.63c-.01-3.56-.01-7.12-.03-10.69-.01-4.09-.01-8.18-.02-12.28 0-1.28-.01-2.57-.01-3.89v-3.58c-.01-1.05-.01-2.09-.01-3.17C84 795 84 795 85 794c1.85-.07 3.71-.08 5.56-.06 1.01.01 2.03.02 3.07.02.39.01.39.01 2.37.04-.01-1.06-.01-2.11-.02-3.2-.01-3.9-.03-7.8-.03-11.7l-.03-5.07c-.01-2.43-.01-4.85-.02-7.28 0-.76-.01-1.52-.01-2.3 0-1.82.05-3.63.11-5.45l1-1h11v-24h12c-.01-1.65-.02-3.3-.04-5 0-2.14-.01-4.29-.02-6.44l-.03-3.3c0-1.03 0-2.07-.01-3.13 0-.96-.01-1.92-.01-2.91C120 711 120 711 121 710c3.67-.14 7.33-.04 11 0v-12h12l-.06-5.44c-.02-1.85-.01-3.71.06-5.56 1-1 1-1 3.72-1.1.55.01.55.01 3.34.04 1.11.01 2.21.02 3.35.02.85.02 1.71.03 2.59.04l-1-3 1-8h24v-12h25z"/><path fill="#010301" d="M434 723h36v12h120v24h-36v12h48v12h-36v24h11v12h25v-12h12v-12h12v24h-12v24h-12v12h12v109h-12v11h12v49H446V735h-12z"/><path fill="#5a6b47" d="M747 675h12v12h12v12h24v12h12v12h36v12h24v12h12v12h12v12h12v24h-24v-12h-12v-12h-12v24h-12v144H626V819h12v12h12v-24h25v12h24v12h60V699h-12z"/><path fill="#402e29" d="M662 325h13v12h12v24h12v12h12v12h12v61h-12v-49l-11 1-1 36h-12v48h-13v12h-12v36h-12v36h12v12h13v12h24v12h12v-96h11c1.17 31.66 1.11 63.32 1 95h12v37h-36v12h-24v-12h12v-12h-13v12h-12v13h12v12h-12v12h12v11l-36 1v24h-12v36h36v12h25v-12h35v12h13v12h-24v12h24v12h12v-96h12v132h-60v-12h-24v-12h-25v24h-12v-12h-12v-24h-12v12h-12v12h-25v-12h-11v-24h36v-12h-48v-12h36v-24H470v-12h96v-12h24v-12h12v-12h12v-13h12v-48h-12v-84h-12v-12h12v-12h12v-24h12v-24h12c0-.89 0-1.78-.01-2.7-.02-8.43-.03-16.86-.04-25.28-.01-4.34-.01-8.67-.03-13-.01-4.19-.01-8.38-.01-12.57-.01-1.59-.01-3.18-.02-4.77-.02-8.62.15-17.1 1.11-25.68h11z"/><path fill="#916e41" d="M523.605 58.87c1.2 0 2.4-.01 3.63-.01 1.3 0 2.61 0 3.95.01 1.34 0 2.68-.01 4.03-.01 2.81 0 5.63 0 8.44.01h10.85q4.155-.015 8.31 0c1.98 0 3.97-.01 5.95-.01.6 0 .6 0 3.63.01h3.21c2.39.13 2.39.13 3.39 1.13.08 1.85.09 3.71.07 5.56l-.03 3.07c-.01.39-.01.39-.04 2.37 1.06-.01 2.11-.01 3.2-.02 3.9-.01 7.8-.03 11.7-.04 1.69 0 3.38-.01 5.08-.02 2.42-.01 4.85-.01 7.27-.02.38 0 .38 0 2.3-.01 1.82 0 3.64.05 5.45.11 1 1 1 1 1.1 3.5-.03 2.84-.06 5.67-.1 8.5h12v13h12v12c.5-.17.5-.17 3-1 2.7-.18 5.3-.09 8 0 1 1 1 1 1.1 3.5-.03 2.84-.06 5.67-.1 8.5 1.98.16 1.98.16 12 1v12h11v13h-12v-13h-12v-11h-12v24h-12v-13h-84v13h36v12h24v12h12v11h12v-11h24v24h-12v-12h-11v24h11v36h-12v-24h-12v-12h-12v-12h-12v-12h-24v-12h-60v-12h-12v12h-36v12h-24v12h-12v12h-12v12h-12v36h-12v-60h12v-12h12v-12h12v-12h36v-12h-49v-13h25v-12h12v-12h-36v12h-12c.01.96.01.96.07 5.81 0 6.12-.38 12.11-1.07 18.19-8.03.9-15.91 1.09-24 1v23h12v25h-12v-24h-12v12h-11v24h11v36h-12v60h-12v48h-12v12h-12v73h-12v120h-12v-84h-12v48h-12v-49h11v-72l12-1v-2.69c-.02-8.34-.04-16.69-.05-25.03 0-4.29-.01-8.58-.02-12.87-.01-4.14-.02-8.27-.02-12.41 0-1.58-.01-3.16-.01-4.75-.01-2.2-.01-4.41-.01-6.62 0-1.26 0-2.52-.01-3.81.12-2.82.12-2.82 1.12-3.82 1.86-.07 3.71-.08 5.57-.06 1.01.01 2.02.01 3.06.02.39.01.39.01 2.37.04v-2.02c-.02-6.92-.04-13.85-.05-20.78-.01-2.58-.01-5.17-.02-7.75-.01-3.72-.02-7.43-.02-11.15-.01-1.16-.01-2.31-.02-3.5v-3.28c0-.94 0-1.89-.01-2.87.12-2.65.12-2.65 1.12-7.65h11c0-1.09-.01-2.17-.01-3.29-.02-4.01-.03-8.02-.04-12.04-.01-1.74-.01-3.48-.02-5.21-.01-2.5-.02-4.99-.02-7.49-.01-.39-.01-.39-.02-2.37 0-1.87.05-3.73.11-5.6 1-1 1-1 3.51-1.1.5.01.5.01 3.06.04 1.01.01 2.02.01 3.06.02.39.01.39.01 2.37.04 0-.69-.01-1.38-.01-2.1-.02-3.11-.04-6.22-.05-9.34-.01-1.09-.01-2.18-.02-3.3-.01-1.03-.01-2.07-.01-3.13-.01-.96-.01-1.92-.02-2.91.11-2.22.11-2.22 1.11-3.22h12v-24h12c-.16-1.57-.33-3.14-.5-4.75-.55-6.07-.84-12.16-.5-18.25 1.74-1.74 4.2-1.37 6.57-1.56 1.01-.09 2.02-.17 3.06-.26l2.37-.18-.03-2.15-.03-2.79-.03-2.78c.09-2.28.09-2.28 1.09-3.28 2.02-.07 4.05-.08 6.07-.06 1.1.01 2.21.01 3.34.02.86.02 1.71.03 2.59.04-.04-.39-.04-.39-.25-2.37-.05-.51-.05-.51-.31-3.07l-.31-3.06c-.02-.41-.02-.41-.13-2.5 1-1 1-1 3.73-1.1 3.09.03 6.18.07 9.27.1v-12l11-1 1-11h12V96h12l-.06-5.94c-.02-2.02-.01-4.04.06-6.06 1-1 1-1 3.32-1.11 1 0 2 .01 3.03.01 1.08 0 2.16.01 3.27.01.57.01.57.01 3.45.03a2383 2383 0 0 1 11.93.06c-.08-.78-.16-1.57-.25-2.37-.05-.51-.05-.51-.31-3.07-.1-1.01-.21-2.02-.31-3.06-.04-.82-.08-1.65-.13-2.5 1.89-1.88 5.13-1.17 7.64-1.21l2.09-.03c2.3-.03 4.6-.05 6.9-.08l4.77-.06c4.2-.06 8.39-.1 12.59-.15 4.27-.05 8.55-.11 12.83-.16 8.39-.11 16.79-.21 25.18-.31l-.03-2.15-.03-2.79-.03-2.78c.19-4.44 2.86-3.41 6.7-3.41"/><path fill="#f5c4a3" d="M494 157h12v12h60v12h24v12h12v12h12v12h12v24h12v48h-12v-12h-60v12h-12v12h-12v36h24v-12h12v12h24v-12h12v12h12v12h12v49h-12v12c-4.91.03-9.81.04-14.72.05l-4.99.03c-9.5.04-18.83-.11-28.29-1.08v-11l-4.69.06c-6.47.01-12.86-.51-19.31-1.06v25h-48v-97h-12v-24h-12v-12h-12v-12h-60v12h-12v-72h12v-12h12v-12h12v-12h24v-12h36z"/><path fill="#2e432b" d="M843 795h12v12h12v24h12v36h-12v48h12v-24h12v36h-12v12h-12v61h12v24H614v-49h-12v-11h12V855h-12v-12h12v-24h12v120h217z"/><path fill="#f4c19f" d="M422 325h12v12h24v-12h12v12h24v49l-12-1v12h-24v12h11v13h13v12h12v12h12v12h-60v12h12v12h12v24h12v12h12v12h48v-12h12v-12h12v-12h12v-24h12v-25c7 0 7 0 12 1v12h24v24h-12v24h-12v12h-12v12h-12v36h-24v12h-72v-24h-36v-12h-12v-12h-12v-12h-12v-24h-12v-24h-12V337h36z"/><path fill="#e0c186" d="M325 446h12v48h12v48h12v96h-12v37h13v-24h11v60h-12v108h13v24h12v36h12v73h-13v-60h-11c0 1.18 0 2.35.01 3.56.02 11.13.03 22.25.04 33.37.01 5.72.01 11.43.03 17.15.01 5.52.01 11.05.01 16.57.01 2.1.01 4.2.02 6.3.02 10.42 0 20.69-1.11 31.05h-12v24h-24v-12h12v-24h12v-85h-12v-36h-12v-36h-12v-84h12v-48h-12v36h-12v84h-12v-24h-12V663h12v-37h12c-.01-1.65-.02-3.3-.04-5 0-2.14-.01-4.29-.02-6.44l-.03-3.3c0-.51 0-.51-.01-3.13 0-.48 0-.48-.01-2.91C313 603 313 603 314 602h11z"/><path fill="#c09d66" d="M675 145h12c.16 1.81.16 1.81 1 11l5.44-.06c1.85-.02 3.71-.01 5.56.06 1 1 1 1 1.11 3.13 0 .92-.01 1.84-.01 2.78-.01.99-.01 1.98-.01 3-.01.52-.01.52-.03 3.15 0 1.05-.01 2.09-.01 3.17-.01 2.59-.03 5.18-.05 7.77l11 1c.85 3.41 1.07 5.38.88 8.77-.05.89-.1 1.77-.15 2.69s-.11 1.84-.17 2.79c-.05.94-.1 1.87-.16 2.84-.13 2.3-.26 4.61-.4 6.91h12c.85 3.41 1.07 5.38.88 8.77-.05.89-.1 1.77-.15 2.69-.03.46-.03.46-.17 2.79-.05.94-.1 1.87-.16 2.84-.13 2.3-.26 4.61-.4 6.91.85-.01 1.71-.02 2.59-.04 1.1 0 2.21-.01 3.35-.02 1.1-.01 2.2-.03 3.34-.04 2.72.1 2.72.1 3.72 1.1.09 2.67.12 5.31.1 7.97 0 .8-.01 1.6-.01 2.42 0 2.56-.01 5.11-.03 7.67 0 1.73-.01 3.46-.01 5.19-.01 4.25-.03 8.5-.05 12.75.39-.04.39-.04 2.37-.25.51-.05.51-.05 3.07-.31.5-.05.5-.05 3.06-.32l2.5-.12c1 1 1 1 1.12 3.36 0 1.05 0 2.09-.01 3.17v3.58c0 1.28-.01 2.57-.01 3.89 0 1.31-.01 2.62-.01 3.97 0 3.48-.01 6.97-.02 10.45-.01 3.55-.02 7.1-.02 10.66-.01 6.97-.03 13.95-.05 20.92.78-.01 1.56-.02 2.37-.04 1.01 0 2.02-.01 3.07-.02 1.01-.01 2.02-.03 3.06-.04 2.5.1 2.5.1 3.5 1.1.1 1.57.13 3.14.13 4.71 0 .51 0 .51.01 3.08-.01.57-.01.57-.01 3.42v3.57q.015 4.86 0 9.72c0 3.39 0 6.77.01 10.16 0 5.68 0 11.37-.01 17.06-.01 6.58 0 13.16 0 19.75q.015 8.46 0 16.92c0 3.38 0 6.75.01 10.13 0 3.76-.01 7.52-.01 11.27 0 1.13 0 2.26.01 3.42-.01 1.02-.01 2.03-.01 3.08v2.7C760 446 760 446 759 447h-11v35l-12 1c.01 1.65.02 3.3.04 5 0 2.14.01 4.29.02 6.44l.03 3.3c0 1.03 0 2.07.01 3.13 0 .48 0 .48.01 2.91C736 506 736 506 735 507h-11l-1 36h-1v-37h-11v96h-12v-12h-24v-12h-13v-12h-12v-36h12v-36h12v-12h13v-48h12c-.01-1.09-.01-2.17-.02-3.29-.01-4.01-.03-8.02-.03-12.04l-.03-5.21c-.01-2.5-.01-4.99-.02-7.49 0-.78-.01-1.56-.01-2.37 0-1.87.05-3.73.11-5.6l1-1h11v49h12v-61h-12v-12h-12v-12h24v-12h-12v-12h-12v-12h-12v-36h-12v-48h12v36h12v-48h-12v-24h11v-24h-11v-24h-12z"/><path fill="#5b6c49" d="M121 735h12v24h12v36h12v-36h12v36h12v24h-12v48h12v48h-12v-24h-12v25h12v23h12v13h12v60h-24v-24h-12v-13h-12v-23h-12v-25h-12v-36h-12v97h12v12h12v24H48c0-24 0-24 1-25h11v-72c3-1 3-1 12 0v-70h1v70h12v-72h12v-60h12v-36h12z"/><path fill="#f4bf9d" d="M434 578h12v12h12v12h24v12h72v-12h12v-12h24v-12h12v72h12v37h-12v12h-12v12h-24v12h-96v-12h-24v-12h-12z"/><path fill="#b9935d" d="M277 626h24v37h-12v132h12v24h12v-84h12v-36h12v48h-12v84h12v36h12v36h12v85h-12v24h-12v12h-60v-12h12v-24h12v-24h12v-73h-12v-48h-12v-12h-12v-36h-12V687h12z"/><path fill="#5a6b47" d="M554 771h48v12h-36v24h11v12h25v-12h12v-12h12v24h-12v24h-12v12h12v109h-12v11h12v49h-60z"/><path fill="#eaa080" d="M422 325h12v12h24v-12h12v12h24v49l-12-1v12h-24v37h-12v12h-12v24h-12v-24h-12v36h12v24h12v12h12v12h12v24h-12v-12h-12v-12h-12v-12h-12v-24h-12v-24h-12V337h36z"/><path fill="#4d2f1d" d="M735 602h1v36l11-1c1 1 1 1 1.1 3.72-.03 3.1-.07 6.19-.1 9.28h23l-1 13h-23v132h-12v-12h-24v-12h24v-12h-13v-12h-35v12h-25v-12h-36v-36h12v-24c11.99-1.33 23.96-1.09 36-1v-11h-12v-12h12v-12h-12v-13h12v-12h13v12h-12v12h24v-12h36z"/><path fill="#32472e" d="M398 663h12v12h12v12h12v12h12v12h24v12h-36v12h12v289h-36v-12h12v-37h12v-96h-12v-24h-12v-36h-12v-24h-12v-84h12z"/><path fill="#4d2e1e" d="M747 699h12v132h-60v-12h-24v-12h-25v24h-12v-12h-12v-24h-12v12h-12v12h-25v-12h-11v-24h36v-12h48v-12h-48v-12h12v-12h12v12h36v12h25v-12h35v12h13v12h-24v12h24v12h12z"/><path fill="#dcbb80" d="M638 121h12v11h12v13h12l-1-14h2v13h12v1h-12v12h12v24h11v24h-11v24h12v48h-12v-36h-12v48h12v36h12v12h12v12h12v12h-36v-24h-12v-12h-13v-48h-12v-36h-12v-36h-11v-24h11v12h12v-24h-24v11h-12v-11h-12v-12h-24v-12h-36v-13h84v13h12z"/><path fill="#442e28" d="M434 723h36v12h120v24h-36v12h-12v36h-72v-36h-12v253h-12V735h-12z"/><path fill="#596b47" d="M675 952h156v36h-12v24h-12v12H675z"/><path fill="#b9925c" d="M361 711h1v96h11v-36h12v24h13v24h12v36h12v24h12v96h-12v37h-12v12h-49v-24h12l1-108h11v60h13v-73h-12v-36h-12v-24h-13z"/><path fill="#425239" d="M241 831h12v36h12v36h12v85h-12v36h-60V903h36z"/><path fill="#52381f" d="M662 325h13v12h12v24h12v12h12v12h12v61h-12v-49l-11 1-1 36h-12v48h-13v12h-12v36h-12v24h-24v-60h12v-24h12c0-.89 0-1.78-.01-2.7-.02-8.43-.03-16.86-.04-25.28-.01-4.34-.01-8.67-.03-13-.01-4.19-.01-8.38-.01-12.57-.01-1.59-.01-3.18-.02-4.77-.02-8.62.15-17.1 1.11-25.68h11z"/><path fill="#d69275" d="M385 217h1v36h12v36h12v-12h60v12h12v12h12v24h12v60h-12v-48h-24v-12h-12v12h-24v-12h-12v12h-36v60h-12v-72h11v-72h-11v-24h11z"/><path fill="#492c1d" d="M711 506h11c1.17 31.66 1.11 63.32 1 95h12v37h-36v12h-24v-12h12v-12h-13v12h-12v13h12v12h-12v12h12v11h-24v-48h-12v-24h-12v-48h36v12h13v12h24v12h12z"/><path fill="#debc82" d="M350 687h11v132h13v24h12v36h12v73h-13v-60h-11c0 1.18 0 2.35.01 3.56.02 11.13.03 22.25.04 33.37.01 5.72.01 11.43.03 17.15.01 5.52.01 11.05.01 16.57.01 2.1.01 4.2.02 6.3.02 10.42 0 20.69-1.11 31.05h-12v24h-24v-12h12v-24h12v-85h-12v-36h-12v-36h12c0-1.52 0-3.05-.01-4.62-.02-14.43-.03-28.86-.04-43.29-.01-7.42-.01-14.83-.03-22.25-.01-6.47-.01-12.95-.01-19.42-.01-3.42-.01-6.84-.02-10.26-.02-14.76.1-29.44 1.11-44.16"/><path fill="#9c7848" d="M301 265h12v72h12v-36h12v48h-12v12h-12v73h-12v120h-12v-84h-12v48h-12v-49h11v-72l12-1c0-.44 0-.44-.01-2.69-.02-8.34-.03-16.69-.04-25.03-.01-4.29-.01-8.58-.03-12.87-.01-4.14-.01-8.27-.01-12.41-.01-1.58-.01-3.16-.02-4.75v-6.62c-.01-1.26-.01-2.52-.01-3.81C288 325 288 325 289 324c1.85-.07 3.71-.08 5.56-.06 1.01.01 2.03.02 3.07.02.39.01.39.01 2.37.04 0-.67 0-1.33-.01-2.02-.02-6.92-.03-13.85-.04-20.78l-.03-7.75c-.01-3.72-.01-7.43-.02-11.15 0-1.15-.01-2.31-.01-3.5v-3.28c-.01-.94-.01-1.89-.01-2.87C300 270 300 270 301 265"/><path fill="#ac6853" d="M422 542h24v12h36v24h72v-12h24v24h-12v12h-12v12h-72v-12h-24v-12h-12v-12h-12v109h-12v-12h-12v-12h12z"/><path fill="#964d4c" d="M446 458h144v12h-12v24h-12v12h-12v12h-12v12h-48v-12h-12v-12h-12v-24h-12v-12h-12z"/><path fill="#31452c" d="M181 867h12v72h12v85h-72v-24h-12v-12h-12v-97h12v36h12v25h12v23h12v13h12v24h24v-60h-12v-13h-12v-23h-12v-25h12v24h12z"/><path fill="#2e442b" d="M843 795h12v12h12v24h12v36h-12v48h12v-24h12v36h-12v12h-12v61h12v24h-36z"/><path fill="#e1c287" d="M410 108h36v12h-12v12h-25v13h49v12h-36v12h-12v12h-12v12h-12c.01 1.59.02 3.19.04 4.83.1 20.91.1 20.91-1.04 31.17h-11c.01 1.45.02 2.91.04 4.41.07 14.56-.32 29.05-1.04 43.59h-12v36h-12v36h-12v-48h12v-60h12v-36h-11v-24h11v-12h12v24h12v-25h-12v-23c1.42-.08 1.42-.08 8.62-.5.89-.05 1.78-.1 2.69-.16 4.23-.24 8.44-.39 12.69-.34-.01-.64-.02-1.29-.04-1.95-.07-7.4.41-14.67 1.04-22.05h12z"/><path fill="#614328" d="M449.854 71.88c1.28 0 2.55 0 3.87.01h2.13c2.33 0 4.66 0 6.99.01 1.62 0 3.23.01 4.84.01 4.26 0 8.51.01 12.76.02 4.34.01 8.67.02 13.01.02 8.52.01 17.03.03 25.55.05v12h11v12h-12v12h-12v12h12v12h-12v25h-12v12h-36v12h-24v12h-12v12h-12v12h-12v36h-12v-60h12v-12h12v-12h12v-12h60v-12h-12v-13h12v-24h12V96h-12V84h-36v12h-24V83h24V73c1-1 1-1 3.85-1.12"/><path fill="#ba9562" d="M523.605 58.87c1.2 0 2.4-.01 3.63-.01 1.3 0 2.61 0 3.95.01 1.34 0 2.68-.01 4.03-.01 2.81 0 5.63 0 8.44.01h10.85q4.155-.015 8.31 0c1.98 0 3.97-.01 5.95-.01.6 0 .6 0 3.63.01h3.21c2.39.13 2.39.13 3.39 1.13.08 1.85.09 3.71.07 5.56l-.03 3.07c-.01.39-.01.39-.04 2.37 1.06-.01 2.11-.01 3.2-.02 3.9-.01 7.8-.03 11.7-.04 1.69 0 3.38-.01 5.08-.02 2.42-.01 4.85-.01 7.27-.02.38 0 .38 0 2.3-.01 1.82 0 3.64.05 5.45.11 1 1 1 1 1.1 3.5-.03 2.84-.06 5.67-.1 8.5h12v13h12v12l3-1c2.7-.18 5.3-.09 8 0 1 1 1 1 1.1 3.5-.03 2.84-.06 5.67-.1 8.5l12 1v12h11v13h-12v-13h-12v-11h-12v24h-12v-13h-36v-12h-48v-12h36V96h-48V84h-11V72l-74 1 1-2c11.72-.17 11.72-.17 71-1V60c1.76-1.76 4.23-1.13 6.61-1.13"/><path fill="#e3a382" d="M638 241h12v36h12v48h-12v-24l-11 1-1 35h-24v-12h-12v12h-24v-12h-12v12h-24v-36h12v-12h12v-12h60v12h12z"/><path fill="#65432f" d="M735 602h1v36l11-1c1 1 1 1 1.1 3.72-.03 3.1-.07 6.19-.1 9.28h23l-1 13h-23v36h-24v12h-61v-12h-12v-13h24v-11h-12v-12h12v-12h-12v-13h12v-12h13v12h-12v12h24v-12h36z"/><path fill="#a78550" d="M349 313h12v48h-12v24h-12v61h-12v156l-11 1-1 23h-12v-60h12V446h-12v-12h12v-73h12v-12h24z"/><path fill="#f5c3a2" d="M422 325h12v12h24v-12h12v12h24v49l-12-1v12h-24v12h-36v-12h-12v-12h-12v-24h12v-24h12z"/><path fill="#e1c286" d="M301 446h12v120h-12v60h-24v61h-12v108h12v36h-12v-24h-12V663h12v-49h12v-24h12v-36h12z"/><path fill="#41291c" d="M398 663h12v12h12v12h12v12h12v12h24v12h-36v12h12v24h-12v12h-24v12h-12v12h-12v-84h12z"/><path fill="#31452d" d="M602 771h48v12h25v12h24v12h24v12h36v12h-60v-12h-24v-12h-25v24h-12v-12h-12v-24h-12v12h-12v12h-25v-12h-11v-24h36z"/><path fill="#46563a" d="M646.143 914.88h2.58c2.81 0 5.62 0 8.44.01h6.09c5.49 0 10.97 0 16.46.01 5.74.01 11.49.01 17.23.01 10.87 0 21.73.01 32.6.02 12.37.01 24.75.01 37.12.02 25.45.01 50.89.03 76.34.05v24h-217v-23c6.82-.62 13.34-1.15 20.14-1.12"/><path fill="#442f2a" d="M470 952h72v72h-72z"/><path fill="#9c7746" d="M349 458h12v48h13v36h12v133h-12v36h-1v-60h-11v24h-13v-37h12v-96h-12z"/><path fill="#f3c1a0" d="M482 385h24v37h60v-12h12v24h24v12l-12-1v13h-84v-12h-12v-12h-12v-12h-13v-13h-11v-12h24z"/><path fill="#886539" d="M700 397h11v85h-12v24h-12v84h-12v-12h-13v-12h-12v-36h12v-36h12v-12h13v-48h12c-.01-1.09-.01-2.17-.02-3.29-.01-4.01-.03-8.02-.03-12.04l-.03-5.21c-.01-2.5-.01-4.99-.02-7.49 0-.78-.01-1.56-.01-2.37 0-1.87.05-3.73.11-5.6z"/><path fill="#21201e" d="M675 145h12l1 11 5.44-.06c1.85-.02 3.71-.01 5.56.06 1 1 1 1 1.11 3.13 0 .92-.01 1.84-.01 2.78-.01.99-.01 1.98-.01 3l-.03 3.15c0 1.05-.01 2.09-.01 3.17-.01 2.59-.03 5.18-.05 7.77l11 1c.85 3.41 1.07 5.38.88 8.77-.05.89-.1 1.77-.15 2.69s-.11 1.84-.17 2.79c-.05.94-.1 1.87-.16 2.84-.13 2.3-.26 4.61-.4 6.91h12c.85 3.41 1.07 5.38.88 8.77-.05.89-.1 1.77-.15 2.69-.03.46-.03.46-.17 2.79-.05.94-.1 1.87-.16 2.84-.13 2.3-.26 4.61-.4 6.91.85-.01 1.71-.02 2.59-.04 1.1 0 2.21-.01 3.35-.02 1.1-.01 2.2-.03 3.34-.04 2.72.1 2.72.1 3.72 1.1.09 2.67.12 5.31.1 7.97 0 .8-.01 1.6-.01 2.42 0 2.56-.01 5.11-.03 7.67 0 1.73-.01 3.46-.01 5.19-.01 4.25-.03 8.5-.05 12.75.78-.08 1.56-.17 2.37-.25.51-.05.51-.05 3.07-.31.5-.05.5-.05 3.06-.32l2.5-.12c1 1 1 1 1.12 3.36 0 1.05 0 2.09-.01 3.17v3.58c0 1.28-.01 2.57-.01 3.89 0 1.31-.01 2.62-.01 3.97 0 3.48-.01 6.97-.02 10.45-.01 3.55-.02 7.1-.02 10.66-.01 6.97-.03 13.95-.05 20.92.78-.01 1.56-.02 2.37-.04 1.01 0 2.02-.01 3.07-.02 1.01-.01 2.02-.03 3.06-.04 2.5.1 2.5.1 3.5 1.1.1 1.57.13 3.14.13 4.71 0 .51 0 .51.01 3.08-.01.57-.01.57-.01 3.42v3.57q.015 4.86 0 9.72c0 3.39 0 6.77.01 10.16 0 5.68 0 11.37-.01 17.06-.01 6.58 0 13.16 0 19.75q.015 8.46 0 16.92c0 3.38 0 6.75.01 10.13 0 3.76-.01 7.52-.01 11.27 0 1.13 0 2.26.01 3.42-.01 1.02-.01 2.03-.01 3.08v2.7C760 446 760 446 759 447h-11v35h-13v-36h12V325h-12v-60h-12v-36h-12v-24h-12v24h-12v-24h11v-24h-11v-24h-12z"/><path fill="#da9173" d="M434 578h12v12h12v12h24v12h72v12h-60v37h-12v-13h-12v-12h-12v12h-12v49h-12z"/><path fill="#d99376" d="M614 482h24v12h-12v24h-12v12h-12v12h12v84h12v48h-12v-24h-12v-72h-12v12h-12v-60h12v-12h12v-12h12z"/><path fill="#af8b57" d="M361 711h1v96h11v-36h12v24h13v24h12v36h12v24h-12v73h-12v-73h-12v-36h-12v-24h-13z"/><path fill="#e2c387" d="M627 181h11v12h12v24h12v36h12l1 36h12v36h12v12h12v12h12v12h-36v-24h-12v-12h-13v-48h-12v-36h-12v-36h-11z"/><path fill="#ba955d" d="M362 651h11v60h-12v-24h-11l-1 144h-24v-84h12v-72h25z"/><path fill="#e29977" d="M494 157h12v12h60v12h-96v12h-24v12h-12v12h-12v24h-12v35h60v1h-60v12h-12v-72h12v-12h12v-12h12v-12h24v-12h36z"/><path fill="#586b47" d="M566 927h12v12h12v13h12v23h12v49h-48z"/><path fill="#040100" d="M614 518h12v36h24v12h-24v48h12v24h12v49h-12v24h-12v-24h-12v-13h12v-48h-12v-84h-12v-12h12z"/><path fill="#3f2c27" d="M434 723h36v12h120v24H470v-12h-24v-12h-12z"/><path fill="#151815" d="M157 675h24v12h-12v12h-24v12h-12v24h-12v24h-12v36H97v60H85v72H73v-73h11c-.01-1.78-.01-3.56-.02-5.4l-.03-17.63c-.01-3.56-.01-7.12-.03-10.69-.01-4.09-.01-8.18-.02-12.28 0-1.28-.01-2.57-.01-3.89v-3.58c-.01-1.05-.01-2.09-.01-3.17C84 795 84 795 85 794c1.85-.07 3.71-.08 5.56-.06.51 0 .51 0 3.07.02.78.02 1.56.03 2.37.04 0-.53 0-.53-.02-3.2-.01-3.9-.03-7.8-.03-11.7l-.03-5.07c-.01-2.43-.01-4.85-.02-7.28 0-.76-.01-1.52-.01-2.3 0-1.82.05-3.63.11-5.45l1-1h11v-24h12c-.01-1.65-.02-3.3-.04-5 0-2.14-.01-4.29-.02-6.44l-.03-3.3c0-1.03 0-2.07-.01-3.13 0-.96-.01-1.92-.01-2.91C120 711 120 711 121 710c3.67-.14 7.33-.04 11 0v-12h12l-.06-5.44c-.02-1.85-.01-3.71.06-5.56 1-1 1-1 3.72-1.1.55.01.55.01 3.34.04 1.11.01 2.21.02 3.35.02.85.02 1.71.03 2.59.04-.16-.5-.16-.5-1-3z"/><path fill="#997648" d="M421 84h1v12h24V84h36v12h12v12h-12v24h-12v13h12v12h-24v-12h-49v-13h25v-12h12v-12h-37V96h12z"/><path fill="#dbbb80" d="M289 843h12v48h12v73h-12v24h-12v24h-12v12h-12v-36h12v-13h12z"/><path fill="#6a7a57" d="M554 771h48v12h-36v241h-12z"/><path fill="#906f3f" d="M373 253h12v72h-11v72h12v14h-1v-13h-11v24h-13v-12h-12v-49h12v-84h12z"/><path fill="#f4c4a5" d="M506 313h24v84h24v25h-48z"/><path fill="#bd9a63" d="M638 121h12v11h12v1h-12v23h12v13h-36v11h-12v-11h-12v-12h-24v-12h-36v-13h84v13h12z"/><path fill="#a38252" d="M410 108h36v12h-12v12h-25v13h49v12h-36v12h-12v12h-12v12h-12v24h-1v-49h-12v-23c1.42-.08 1.42-.08 8.62-.5.89-.05 1.78-.1 2.69-.16 4.23-.24 8.44-.39 12.69-.34-.01-.64-.02-1.29-.04-1.95-.07-7.4.41-14.67 1.04-22.05h12z"/><path fill="#724e38" d="M723 699h24v96h-12v-12h-24v-12h24v-12h-13v-12h-35v-12h35v-12h-35v-12h36z"/><path fill="#677853" d="M446 771h12v253h-12z"/><path fill="#020200" d="M458 771h12v253h-12z"/><path fill="#bf7d65" d="M566 277h60v12h-36v13h-12v11h36v12h-12v12h-24v-12h-12v12h-24v-36h12v-12h12z"/><path fill="#e0c086" d="M711 458h12v48h-12v96h-12v-12h-12v-84h12v-24h12z"/><path fill="#596b47" d="M614 795h12v24h-12v24h-12v24h-12v12h-12v12h-12v-84h11v12h25v-12h12z"/><path fill="#32442a" d="M614 819h12v132h10v1h-10v72h-12v-49h-12v-11h12V855h-12v-12h12z"/><path fill="#edb08a" d="M482 289h72v12h-12v84h12v12h-24v-84h-24v12h-12v-24h-12z"/><path fill="#5a6b48" d="M217 916h48v23h-12v36h-12v37h-12v-48h-12z"/><path fill="#c88269" d="M385 217h1v36h12v36h12v12c-1.98.16-1.98.16-12 1v23h24v12h-36v60h-12v-72h11v-72h-11v-24h11z"/><path fill="#21201f" d="M518 59c7.81-.02 15.61-.04 23.42-.05 3.62-.01 7.25-.01 10.87-.03 3.49-.01 6.99-.01 10.48-.01 1.99-.01 3.98-.02 5.97-.02h3.64c.53 0 .53 0 3.22-.01C578 59 578 59 579 60c.07 1.85.08 3.71.06 5.56-.01 1.01-.02 2.03-.02 3.07-.02.78-.03 1.56-.04 2.37 1.06-.01 2.11-.01 3.2-.02 3.9-.01 7.8-.03 11.7-.03l5.07-.03c2.43-.01 4.85-.01 7.28-.02.38 0 .38 0 2.3-.01 1.82 0 3.63.05 5.45.11 1 1 1 1 1.1 3.5-.03 2.84-.07 5.67-.1 8.5h12v13h12v12l3-1c2.69-.18 5.29-.09 8 0 1 1 1 1 1.1 3.5-.03 2.84-.07 5.67-.1 8.5l12 1v12h11v13h-12v-13h-12v-11h-12v24h-12v-13h-12v-12h24v-12h-12V96h-12V84h-36V72c-.75 0-.75 0-4.55.02-5.6.01-11.2.03-16.8.03l-7.26.03c-3.48.01-6.97.01-10.45.02-1.08 0-2.15.01-3.26.01-5.66 0-11.08-.26-16.68-1.11z"/><path fill="#563a20" d="M422 157c4.16-.05 8.33-.09 12.49-.11 1.41-.01 2.83-.02 4.24-.04 2.04-.03 4.08-.04 6.12-.05l3.71-.03c3.48.23 6.21.98 9.44 2.23q.045 2.22.06 4.44c.01.82.03 1.64.04 2.49C458 168 458 168 457 169v11h-24v12h-11v13h-12v12h-12v36h-12v-60h12v-12h12v-12h12z"/><path fill="#435239" d="M434 879h12v145h-36v-12h12v-37h12z"/><path fill="#374a32" d="M253 939h12v85h-48v-60h12v48h12v-37h12z"/><path fill="#e49d7c" d="M566 181h24v12h12v12h12v12h12v24h12v48h-12v-12h-12v-36h-12v-24h-12v-12h-12v-12h-12z"/><path fill="#040201" d="M711 506h11c1.17 31.66 1.11 63.32 1 95h12v37h-12v-12h-12v-12h-24v-12h-12v-12h24v12h12z"/><path fill="#9c7744" d="M675 241h12v36h12v36h12v12h12v12h12v12h12v24h-12v-12h-12v-12h-12v-12h-12v-12h-12v-36h-12z"/><path fill="#171817" d="M940 795v35h11c1 1 1 1 1.12 3.4 0 1.06 0 2.13-.01 3.22v3.64c0 1.31-.01 2.62-.01 3.96 0 1.35-.01 2.69-.01 4.03 0 3.55-.01 7.09-.02 10.63-.01 3.62-.02 7.23-.02 10.84-.01 7.09-.03 14.19-.05 21.28 1.07-.16 2.14-.33 3.25-.5 3.75-.5 3.75-.5 7.75-.5 1.16 3.49 1.13 6.22 1.13 9.9v2.11c.01 2.31.01 4.62 0 6.94 0 1.61 0 3.22.01 4.83 0 3.38 0 6.76-.01 10.14-.01 4.31 0 8.63 0 12.94q.015 4.995 0 9.99c0 1.59 0 3.18.01 4.77.01 7.85-.03 15.59-1.14 23.38h-12v-84h-12v-60h-12v-35c10-1 10-1 13-1"/><path fill="#dfbf83" d="M350 687h11v132h12v48h-12v-36h-12c-.02-15.97-.04-31.94-.05-47.91-.01-7.42-.01-14.83-.03-22.25-.01-6.47-.01-12.95-.01-19.42-.01-3.42-.01-6.84-.02-10.26-.02-14.76.1-29.44 1.11-44.16"/><path fill="#c29f6d" d="M324 205h1v24h12v72h-12v36h-12l-.39-26.3-.18-12.22c-.26-17.13-.48-34.26-.52-51.39 0-1.6-.01-3.21-.01-4.82-.01-2.21-.02-4.43-.02-6.64v-3.82C312 229 312 229 313 228h11z"/><path fill="#ecb08d" d="M482 385h24v49h24v12h-36v-12h-12v-12h-13v-13h-11v-12h24z"/><path fill="#080706" d="M747 325h13c.02 15.76.04 31.52.05 47.28.01 7.31.01 14.63.03 21.95.01 6.37.01 12.75.01 19.12.01 3.38.01 6.76.02 10.14v11.29c.01 1.13.01 2.25.01 3.42v5.79C760 446 760 446 759 447h-11v35h-13v-36h12z"/><path fill="#815f34" d="M422 879h12v96h-12v37h-12v12h-12v-24h12v-36h12z"/><path fill="#fcfaf7" d="M470 470h96v12h-12v12h-72v-12h-12z"/><path fill="#9f524d" d="M446 458h144v12h-12v12h-12v-12h-96v12h-12v-12h-12z"/><path fill="#c7a56b" d="M373 819h1v24h12v36h12v73h-13v-60h-11v96h-1v-97h-12v-24h12z"/><path fill="#7e5c31" d="M349 903h12v85h-12v24h-12v12h-12v-24h12v-36h12z"/><path fill="#000200" d="M843 867h12v157h-12z"/><path fill="#060200" d="M410 518h12v12h12v12h-12v121h-12z"/><path fill="#586946" d="M626 952h36v12h-12v60h-24z"/><path fill="#b87761" d="M614 482h24v12h-12v24h-12v12h-12v36h-24v-36h12v-12h12v-12h12z"/><path fill="#9e7a48" d="M349 313h12v48h-12v24h-12v49h-12v-61h12v-24h12z"/><path fill="#b18f57" d="M313 518h12v84c-1.81.16-1.81.16-11 1l-1 23h-12v-60h12z"/><path fill="#e8e1cb" d="M470 1000h72v24h-72z"/><path fill="#eae4cb" d="M470 915h72v24h-72z"/><path fill="#442d29" d="M470 891h72v24h-72z"/><path fill="#e9e2ca" d="M470 867h72v24h-72z"/><path fill="#95703f" d="M277 843h12v132h-12v-72h-12v-12h12z"/><path fill="#e9e3cb" d="M470 831h72v24h-72z"/><path fill="#442e29" d="M470 807h72v24h-72z"/><path fill="#4b5b3e" d="M422 795h24v84h-24v-48h12v-24h-12z"/><path fill="#bcae96" d="M470 783h72v24h-72z"/><path fill="#020201" d="M747 699h12v120h-36v-12h24z"/><path fill="#77552b" d="M325 699h12v48h-12v84h-12v-96h12z"/><path fill="#b8945d" d="M301 675h12v24h12v36h-12v48h-12z"/><path fill="#040300" d="M206 651h23v132h-12V663h-11z"/><path fill="#b68f58" d="M374 892h11v60h13v36h-12v12h-12z"/><path fill="#405135" d="M662 952h13v72h-25v-60h12z"/><path fill="#e9e2c9" d="M470 952h72v23h-72z"/><path fill="#121311" d="M84 795h13v60H85v72H73v-73h11z"/><path fill="#7d5b2f" d="M301 843h12v36h12v85h-12v-73h-12z"/><path fill="#020201" d="M590 735h24v12h-12v12h48v12h-96v-12h36z"/><path fill="#a08a69" d="M397 108h13v12h-12l.06 5.81c.01 6.12-.38 12.11-1.06 18.19-8.04.9-15.92 1.09-24 1v23h12v25h-12v-24h-12v12h-12c-.76-7.98-1.46-15.98-1-24 1.74-1.74 4.19-1.37 6.56-1.56 1.01-.09 2.03-.17 3.07-.26.78-.06 1.56-.12 2.37-.18-.01-.71-.02-1.42-.04-2.15 0-.46 0-.46-.02-2.79-.01-.91-.03-1.83-.04-2.77.1-2.29.1-2.29 1.1-3.29 2.02-.07 4.04-.08 6.06-.06 1.11.01 2.21.02 3.35.02.85.02 1.71.03 2.59.04-.04-.39-.04-.39-.25-2.37-.11-1.01-.21-2.02-.31-3.07-.11-1.01-.21-2.02-.32-3.06L372 133c1-1 1-1 3.72-1.1 3.1.03 6.19.07 9.28.1v-12l11-1z"/><path fill="#dfc086" d="M542 132h48v13h24v12h12v23h-12v-11h-12v-12h-24v-12h-36z"/><path fill="#596a48" d="M602 975h12v49h-48v-12h12v-12h12v-12h12z"/><path fill="#010301" d="M205 903h12v121h-12z"/><path fill="#566745" d="M723 927h120v12H723z"/><path fill="#46593b" d="M855 771h12v12h12v12h12v36h-24v-24h-12z"/><path fill="#ab6d57" d="M398 482h24v24h12v12h12v12h12v24h-12v-12h-12v-12h-12v-12h-12v-24h-12z"/><path fill="#c9726d" d="M482 506h72v12h-12v12h-48v-12h-12z"/><path fill="#c68268" d="M638 241h12v36h12v48h-12v-24h-24v-12h12z"/><path fill="#d68f70" d="M494 157h12v12h60v12H458v-12h36z"/><path fill="#7b592e" d="M265 687h12v108h-12z"/><path fill="#c7a36b" d="M602 169h12v11h12v-11h24v24h-12v-12h-11v24h11v36h-12v-48h-12v-12h-12z"/><path fill="#b7925b" d="M277 626h24v37h-12v24h-12z"/><path fill="#33462b" d="M915 915h12v37h-12v23h-12v13h-12v-24h12v-25h12z"/><path fill="#dcbc82" d="M325 349h12v24h-12v61h-12v-73h12z"/><path fill="#6b7c57" d="M626 819h12c.02 12.5.04 25 .05 37.5.01 5.8.01 11.61.03 17.41.01 5.59.01 11.19.01 16.79.01 2.14.01 4.28.02 6.42v8.95c.01.9.01 1.79.01 2.71-.01 6.11-.01 6.11-1.12 7.22h-11z"/><path fill="#977443" d="M700 397h11v85h-12v-36h-12v-12h12c-.01-1.09-.01-2.17-.02-3.29-.01-4.01-.03-8.02-.03-12.04l-.03-5.21c-.01-2.5-.01-4.99-.02-7.49 0-.78-.01-1.56-.01-2.37 0-1.87.05-3.73.11-5.6z"/><path fill="#020200" d="M434 879h12v96h-12z"/><path fill="#2d442b" d="M843 795h12v12h12v24h-12v36h-12z"/><path fill="#e4dec7" d="M470 747h96v12h-96z"/><path fill="#040101" d="M470 723h96v12h-96z"/><path fill="#030100" d="M386 711h12v60h12v12h-12v12h-12z"/><path fill="#52371e" d="M361 325h12v72h-12v-12h-12v-24h12z"/><path fill="#9e7a46" d="M675 241h12v36h12v48h-12v-36h-12z"/><path fill="#885938" d="M566 277h60v12h-36v12h-36v-12h12z"/><path fill="#8a5c3a" d="M410 277h60v12h12v12h-36v-12h-36z"/><path fill="#5a3c21" d="M566 169h36v12h12v12h12v24h-12v-12h-12v-12h-12v-12h-24z"/><path fill="#010201" d="M940 795v35h11v61h-12v-60h-12v-35c10-1 10-1 13-1"/><path fill="#2f442c" d="M217 916h48v23h-48z"/><path fill="#b28b52" d="M675 145h12l1 11 5.44-.06c1.85-.02 3.71-.01 5.56.06 1 1 1 1 1.11 3.13 0 .92-.01 1.84-.01 2.78-.01.99-.01 1.98-.01 3l-.03 3.15c0 1.05-.01 2.09-.01 3.17-.01 2.59-.03 5.18-.05 7.77l11 1c.85 3.41 1.07 5.38.88 8.77-.05.89-.1 1.77-.15 2.69s-.11 1.84-.17 2.79c-.05.94-.1 1.87-.16 2.84-.13 2.3-.26 4.61-.4 6.91h12v1h-24v24h-12v-24h11v-24h-11v-24h-12z"/><path fill="#6e4d28" d="M361 554h13v84h-13z"/><path fill="#987648" d="M409 132h61v13h12v12h-24v-12h-49z"/><path fill="#987545" d="M530 145h48v12h24v12h-96v-10h1v9h59v-11h-36z"/><path fill="#040401" d="M265 903h12v85h-12z"/><path fill="#c29f6b" d="M409 145h49v12h-36v12h-12v12h-12v-24h11z"/><path fill="#f9dcc5" d="M507 361h11v37h12v24h-24c-.02-7.81-.04-15.61-.05-23.42-.01-3.62-.01-7.25-.03-10.87-.01-3.49-.01-6.99-.01-10.48-.01-1.99-.02-3.98-.02-5.97v-3.64c-.01-1.06-.01-2.13-.01-3.22.12-2.4.12-2.4 1.12-3.4"/><path fill="#e4c285" d="M325 747h12v84h-12z"/><path fill="#465739" d="M759 735h12v84h-12z"/><path fill="#ae8851" d="M699 518h12v84h-12z"/><path fill="#6b4b29" d="M349 458h12v84h-12z"/><path fill="#e5a682" d="M530 325h12v60h12v12h-24z"/><path fill="#e2c185" d="M675 205h12v24h12v48h-12v-36h-12z"/><path fill="#030201" d="M735 639h12v12h24l-1 12h-23v36h-12z"/><path fill="#a6814f" d="M410 108h36v12h-12v12h-25v12h-11v-24h12z"/><path fill="#a98b5e" d="M638 96h1v12l3-1c2.69-.18 5.29-.09 8 0 1 1 1 1 1.1 3.5-.03 2.84-.07 5.67-.1 8.5l12 1v12h11v13h-12v-13h-12v-11h-12v24h-12v-13h-12v-12h24z"/><path fill="#050201" d="M374 398h11v72h-11v-36h-13v-12h13z"/><path fill="#3f2b24" d="M470 939h72v13h-72z"/><path fill="#0c0e0c" d="M879 723h13v11l5.44-.06c1.85-.02 3.71-.01 5.56.06 1 1 1 1 1.1 3.5-.01 1.01-.03 2.02-.04 3.06-.01 1.01-.02 2.03-.02 3.07-.02.78-.03 1.56-.04 2.37.78-.01 1.56-.02 2.37-.04 1.01 0 2.02-.01 3.07-.02 1.01-.01 2.02-.03 3.06-.04 2.5.1 2.5.1 3.5 1.1.14 3.67.04 7.33 0 11h11v37h-12v-36h-12v-12h-12v-12h-12z"/><path fill="#3b4d32" d="M759 916h84v11h-84z"/><path fill="#664626" d="M699 385h24v61h-12v-49c-1.98.17-1.98.17-12 1z"/><path fill="#825f34" d="M398 879h12v73h-12z"/><path fill="#060301" d="M398 663h12v12h12v12h12c.1 8.5.1 8.5 0 11-1 1-1 1-3.72 1.1-1.55-.02-1.55-.02-9.28-.1v-12h-11v24h-12z"/><path fill="#d9b87b" d="M735 373h12v73l-12-1z"/><path fill="#8b6f44" d="M289 988h12v12h12v24h-36v-12h12z"/><path fill="#6b7b57" d="M626 952h12v72h-12z"/><path fill="#010301" d="M61 928h12v72H61z"/><path fill="#3f2b25" d="M470 855h72v12h-72z"/><path fill="#b58f57" d="M337 831h24v36h-24z"/><path fill="#9d7742" d="M241 663h12v72h-12z"/><path fill="#070100" d="M482 578h72v12h-72z"/><path fill="#d79276" d="M482 566h72v12h-72z"/><path fill="#997440" d="M277 554h12v36h-12v24h-12v-36h12z"/><path fill="#78572f" d="M313 518h12v72h-12z"/><path fill="#020100" d="M277 398h12v72h-12z"/><path fill="#030201" d="M566 313h48v12h-12v12h-24v-12h-12z"/><path fill="#040201" d="M422 313h48v12h-12v12h-24v-12h-12z"/><path fill="#a7804a" d="M699 205h12v72h-12z"/><path fill="#ba965f" d="M362 651h11v60h-12v-24h-11v19h-1v-31h13z"/><path fill="#323332" d="M120 711h1v48h-12v36H85v-1h11c-.01-1.06-.01-2.11-.02-3.2-.01-3.9-.03-7.8-.03-11.7l-.03-5.07c-.01-2.43-.01-4.85-.02-7.28 0-.76-.01-1.52-.01-2.3 0-1.82.05-3.63.11-5.45l1-1h11v-24h12z"/><path fill="#020201" d="M447 72h71v12c-23.69.15-47.33-.24-71-1z"/><path fill="#8f714d" d="M517 60c2 4 2 4 2 11 9.74.16 9.74.16 59 1v12h-59V72l-74 1 1-2c11.71-.16 11.71-.16 71-1z"/><path fill="#030302" d="M290 326h11v71h-12c-1.46-2.91-.84-5.2-.56-8.44.43-5.61.62-11.18.56-16.81-.09-9.82.21-19.62.5-29.44.02-.8.05-1.61.07-2.44.14-4.62.28-9.25.43-13.87"/><path fill="#5a3e23" d="M518 145h12v12h36v11h-59l-1-11h12z"/><path fill="#6c7d58" d="M675 952h11v72h-11z"/><path fill="#51371d" d="M374 253h11v72h-11z"/><path fill="#030201" d="M578 72h37v11h12v13h11v12h-12V96h-12V84h-36z"/><path fill="#cb856b" d="M650 325h12v61h-11v11h-1z"/><path fill="#0b0908" d="M711 205h13l-1 23h12v37h-12v-36h-12z"/><path fill="#556544" d="M626 927h61v12h-61z"/><path fill="#e1c084" d="M386 891h12v61h-12z"/><path fill="#9d7a47" d="M675 530h12v60h-12c-1.06-13.23-.95-26.3-.56-39.56.05-2 .1-3.99.16-5.98.12-4.82.26-9.64.4-14.46"/><path fill="#2c432b" d="M205 843h12v60h-12z"/><path fill="#000100" d="M85 795h12v60H85z"/><path fill="#402d27" d="M434 723h36v24h-24v-12h-12z"/><path fill="#492b1b" d="M675 687h24v12h24v12h-36v-12h-12z"/><path fill="#d78f70" d="M398 482h24v24h12v12h-24v-24h-12z"/><path fill="#070301" d="M650 422h24v12h-12v36h-12z"/><path fill="#9a5c49" d="M482 422h24v12h24v12h-36v-12h-12z"/><path fill="#c3a06d" d="M530 84h60v12h-60z"/><path fill="#cca870" d="M590 84h24v12h12v12c-3.94.03-7.87.05-11.81.06-.55.01-.55.01-3.34.03-1.09 0-2.18 0-3.31.01-.49 0-.49 0-3 .01-4.86-.15-9.7-.67-14.54-1.11z"/><path fill="#4e2e1b" d="M687 747h35v12h13v12h-24v-12h-24z"/><path fill="#4a2c1c" d="M398 723h12v12h11v12h-11v24h-12z"/><path fill="#bc9764" d="M361 169h12v36h-23v-24h11z"/><path fill="#0d0603" d="M649 656h1v31h-12v24h-12v-24h-12v-13q5.97-.045 11.94-.06l3.44-.03c1.08 0 2.16 0 3.27-.01.5 0 .5 0 3.03-.01C638 674 638 674 639 675c.07 1.85.08 3.71.06 5.56-.01 1.01-.02 2.03-.02 3.07-.02.78-.03 1.56-.04 2.37h10z"/><path fill="#030201" d="M313 265v60h-11v-59c9-1 9-1 11-1"/><path fill="#131412" d="M964 975h12v49h-13c-.02-6.82-.04-13.64-.05-20.45l-.03-6.97c-.01-3.33-.01-6.65-.02-9.98 0-1.05-.01-2.09-.01-3.17v-2.91c-.01-.85-.01-1.7-.01-2.58C963 976 963 976 964 975"/><path fill="#aa9d8a" d="M470 915h72v24h-12v-23h-48v23h-12z"/><path fill="#bfb29b" d="M470 831h12v23h48v-23h12v24h-72z"/><path fill="#ccaa73" d="M373 193h12v36h-11v24h-1v-36h-11v24h-1v-36h12z"/><path fill="#826b4a" d="M397 108h13v12h-12l.06 5.81c.01 6.12-.38 12.11-1.06 18.19-8.02.9-15.93 1.12-24 1-.19-1.98-.38-3.96-.56-5.94-.11-1.1-.21-2.2-.32-3.34-.04-.9-.08-1.79-.12-2.72 1-1 1-1 3.72-1.1 3.1.03 6.19.07 9.28.1v-12l11-1z"/><path fill="#ba765e" d="M675 385h12v25h-12v12h-13v-24h13z"/><path fill="#714d37" d="M650 687h24v12h13v12h-25v-12h-12z"/><path fill="#9c7742" d="M253 614h12v49h-12z"/><path fill="#33462b" d="M145 843h12v48h-12z"/><path fill="#2b4229" d="M169 819h12v48h-12z"/><path fill="#647552" d="M181 819h12v48h-12z"/><path fill="#4a401f" d="M578 795h23c.78 8.14 1 15.73 1 24h-25c0-8.27.22-15.86 1-24"/><path fill="#040300" d="M229 783h12v48h-12z"/><path fill="#050302" d="M422 723h12v12h12v24h-12v-12h-12z"/><path fill="#060200" d="M434 699h12v12h24v12h-36z"/><path fill="#020100" d="M229 602h12v48h-12z"/><path fill="#030202" d="M723 602h12v36h-12v-12h-12v-12h12z"/><path fill="#050200" d="M675 590h24v12h12v12h-24v-12h-12z"/><path fill="#d98f74" d="M494 518h48v12h-48z"/><path fill="#c09d64" d="M711 458h12v48h-12z"/><path fill="#050402" d="M265 470h12v48h-12z"/><path fill="#aa6d54" d="M349 385h12v13h12v23h-12v-11h-12z"/><path fill="#d2886f" d="M422 349h48v12h-48z"/><path fill="#d99074" d="M566 349h48v12h-48z"/><path fill="#5b3d21" d="M650 277h12v48h-12z"/><path fill="#b18b55" d="M686 157h1v24h11v24h-23v-24h11z"/><path fill="#79562f" d="M542 120h48v12h-48z"/><path fill="#412e28" d="M410 687h11v12c2.14-.16 2.14-.16 13-1v25h-12v-12h-12z"/><path fill="#cdac76" d="M602 145h12v12h12v23h-12v-11h-12z"/><path fill="#050402" d="M254 519h11v47h-12c-.02-6.53-.04-13.07-.05-19.6l-.03-6.67c-.01-3.19-.01-6.38-.02-9.57 0-1-.01-2-.01-3.03v-2.79c-.01-.82-.01-1.63-.01-2.47C253 520 253 520 254 519"/><path fill="#4e5e42" d="M217 916h48v11h-48z"/><path fill="#e7e0c8" d="M482 795h48v11h-48z"/><path fill="#775139" d="M735 602h1v36l11-1c1 1 1 1 1.1 3.72-.03 3.1-.07 6.19-.1 9.28h23v1h-24v-12h-12v11h-36v-12h36z"/><path fill="#734e2d" d="M566 157h36v12h-96v-10h1v9h59z"/><path fill="#b2a189" d="M228 602h1v48h12v2h-10v129h11v38h-1v-36h-12V651h-23v12h-25v12h-24v-1h23v-12l24-1v-8l1-3h23z"/><path fill="#e7a481" d="M398 253h12v23h60v1h-60v12h-12z"/><path fill="#181b18" d="M940 795v35h11v1h-24v-35c10-1 10-1 13-1"/><path fill="#c5a16e" d="M265 988h12v23h11v-23h1v24h-12v12h-12z"/><path fill="#020402" d="M771 663h25v11l5.44-.06c1.85-.02 3.71-.01 5.56.06 1 1 1 1 1.13 3.21 0 .9 0 1.8-.01 2.73.01.45.01.45.01 2.71C808 685 808 685 807 687h-12v-12h-24z"/><path fill="#d98d71" d="M392 410h6v60h-12c-.13-12.19-.13-12.19 1-17h3v4h2zm-4 35h1v8h-1z"/><path fill="#2b2723" d="M651 108v11l12 1v12h11v13h-12v-13h-12v-12h-11v-11c8.62-1 8.62-1 12-1"/><path fill="#693e2b" d="M674 385h1v13h-13v24h-12c-.03-3.94-.05-7.87-.06-11.81l-.03-3.34c-.02-7.02.35-13.87 1.09-20.85h11v11h12z"/><path fill="#030301" d="M422 975h12v37h-12z"/><path fill="#715029" d="M349 638h12v37h-12z"/><path fill="#7c592e" d="M289 626h12v37h-12z"/><path fill="#b7715a" d="M542 313h12c1.12 9.75 1.12 9.75 0 12h12v12h-24z"/><path fill="#040401" d="M253 988h12v36h-12z"/><path fill="#825f32" d="M386 952h12v36h-12z"/><path fill="#78562b" d="M337 867h12v36h-12z"/><path fill="#040301" d="M253 867h12v36h-12z"/><path fill="#805e30" d="M386 843h12v36h-12z"/><path fill="#2c4129" d="M867 831h12v36h-12z"/><path fill="#60714e" d="M855 831h12v36h-12z"/><path fill="#dfbf83" d="M337 831h12v36h-12z"/><path fill="#846234" d="M325 831h12v36h-12z"/><path fill="#020200" d="M241 831h12v36h-12z"/><path fill="#030200" d="M410 819h12v36h-12z"/><path fill="#2d432a" d="M879 795h12v36h-12z"/><path fill="#657652" d="M867 795h12v36h-12z"/><path fill="#44573a" d="M638 795h12v36h-12z"/><path fill="#79572b" d="M277 795h12v36h-12z"/><path fill="#2e442b" d="M145 759h12v36h-12z"/><path fill="#755138" d="M626 735h36v12h-36z"/><path fill="#392922" d="M602 711h12v24h-24v-12h12z"/><path fill="#734f39" d="M687 711h36v12h-36z"/><path fill="#4a2d1d" d="M638 687h12v12h12v12h-24z"/><path fill="#bd965d" d="M325 614h12v36h-12z"/><path fill="#bd985d" d="M337 578h12v36h-12z"/><path fill="#b47562" d="M590 542h12v24h-24v-12h12z"/><path fill="#bc9b67" d="M650 530h12v36h-12z"/><path fill="#b6715c" d="M578 530h24v12h-12v12h-12z"/><path fill="#ce726b" d="M554 482h24v12h-12v12h-12z"/><path fill="#de9777" d="M614 482h24v12h-12v12h-12z"/><path fill="#977546" d="M349 458h12v36h-12z"/><path fill="#d69274" d="M422 434h12v36h-12z"/><path fill="#040301" d="M735 446h12v36h-12z"/><path fill="#c39f6a" d="M687 446h12v36h-12z"/><path fill="#9a7441" d="M325 301h12v36h-12z"/><path fill="#9f7844" d="M675 241h12v36h-12z"/><path fill="#5c3d21" d="M638 241h12v36h-12z"/><path fill="#dc9676" d="M398 217h12v36h-12z"/><path fill="#54361b" d="M386 217h12v36h-12z"/><path fill="#6d4b2a" d="M434 120h36v12h-36z"/><path fill="#75532d" d="M542 96h36v12h-36z"/><path fill="#6f4e2e" d="M458 96h36v12h-36z"/><path fill="#687854" d="M157 759h12v36h-12z"/><path fill="#734f38" d="M687 735h35v12h-35z"/><path fill="#4d2e1c" d="M687 723h35v12h-35z"/><path fill="#b29261" d="M398 120h23v12h-12v12h-11z"/><path fill="#7b5834" d="M422 157c4.16-.05 8.33-.09 12.49-.11 1.41-.01 2.83-.02 4.24-.04 2.04-.03 4.08-.04 6.12-.05l3.71-.03c3.48.23 6.21.98 9.44 2.23v9c-12.02.74-23.96 1.14-36 1z"/><path fill="#2e432c" d="M759 916h36v11h-36z"/><path fill="#040200" d="M314 229h11v36h-11z"/><path fill="#d4af77" d="M422 145h36v11h-36z"/><path fill="#030201" d="M242 567h11v35h-11z"/><path fill="#8d693e" d="M385 217h1v108h-1v-72h-11v-24h11z"/><path fill="#c8957f" d="M470 711h12v11h72v-11h12v12h-96z"/><path fill="#c2b8b1" d="M566 325h12v12h24v-12h12v12h12v1h-72v-1h12z"/><path fill="#b8aca4" d="M422 325h12v12h24v-12h12c.1 9.28.1 9.28 0 12-1 1-1 1-3.36 1.12-1.05 0-2.09 0-3.17-.01h-3.58c-1.28 0-2.57-.01-3.89-.01-1.31 0-2.62-.01-3.97-.01-3.48 0-6.97-.01-10.45-.02-3.55-.01-7.1-.02-10.66-.02-6.97-.01-13.95-.03-20.92-.05v-1h12z"/><path fill="#202220" d="M879 723h13v11l5.44-.06c1.85-.02 3.71-.01 5.56.06 1 1 1 1 1.1 3.5-.03 2.84-.07 5.67-.1 8.5h11v1h-24v-12h-12z"/><path fill="#7a756f" d="M301 265h10v1h-9v59h11v1h-11v71h-1v-71h-11v54l-2-1c-.03-7.67-.04-15.34-.05-23.02l-.03-7.83c-.01-3.75-.01-7.49-.02-11.24 0-1.18-.01-2.35-.01-3.56v-3.28c-.01-.96-.01-1.91-.01-2.9C288 325 288 325 289 324c1.85-.07 3.71-.08 5.56-.06 1.01.01 2.03.02 3.07.02.39.01.39.01 2.37.04 0-.67 0-1.33-.01-2.02-.02-6.92-.03-13.85-.04-20.78l-.03-7.75c-.01-3.72-.01-7.43-.02-11.15 0-1.15-.01-2.31-.01-3.5v-3.28c-.01-.94-.01-1.89-.01-2.87.12-2.64.53-5.07 1.12-7.65"/><path fill="#33302d" d="M614 72h1v11h12v13h11v12h-12V96h-12z"/><path fill="#121211" d="M48 1000h13v24H48z"/><path fill="#7e5a30" d="M590 132h24v13h-24z"/><path fill="#311e19" d="M470 891h12v22h9l2 2h-23z"/><path fill="#301f1a" d="M530 891h12v24h-21v-1l9-2z"/><path fill="#33211c" d="M530 975h12v25h-12z"/><path fill="#31201a" d="M470 975h12v25h-12z"/><path fill="#4f5e41" d="M662 927h25v12h-25z"/><path fill="#030200" d="M650 771h25v12h-25z"/><path fill="#714d37" d="M662 747h25v12h-25z"/><path fill="#4d2e1c" d="M662 735h25v12h-25z"/><path fill="#755037" d="M662 723h25v12h-25z"/><path fill="#4c2d1b" d="M662 711h25v12h-25z"/><path fill="#b7925d" d="M409 145h1v36h-12v-24h11z"/><path fill="#34221b" d="M470 807h14c-.33.16-.33.16-2 1v23h-12z"/><path fill="#beb49c" d="M530 1000h12v24h-12z"/><path fill="#bfb29a" d="M470 1000h12v24h-12z"/><path fill="#815e32" d="M361 1000h12v24h-12z"/><path fill="#7b5a2f" d="M301 964h12v24h-12z"/><path fill="#bdb29b" d="M530 867h12v24h-12z"/><path fill="#2f4529" d="M891 867h12v24h-12z"/><path fill="#c2b59d" d="M470 867h12v24h-12z"/><path fill="#b69056" d="M361 867h12v24h-12z"/><path fill="#86663c" d="M410 855h12v24h-12z"/><path fill="#010100" d="M422 855h12v24h-12z"/><path fill="#b58f58" d="M374 843h12v24h-12z"/><path fill="#404e37" d="M229 831h12v24h-12z"/><path fill="#7a582c" d="M374 819h12v24h-12z"/><path fill="#3f5034" d="M193 819h12v24h-12z"/><path fill="#324429" d="M133 819h12v24h-12z"/><path fill="#8d6a3e" d="M386 795h12v24h-12z"/><path fill="#020200" d="M699 795h24v12h-24z"/><path fill="#030301" d="M398 795h12v24h-12z"/><path fill="#3e5133" d="M181 795h12v24h-12z"/><path fill="#657653" d="M169 795h12v24h-12z"/><path fill="#2c4228" d="M157 795h12v24h-12z"/><path fill="#040401" d="M675 783h24v12h-24z"/><path fill="#2a4127" d="M891 771h12v24h-12z"/><path fill="#677855" d="M879 771h12v24h-12z"/><path fill="#755039" d="M711 771h24v12h-24z"/><path fill="#455739" d="M169 771h12v24h-12z"/><path fill="#714d37" d="M687 759h24v12h-24z"/><path fill="#49593e" d="M434 759h12v24h-12z"/><path fill="#020301" d="M410 759h24v12h-24z"/><path fill="#3f2c25" d="M566 747h24v12h-24z"/><path fill="#3e2e26" d="M590 735h24v12h-24z"/><path fill="#2e452a" d="M133 735h12v24h-12z"/><path fill="#ebe3cb" d="M566 735h24v12h-24z"/><path fill="#e8e0ca" d="M446 735h24v12h-24z"/><path fill="#6d7d59" d="M145 735h12v24h-12z"/><path fill="#010201" d="M109 735h12v24h-12z"/><path fill="#47332b" d="M566 723h24v12h-24z"/><path fill="#060100" d="M566 711h24v12h-24z"/><path fill="#647353" d="M133 711h12v24h-12z"/><path fill="#755039" d="M638 711h24v12h-24z"/><path fill="#040301" d="M614 711h12v24h-12z"/><path fill="#372621" d="M434 699h12v24h-12z"/><path fill="#030603" d="M121 711h12v24h-12z"/><path fill="#020301" d="M831 699h24v12h-24z"/><path fill="#d49176" d="M566 699h24v12h-24z"/><path fill="#040201" d="M626 687h12v24h-12z"/><path fill="#74532b" d="M337 675h12v24h-12z"/><path fill="#4b2b1b" d="M675 663h24v12h-24z"/><path fill="#78562b" d="M277 663h12v24h-12z"/><path fill="#b8955f" d="M265 663h12v24h-12z"/><path fill="#000100" d="M181 663h24v12h-24z"/><path fill="#74503a" d="M675 651h24v12h-24z"/><path fill="#b9935b" d="M313 651h12v24h-12z"/><path fill="#79562c" d="M301 602h12v24h-12z"/><path fill="#b7915e" d="M289 602h12v24h-12z"/><path fill="#090200" d="M554 566h24v12h-24zm-96 0h24v12h-24z"/><path fill="#d1ad72" d="M687 566h12v24h-12z"/><path fill="#d79375" d="M458 554h24v12h-24z"/><path fill="#c19e68" d="M349 542h12v24h-12z"/><path fill="#a27d4b" d="M662 506h12v24h-12z"/><path fill="#765830" d="M675 506h12v24h-12z"/><path fill="#060100" d="M626 494h12v24h-12z"/><path fill="#050100" d="M398 494h12v24h-12z"/><path fill="#cb726c" d="M470 482h12v24h-12z"/><path fill="#be9d65" d="M337 494h12v24h-12z"/><path fill="#7a5a31" d="M687 482h12v24h-12z"/><path fill="#cfac76" d="M675 482h12v24h-12z"/><path fill="#080200" d="M386 470h12v24h-12z"/><path fill="#e5c58c" d="M711 458h12v24h-12z"/><path fill="#e09879" d="M506 446h24v12h-24z"/><path fill="#985d49" d="M506 434h24v12h-24z"/><path fill="#af6c55" d="M602 434h12v24h-12z"/><path fill="#f2be9f" d="M506 422h24v12h-24z"/><path fill="#975c48" d="M530 422h24v12h-24z"/><path fill="#af6e58" d="M554 398h12v24h-12z"/><path fill="#a16450" d="M470 398h12v24h-12z"/><path fill="#e1c287" d="M325 349h12v24h-12z"/><path fill="#997240" d="M711 277h12v24h-12z"/><path fill="#bc9a64" d="M361 253h12v24h-12z"/><path fill="#997340" d="M662 217h12v24h-12z"/><path fill="#53351b" d="M626 217h12v24h-12z"/><path fill="#e9a17f" d="M410 217h12v24h-12z"/><path fill="#d7b376" d="M699 205h12v24h-12z"/><path fill="#040201" d="M325 205h12v24h-12z"/><path fill="#9b7440" d="M650 193h12v24h-12z"/><path fill="#da9172" d="M566 181h24v12h-24z"/><path fill="#ab8853" d="M638 169h12v24h-12z"/><path fill="#825c30" d="M373 169h12v24h-12z"/><path fill="#a7814d" d="M386 157h12v24h-12z"/><path fill="#9f7a45" d="M639 145h11v11h12v13h-12v-12h-11z"/><path fill="#79542e" d="M410 132h24v12h-24z"/><path fill="#d5b27a" d="M614 108h24v12h-24z"/><path fill="#c7a36b" d="M422 108h24v12h-24z"/><path fill="#9a7748" d="M518 96h24v12h-24z"/><path fill="#8e6d41" d="M590 84h24v12h-24z"/><path fill="#020100" d="M422 84h24v12h-24z"/><path fill="#846436" d="M361 711h1v96h11v-36h1v48h-13z"/><path fill="#34211b" d="M530 807h12v24h-12z"/><path fill="#baae97" d="M530 952h12v23h-12z"/><path fill="#bdaf96" d="M470 952h12v23h-12z"/><path fill="#bfb199" d="M470 916h12v23h-12z"/><path fill="#020602" d="M855 711h23v12h-23z"/><path fill="#4d2d1b" d="M699 651h23v12h-23z"/><path fill="#d18c75" d="M361 398h12v23h-12z"/><path fill="#dc9475" d="M530 325h12c.1 8.09-.23 15.95-1 24h-11z"/><path fill="#896839" d="M386 193h12v23h-12z"/><path fill="#050302" d="M350 157h11v24h-12c-.88-7.71-.88-7.71-1-10l1-1c.23-2.18.41-4.37.56-6.56.09-1.2.17-2.4.26-3.63z"/><path fill="#d89277" d="M389.504 408.902c.5.01.5.01 3.06.04 1.01 0 2.02.01 3.06.02.4.01.4.01 2.38.04v1h-6v47h-2l-2-4-1 5h-1q-.045-10.23-.06-20.46c0-2.32-.01-4.64-.02-6.96-.01-3.33-.02-6.66-.02-9.98-.01-1.05-.01-2.09-.02-3.17v-5.49c.18-2.98.62-2.92 3.62-3.04"/><path fill="#927042" d="M338 361h11v24h-12c-.12-8.05.35-15.98 1-24"/><path fill="#745039" d="M699 687h23v11c-7.72.92-15.22 1.08-23 1z"/><path fill="#677854" d="M217 916h24v11h-24z"/><path fill="#e6c68b" d="M374 867h11v24h-11z"/><path fill="#75503a" d="M675 675h24v11h-24z"/><path fill="#050200" d="M639 470h11v24h-11z"/><path fill="#795832" d="M699 458h11v24h-11z"/><path fill="#cda96f" d="M699 277h11v24h-11z"/><path fill="#c8a674" d="M338 205h11v24h-11z"/><path fill="#ddbc83" d="M687 181h11v24h-11z"/><path fill="#050201" d="M699 181h11v24h-11z"/><path fill="#040201" d="M338 181h11v24h-11z"/><path fill="#020000" d="M687 157h11v23c-3 1-3 1-11 1z"/><path fill="#cba772" d="m350 181 11 1c1.05 7.85.8 15.13 0 23h-11z"/><path fill="#4b2c1c" d="M699 675h23v12c-3.79-.16-3.79-.16-23-1z"/><path fill="#010201" d="M807 687h23v11h-23z"/><path fill="#745039" d="M699 663h23v11h-23z"/><path fill="#030100" d="M711 205h12c-.14 3.65-.29 7.29-.44 10.94l-.12 3.15-.12 3c-.04.92-.08 1.83-.11 2.78C722 227 722 227 721 228h-10z"/><path fill="#e2c186" d="M374 193h11v23h-11z"/><path fill="#a07164" d="M422 542h11v12h-1v-10l-9-1c.11 9.83.22 19.65.34 29.48.05 4.57.11 9.13.16 13.7l.18 15.9.03 2.65c.12 9.51.29 19 .62 28.51.03.81.05 1.62.08 2.46.13 3.82.27 7.65.44 11.47l.15 4.07c.05 1.17.09 2.33.14 3.54-.15 3.41-.91 6.05-2.14 9.22-.37.07-.37.07-2.25.44-2.27.46-4.51.98-6.75 1.56l-1 6 9 1v1h-12v-11h12z"/><path fill="#020101" d="M727.945 482.805c2.02.07 4.04.13 6.05.2 1.07 7.68 1.1 15.24 1 23h-11q-.075-5.19-.12-10.38c-.02-.98-.03-1.97-.05-2.98-.01-.95-.01-1.89-.02-2.86l-.03-2.63c.3-2.92 1.2-4.05 4.17-4.35"/><path fill="#3d2922" d="M482 891h48v5h-48z"/><path fill="#6b5950" d="M735 602h1v36c1.82-.16 1.82-.16 11-1 1 1 1 1 1.1 3.72-.03 3.1-.07 6.19-.1 9.28h23v1h-24v-12h-12v11h-12v-12h12z"/><path fill="#825d3c" d="M373 253h1v144h12v14h-1v-13h-11v24h-13v-1h12v-23h-12v-1h12z"/><path fill="#cdb78a" d="M745 373h2v73l-12-1v-1h10c-.16-1.19-.32-2.38-.49-3.61-.72-6.52-.65-13.03-.64-19.58 0-1.35 0-2.7-.01-4.05 0-2.82 0-5.63.01-8.45.01-3.61 0-7.22 0-10.83-.01-2.79-.01-5.57 0-8.35 0-1.98-.01-3.97-.01-5.95 0-1.19.01-2.38.01-3.61v-3.19C744 374 744 374 745 373"/><path fill="#b48876" d="M602 542h12v84h-1v-72h-11z"/><path fill="#c2b7a1" d="M536 783h6v24h-60v-1h48c.16-.5.16-.5 1-3v2l4-1z"/><path fill="#c29e65" d="M674 217h1v60h-1v-24h-12v-12h12z"/><path fill="#9a815f" d="M709 518h2v84h-12v-12l2 1c.41 2.07.41 2.07.62 4.56.08.83.15 1.66.23 2.51.05.63.1 1.27.15 1.93 1.67.04 3.33.04 5 0 1.97-1.97 1.18-5.85 1.21-8.55 0-.39 0-.39.03-2.39.03-2.63.05-5.25.08-7.88l.06-5.44.15-14.36c.05-4.88.11-9.76.16-14.64.11-9.58.21-19.16.31-28.74"/><path fill="#3a291e" d="M470 735h1v10c1.47-.04 2.94-.07 4.45-.11 5.47-.13 10.94-.25 16.42-.37 2.36-.06 4.73-.11 7.09-.17 3.41-.08 6.82-.16 10.22-.23.53-.01.53-.01 3.18-.08 5.25-.11 10.29.06 15.51.73 3.62.39 7.24.35 10.88.33.79 0 1.58-.01 2.39-.01 2.47 0 4.95-.01 7.42-.03 1.7 0 3.39-.01 5.08-.01 4.12-.01 8.24-.03 12.36-.05v2h-96z"/><path fill="#999898" d="M759 369h1c.02 10.02.04 20.04.05 30.07.01 4.65.01 9.3.03 13.96.01 4.48.01 8.97.01 13.46.01 1.71.01 3.43.02 5.14v7.19c.01.71.01 1.43.01 2.17-.01 4.9-.01 4.9-1.12 6.01h-11v35h-1v-36c3.87-.97 7.04-1.08 11-1 0-.75 0-1.49-.01-2.26-.02-7.09-.03-14.18-.04-21.27-.01-3.64-.01-7.28-.03-10.92-.01-3.53-.01-7.06-.01-10.59-.01-1.97-.02-3.95-.02-5.92 0-8.4.4-16.67 1.11-25.04"/><path fill="#83715d" d="M722 574h1v27h12v1h-12v12h-12v-12h11z"/><path fill="#955941" d="M674 385h1v13h-24v23h-1q-.045-5.655-.06-11.31l-.03-3.19c-.02-6.9.37-13.64 1.09-20.5h11v11h12z"/><path fill="#b29b7a" d="M254 567h11v1h-10c0 .53 0 .53.02 3.2.01 3.9.03 7.8.03 11.7l.03 5.07c.01 2.43.01 4.85.02 7.28 0 .76.01 1.52.01 2.3 0 1.82-.05 3.63-.11 5.45l-1 1h-11v46h-2v-48h-12v-1c.77-.06 1.54-.12 2.34-.18 1-.09 2-.17 3.04-.26.99-.08 1.99-.16 3.02-.24C240 600 240 600 242 599v3h12z"/><path fill="#916f41" d="M361 506h13v36h-1l-1-23c-3.87-.97-7.04-1.08-11-1z"/><path fill="#9a7849" d="M674 482h1v36h-1v-12h-12v-12h12z"/><path fill="#e1a17f" d="M422 349h48v12h-12v-11h-36z"/><path fill="#2c2f2b" d="M795 663h1v11l5.44-.06c1.85-.02 3.71-.01 5.56.06 1 1 1 1 1.13 3.21 0 .9 0 1.8-.01 2.73.01.89.01 1.79.01 2.71C808 685 808 685 807 687h-12z"/><path fill="#e6a080" d="M554 397c8.08-.12 15.96.14 24 1v11h12v1h-24v-12h-12z"/><path fill="#947544" d="M386 952h12v36h-1v-24h-11z"/><path fill="#9d7948" d="M674 325h1v12h12v12h-13z"/><path fill="#b8955e" d="M349 313h12v12h-11v24h-1z"/><path fill="#c4a880" d="M325 229h12v2c-1.03.1-1.03.1-6.15.59-.61.13-1.22.27-1.85.41-1.5 3-1.17 5.79-1.21 9.12l-.09 4.33c-.04 2.28-.08 4.56-.1 6.84-.03 2.19-.07 4.39-.12 6.59l-.06 3.99c-.14 1.03-.28 2.06-.42 3.13-3 2-3 2-12 1v57h-1v-58h11z"/><path fill="#d99878" d="M590 445c7 0 7 0 12 1v12h-11v12h-1z"/><path fill="#ac6e5b" d="M554 578h24v7l-22-1v6h-2z"/><path fill="#7b5b33" d="M699 385h24v1h-12v11c-1.98.17-1.98.17-12 1z"/><path fill="#304229" d="M590 975h12v13h-12z"/><path fill="#35492c" d="M578 939h12v13h-12z"/><path fill="#d89075" d="M446 699h12v11h12v1h-24z"/><path fill="#422e27" d="M614 674h24v12h-12v-11h-12z"/><path fill="#b69461" d="M638 217h1v12h11v12h-12z"/><path fill="#a7814b" d="M662 169h13v12h-13z"/><path fill="#dcbb80" d="M614 132h12v13h-12z"/><path fill="#674827" d="M530 132h12v13h-12z"/><path fill="#917757" d="M277 903h2c1.13 7.26 1.16 14.43 1.17 21.77 0 1.31 0 2.62.01 3.97 0 2.76.01 5.52.01 8.28 0 3.53.01 7.06.03 10.6.01 3.38.01 6.76.01 10.15.01 1.26.01 2.53.02 3.83 0 1.18 0 2.35-.01 3.57 0 1.03.01 2.06.01 3.12-.25 2.74-.85 4.38-2.25 6.71h-1z"/><path fill="#d1857a" d="M561 482h17v12h-12v-11h-5z"/><path fill="#edb18d" d="M471 276c3.68.18 7.33.62 11 1v12h-12c-.1-9.28-.1-9.28 0-12z"/><path fill="#c09d66" d="M313 590h12v12c-1.98.16-1.98.16-12 1z"/><path fill="#e6a080" d="M458 398h12v24h-1v-13h-11z"/><path fill="#050402" d="M410 1012h12v12h-12z"/><path fill="#79582e" d="M277 1012h12v12h-12z"/><path fill="#304028" d="M566 1000h12v12h-12z"/><path fill="#a18055" d="M265 988h12v12h-12z"/><path fill="#76552b" d="M289 988h12v12h-12z"/><path fill="#304329" d="M879 988h12v12h-12z"/><path fill="#33472c" d="M578 988h12v12h-12z"/><path fill="#815c2f" d="M374 988h12v12h-12z"/><path fill="#30422a" d="M590 952h12v12h-12z"/><path fill="#687a56" d="M831 927h12v12h-12z"/><path fill="#6c7d59" d="M759 927h12v12h-12z"/><path fill="#6b7b57" d="M723 927h12v12h-12z"/><path fill="#6b7c57" d="M699 927h12v12h-12z"/><path fill="#6a7b56" d="M675 927h12v12h-12z"/><path fill="#697956" d="M650 927h12v12h-12z"/><path fill="#536243" d="M711 927h12v12h-12z"/><path fill="#576746" d="M687 927h12v12h-12z"/><path fill="#697a56" d="M626 927h12v12h-12z"/><path fill="#32432a" d="M566 927h12v12h-12z"/><path fill="#b58f59" d="M301 891h12v12h-12z"/><path fill="#2f4128" d="M566 879h12v12h-12z"/><path fill="#ab8853" d="M386 879h12v12h-12z"/><path fill="#32462a" d="M578 867h12v12h-12z"/><path fill="#2f1e18" d="M530 855h12v12h-12z"/><path fill="#2e4127" d="M590 855h12v12h-12z"/><path fill="#dab87e" d="M277 831h12v12h-12z"/><path fill="#9b7644" d="M265 831h12v12h-12z"/><path fill="#79552a" d="M289 831h12v12h-12z"/><path fill="#8a693b" d="M398 819h12v12h-12z"/><path fill="#8d6c43" d="M241 819h12v12h-12z"/><path fill="#887553" d="M578 795h12v12h-12z"/><path fill="#3b4c31" d="M867 783h12v12h-12z"/><path fill="#714f3b" d="M735 783h12v12h-12z"/><path fill="#4a2e1e" d="M735 771h12v12h-12z"/><path fill="#2c402c" d="M903 759h12v12h-12z"/><path fill="#4c5d3b" d="M879 759h12v12h-12z"/><path fill="#030301" d="M446 759h12v12h-12z"/><path fill="#4c3223" d="M398 759h12v12h-12z"/><path fill="#5e402f" d="M422 747h12v12h-12z"/><path fill="#010100" d="M903 747h12v12h-12z"/><path fill="#030300" d="M434 747h12v12h-12z"/><path fill="#6e4c37" d="M398 747h12v12h-12z"/><path fill="#435638" d="M157 747h12v12h-12z"/><path fill="#3b2a24" d="M434 735h12v12h-12z"/><path fill="#4e2d1b" d="M723 735h12v12h-12z"/><path fill="#020000" d="M602 735h12v12h-12z"/><path fill="#e6ddc4" d="M590 723h12v12h-12z"/><path fill="#e8dec8" d="M434 723h12v12h-12z"/><path fill="#714d37" d="M398 723h12v12h-12z"/><path fill="#3f5034" d="M145 723h12v12h-12z"/><path fill="#e6ddc8" d="M602 711h12v12h-12z"/><path fill="#472c1d" d="M398 711h12v12h-12z"/><path fill="#502e1b" d="M723 711h12v12h-12z"/><path fill="#402f2a" d="M590 711h12v12h-12z"/><path fill="#ded3bc" d="M422 711h12v12h-12z"/><path fill="#070202" d="M590 699h12v12h-12z"/><path fill="#0a0201" d="M434 699h12v12h-12z"/><path fill="#c4a06a" d="M313 699h12v12h-12z"/><path fill="#000100" d="M133 699h12v12h-12z"/><path fill="#060100" d="M602 687h12v12h-12z"/><path fill="#492b1c" d="M723 687h12v12h-12z"/><path fill="#d79a80" d="M590 687h12v12h-12z"/><path fill="#d38d71" d="M602 675h12v12h-12z"/><path fill="#b89560" d="M337 663h12v12h-12z"/><path fill="#4f2f1c" d="M723 663h12v12h-12z"/><path fill="#75503b" d="M723 651h12v12h-12z"/><path fill="#79523a" d="M662 638h12v12h-12z"/><path fill="#79513a" d="M675 626h12v12h-12z"/><path fill="#b8935c" d="M301 626h12v12h-12z"/><path fill="#bb9761" d="M349 626h12v12h-12z"/><path fill="#322116" d="M699 614h12v12h-12z"/><path fill="#734f38" d="M662 614h12v12h-12z"/><path fill="#785139" d="M650 602h12v12h-12z"/><path fill="#da9275" d="M554 602h12v12h-12z"/><path fill="#d78f73" d="M566 590h12v12h-12z"/><path fill="#060200" d="M662 578h12v12h-12z"/><path fill="#040100" d="M650 566h12v12h-12z"/><path fill="#b56c55" d="M578 566h12v12h-12z"/><path fill="#0a0100" d="M578 554h12v12h-12z"/><path fill="#0a0200" d="M446 554h12v12h-12z"/><path fill="#ad6c57" d="M566 554h12v12h-12z"/><path fill="#d89577" d="M554 554h12v12h-12z"/><path fill="#ae6955" d="M458 554h12v12h-12z"/><path fill="#0b0200" d="M590 542h12v12h-12z"/><path fill="#0a0100" d="M434 542h12v12h-12z"/><path fill="#b2725e" d="M578 542h12v12h-12z"/><path fill="#dd997b" d="M566 542h12v12h-12z"/><path fill="#df9a7b" d="M458 542h12v12h-12z"/><path fill="#aa6c57" d="M446 542h12v12h-12z"/><path fill="#483928" d="M398 518h12v109h-1c-.8-35.67-1.14-71.32-1-107l-10-1z"/><path fill="#dc9575" d="M578 530h12v12h-12zm-132 0h12v12h-12z"/><path fill="#b0664e" d="M434 530h12v12h-12z"/><path fill="#7d5f35" d="M650 518h12v12h-12z"/><path fill="#dc9777" d="M590 518h12v12h-12z"/><path fill="#d7906f" d="M434 518h12v12h-12z"/><path fill="#d3b17b" d="M662 506h12v12h-12z"/><path fill="#d58f71" d="M422 506h12v12h-12z"/><path fill="#b36550" d="M410 506h12v12h-12z"/><path fill="#b16753" d="M614 506h12v12h-12z"/><path fill="#db9677" d="M602 506h12v12h-12z"/><path fill="#894943" d="M470 482h12v12h-12z"/><path fill="#cd8176" d="M458 482h12v12h-12z"/><path fill="#b6755e" d="M398 482h12v12h-12z"/><path fill="#b5765f" d="M626 482h12v12h-12z"/><path fill="#d2766d" d="M578 470h12v12h-12z"/><path fill="#d07c71" d="M446 470h12v12h-12z"/><path fill="#140501" d="M566 470h12v12h-12z"/><path fill="#110503" d="M458 470h12v12h-12z"/><path fill="#8e6c40" d="M675 470h12v12h-12z"/><path fill="#e09c7b" d="M602 458h12v12h-12z"/><path fill="#0d0200" d="M578 458h12v12h-12z"/><path fill="#050100" d="M446 458h12v12h-12z"/><path fill="#ba725a" d="M638 458h12v12h-12z"/><path fill="#b66a53" d="M386 458h12v12h-12z"/><path fill="#d58f71" d="M530 434h12v12h-12z"/><path fill="#c07b61" d="M494 434h12v12h-12z"/><path fill="#a76651" d="M422 434h12v12h-12z"/><path fill="#c5a36c" d="M325 434h12v12h-12z"/><path fill="#bd9a60" d="M301 434h12v12h-12z"/><path fill="#eca787" d="M578 422h12v12h-12z"/><path fill="#ab6952" d="M590 422h12v12h-12z"/><path fill="#e8a685" d="M446 422h12v12h-12z"/><path fill="#b26854" d="M434 422h12v12h-12z"/><path fill="#b06953" d="M578 410h12v12h-12z"/><path fill="#a66651" d="M446 410h12v12h-12z"/><path fill="#debc80" d="M723 361h12v12h-12z"/><path fill="#b18f58" d="M687 349h12v12h-12z"/><path fill="#ba965d" d="M337 349h12v12h-12z"/><path fill="#be9b62" d="M325 337h12v12h-12z"/><path fill="#d9bb83" d="M735 337h12v12h-12z"/><path fill="#b08e5e" d="M735 325h12v12h-12z"/><path fill="#0b0301" d="M554 325h12v12h-12z"/><path fill="#0a0301" d="M470 325h12v12h-12z"/><path fill="#dfbe86" d="M723 325h12v12h-12z"/><path fill="#080201" d="M614 325h12v12h-12z"/><path fill="#080200" d="M410 325h12v12h-12z"/><path fill="#935845" d="M626 325h12v12h-12z"/><path fill="#834f3f" d="M398 325h12v12h-12z"/><path fill="#dfbf85" d="M711 313h12v12h-12z"/><path fill="#b18859" d="M662 313h12v12h-12z"/><path fill="#9a7544" d="M723 313h12v12h-12z"/><path fill="#8e5847" d="M614 313h12v12h-12z"/><path fill="#9d5d48" d="M410 313h12v12h-12z"/><path fill="#d99074" d="M542 301h12v12h-12z"/><path fill="#885634" d="M626 289h12v12h-12z"/><path fill="#895836" d="M398 289h12v12h-12z"/><path fill="#cc8a6f" d="M590 289h12v12h-12z"/><path fill="#c29e67" d="M675 277h12v12h-12z"/><path fill="#cf876a" d="M614 217h12v12h-12z"/><path fill="#bd795f" d="M398 217h12v12h-12z"/><path fill="#a07c4c" d="M626 205h12v12h-12z"/><path fill="#cc876d" d="M410 205h12v12h-12z"/><path fill="#c09b63" d="M662 205h12v12h-12z"/><path fill="#eba480" d="M422 205h12v12h-12z"/><path fill="#c88066" d="M422 193h12v12h-12z"/><path fill="#e7a282" d="M434 193h12v12h-12z"/><path fill="#876132" d="M361 193h12v12h-12z"/><path fill="#cc836a" d="M434 181h12v12h-12z"/><path fill="#916d40" d="M614 181h12v12h-12z"/><path fill="#8a683b" d="M398 181h12v12h-12z"/><path fill="#dfbf89" d="M386 181h12v12h-12z"/><path fill="#a17b47" d="M602 169h12v12h-12z"/><path fill="#8e6b3e" d="M410 169h12v12h-12z"/><path fill="#845f32" d="M638 169h12v12h-12z"/><path fill="#d8b47a" d="M398 169h12v12h-12z"/><path fill="#e0c085" d="M638 157h12v12h-12z"/><path fill="#845e2f" d="M626 157h12v12h-12z"/><path fill="#a48250" d="M590 157h12v12h-12z"/><path fill="#bb7e63" d="M494 157h12v12h-12z"/><path fill="#795529" d="M386 157h12v12h-12z"/><path fill="#090704" d="M675 145h12v12h-12z"/><path fill="#7d582e" d="M614 145h12v12h-12z"/><path fill="#be9b65" d="M602 145h12v12h-12z"/><path fill="#e1c087" d="M650 133h12v12h-12z"/><path fill="#96703e" d="M614 120h12v12h-12z"/><path fill="#d8b57e" d="M602 120h12v12h-12z"/><path fill="#946f3e" d="M602 108h12v12h-12z"/><path fill="#947248" d="M506 108h12v12h-12z"/><path fill="#060402" d="M398 108h12v12h-12z"/><path fill="#a78350" d="M614 96h12v12h-12z"/><path fill="#a07b48" d="M578 96h12v12h-12z"/><path fill="#957347" d="M482 96h12v12h-12z"/><path fill="#b4905e" d="M530 84h12v12h-12z"/><path fill="#010000" d="M614 84h12v12h-12z"/><path fill="#be9b65" d="M687 313c8.5-.1 8.5-.1 11 0 1 1 1 1 1.1 3.5-.02 1.42-.02 1.42-.1 8.5h-12z"/><path fill="#8d4a47" d="M554 482c4.28-.08 7.76.15 12 1v11h-12z"/><path fill="#88857f" d="m687 153 1 3c.39-.01.39-.01 2.37-.04 1.01 0 2.02-.01 3.07-.02 1.01-.01 2.02-.03 3.06-.04 2.5.1 2.5.1 3.5 1.1.09 1.63.11 3.27.1 4.91-.01.99-.01 1.98-.01 3l-.03 3.15c0 1.05-.01 2.09-.01 3.17-.01 2.59-.03 5.18-.05 7.77l11 1c.85 3.41 1.07 5.38.88 8.77-.05.89-.1 1.77-.15 2.69s-.11 1.84-.17 2.79c-.05.94-.1 1.87-.16 2.84-.13 2.3-.26 4.61-.4 6.91h12v1h-13v-24h-11v24h-1v-24l-3-1h3v-23h-11z"/><path fill="#e19d7c" d="M410 482h12v11c-1.98.17-1.98.17-12 1z"/><path fill="#dcbb87" d="M270 1010h2v2h4v12h-11v-12h5z"/><path fill="#f0b794" d="M593.504 433.902c2.83.03 5.66.07 8.5.1v12l-12-1c-.1-7.72-.1-7.72 0-10 1-1 1-1 3.5-1.1"/><path fill="#c5b9a1" d="M535 916h6v22h-8l2-1z"/><path fill="#bf9c64" d="M313 361h12l-1 12h-11z"/><path fill="#0a0706" d="M397 120v12h-11v-12c8.75-1.12 8.75-1.12 11 0"/><path fill="#35221c" d="M530 940h12v11h-12z"/><path fill="#687953" d="M795 928h12v11h-12z"/><path fill="#745038" d="M410 735h11v12h-11z"/><path fill="#4b2e1e" d="M410 723h11v12h-11z"/><path fill="#020000" d="M410 711h11v12h-11z"/><path fill="#e6c68d" d="M614 169h12v11h-12z"/><path fill="#cca972" d="M362 169h11v12h-11z"/><path fill="#ceaa72" d="M373 157h12v11h-12z"/><path fill="#c19c62" d="M650 145h12v11h-12z"/><path fill="#7e582b" d="M398 145h11v12h-11z"/><path fill="#080502" d="M362 145h11v12h-11z"/><path fill="#caa771" d="M398 132h11v12h-11z"/><path fill="#967240" d="M627 132h11v12h-11z"/><path fill="#dbb980" d="M638 121h12v11h-12z"/><path fill="#c8a26a" d="M410 120h11v12h-11z"/><path fill="#ba9760" d="M699 301c7.71-.1 7.71-.1 10 0 1 1 1 1 1.1 3.5-.02 1.42-.02 1.42-.1 8.5h-11z"/><path fill="#ceab71" d="M699 205h12v24h-12v-1h7v-21l-7-1z"/><path fill="#fbebdb" d="M507 409c8.75-.12 8.75-.12 11 1v11h-11z"/><path fill="#c4a87f" d="M277 470h12c-.33.5-.33.5-2 3l-7-1-1 47h-2z"/><path fill="#623f29" d="M676 411h10c1.23 3.69.64 6.21 0 10l-10 1v12h-1q-.045-5.19-.06-10.38l-.03-2.98c0-.94 0-1.88-.01-2.85 0-.87-.01-1.74-.01-2.64C675 413 675 413 676 411"/><path fill="#565250" d="M723 482q2.97-.045 5.94-.06c1.1-.01 2.2-.03 3.34-.04 2.72.1 2.72.1 3.72 1.1.1 1.7.13 3.4.13 5.09 0 1.03.01 2.06.01 3.12-.01 1.09-.01 2.17-.02 3.29.01 1.08.01 2.17.02 3.29 0 1.03-.01 2.06-.01 3.12v2.88C736 506 736 506 735 507h-11l-1 36h-1c-.11-20.36-.13-40.66 1-61m1 3c-.23 2.15-.23 2.15-.2 4.79.01.94.02 1.88.02 2.85l.06 2.98c0 1 .01 1.99.02 3.01.03 2.46.06 4.91.1 7.37h11c.1-7.75.06-15.31-1-23-7.75-.25-7.75-.25-10 2"/><path fill="#010000" d="M650 108v12h-11v-11c1.44-.17 2.89-.33 4.38-.5.81-.09 1.62-.19 2.46-.28C648 108 648 108 650 108"/><path fill="#d2af74" d="m386 144 11 1v11h-11z"/><path fill="#da977c" d="M554 711h11v11h-11z"/><path fill="#78513a" d="M723 675h11v11h-11z"/><path fill="#e3c488" d="M603 157h11v11h-11z"/><path fill="#debf87" d="M410 157h11v11h-11z"/><path fill="#e6c78c" d="M627 145h11v11h-11z"/><path fill="#010000" d="M663 133h11v11h-11zm-289 0h11v11h-11z"/><path fill="#070302" d="M410 97h11v11h-11z"/><path fill="#c6bba3" d="M536 868h5v22h-11v-1h6c-.08-.59-.17-1.19-.25-1.8-.81-6.56-.56-12.65.25-19.2m1 2v2h2v-2z"/><path fill="#aa916f" d="M253 831h1l1 34h11c1 1 1 1 1.11 3.41 0 1.04-.01 2.08-.01 3.16-.01 1.12-.01 2.25-.01 3.4l-.03 3.59c0 1.19-.01 2.38-.01 3.6-.01 2.95-.03 5.89-.05 8.84h-2v-24h-12z"/><path fill="#423321" d="M361 434h13v36l-3-2c-.27-2.55-.35-4.86-.29-7.41 0-.73.01-1.46.01-2.22q.03-3.495.09-6.99c.02-1.59.03-3.17.04-4.75.04-3.88.09-7.75.15-11.63-.59.17-1.19.35-1.8.53-2.92.62-5.3.06-8.2-.53z"/><path fill="#c2b69c" d="M535 952h5v21l-5 1z"/><path fill="#cac9c5" d="M567 326h10v11l-10-1z"/><path fill="#af715f" d="M423 623h1c.19 4.87.37 9.75.54 14.62l.18 4.97c.1 2.39.18 4.78.26 7.17l.09 2.22c.13 4.44-.41 7.91-2.07 12.02-.74.14-1.49.29-2.25.44-2.27.46-4.51.98-6.75 1.56-.17.99-.17.99-1 6l9 1v1h-12v-11c1.98-.16 1.98-.16 12-1z"/><path fill="#c4c3c1" d="M423 326h10v10h-10z"/><path fill="#4b3929" d="M626 518h1c.95 4 1.12 7.72 1.1 11.83-.01 1.29-.01 2.59-.01 3.92l-.03 4.06c0 1.38-.01 2.75-.01 4.13-.01 3.35-.03 6.71-.05 10.06.88-.01 1.77-.01 2.67-.02.59 0 .59 0 3.53-.01.57 0 .57 0 3.49-.02 3.85.06 7.5.45 11.31 1.05v1h-23z"/><path fill="#c5c4c2" d="M459 326h10v10h-10z"/><path fill="#b59c78" d="M711 229h12v36h-2v-34c-1.49.16-1.49.16-9 1z"/><path fill="#3c2b24" d="M602 747h12v1c-.55.07-.55.07-3.31.44C607 749 607 749 604 750l-1 8c.79-.17 1.59-.33 2.4-.51 4.44-.6 8.69-.51 13.15-.37.46.01.46.01 2.74.07 2.86.08 5.72.16 8.59.25 1.94.05 3.89.1 5.84.16 4.76.12 9.52.26 14.28.4v1h-48z"/><path fill="#7d5545" d="M373 385h1v12h12v14h-1v-13h-11v24h-13v-1h12v-23h-12v-1h12z"/><path fill="#190401" d="M566 313h48v12h-12v-1h11v-10c-6.25.12-12.5.24-18.74.37-2.13.05-4.26.09-6.39.13-3.05.05-6.1.12-9.15.18-.95.02-1.91.04-2.9.05l-2.67.06c-.78.02-1.56.04-2.36.05C569 315 569 315 568 316c-.23 1.51-.41 3.04-.56 4.56-.09.83-.17 1.66-.26 2.51-.06.63-.12 1.27-.18 1.93h-1z"/><path fill="#b08656" d="m717.563 603.938 3.44.06v9l-8 1q-.045-2.22-.06-4.44c-.02-.82-.03-1.64-.04-2.49.17-3.6.92-3.06 4.66-3.13"/><path fill="#1c2919" d="M843 855h6v11h5v1h-11z"/><path fill="#c97d66" d="m608 543 3 1 1 10h-8v-9z"/><path fill="#d29578" d="M534 169h32v12l-4-1h3l-1-8c-3.24-1.08-5.58-1.11-8.98-1.1-.58 0-.58 0-3.53.01-.6.01-.6.01-3.68.03-.61 0-.61 0-3.71.01-3.04.01-6.07.03-9.1.05z"/><path fill="#190300" d="M422 313h48v12h-1v-11c-6.25.12-12.5.24-18.74.37-2.13.05-4.26.09-6.39.13-3.05.05-6.1.12-9.15.18-.95.02-1.91.04-2.9.05l-2.67.06c-.78.02-1.56.04-2.36.05C425 315 425 315 424 316c-.23 1.35-.41 2.7-.56 4.06-.15 1.3-.29 2.6-.44 3.94h-1z"/><path fill="#756b5e" d="M421 84h1v12h24v1h-24v11h-1V97h-11v11h-1V96h12z"/><path fill="#ad7a69" d="M602 542h12v12h-2l-1-10-6 1-1 9h-2z"/><path fill="#7d6548" d="M386 795h12v24h-2v-22h-10z"/><path fill="#b09873" d="M721 482h2v24h-12c3-2 3-2 10-2z"/><path fill="#493429" d="M745 795h2v12h-24v-2h22z"/><path fill="#413027" d="M699 784h2v9h21l1 2h-24z"/><path fill="#463727" d="M662 434h9v1l-6 1c-.55 5.67-1.07 11.3-1 17s-.45 11.33-1 17h-1z"/><path fill="#30221c" d="M626 566h1c.03.71.05 1.41.08 2.14.11 3.2.23 6.41.36 9.61l.12 3.37.12 3.24c.04.98.08 1.97.11 2.98.21 2.66.21 2.66.79 4.95q.21.84.42 1.71l-1 1c-.09 1.42-.11 2.84-.1 4.25.01.86.01 1.71.01 2.59l.03 2.72c0 .9.01 1.81.01 2.73.01 2.24.03 4.47.05 6.71h-2z"/><path fill="#c0a985" d="M699 205h12v24l-3-1 1-22h-10z"/><path fill="#273522" d="M849 855h5v11h-5c-1.12-7.62-1.12-7.62 0-11"/><path fill="#7f4c49" d="M554 482h7v5l-5 1v2l2 1v3h-4z"/><path fill="#bd9281" d="M446 699h2v10l4.25-.06c5.95-.01 11.83.49 17.75 1.06v1h-24z"/><path fill="#896f4a" d="M577 72v2c-3 .92-5.17.99-8.25.5-3.61-.47-6.62-.27-10.22.31-6.15.46-12.4-.33-18.53-.81v-1c12.35-.98 24.62-1.12 37-1"/><path fill="#422f25" d="M434 711h4v11h7v1h-11z"/><path fill="#946352" d="M410 313h1v10h9v-10h2v12h-12z"/><path fill="#b7925f" d="M397 133h1v11h11v1h-11v12h-12v-1h11v-11h-6v-1h6z"/><path fill="#c38178" d="M446 470h12v12h-8v-1l5-1 1-8h-10z"/><path fill="#493429" d="M650 759c3.32 4.42 3.3 5.72 3 11 .51-.08.51-.08 3.06-.5 3.7-.47 7.22-.58 10.94-.5l1 2h-18z"/><path fill="#9e6759" d="M410 506h2l1 8c.56.14.56.14 3.38.88C420 516 420 516 422 518h-12z"/><path fill="#1e0802" d="M446 458h12v12h-12zm1 3c-.2 1.95-.2 1.95-.12 4.12L447 469h10v-10c-7.75-.25-7.75-.25-10 2"/><path fill="#9d6857" d="M434 530h2v6l2 1h-2l1 2c2.07.41 2.07.41 4.56.62.83.08 1.66.15 2.51.23.63.05 1.27.1 1.93.15v2h-12z"/><path fill="#a26e60" d="M624 506h2v12h-12v-2c3.69-1.23 6.21-.64 10 0z"/><path fill="#a66e5d" d="M386 458h2l1 9 9 1v2h-12z"/><path fill="#9e8564" d="M361 157h12l-1 3-9-1v10h-2z"/><path fill="#433025" d="M626 711h12v1l-1.93.18c-.83.09-1.66.17-2.51.26l-2.49.24C629 713 629 713 628 714c-.03 3.83.03 7.65.13 11.47l.03 2.43c.01.37.01.37.05 2.24C628 732 628 732 626 734z"/><path fill="#b88874" d="M612 675h2v12h-12v-2h10z"/><path fill="#897153" d="M265 891h2v10h9l1 2h-12z"/><path fill="#a16e5f" d="M578 566h12v1c-1.49.5-1.49.5-9 3l-1 8h-2z"/><path fill="#c37f79" d="M578 470h12c-2 2-2 2-3.95 2.2-2.01-.07-4.03-.13-6.05-.2v10h-2z"/><path fill="#80694b" d="M398 819h12v12c-2.43-3.64-2.16-5.71-2-10h-10z"/><path fill="#d6b882" d="M660 134h2v11h-12v-1h9l-.06-3.88c-.06-3.87-.06-3.87 1.06-6.12"/><path fill="#a97665" d="M649 458h1v12h-12v-2h10z"/><path fill="#c78671" d="M484 324c2.21 3.31 2.22 4.34 2.12 8.19-.01.9-.03 1.8-.05 2.73-.02.69-.05 1.37-.07 2.08h-4v-12z"/><path fill="#a27a48" d="M276 990v10h-4v-9c3-1 3-1 4-1"/><path fill="#865748" d="m626 325 4 1-1 11h-3z"/><path fill="#715024" d="M301 964h9v1l-5 1c-.89 2.66-1.18 4.48-1.32 7.23l-.12 2.43-.12 2.53c-.05.84-.09 1.69-.13 2.56-.11 2.08-.21 4.17-.31 6.25h-1z"/><path fill="#be8770" d="M614 626h12l-1 3c-6.4 1.23-6.4 1.23-9.44.06-.51-.35-1.03-.7-1.56-1.06z"/><path fill="#977f5c" d="M614 96h12v12h-1l-1-9-3.88.06c-3.87.06-3.87.06-6.12-1.06z"/><path fill="#bb9c74" d="M230 773h1v8h11v2h-13z"/><path fill="#ad7867" d="M410 663h2l1 9 9 1v1h-12z"/><path fill="#825752" d="M470 482h12v12h-1l-1-8-4-1v-2l-6 1z"/><path fill="#dabf91" d="M663 145h11v12h-1v-10l-10 1z"/><path fill="#fbd2b8" d="M509.504 360.902c.5.01.5.01 3.06.04 1.01 0 2.02.01 3.06.02.4.01.4.01 2.38.04v1c-.55.07-.55.07-3.32.44-3.68.56-3.68.56-6.68 1.56l-1 7h-1c-.03-1.48-.05-2.96-.07-4.44l-.03-2.5c.14-3.07.52-3.04 3.6-3.16"/><path fill="#616f55" d="M121 735h7v2l-4 1-1 8c-2-2-2-2-2.2-4.16.03-.82.05-1.63.08-2.46 0-.41 0-.41.05-2.48.02-.63.05-1.25.07-1.9"/><path fill="#4b362a" d="M699 784h2v9h5l-2 2h-5z"/><path fill="#b77e6c" d="M602 542c.99.16.99.16 6 1l-3 2c-.51 2.16-.51 2.16-.69 4.62-.03.41-.03.41-.2 2.48-.02.31-.02.31-.11 1.9h-2z"/><path fill="#c3876e" d="M434 181h12v1c-1.49.16-1.49.16-9 1l-2 9h-1z"/><path fill="#e5a489" d="M386 396h1l1 8h2v5l-4 1z"/><path fill="#443126" d="M398 711h11v1l-9 2-1 9h-1z"/><path fill="#caac7c" d="m697 586 2 4h-12l1-3 9 1z"/><path fill="#d9c194" d="m277 976 4 1-2 10h-2z"/><path fill="#7e785a" d="M578 795h12v1l-10 2-1 8h-1z"/><path fill="#3d2a23" d="M584 727h6v4h-7z"/><path fill="#1e0702" d="M590 699h12v1l-1.93.18c-.83.09-1.66.17-2.51.26l-2.49.24C593 701 593 701 592 702c-.23 1.51-.41 3.04-.56 4.56-.09.83-.17 1.66-.26 2.51-.06.63-.12 1.27-.18 1.93h-1z"/><path fill="#9c7f59" d="M410 108h11v2c-3.98 1.05-6.98.84-11 0z"/><path fill="#3f3125" d="M398 518h12v8c-2-3.75-2-3.75-2-6l-10-1z"/><path fill="#c08a77" d="M564 313h1l1 12-7-1 3-2 2 1z"/><path fill="#9a7546" d="M242 819h11v1l-8 1-2 6h-1z"/><path fill="#d4c0b2" d="m460 335 9 1v2h-11z"/><path fill="#e8b796" d="M565 277h1v12h-5l2-1c1.22-3.53 1.5-7.32 2-11"/><path fill="#f3b492" d="M458 706h8l1 3h-9z"/><path fill="#edbd9d" d="M596 339h9c-2.76 2.76-5.21 2.58-9 3z"/><path fill="#c8a271" d="M410 145h12v1h-9v2h-2l-1 2z"/><path fill="#e19b7f" d="M485 566h3v7c-.33.16-.33.16-2 1z"/><path fill="#be876e" d="M386 253h12v1c-.31.02-.31.02-1.86.15-.81.07-1.62.15-2.45.23-.4.03-.4.03-2.43.21C389 255 389 255 386 257z"/><path fill="#3a4835" d="M724 819h9l-1 2c-3.28.95-4.7 1.1-8 0z"/><path fill="#9f5d5a" d="M458 464h2l1 3 5 1v1h-8z"/><path fill="#c7876c" d="M458 171h1v5h2v4l-3 1z"/></svg>